<svg width="49" height="35" viewBox="0 0 49 35" fill="none" xmlns="http://www.w3.org/2000/svg">
<path d="M44.0723 4.87965C41.4891 2.30433 38.3533 1.29806 35.3424 0.820858C32.5593 0.397756 29.7551 0.444713 26.9786 0.960908C23.6304 1.29185 20.3161 2.2017 17.0969 3.67369C14.5932 4.81902 12.1741 6.37336 9.87996 8.31083C8.16167 9.45652 6.51706 10.8538 4.96824 12.4837C2.98591 14.613 0.560842 17.6992 0.925351 21.9085C1.03901 23.0888 1.33047 24.2104 1.77587 25.1814C3.00588 30.8534 9.03277 32.8581 12.4282 33.5765C15.2689 34.1378 18.1373 34.2784 20.995 33.9967C22.3632 33.9111 23.7313 33.7373 25.0911 33.452C28.124 32.9337 31.1282 32.0668 34.079 30.8586C37.2415 29.5463 40.4704 27.8657 43.2617 25.1529C45.4587 23.0237 47.7973 19.8778 48.1867 15.6504C48.6062 11.1403 46.3475 7.14895 44.0723 4.87965ZM2.55149 16.9834C3.20086 15.7665 3.94697 14.6832 4.77184 13.7597C3.45195 15.6141 2.33678 17.8056 1.81581 20.4354C1.69635 21.0264 1.61495 21.6346 1.57281 22.2508C1.3065 20.3368 1.77587 18.4773 2.55149 16.9834ZM3.71659 28.208C4.11296 28.6649 4.52405 29.0899 4.94827 29.4814C4.51053 29.119 4.09589 28.6927 3.70993 28.208H3.71659ZM37.9205 28.1328C37.2182 28.5322 36.5074 28.9109 35.7917 29.2558C36.8803 28.6057 37.9522 27.8908 39.0074 27.111C39.2354 26.945 39.0357 26.4263 38.8093 26.5923C32.8378 30.8199 26.3699 33.0785 19.8116 33.2264C16.6035 33.3057 13.4002 32.8114 10.2644 31.7533C7.81108 30.9052 5.35439 29.3492 3.46526 26.7064C2.91285 25.961 2.43835 25.086 2.05882 24.1129C1.57614 20.1682 3.67998 16.1509 5.47589 13.726C6.31233 12.6028 7.19831 11.5724 8.12732 10.6424C8.82472 10.1029 9.52377 9.60498 10.2012 9.14594C16.2564 4.99636 23.0323 2.04498 29.65 1.52628C32.6776 1.29028 35.7951 1.54963 38.7594 2.58961C41.6871 3.61404 44.6282 5.60064 46.4674 9.45715C50.8615 18.6796 42.4445 25.5627 37.9139 28.1328H37.9205Z" fill="white"/>
</svg>
