<svg width="250" height="67" viewBox="0 0 250 67" fill="none" xmlns="http://www.w3.org/2000/svg">
<path d="M170.986 3.54553C173.546 4.26601 176.106 3.34096 178.624 2.99406C178.257 2.31805 177.233 1.7132 176.593 2.10457C176.161 2.33452 175.681 2.45069 175.196 2.44294C174.711 2.43518 174.236 2.30375 173.811 2.06011C172.735 1.65095 171.6 2.06009 170.499 1.81993C170.039 1.78689 169.577 1.78689 169.117 1.81993C169.731 1.49082 170.226 1.89109 170.491 1.51751C170.986 0.841504 171.199 1.74879 171.575 1.69542C171.643 1.69542 171.754 1.69542 171.788 1.69542C172.914 0.467932 174.024 1.49084 175.133 1.69542C175.85 1.85553 176.542 2.18463 177.165 1.43746C177.608 0.912667 178.291 1.43746 178.598 1.49083C179.75 1.81104 180.809 1.35742 181.901 1.393C182.388 1.45934 182.862 1.60021 183.309 1.81106C184.487 2.19354 185.477 1.3841 186.586 1.35741C186.905 1.30067 187.233 1.34724 187.525 1.49083C188.319 2.02452 189.078 2.22021 189.736 1.41078C189.736 1.59757 188.933 1.72209 189.736 1.96225C190.352 2.12568 191.004 2.05963 191.579 1.77547C192.629 1.33073 193.806 1.67762 194.916 1.46415C194.37 1.77547 194.25 2.16685 194.703 2.67386C195.044 2.91402 195.027 2.62047 195.07 2.407L195.07 2.14016C195.769 2.21132 196.469 2.27359 197.16 2.36253C197.365 2.36253 197.621 2.44257 197.664 2.7361C197.707 3.02963 197.485 3.1008 197.297 3.24311C196.939 3.51885 196.444 3.75013 196.759 4.39055C197.075 5.03098 197.613 4.79972 197.911 4.70188C199.499 4.18598 201.095 4.89756 202.699 4.58624C203.338 4.5423 203.969 4.41376 204.577 4.20374C204.875 4.05253 205.166 3.92801 205.311 4.34607C205.456 4.76412 205.2 4.77303 204.893 4.86198C204.589 5.00082 204.302 5.177 204.039 5.38677C203.621 5.63583 203.373 5.91157 203.851 6.33853C203.903 6.3919 204.022 6.45415 204.014 6.47194C203.382 7.97517 204.509 7.14794 204.944 7.23689L205.268 6.97005L205.635 6.83663C205.943 7.08058 206.307 7.23538 206.691 7.28537C207.074 7.33535 207.464 7.27876 207.82 7.12128L207.086 6.63204C208.457 6.40562 209.839 6.25126 211.225 6.16952C212.795 6.16952 214.323 5.75145 215.919 5.76034C217.626 5.76034 219.427 5.57355 221.142 5.76034C223.045 5.93824 224.803 5.38678 226.629 5.17331C226.544 6.41858 226.544 6.46304 225.401 6.46304C224.428 6.46304 223.54 6.86332 222.593 6.94337C221.411 6.91753 220.232 6.82549 219.06 6.66763C217.225 6.62316 215.398 6.66763 213.572 6.82773C212.983 6.87221 212.394 6.82773 211.805 6.93447C211.362 6.99673 210.696 6.56977 210.585 7.48594C210.585 7.68163 210.337 7.64606 210.209 7.5838C209.262 7.09458 208.323 7.5838 207.393 7.50375C207.76 8.81129 208.665 9.63851 209.774 9.28271C210.542 9.05145 211.302 8.96249 212.07 8.80239C212.36 8.74012 212.48 8.51776 212.736 8.95361C212.894 9.11917 213.101 9.22483 213.324 9.25383C213.546 9.28284 213.772 9.23352 213.965 9.11371C215.083 8.38433 216.329 8.66007 217.515 8.47328C218.198 8.35765 218.889 8.31318 219.58 8.22423C219.743 8.1898 219.912 8.19431 220.073 8.23745C220.234 8.28058 220.383 8.36122 220.51 8.47328C220.933 8.88576 221.467 9.15497 222.039 9.24547C222.612 9.33598 223.198 9.24353 223.719 8.98029C224.12 8.81129 224.487 8.90022 224.351 9.6296C224.18 10.5191 224.65 10.8927 225.563 10.8304C226.16 10.7859 226.894 10.4924 227.355 11.204C225.529 10.5102 223.6 11.204 221.663 10.6258C221.791 11.2573 222.345 11.5153 222.354 12.1024C222.362 12.6894 223.037 12.4937 223.361 12.3959C224.205 12.2311 225.069 12.2041 225.921 12.3159C225.814 12.5184 225.636 12.6697 225.424 12.7378C225.213 12.8058 224.984 12.7853 224.786 12.6805C224.551 12.5853 224.29 12.5886 224.058 12.6898C223.826 12.791 223.64 12.9822 223.54 13.2231C223.515 13.3511 223.522 13.4836 223.56 13.608C223.599 13.7324 223.667 13.8445 223.758 13.9337C223.85 14.0228 223.962 14.0861 224.083 14.1174C224.205 14.1488 224.332 14.1471 224.453 14.1126C224.103 14.5484 223.83 14.0059 223.6 14.2638C223.369 14.5218 222.798 13.8546 222.67 14.4684C222.542 15.0821 223.062 14.8865 223.361 14.9843C223.66 15.0821 223.6 15.2334 223.668 15.429C223.704 15.601 223.773 15.7635 223.871 15.9064C223.969 16.0493 224.095 16.1696 224.24 16.2597C224.385 16.3499 224.546 16.4079 224.713 16.4303C224.881 16.4526 225.051 16.4388 225.213 16.3897C225.986 16.3006 226.766 16.2828 227.543 16.3363C227.935 16.3821 228.331 16.2914 228.669 16.0784C228.604 16.3006 228.463 16.4902 228.273 16.6114C228.082 16.7327 227.856 16.7772 227.637 16.7366C226.513 16.6492 225.386 16.8572 224.359 17.3414C223.847 17.5193 223.617 19.2805 224.009 19.6808C224.248 19.9298 224.385 19.6808 224.581 19.6185C224.859 19.4718 225.162 19.3844 225.473 19.3615C225.784 19.3386 226.096 19.3806 226.391 19.4851C226.783 19.663 227.167 19.8676 227.415 19.1649C227.551 18.7735 228.174 18.5511 228.268 19.2093C228.353 20.0988 228.942 19.9921 229.352 19.8676C230.342 19.5562 230.854 20.419 231.571 20.757C231.963 20.9349 231.468 21.4419 231.494 21.7888C231.494 22.367 230.965 22.3403 230.854 22.3047C229.685 21.9045 228.695 22.9363 227.543 22.7228C227.38 22.7228 226.826 22.7228 226.86 23.1053C226.894 23.4877 227.38 23.4433 227.662 23.3988C228.667 23.3084 229.656 23.0718 230.598 22.6961C229.992 23.3454 230.154 24.2972 229.181 24.0748C229.002 24.0748 228.968 24.3861 229.028 24.5462C229.329 25.2029 229.723 25.8086 230.197 26.343C230.479 26.636 230.712 26.9756 230.888 27.3481C231.144 28.0597 230.35 27.5082 230.291 27.8996C230.291 28.0419 230.043 28.1575 229.941 28.4155C230.863 28.2643 231.878 29.0115 232.714 27.9085C232.86 27.7217 233.628 27.9085 234.02 28.0864C234.95 28.5667 235.983 28.629 236.93 29.0292C237.622 29.3139 237.681 29.8031 237.204 30.1233C236.35 30.6926 236.837 31.3419 236.973 31.9023C237.067 32.267 237.827 32.5338 237.383 32.9963C237.002 33.4538 236.467 33.7406 235.889 33.7969C235.268 33.8369 234.649 33.9171 234.037 34.037C233.841 34.037 233.525 34.037 233.551 34.375C233.576 34.713 233.909 34.7041 234.165 34.6775C234.456 34.6601 234.743 34.6033 235.019 34.5084C235.312 34.3831 235.635 34.3509 235.946 34.4157C236.257 34.4806 236.543 34.6397 236.768 34.8731C236.939 35.0244 237.366 35.0066 237.204 35.4157C237.041 35.8249 236.777 35.6559 236.521 35.6648C235.749 35.5847 234.971 35.5847 234.199 35.6648C233.459 35.7497 232.712 35.7497 231.972 35.6648C231.972 36.75 232.604 36.7055 233.465 36.8656C234.532 37.0613 235.65 36.8656 236.649 37.3192C236.922 37.4437 237.46 37.8707 237.152 38.2087C236.444 39.0982 236.674 39.5163 237.596 39.7742C237.485 40.21 237.075 39.961 236.939 40.2367C237.11 40.3532 237.307 40.4239 237.511 40.4426C237.715 40.4612 237.92 40.4271 238.108 40.3435C239.038 39.6141 239.815 40.4235 240.72 40.4235C240.942 40.4235 241.343 40.4235 241.385 40.8861C241.428 41.3486 241.018 41.3664 240.72 41.4642C240.163 41.616 239.585 41.6612 239.013 41.5976C238.816 41.5976 238.432 41.4642 238.441 41.9267C238.441 42.1936 238.441 42.5049 238.791 42.5494C240.208 42.7184 239.525 43.341 239.064 43.9103L239.013 43.9103L239.064 43.9103C239.175 44.2394 239.653 44.0793 239.73 44.4618C239.373 44.6827 238.977 44.8237 238.565 44.8758C238.154 44.9279 237.737 44.8899 237.34 44.7642C235.983 44.5863 234.891 45.3957 233.679 45.7248C233.568 46.223 234.31 45.7871 234.199 46.2141C234.088 46.641 233.636 46.73 232.936 46.9523C234.848 47.6372 236.632 47.6194 238.211 48.4733L237.468 48.9359C238.322 49.345 239.269 49.1316 239.824 49.9677C238.97 50.448 238.014 49.9677 236.973 50.3857C237.827 50.8305 238.586 50.3413 239.337 50.8661C238.023 50.8661 236.819 50.955 236.009 52.2092C237.229 51.9512 238.373 52.8051 239.644 52.2092C240.344 51.9067 240.686 52.2714 240.796 53.0986C240.796 53.1965 240.882 53.3388 240.95 53.3566C242.555 53.748 243.792 55.2067 245.729 54.8242C246.642 54.6463 247.778 55.3135 248.674 55.9272C249.382 56.4253 249.263 57.048 248.554 57.5016C247.052 58.4711 245.354 58.4356 243.707 58.649C243.497 58.6707 243.294 58.7371 243.111 58.8443C242.927 58.9514 242.767 59.0969 242.64 59.2717C244.441 60.1611 246.455 59.2717 248.187 60.1611C245.405 61.1129 242.503 60.6682 239.653 61.2285L242.503 61.3975C242.196 62.1803 241.445 61.7533 241.095 62.287C241.505 62.8741 242.008 62.7406 242.555 62.5539C242.853 62.4471 243.314 62.3493 243.408 62.8029C243.519 63.4255 242.922 63.3455 242.64 63.3188C240.54 63.0609 238.45 63.6568 236.333 63.4167C235.633 63.3366 234.626 63.1142 234.165 63.4167C233.457 63.897 233.235 63.6034 232.621 63.4167C232.276 63.2431 231.893 63.1712 231.512 63.2088C231.132 63.2464 230.768 63.3922 230.461 63.6302C230.378 63.7108 230.268 63.7556 230.154 63.7556C230.04 63.7556 229.931 63.7108 229.847 63.6302C229.628 63.4182 229.34 63.3004 229.04 63.3004C228.741 63.3004 228.453 63.4182 228.234 63.6301C228.083 63.7368 227.904 63.7939 227.722 63.7939C227.539 63.7939 227.361 63.7368 227.21 63.6301C227.21 63.47 227.21 63.3722 227.005 63.3633L226.851 63.0965C226.638 63.1587 226.322 62.9719 226.228 63.3544C225.556 63.0242 224.79 62.964 224.078 63.1854C224.334 63.7547 224.931 63.2299 225.255 63.728C224.854 64.0482 224.402 63.8347 224.095 63.728C223.428 63.5712 222.739 63.5471 222.064 63.6568C220.748 63.6937 219.432 63.6551 218.121 63.5412C217.873 63.5412 217.609 63.4166 217.583 63.132C217.557 62.8474 217.353 62.8385 217.199 62.9096C215.535 63.7991 213.717 62.9808 212.002 63.4522C211.148 63.6746 210.235 63.3277 209.347 63.3633C207.385 63.4522 205.473 62.9363 203.527 62.8563C202.922 62.7804 202.309 62.8379 201.726 63.0253C202.58 63.6657 203.433 63.3633 204.116 63.5145C202.537 63.3366 200.992 63.977 199.345 63.7102C199.661 63.2921 200.019 62.8207 199.115 62.8652C197.792 62.8652 196.469 62.8652 195.146 62.8652C194.856 62.8652 194.489 62.714 194.489 63.3455C194.489 63.7458 193.841 63.5945 193.824 63.47C193.687 62.5805 193.09 63.0875 192.723 63.0609C190.828 62.9452 188.933 62.9363 187.039 62.7762C186.057 62.6962 185.067 63.5056 184.094 62.7318C184.043 62.6873 183.753 62.9719 183.582 63.1142C183.412 63.2565 183.335 63.4078 183.104 63.3277C181.679 63.1441 180.232 63.3495 178.906 63.9237C178.252 64.1772 177.553 64.2803 176.857 64.2261C173.188 64.1371 169.543 64.6708 165.882 64.7954C163.612 64.8665 161.333 64.9288 159.055 65.0533C157.91 65.2315 156.742 65.131 155.641 64.7598C154.847 64.4307 154.113 65.1156 153.311 65.2045C150.998 65.4625 148.677 65.6226 146.356 65.756C144.574 65.9277 142.782 65.9575 140.996 65.8449C140.234 65.5977 139.446 65.4513 138.649 65.4091C138.564 65.4091 138.461 65.3379 138.367 65.3023C137.898 66.5654 136.78 65.1422 136.183 65.8627C135.705 65.2757 135.278 65.7382 134.775 65.8627C134.163 66.0233 133.519 65.9829 132.931 65.7471C132.486 65.5335 132 65.4297 131.51 65.4436C131.02 65.4574 130.54 65.5887 130.106 65.8272C129.929 65.8821 129.744 65.9002 129.56 65.8805C126.334 65.9695 123.1 66.0673 119.874 66.1296C117.791 66.1296 115.709 66.2719 113.635 66.1296C111.732 65.9873 109.82 66.1296 107.917 65.9695C107.337 65.925 106.748 66.1029 106.167 66.094C104.899 66.1577 103.628 66.0712 102.378 65.836C101.175 65.5247 99.8179 65.8361 98.5036 65.9873C97.1893 66.1385 96.1311 66.2808 94.9448 66.432C94.868 66.432 94.7571 66.432 94.7315 66.432C93.9975 65.329 92.8624 66.1207 91.9407 65.8627C91.5564 65.6837 91.1307 65.6237 90.7146 65.6899C90.2984 65.7562 89.9093 65.9459 89.5938 66.2363C89.447 66.361 89.2677 66.437 89.0791 66.4544C88.8904 66.4718 88.7011 66.43 88.5355 66.3341C87.6821 65.836 86.7263 66.4854 85.9155 65.8627C85.6253 65.6404 85.6083 66.3342 85.2754 66.3253C84.0892 66.2808 82.8858 66.6455 81.7251 66.1296C81.6681 66.0924 81.6139 66.0508 81.563 66.005C80.4365 67.1347 79.3611 65.7738 78.2175 65.9428C76.9559 66.0316 75.6899 66.0316 74.4283 65.9428C74.2406 65.9428 73.9674 65.9428 73.8906 66.0317C73.1055 67.1703 71.9704 66.432 71.245 66.2452C70.5879 66.0502 69.905 65.9661 69.2224 65.9961C67.6179 66.1473 66.1415 65.4802 64.6138 65.4802C63.1941 65.3512 61.7664 65.3512 60.3467 65.4802C60.2016 65.4802 60.0138 65.5692 59.9114 65.4802C59.2713 65.0355 58.7849 64.8754 58.5886 65.9339C58.5374 66.2185 57.9656 66.2274 57.957 66.0762C57.8632 64.8309 56.9841 65.3824 56.5147 65.4625C55.2517 65.6848 54.1081 65.1956 52.9303 64.991C52.1214 64.9106 51.307 64.9106 50.498 64.991C48.0542 64.862 45.6307 64.4594 43.2695 63.7902C43.0817 63.7902 42.8854 63.47 42.7745 63.7902C42.3307 65.0444 41.3834 64.6797 40.658 64.3951C40.1537 64.1681 39.6113 64.0472 39.0621 64.0396C38.5128 64.032 37.9675 64.1377 37.4576 64.3506C36.937 64.573 36.4932 64.742 36.5359 63.8614C36.5359 63.4878 36.3481 63.3989 36.0494 63.3989C35.7507 63.3989 35.4435 63.2921 35.2984 63.6924C34.94 64.7064 34.0695 64.4218 33.5403 64.1727C32.7434 63.7372 31.8748 63.4626 30.98 63.3633C30.2859 63.4486 29.6106 63.6562 28.983 63.977C28.2732 64.3467 27.476 64.4949 26.6873 64.404C26.858 63.7369 27.5407 64.1638 27.9162 63.7813C26.9689 63.3099 25.9533 63.47 25.0316 63.1676C24.9207 63.1676 24.6646 63.1676 24.6476 63.2832C24.3574 64.3684 23.6064 63.8614 23.009 63.808C22.2836 63.7457 21.6776 63.1409 20.8839 63.3366C20.6364 63.3989 20.4231 63.1765 20.4145 62.8207C20.4145 62.3048 19.8171 62.4293 19.7745 62.5183C19.4075 63.4078 18.7077 62.9452 18.2042 62.9096C16.6257 62.9366 15.0523 62.7177 13.5359 62.2603C11.94 61.5932 10.2928 61.5221 8.69691 61.0684C8.30433 60.9528 8.1934 60.6059 8.55184 60.4547C9.14924 60.2234 9.04682 59.7164 9.20897 59.3428C8.92734 58.9603 8.35554 59.5296 8.25313 58.9692C8.18486 58.569 8.78225 58.4711 8.83346 58.3199C9.07242 57.635 10.1819 57.3326 9.68689 56.3719C9.53327 56.0962 9.26871 55.687 8.83346 56.0784C8.78744 56.1084 8.73573 56.1276 8.6819 56.1347C8.62808 56.1418 8.5734 56.1367 8.52165 56.1197C8.4699 56.1027 8.42231 56.0743 8.38213 56.0362C8.34196 55.9982 8.31017 55.9516 8.28894 55.8995C8.26772 55.8475 8.25758 55.7913 8.2592 55.7347C8.26082 55.6782 8.27417 55.6227 8.29834 55.5721C8.32252 55.5215 8.35693 55.4769 8.39922 55.4415C8.4415 55.406 8.49066 55.3806 8.5433 55.3668C8.97001 55.2512 9.71249 55.4469 9.57594 54.7353C9.43939 54.0237 8.72251 54.673 8.29579 54.4328C8.23605 53.8636 9.14922 54.4329 8.98707 53.8725C8.82492 53.3121 8.40674 53.5256 8.05683 53.4989C7.70692 53.4722 7.67279 53.2943 7.66426 53.0364C7.59599 51.9156 6.93031 51.5954 5.9574 51.6043C5.42827 51.6043 5.24904 50.9728 4.75405 50.8571C3.98596 50.6703 4.47241 50.2078 4.45535 49.7542C4.45535 48.7135 3.40562 48.927 2.74848 48.669C2.50952 48.5712 2.24496 49.1227 2.10841 48.669C1.97186 48.2154 2.39004 48.1976 2.67167 48.1798C2.95331 48.162 3.25201 47.7795 3.1496 47.7084C2.73995 47.4148 3.72995 46.979 2.92772 46.6588C1.8524 46.2229 2.33883 44.9865 2.39857 44.2127C2.45831 43.4388 3.43122 43.4477 4.10544 43.5367C4.37197 43.6091 4.65043 43.6204 4.92155 43.5697C5.19266 43.519 5.45 43.4076 5.67577 43.2432C5.11251 42.9852 4.77966 42.4248 4.13958 42.6205C3.91769 41.9979 4.48096 42.3715 4.57484 42.1224C4.66872 41.8733 5.12104 41.4108 4.36148 41.2329C3.66984 41.0082 2.99158 40.7409 2.33031 40.4324C2.26203 40.4324 2.19376 40.3434 2.14255 40.3523C1.65609 40.468 1.56222 40.2456 1.28912 39.6319C1.1355 39.2405 1.28912 39.1871 1.45127 39.3028C1.9292 39.6408 2.47538 39.4006 2.96184 39.6052C3.4483 39.8098 3.9177 39.8009 4.07132 39.1071C4.22494 38.4133 4.80527 38.9825 5.0357 38.6356C6.05129 39.4362 7.1778 39.0092 8.27019 38.9558C8.72251 38.9558 9.34552 38.6801 9.23457 39.6496C9.18337 40.1566 9.64423 39.8898 9.88319 39.9343C9.88319 39.116 10.5574 39.4717 10.8988 39.2849C11.0881 39.211 11.2461 39.0693 11.3446 38.8852C11.443 38.7012 11.4756 38.4866 11.4364 38.2799C11.4228 37.9216 11.2902 37.5795 11.0614 37.3118C10.8326 37.0441 10.5217 36.8675 10.1819 36.8122C9.11737 36.3748 7.9498 36.2879 6.83643 36.5631C6.70159 36.6156 6.5531 36.6156 6.41826 36.5631C5.64163 36.0917 5.65017 36.5631 5.85499 37.2747C5.62456 36.0206 4.65164 36.3852 4.03717 36.1451C3.63372 35.9853 3.19314 35.9574 2.77408 36.065C1.92065 36.3141 1.72438 35.816 1.64757 34.9977C3.60193 35.0955 5.55628 34.9443 7.4509 35.6381C7.74107 35.7448 8.22753 35.9138 8.49209 35.5758C9.05536 34.8464 9.07243 35.2734 9.10657 35.8338C9.10657 36.0739 9.22604 36.0828 9.47354 36.065C10.1445 36.0636 10.7926 35.8111 11.2999 35.3534C11.4544 35.2132 11.575 35.0371 11.6521 34.8394C11.7292 34.6416 11.7606 34.4277 11.7437 34.2149C11.6498 33.7791 11.1121 33.9747 10.7622 33.9214C10.2124 33.8915 9.67871 33.7177 9.21035 33.4161C8.742 33.1146 8.35409 32.6948 8.08244 32.1958C7.76667 31.5998 7.04126 31.244 6.46946 30.737C6.95592 30.5236 7.43383 30.7904 7.89468 30.4969C8.49208 30.1055 8.74811 29.1271 8.08244 28.9225C6.58039 28.4333 5.83793 26.6632 4.15667 26.5298C3.98598 26.5298 3.45683 26.3519 3.65312 25.9338C3.68902 25.8526 3.74392 25.7821 3.81277 25.7288C3.88163 25.6754 3.96224 25.641 4.0472 25.6286C4.13216 25.6162 4.21877 25.6262 4.29903 25.6578C4.37929 25.6894 4.45064 25.7415 4.50655 25.8093C4.83939 26.1829 5.21491 25.9783 5.55628 26.005C6.24756 26.0494 6.40972 25.5424 6.14515 24.9998C5.91481 24.4236 5.52576 23.9315 5.02716 23.5856C4.74636 23.4736 4.5135 23.2602 4.37096 22.9843C4.22842 22.7084 4.18568 22.3883 4.25053 22.0823C4.34441 21.6287 3.95183 21.6109 3.74701 21.4241C3.54219 21.2373 2.94478 21.184 2.70582 20.7837C2.5522 20.5435 2.1511 20.3567 2.33885 20.0276C2.43195 19.9359 2.54516 19.8693 2.66863 19.8336C2.7921 19.798 2.92207 19.7944 3.04719 19.8231C3.76407 20.0721 4.07984 19.3072 4.6175 19.1115C5.15517 18.9158 4.5151 18.222 4.12252 18.1508C3.14961 18.0619 2.66315 17.0657 1.74144 16.87C1.49394 16.8166 1.25498 15.9805 1.28058 15.5358C1.30618 15.091 1.89506 15.2333 2.19376 15.2511C2.70754 15.3208 3.21349 15.4429 3.70432 15.6158C3.9271 15.6905 4.1626 15.7148 4.39511 15.6872C4.62762 15.6596 4.85181 15.5807 5.05276 15.4557C4.64441 15.1352 4.13685 14.9831 3.62752 15.0287C2.59486 14.8953 2.15963 14.0414 1.69878 13.3476C1.44275 12.9741 1.76705 12.2802 2.49246 12.1557C3.50668 12.0873 4.52357 12.0725 5.53923 12.1112C5.53923 11.3107 5.01862 11.3908 4.5663 11.3463C3.60328 11.3896 2.63949 11.2817 1.70729 11.0261C0.742916 10.6258 0.529573 10.1366 0.922152 9.15816C1.12698 8.66004 1.47688 8.09967 0.674649 7.74388C0.503963 7.67272 0.512491 7.41478 0.614903 7.22799C0.652453 7.13735 0.722908 7.06588 0.810863 7.02921C0.898818 6.99254 0.997135 6.99366 1.08431 7.0323C1.15258 7.0323 1.20379 7.12126 1.27206 7.14794C2.04015 7.51263 2.21936 6.97892 2.35591 6.37407C2.76556 6.55197 2.95331 7.26357 3.57631 6.92557C3.71929 6.82016 3.88499 6.75305 4.05874 6.73018C4.23249 6.70731 4.40897 6.72938 4.5726 6.79443C4.73623 6.85949 4.88198 6.96551 4.99698 7.10318C5.11197 7.24085 5.19268 7.4059 5.23198 7.58378C5.33439 8.29537 5.67578 8.22421 6.1281 8.25089C6.4268 8.25089 6.7511 8.09078 6.98153 8.49104C7.07749 8.59694 7.19692 8.67666 7.32936 8.72319C7.46179 8.76971 7.60318 8.78165 7.74107 8.7579C8.04831 8.64227 7.66427 8.22421 7.86056 7.97516C7.86056 8.77569 8.23607 8.98917 8.97856 8.92691C9.72104 8.86465 10.2416 8.45547 10.9244 8.63336C12.4776 9.05142 14.0309 8.16194 15.6097 8.63336C15.8316 8.70452 16.2583 8.242 16.4632 7.94847C16.668 7.65494 16.3181 7.64605 16.1303 7.64605C13.7578 7.64605 11.4023 7.25466 9.02976 7.26355C8.39822 7.26355 8.68838 7.6994 8.4921 7.8773C8.4921 7.56598 8.42382 7.33473 8.06538 7.37031C7.70694 7.40589 7.28876 7.37031 7.3997 6.75657C7.51065 6.14282 7.78373 5.91156 8.347 6.11614C8.60303 6.21398 8.92736 6.03607 9.11511 6.43634C9.21752 6.65871 9.72103 6.61424 9.7637 6.43634C9.98559 5.50238 10.7366 5.90266 11.2401 5.6714C12.2301 5.20887 13.3396 5.84928 14.321 5.27112C14.3893 5.22664 15.6182 4.97759 15.4134 6.10724C15.3537 6.44524 15.6951 6.43634 15.8828 6.35629C17.8457 5.52018 17.8543 5.79592 19.8598 5.68918C21.2082 5.60912 22.6847 5.85818 23.9819 5.16439C24.8053 4.84664 25.6669 4.64908 26.5422 4.57732C27.353 4.39053 28.5478 3.53664 29.4439 4.67518C30.2375 4.15928 31.1507 4.56843 31.9359 4.435C32.9344 4.266 33.839 4.77301 34.829 4.60401C35.819 4.43501 36.937 3.88354 38.1574 4.08812C39.8643 4.36386 41.5114 3.68785 43.1756 3.52774C44.3363 3.421 45.642 3.86575 46.888 3.81238C47.6561 3.81238 48.3986 4.15039 49.1582 3.81238C49.3459 3.73233 49.6361 3.81238 49.6702 3.50106C49.6832 3.38393 49.6536 3.26596 49.5872 3.17046C49.5209 3.07496 49.4226 3.00884 49.3118 2.98514C48.3986 2.74498 48.9192 2.2024 49.235 2.09566C49.7556 1.93555 49.9177 0.414537 50.8224 1.62423C51.1808 2.10456 52.3841 1.81994 51.9489 3.02963C51.855 3.26979 52.111 3.19862 52.2305 3.2342C52.478 3.31425 52.6572 3.12746 52.8364 3.01183C53.0157 2.89619 52.9218 2.76278 52.7682 2.69163C52.1366 2.3981 52.7682 1.95334 52.6487 1.59755C52.6669 1.60265 52.6838 1.61161 52.6985 1.62385C52.7132 1.6361 52.7253 1.65138 52.734 1.66873L52.9474 1.66873L52.9901 1.62423C53.357 2.00671 53.9886 2.11347 54.0483 2.80726C54.0483 3.05632 54.3641 3.09188 54.4921 3.01183C55.209 2.5404 55.9771 3.30537 56.711 2.86063C57.0524 2.65605 57.189 2.91401 57.1719 3.34096C57.1719 3.97249 57.8973 4.18595 58.0851 4.01695C58.5288 3.64336 58.9385 3.91023 59.3055 3.86575C59.4506 3.86575 59.6981 4.00806 59.6554 3.63448C59.6127 3.26089 59.6042 3.2342 60.193 3.20751C60.7819 3.18083 61.2769 3.0563 61.2769 3.95468C61.2769 4.19484 61.5244 4.19485 61.8572 4.21264C62.9838 4.21264 63.9396 3.54554 65.032 3.6167L65.032 3.66116L65.2454 3.50106C65.2614 3.46378 65.2883 3.43267 65.3222 3.41211C65.3264 3.34102 65.3264 3.26973 65.3222 3.19864C65.4843 2.914 65.6891 2.98517 65.9025 3.11859L66.1073 3.25201L66.5767 3.25201L66.5767 3.30537C66.5767 3.46548 66.5767 3.60779 66.7986 3.60779C66.7303 3.92801 66.5511 4.32828 66.9352 4.49728C67.0718 4.56276 67.2266 4.57451 67.3709 4.53037C67.5152 4.48623 67.6393 4.38919 67.7203 4.25713C67.9678 3.85686 68.3092 3.95469 68.5737 4.15927C69.0175 4.49727 68.4031 4.50618 68.3689 4.72855C68.3348 4.95092 68.2665 5.23555 68.5737 5.24444C69.7771 5.24444 70.9804 5.24444 72.1838 5.24444C72.4825 5.24444 72.5166 4.90643 72.5422 4.73743C72.6019 4.39053 72.2777 4.45281 72.0814 4.45281C71.4754 4.45281 70.8695 4.45281 70.2636 4.45281C70.3574 4.3105 70.5025 4.34607 70.6476 4.33718C71.1596 4.33718 71.0999 4.33716 71.1767 3.62557C71.2535 2.91399 70.878 3.02074 70.5964 3.10969C69.4186 3.50106 68.1726 3.10968 67.0034 3.49216L66.6535 3.14527C67.2083 2.54932 67.5496 1.66871 68.6164 1.79324C69.4699 1.89998 70.3233 1.57088 71.1255 2.2202C71.245 2.32694 72.1496 3.56331 72.3971 2.06898C72.6049 2.01852 72.8209 2.01852 73.0287 2.06898C74.3003 2.43367 75.589 3.02073 76.7667 1.85551C79.6854 1.90888 82.4335 0.378974 85.4205 0.859295C86.2739 0.992718 87.0506 1.74878 87.9808 1.13503C87.9808 1.13503 88.1259 1.13503 88.1686 1.1884C89.0903 2.07788 89.0903 2.07789 90.7289 1.69541C90.6691 1.21509 90.0973 1.57089 89.9608 1.14394C90.3192 1.04609 90.6691 0.93935 90.9422 1.27735C91.5396 1.98005 93.0673 2.10457 93.4513 1.33072C93.8354 0.55687 94.2279 0.761447 94.7997 0.770342C96.4213 0.770342 98.0428 0.663611 99.6558 0.610242C99.9971 0.610242 100.509 0.396747 100.62 0.868173C100.731 1.3396 100.168 1.08166 99.9715 1.26845C99.7753 1.45524 99.6387 1.67762 99.8009 1.69541C100.27 1.69541 100.415 2.22909 100.927 2.31804C102.259 2.5493 103.436 1.25957 104.904 2.11347C105.324 2.34414 105.806 2.41874 106.272 2.32493C106.737 2.23112 107.158 1.97451 107.465 1.59756C107.465 1.59756 107.559 1.55309 107.601 1.52641C107.9 2.41589 108.745 1.81992 109.214 2.14903C109.368 2.76278 108.438 2.43367 108.634 2.95846C108.83 3.48326 109.3 3.15417 109.624 3.27869C110.466 3.45519 111.328 3.50609 112.184 3.42989C112.449 3.42989 112.756 3.19863 112.816 3.74121C112.832 3.81717 112.832 3.89609 112.816 3.97205C112.799 4.04802 112.766 4.11908 112.719 4.17985C112.672 4.24062 112.613 4.28955 112.546 4.32296C112.478 4.35637 112.404 4.37338 112.329 4.37274C111.766 4.47058 111.041 4.75522 111.16 3.28757C110.785 4.00805 110.716 4.49729 110.025 4.61292C111.467 5.20887 112.764 4.88864 114.011 5.03985C114.249 5.03985 114.642 5.15549 114.685 4.81748C114.744 4.31937 114.284 4.49728 114.028 4.44391C113.86 4.42607 113.691 4.42607 113.524 4.44391C113.524 3.4299 114.104 3.28758 114.864 3.38543C115.623 3.48327 116.357 2.69164 116.827 3.78571C117.143 3.07412 117.731 3.45659 118.192 3.4477C118.653 3.4388 119.114 3.30538 119.43 3.94581C119.583 4.24823 120.078 4.31938 120.488 3.74122C120.676 3.46548 121.632 3.50995 122.195 3.74122C122.268 3.78232 122.349 3.80431 122.432 3.80528C122.515 3.80625 122.597 3.78617 122.671 3.74678C122.745 3.70739 122.809 3.64989 122.857 3.57919C122.905 3.50849 122.935 3.42674 122.946 3.34096C123.023 2.90512 122.468 3.34096 122.391 3.00296L127.059 3.00296L127.059 3.28757L125.225 3.28757C125.003 3.28757 124.738 3.28758 124.755 3.62558C124.772 3.96358 124.994 3.86576 125.173 3.89244C126.479 4.02586 127.734 4.40832 129.091 3.95468C129.278 3.88352 129.816 4.21265 130.183 4.36387C130.467 4.51736 130.789 4.58062 131.107 4.54584C131.426 4.51107 131.728 4.37977 131.975 4.16818C132.119 4.01929 132.293 3.9053 132.484 3.83432C132.676 3.76335 132.88 3.7371 133.082 3.75748C133.284 3.77785 133.479 3.84434 133.653 3.95221C133.828 4.06009 133.978 4.2067 134.092 4.38165C134.408 4.87976 134.809 4.43502 135.184 4.55065C136.206 5.00282 137.347 5.06888 138.41 4.73743C139.014 4.38485 139.716 4.25925 140.399 4.38165C141.798 4.7997 143.155 4.23933 144.563 4.43501C145.516 4.5137 146.475 4.48687 147.422 4.35496C148.899 4.21265 150.256 4.84417 151.69 4.95981C153.123 5.07544 154.6 5.6714 155.846 4.38165C156.034 4.18596 156.341 4.38165 156.588 4.38165L156.682 4.48838L156.802 4.99539C156.865 5.02125 156.931 5.03917 156.998 5.04876C157.715 5.56466 160.412 4.92423 160.762 4.15928C160.983 3.70564 161.257 3.26979 161.845 3.42989C161.845 3.78569 161.589 3.72343 161.453 3.71454C160.975 3.71454 160.855 4.07922 160.864 4.37274C160.895 4.54457 160.989 4.69709 161.126 4.79827C161.263 4.89944 161.432 4.94141 161.598 4.91534C162.161 4.81265 162.733 4.76797 163.305 4.78193C163.451 4.77311 163.591 4.71715 163.706 4.6218C164.5 3.56331 164.5 3.56331 165.729 3.73232C165.626 4.26601 165.268 4.36385 164.824 4.37275C164.611 4.37274 164.355 4.37276 164.329 4.69297C164.303 5.01319 164.628 4.99539 164.747 5.18218C164.986 5.55576 165.02 5.22665 165.165 5.06654C165.754 4.42611 166.608 5.06654 167.256 4.6218C167.256 4.25711 166.403 4.15928 166.829 3.77681C167.06 3.62935 167.33 3.56197 167.6 3.58435C167.87 3.60672 168.126 3.71769 168.331 3.90132C169.014 4.54175 169.185 4.53288 169.407 3.56334C169.543 2.86065 170.209 3.22533 170.644 3.14528C170.644 3.39434 170.73 3.53665 170.986 3.52775L170.986 3.54553ZM63.7775 5.37786L63.6751 5.37786C63.4446 5.37786 63.1289 5.26223 63.0435 5.52018C62.9582 5.77813 63.2142 5.87598 63.4532 5.86709L63.5385 5.86709C63.6101 5.89187 63.6879 5.88835 63.7572 5.85718C63.8264 5.82601 63.8822 5.76939 63.914 5.69808C64.1615 5.46682 64.0676 5.38675 63.7775 5.37786ZM168.477 41.7044L168.238 41.5976L168.331 41.8556L168.579 41.9534L168.477 41.7044ZM154.753 43.6345C155.018 43.5901 155.684 44.0081 155.257 43.1631C155.257 42.8162 155.462 42.5405 155.803 42.5761C155.885 42.5872 155.967 42.5812 156.046 42.5585C156.126 42.5357 156.2 42.4967 156.264 42.4436C156.329 42.3905 156.382 42.3245 156.422 42.2495C156.461 42.1745 156.486 42.0919 156.494 42.0068C156.639 41.4464 155.888 41.9356 155.888 41.4998C156.068 41.1974 156.588 41.6421 156.682 41.0284C154.655 40.8456 152.615 41.1342 150.708 41.8734C151.094 42.3269 151.596 42.6559 152.156 42.8214C152.716 42.9869 153.309 42.982 153.866 42.8073L153.866 43.0919C153.866 43.8124 154.463 43.2521 154.719 43.5011C154.717 43.5483 154.729 43.595 154.753 43.6345V43.6345ZM119.609 37.5149C118.158 37.2925 116.699 36.7055 115.274 37.6661C115.173 37.7147 115.064 37.7398 114.954 37.7398C114.843 37.7398 114.734 37.7147 114.634 37.6661C113.328 36.8478 111.826 37.2836 110.443 37.0346C108.594 36.7236 106.701 36.8483 104.904 37.3993C103.283 37.9063 101.26 36.7944 100.014 38.689C100.014 38.689 99.9459 38.689 99.9118 38.689C98.1623 38.5467 96.4981 39.285 94.7912 39.3383C94.4754 39.3383 93.9378 39.1515 93.9378 39.5696C93.9378 39.9877 93.5964 40.4591 94.0487 40.7526C94.1901 40.9028 94.3725 41.0039 94.5711 41.0421C94.7696 41.0803 94.9746 41.0538 95.1582 40.9661C95.4142 40.8327 95.8409 40.637 96.0116 40.7437C97.2064 41.7488 98.2817 40.9127 99.4253 40.5836C99.3571 40.9928 99.1096 41.5265 99.8265 41.5798C101.887 41.8254 103.969 41.7955 106.022 41.4909C105.869 41.2863 105.783 41.0195 105.664 41.0017C103.966 40.7776 102.254 40.6944 100.543 40.7526C100.748 40.6014 101.209 40.6281 101.098 40.4769C100.356 39.5162 101.713 40.4769 101.439 40.0588C101.926 39.8098 102.361 40.2723 102.848 40.1478C104.418 39.7475 106.039 40.0321 107.618 39.7475C107.866 39.6941 108.335 39.5607 108.412 39.9165C108.523 40.5214 107.891 40.13 107.704 40.3701C107.661 40.4146 107.704 40.5036 107.644 40.6637C108.395 40.8505 108.924 41.5532 109.803 41.5532C111.723 41.5532 113.644 41.7133 115.564 41.7755C116.103 41.7571 116.622 41.5539 117.04 41.1974C117.382 40.9572 117.535 42.0868 118.261 41.7933C118.808 41.5933 119.387 41.5028 119.967 41.5265C123.381 41.5265 126.744 41.5798 130.149 41.3931C129.936 40.637 129.295 41.144 128.903 40.806C129.279 40.6217 129.707 40.5869 130.106 40.7081L132.999 41.0728C133.503 41.144 133.802 40.8594 133.767 40.3613C133.733 39.8631 133.332 39.7386 132.914 39.8276C132.431 39.9439 131.93 39.9534 131.444 39.8554C130.957 39.7573 130.496 39.5539 130.089 39.2583C130.571 39.4225 131.093 39.4068 131.566 39.2138C131.805 39.2138 132.274 39.3383 132.197 38.8224C132.182 38.7443 132.15 38.6706 132.104 38.6069C132.058 38.5433 131.999 38.4912 131.931 38.4545C131.863 38.4178 131.788 38.3974 131.711 38.3949C131.635 38.3924 131.559 38.4078 131.489 38.44C130.32 38.9737 129.074 38.3332 127.845 38.7691C127.222 38.9914 127.29 39.7208 127.068 39.6586C126.052 39.3294 125.242 40.13 124.286 40.0855C123.919 40.0855 124.055 39.8364 123.944 39.6852C123.526 39.1071 123.407 38.102 122.954 37.9063C122.561 37.6704 122.111 37.5568 121.657 37.5788C121.203 37.6009 120.765 37.7577 120.394 38.0308C120.334 37.5327 120.223 37.1591 119.609 37.5149V37.5149ZM137.762 38.7246C137.275 38.6357 136.908 38.8313 136.865 39.3116C136.763 40.3612 136.661 40.4591 135.636 40.3346C135.346 40.3346 134.894 40.1389 134.783 40.6281C134.672 41.1173 135.176 40.9839 135.372 41.1529C136.166 41.8556 137.079 41.2152 137.932 41.4731C138.268 41.6186 138.631 41.6813 138.993 41.6563C139.356 41.6313 139.708 41.5192 140.022 41.3289C140.336 41.1385 140.603 40.8751 140.803 40.5591C141.004 40.2431 141.131 39.8831 141.175 39.5073C141.363 38.6178 141.056 38.2799 140.134 38.4933C139.357 38.6712 138.589 39.1694 137.762 38.7246V38.7246ZM194.045 38.7958C194.549 39.9699 195.368 39.8987 196.042 40.0588C197.126 40.3168 198.449 40.5658 199.268 40.0588C200.125 39.5124 201.127 39.2662 202.127 39.3561C203.083 39.3561 204.039 39.5607 204.986 39.6408C205.172 39.6625 205.36 39.6338 205.532 39.5574C205.704 39.481 205.854 39.3596 205.968 39.2049C206.121 38.9737 205.737 38.858 205.678 38.6445C205.498 38.0575 205.132 38.5022 204.824 38.5111C204.287 38.5111 203.903 39.0626 203.28 38.9381C200.284 38.3065 197.263 39.2138 194.045 38.7958ZM74.2918 39.1604C73.848 39.1604 72.9945 39.1604 72.1326 39.1604C71.9704 39.1604 71.74 39.1604 71.7315 39.454C71.7229 39.7475 71.9448 39.7475 72.124 39.7564C74.0613 39.8186 75.9986 39.9165 77.9359 39.9076C79.5318 39.9076 81.0936 39.3028 82.7237 39.9076C83.5375 40.1528 84.4072 40.1027 85.1901 39.7653C85.4376 39.6585 85.6936 39.5162 85.6083 39.1871C85.5229 38.858 85.2925 39.0092 85.0791 39.0092C83.9185 39.0092 82.7578 38.9203 81.5971 38.8936C80.4624 38.7684 79.3181 38.7684 78.1834 38.8936C76.8959 39.0983 75.5939 39.1876 74.2918 39.1604V39.1604ZM52.2391 6.33851C53.4093 6.48094 54.594 6.42386 55.7467 6.16951C55.9429 6.11614 56.2587 6.1695 56.2758 5.88487C56.2929 5.60023 55.9088 5.60912 55.6869 5.54686C55.465 5.4846 55.2943 5.68918 55.2431 5.37786C55.2552 5.27106 55.3001 5.1712 55.3711 5.09321C55.5418 4.88863 56.2246 5.25334 55.9003 4.49728C55.6442 3.92801 55.2431 4.23043 54.8932 4.19486C54.5433 4.15928 53.963 4.41723 53.8606 4.03475C53.5789 3.00295 53.1864 3.72342 53.084 3.99026C52.8535 4.6129 52.4097 4.6307 51.9233 4.61291C51.4368 4.59512 50.9674 4.55955 50.4895 4.50618C50.0116 4.45281 49.9945 4.84416 49.986 5.09321C49.986 5.49348 50.2506 5.44903 50.5322 5.33339C51.3174 5.00428 52.0257 5.45792 52.7596 5.55576C52.7682 5.95603 52.3927 5.96493 52.2391 6.33851V6.33851ZM39.7363 5.30671C39.2987 5.22587 38.851 5.22587 38.4134 5.30671C37.8587 5.53797 36.8261 5.11102 36.8261 5.97382C36.8261 6.40967 37.9184 6.5075 38.4817 6.35629C39.8643 5.9916 41.2298 6.48081 42.5953 6.26734C43.4487 6.14281 44.3021 6.0005 45.1044 5.93823C45.6164 5.93823 45.5823 5.56466 45.5823 5.22666C45.5823 4.69297 45.275 5.00428 45.0531 5.02207L39.7363 5.30671ZM211.49 40.4146C211.882 40.3168 212.394 40.3257 212.343 39.7386C212.343 39.4629 212.573 38.9203 211.933 38.8491C210.387 38.6565 208.829 38.597 207.274 38.6712C207.043 38.6712 206.625 38.5467 206.616 39.0626C206.61 39.2195 206.658 39.3736 206.752 39.4963C206.847 39.619 206.98 39.7019 207.129 39.7297C208.562 40.0499 210.064 39.9699 211.49 40.4146ZM143.036 41.0195C143.036 41.0195 143.036 40.9661 143.036 40.9483C143.036 40.9305 142.942 40.8505 142.899 40.9483C142.857 41.0462 142.899 41.0017 142.899 41.0106C142.899 41.0195 143.01 41.0195 143.036 41.0195ZM19.4928 7.89511C19.4928 7.89511 19.5355 7.84172 19.5355 7.82393C19.5355 7.80614 19.4416 7.71719 19.399 7.82393C19.393 7.83475 19.3898 7.84703 19.3898 7.85952C19.3898 7.87201 19.393 7.88429 19.399 7.89511C19.399 7.89511 19.4758 7.89511 19.4928 7.89511ZM26.3203 40.0588C26.3203 40.0588 26.363 40.0588 26.38 40.0588C26.3971 40.0588 26.4739 39.961 26.38 39.9165L26.3118 39.9165C26.3118 39.9165 26.3459 40.0321 26.3459 40.0588L26.3203 40.0588ZM215.415 39.5785L215.492 39.6586L215.569 39.5874L215.458 39.5073L215.415 39.5785ZM93.733 3.80348C93.733 3.80348 93.6732 3.80347 93.6732 3.87463C93.6732 3.94579 93.7159 3.928 93.7415 3.95468L93.8098 3.83907L93.733 3.80348ZM51.9148 3.92799C51.9148 3.92799 51.9574 3.87464 51.9148 3.85685C51.8721 3.83906 51.8294 3.759 51.7867 3.85685C51.7441 3.95469 51.7867 3.9102 51.7867 3.92799L51.9148 3.92799Z" fill="#C62828"/>
</svg>
