<svg width="423" height="7" viewBox="0 0 423 7" fill="none" xmlns="http://www.w3.org/2000/svg">
<path d="M200.382 1.65216C197.893 1.73354 195.473 1.98855 193.323 1.54366C187.17 1.34292 181.044 1.0011 174.715 1.2127C172.788 1.31345 170.835 1.30433 168.914 1.18558C169.996 0.957706 172.416 1.08791 174.12 0.78408C167.67 0.637592 161.95 0.854614 156.081 0.838338C155.689 0.825345 155.295 0.846777 154.926 0.901123C154.557 0.955468 154.222 1.04143 153.944 1.15302L160.706 1.19099C158.584 1.57591 156.2 1.66009 153.944 1.42971C152.419 1.23404 150.797 1.19487 149.225 1.31578C147.657 1.44753 146.041 1.45674 144.465 1.3429C142.675 1.23152 140.858 1.21148 139.055 1.28323C137.713 1.3671 136.357 1.41424 134.999 1.4243C131.226 1.4243 127.453 1.38089 123.68 1.4243C122.328 1.4243 120.502 1.4677 120.042 1.12047C119.772 0.903454 118.514 0.957709 117.608 0.96856C113.66 1.02282 109.846 1.19643 106.019 1.32121C102.612 1.44934 99.1867 1.48015 95.7688 1.41344C92.1177 1.31578 88.5206 1.2778 84.9505 1.29951C83.8357 1.31868 82.7188 1.30235 81.6104 1.25068C79.4091 1.14758 77.1855 1.14758 74.9842 1.25068C70.5552 1.40477 66.1069 1.45006 61.6642 1.38632C53.5505 1.28323 45.8019 1.51111 37.9722 1.63047C29.3311 1.76611 20.7981 1.77694 12.13 1.5979C9.42543 1.54907 6.85609 1.4894 4.23266 1.37004C1.92025 1.26696 0.851958 1.37003 0.608547 1.68471C0.0676328 2.35204 2.85334 3.0465 7.0319 3.31235C11.6921 3.56336 16.382 3.71549 21.0821 3.76809C25.139 3.84405 29.1959 3.88745 33.1716 4.05564C35.3352 4.14787 43.5842 4.09904 45.7884 4.05564C47.9926 4.01224 49.3043 4.56022 51.9142 4.35405C52.0224 4.3866 52.2523 4.42458 52.2117 4.45714C51.8872 4.76639 53.3882 4.78267 54.6053 4.78267C57.1206 4.78267 59.7169 4.78266 62.124 4.72298C65.8426 4.59407 69.5767 4.5524 73.3074 4.59819C75.086 4.65759 76.8762 4.62661 78.6354 4.50596C81.0019 4.27267 83.8417 4.23469 86.3164 4.05023C87.4519 3.94518 88.6271 3.9286 89.7782 4.0014C89.4131 4.24012 87.3712 4.28352 87.885 4.60362C90.4902 4.38803 93.1523 4.30419 95.8094 4.35405C99.6634 4.50054 103.342 4.38117 107.087 4.39745C108.335 4.36763 109.586 4.36763 110.833 4.39745C112.591 4.47994 114.37 4.45249 116.107 4.31607C117.891 4.16825 119.732 4.16825 121.516 4.31607C120.164 4.56564 117.649 4.51139 116.716 4.85862C118.352 4.94 118.609 5.2818 120.556 5.31435C123.464 5.36861 126.182 5.78095 129.292 5.4717C129.705 5.45041 130.123 5.45041 130.536 5.4717C133.152 5.52838 135.776 5.49752 138.379 5.37946C144.113 5.22754 149.739 4.95628 155.689 4.99968C158.175 5.05567 160.669 5.02117 163.14 4.8966C164.084 4.83579 165.048 4.84869 165.979 4.93458C167.703 5.07737 169.478 5.09024 171.213 4.97255C172.295 4.88174 173.414 4.89103 174.485 4.99968C173.067 5.23017 171.536 5.32669 170.009 5.2818C165.614 5.12446 163.126 5.66701 159.556 5.82435C160.32 5.93276 161.115 6.00203 161.923 6.03052C165.141 6.05765 168.373 6.10105 171.591 6.07935C174.296 6.07935 177.231 6.18786 179.354 5.7918C180.113 5.70412 180.904 5.66745 181.693 5.68328C184.211 5.68049 186.724 5.6007 189.212 5.44458C193.336 5.18958 197.501 5.41745 201.653 5.44458C202.573 5.51657 203.519 5.51657 204.438 5.44458C208.022 4.76097 212.119 5.29808 216.014 5.35234C216.596 5.35234 216.866 5.45541 216.893 5.54765C216.92 5.63988 216.636 5.70499 216.028 5.73754C214.986 5.7918 213.053 5.73754 212.985 5.8569C212.782 6.28551 210.28 6.28009 208.739 6.46455C209.815 6.57936 210.948 6.57936 212.025 6.46455C216.52 6.01055 221.142 5.78992 225.778 5.80807C226.186 5.80783 226.593 5.79331 226.995 5.76468C231.051 5.47713 235.527 5.37404 239.828 5.18415C240.477 5.15702 241.586 5.18415 241.342 4.91287C231.728 4.96713 222.018 5.45541 211.754 4.82063C214.701 4.67602 217.671 4.61801 220.639 4.64703C225.61 4.68161 230.581 4.57462 235.514 4.32691C236.65 4.26723 238.8 3.9797 238.868 4.51139C239.071 4.54921 239.293 4.56776 239.517 4.56564C241.883 4.43542 244.439 4.71212 246.549 4.56564C250.492 4.35309 254.476 4.28771 258.449 4.37033C263.723 4.37033 269.118 4.37033 274.257 4.45714C279.869 4.54937 285.319 4.26182 290.822 4.45714C291.51 4.47655 292.201 4.46014 292.878 4.40831C297.199 4.14817 301.559 4.00316 305.927 3.97426C310.079 3.89288 313.838 3.63247 317.99 3.39375C315.853 3.04652 313.608 3.5348 311.756 3.30151C312.203 3.1924 312.72 3.13774 313.243 3.14416C315.339 3.14416 317.449 3.14416 319.531 3.14416C321.614 3.14416 321.966 3.62703 323.98 3.49682C326.003 3.35665 328.064 3.32746 330.106 3.41002C330.232 3.40361 330.359 3.40361 330.485 3.41002C332.083 3.59753 333.787 3.57662 335.353 3.35034C340.505 2.81658 345.816 2.57191 351.134 2.62332C351.781 2.62642 352.426 2.59726 353.055 2.53651C357.179 2.20556 361.709 2.0428 366.145 1.85833C371.554 1.63589 377.288 1.78238 382.602 1.49483C384.63 2.14046 385.537 2.21099 389.864 2.03738C391.743 1.956 393.542 1.82578 395.368 1.71185C397.095 1.59808 398.838 1.52561 400.587 1.49483C406.862 1.40802 413.096 1.24525 419.398 1.22897C420.058 1.21975 420.715 1.18523 421.359 1.12589C421.994 1.07706 422.494 0.97941 422.386 0.865475C422.278 0.75154 421.386 0.735264 420.723 0.729838C414.043 0.686434 407.471 0.420575 400.655 0.58334C398.436 0.624156 396.213 0.602403 394.002 0.518237C391.937 0.442299 389.86 0.442299 387.795 0.518237C380.717 0.769857 373.604 0.815188 366.51 0.653873C358.329 0.463982 350.093 0.507394 341.844 0.577925C337.53 0.610478 333.244 0.69185 328.889 0.686425C324.535 0.681 320.005 0.811211 315.556 0.686425C315.003 0.664589 314.446 0.664589 313.892 0.686425C310.437 0.825018 306.962 0.863091 303.493 0.800355C299.864 0.854899 296.231 0.83317 292.607 0.735252C285.846 0.458553 279.085 0.44228 272.201 0.3826C269.843 0.312087 267.474 0.312087 265.116 0.3826C263.019 0.491109 265.44 0.599622 265.116 0.708132C263.033 0.675579 260.545 0.827483 259.395 0.377169C258.925 0.305093 258.424 0.271879 257.921 0.279514L248.063 0.279514V0.447703L256.718 0.58334C255.169 0.731822 253.573 0.783068 251.985 0.735252C245.643 0.659296 239.517 0.957705 233.202 0.930578C232.012 0.930578 230.74 0.973976 230.592 1.2127C231.595 1.23671 232.602 1.21487 233.594 1.14759C234.432 1.191 235.23 1.23441 235.325 1.39175C235.419 1.54909 234.649 1.54908 234.067 1.60876C230.686 1.95057 226.562 1.88546 222.911 2.0645C222.772 2.07266 222.63 2.07266 222.492 2.0645C221.369 2.0645 220.152 2.01566 219.855 1.80407C219.557 1.59248 220.314 1.43514 221.64 1.36461C222.289 1.33206 222.992 1.36462 223.695 1.30494C224.398 1.24526 225.385 1.23983 225.047 1.04994C221.545 0.957706 218.151 1.26695 214.486 1.14759C214.865 0.81664 217.718 1.04994 217.826 0.729838C210.925 0.512232 203.982 0.713415 197.231 1.32663C201.815 1.46226 206.061 1.03365 210.564 1.29408C207.224 1.52195 203.749 1.54907 200.382 1.65216ZM274.338 4.0448C272.744 3.94962 271.122 3.96061 269.537 4.07735C269.3 4.1049 269.051 4.11334 268.805 4.10217C268.559 4.09099 268.321 4.06043 268.104 4.01224C267.807 3.88203 268.564 3.82235 269.24 3.80607C269.919 3.7816 270.603 3.7816 271.282 3.80607C273.591 3.90256 275.912 3.94061 278.233 3.92C276.972 4.07321 275.644 4.11578 274.338 4.0448ZM142.274 4.82607C142.166 4.9617 141.016 5.01595 140.259 4.92372C139.502 4.83149 140.151 4.69585 140.584 4.59819C142.144 4.34655 143.83 4.24439 145.506 4.29979C144.343 4.46256 142.531 4.50054 142.274 4.82607V4.82607ZM192.565 2.28695C190.645 2.45284 188.658 2.45284 186.737 2.28695C188.663 2.14327 190.639 2.14327 192.565 2.28695V2.28695ZM190.74 4.20757C192.702 4.02549 194.722 3.96329 196.73 4.02309C195.243 4.27809 193.282 4.12619 190.74 4.20757V4.20757ZM115.796 4.05564C115.093 4.09362 114.444 4.37575 113.633 4.09905C113.186 3.93629 114.566 3.94713 115.323 3.92L118.027 3.83321C117.554 4.07193 116.513 4.01224 115.796 4.05564V4.05564ZM279.571 3.27439C281.124 3.15987 282.71 3.13974 284.277 3.2147C282.745 3.39009 281.128 3.4106 279.571 3.27439ZM247.549 3.86033C245.44 4.1316 244.845 4.1533 241.356 4.03936C243.357 4.03394 245.223 3.93086 247.549 3.86033ZM157.244 3.99054C156.688 4.1092 156.08 4.18274 155.453 4.20694C154.827 4.23115 154.194 4.20555 153.593 4.1316C154.772 3.98351 156.015 3.93547 157.244 3.99054V3.99054ZM198.434 2.04822C198.935 2.01567 199.543 2.01024 199.787 2.11333C200.03 2.21641 199.286 2.20557 198.948 2.22184C198.34 2.22184 197.677 2.22184 196.879 2.26524C197.337 2.13591 197.876 2.06072 198.434 2.04822V2.04822ZM373.325 1.43514C373.244 1.32121 373.961 1.32121 374.448 1.31578C374.799 1.31434 375.148 1.33075 375.489 1.36461C375.489 1.46769 374.826 1.47313 374.326 1.49483C373.826 1.51653 373.352 1.50567 373.298 1.43514H373.325ZM143.626 3.76809C143.305 3.76166 142.989 3.73228 142.693 3.6813C142.463 3.62162 142.693 3.55651 143.166 3.55651C143.614 3.53574 144.067 3.57585 144.451 3.67044C144.343 3.74097 144.018 3.77894 143.599 3.76809H143.626ZM240.463 1.98854C240.599 1.86918 241.207 1.84205 241.883 1.83662C242.086 1.83662 242.478 1.87461 242.465 1.89631C242.465 2.02652 241.694 2.03195 241.112 2.04822C240.882 2.0391 240.655 2.01906 240.436 1.98854H240.463ZM280.004 1.81493C279.748 1.82306 279.49 1.82306 279.233 1.81493C278.909 1.81493 278.976 1.78238 279.409 1.78238L280.761 1.78238C280.502 1.79943 280.24 1.8103 279.977 1.81493H280.004ZM174.526 1.32663C174.999 1.32663 175.297 1.37003 175.256 1.44599C175.216 1.52194 174.878 1.5545 174.458 1.5545C174.039 1.5545 173.728 1.51111 173.715 1.44057C173.808 1.40148 173.922 1.37104 174.048 1.35136C174.175 1.33169 174.31 1.32324 174.445 1.32663H174.526ZM177.92 4.31607C177.764 4.3379 177.598 4.34534 177.435 4.33783C177.271 4.33031 177.113 4.30804 176.974 4.27267C176.974 4.27267 177.095 4.19671 177.271 4.18043C177.606 4.14788 177.958 4.16126 178.272 4.21841C178.15 4.25097 178.028 4.29979 177.839 4.31607H177.92ZM297.854 3.43171C297.462 3.43171 296.962 3.43171 296.921 3.36118C297.225 3.31522 297.544 3.28779 297.868 3.2798C298.045 3.26604 298.227 3.26663 298.404 3.28154C298.58 3.29645 298.747 3.32537 298.896 3.36661C298.503 3.38831 298.138 3.42086 297.773 3.43171H297.854Z" fill="black"/>
</svg>
