<svg width="297" height="296" viewBox="0 0 297 296" fill="none" xmlns="http://www.w3.org/2000/svg">
<g clip-path="url(#clip0_1692_2007)">
<g opacity="0.9">
<g style="mix-blend-mode:multiply" opacity="0.1">
<path d="M151.451 296L151.019 259.2L150.775 222.418L150.568 148.818L150.775 75.2168L151.019 38.4164L151.451 1.63477L151.884 38.4164L152.128 75.2168L152.335 148.818L152.128 222.418L151.884 259.2L151.451 296Z" fill="black"/>
<path d="M158.388 292.526L156.208 257.491L154.215 222.475L150.493 152.387L147.184 82.2806L145.68 47.2272L144.364 12.1738L146.545 47.1896L148.537 82.2242L152.241 152.293L155.55 222.4L157.054 257.454L158.388 292.526Z" fill="black"/>
<path d="M165.307 289.031L161.378 255.8L157.636 222.531L150.417 155.956L143.612 89.3624L140.34 56.0373L137.257 22.6934L141.186 55.9433L144.946 89.2121L152.147 155.787L158.952 222.381L162.224 255.706L165.307 289.031Z" fill="black"/>
<path d="M172.244 285.557L166.566 254.091L161.077 222.588L150.361 159.545L140.021 96.4262L135.001 64.8481L130.17 33.2324L135.847 64.7166L141.337 96.2195L152.053 159.263L162.374 222.363L167.394 253.96L172.244 285.557Z" fill="black"/>
<path d="M179.181 282.08L171.755 252.38L164.517 222.643L150.286 163.131L136.449 103.507L129.681 73.6569L123.063 43.7695L130.489 73.4691L137.746 103.206L151.959 162.737L165.796 222.343L172.563 252.192L179.181 282.08Z" fill="black"/>
<path d="M186.1 278.605L176.944 250.69L167.958 222.719L150.229 166.701L132.877 110.571L124.342 82.4678L115.976 54.3086L125.132 82.2236L134.137 110.195L151.846 166.194L169.198 222.324L177.734 250.446L186.1 278.605Z" fill="black"/>
<path d="M193.037 275.112L182.133 248.981L171.398 222.794L150.173 170.29L129.305 117.653L119.022 91.2786L108.889 64.8477L119.793 90.978L130.527 117.184L151.752 169.67L172.601 222.306L182.904 248.681L193.037 275.112Z" fill="black"/>
<path d="M199.974 271.637L187.322 247.291L174.838 222.87L150.117 173.878L125.752 124.736L113.683 100.108L101.782 75.3867L114.435 99.7325L126.918 124.153L151.621 173.127L176.004 222.288L188.055 246.915L199.974 271.637Z" fill="black"/>
<path d="M206.892 268.16L192.529 245.58L178.298 222.925L150.079 177.483L122.199 131.816L108.362 108.917L94.6948 85.9238L109.058 108.485L123.289 131.14L151.508 176.6L179.388 222.268L193.225 245.167L206.892 268.16Z" fill="black"/>
<path d="M213.829 264.666L197.737 243.89L181.757 223.001L150.041 181.072L118.646 138.899L103.042 117.728L87.5884 96.4629L103.7 117.239L119.661 138.129L151.376 180.076L182.772 222.23L198.376 243.402L213.829 264.666Z" fill="black"/>
<path d="M220.767 261.192L202.926 242.181L185.235 223.076L150.023 184.642L115.093 145.981L97.7404 126.539L80.501 107.002L98.3232 125.994L116.033 145.117L151.245 183.533L186.156 222.212L203.527 241.655L220.767 261.192Z" fill="black"/>
<path d="M227.685 257.717L208.133 240.491L188.694 223.133L150.004 188.23L111.558 153.045L92.42 135.349L73.3945 117.541L92.9652 134.767L112.404 152.106L151.094 187.009L189.54 222.194L208.678 239.89L227.685 257.717Z" fill="black"/>
<path d="M234.622 254.223L213.341 238.781L192.172 223.189L149.985 191.799L108.005 160.108L87.0998 144.16L66.3071 128.061L87.5886 143.521L108.757 159.113L150.963 190.503L192.924 222.194L213.83 238.142L234.622 254.223Z" fill="black"/>
<path d="M241.559 250.746L218.548 237.07L195.65 223.244L149.966 195.367L104.47 167.17L81.7979 152.968L59.2192 138.598L82.2115 152.292L105.128 166.118L150.812 193.996L196.289 222.192L218.962 236.394L241.559 250.746Z" fill="black"/>
<path d="M248.478 247.271L223.756 235.342L199.109 223.282L149.948 198.918L100.936 174.234L76.4779 161.76L52.1133 149.137L76.8351 161.047L101.482 173.126L150.662 197.49L199.673 222.193L224.113 234.647L248.478 247.271Z" fill="black"/>
<path d="M255.414 243.778L228.982 233.634L202.587 223.32L149.929 202.469L97.383 181.279L71.176 170.552L45.0254 159.676L71.458 169.839L97.853 180.133L150.511 200.985L203.038 222.193L229.264 232.92L255.414 243.778Z" fill="black"/>
<path d="M262.352 240.303L234.171 231.906L206.065 223.358L149.891 206.02L93.8485 188.324L65.8555 179.345L37.9189 170.215L66.0999 178.612L94.2057 187.159L150.38 204.498L206.422 222.194L234.415 231.173L262.352 240.303Z" fill="black"/>
<path d="M269.27 236.826L239.378 230.195L209.524 223.395L149.872 209.55L90.2955 195.367L60.5541 188.135L30.8315 180.752L60.7233 187.383L90.5775 194.183L150.229 208.028L209.806 222.211L239.566 229.443L269.27 236.826Z" fill="black"/>
<path d="M276.207 233.351L244.586 228.467L213.002 223.414L149.835 213.082L86.7612 202.393L55.2339 196.927L23.7441 191.291L55.3655 196.175L86.9492 201.21L150.098 211.542L213.19 222.23L244.718 227.716L276.207 233.351Z" fill="black"/>
<path d="M283.144 229.858L249.793 226.739L216.461 223.452L149.816 216.614L83.2079 209.438L49.9134 205.719L16.6377 201.83L49.9886 204.948L83.3208 208.236L149.966 215.074L216.574 222.268L249.869 225.988L283.144 229.858Z" fill="black"/>
<path d="M290.082 226.383L254.982 225.012L219.902 223.471L149.778 220.146L79.6549 216.464L44.5932 214.492L9.55029 212.369L44.6308 213.74L79.7113 215.281L149.854 218.606L219.977 222.288L255.02 224.26L290.082 226.383Z" fill="black"/>
<path d="M297 222.907L260.19 223.283L223.361 223.489L149.722 223.658L76.0829 223.489L39.2727 223.283L2.44385 222.907L39.2727 222.531L76.0829 222.306L149.722 222.137L223.361 222.306L260.19 222.531L297 222.907Z" fill="black"/>
</g>
<path d="M149.008 294.366L148.575 257.584L148.331 220.784L148.124 147.183L148.331 73.6008L148.575 36.8004L149.008 0L149.44 36.8004L149.684 73.6008L149.872 147.183L149.684 220.784L149.421 257.584L149.008 294.366Z" fill="black"/>
<path d="M155.926 290.891L153.764 255.875L151.752 220.841L148.049 150.753L144.74 80.6646L143.236 45.6112L141.901 10.5391L144.082 45.5549L146.094 80.5895L149.797 150.677L153.087 220.765L154.61 255.819L155.926 290.891Z" fill="black"/>
<path d="M162.863 287.414L158.934 254.164L155.193 220.895L147.973 154.339L141.168 87.7264L137.897 54.4013L134.813 21.0762L138.743 54.3262L142.484 87.5949L149.703 154.151L156.509 220.764L159.78 254.07L162.863 287.414Z" fill="black"/>
<path d="M169.8 283.921L164.123 252.455L158.614 220.952L147.899 157.909L137.577 94.7902L132.558 63.2121L127.708 31.6152L133.385 63.0806L138.893 94.5836L149.609 157.627L159.93 220.746L164.95 252.324L169.8 283.921Z" fill="black"/>
<path d="M176.718 280.446L169.311 250.765L162.054 221.028L147.842 161.497L134.005 101.873L127.218 72.0229L120.62 42.1543L128.046 71.8351L135.284 101.572L149.515 161.103L163.333 220.727L170.12 250.558L176.718 280.446Z" fill="black"/>
<path d="M183.656 276.971L174.5 249.056L165.495 221.085L147.786 165.086L130.433 108.955L121.898 80.8525L113.532 52.6934L122.688 80.5895L131.693 108.561L149.402 164.579L166.755 220.709L175.29 248.812L183.656 276.971Z" fill="black"/>
<path d="M190.593 273.496L179.689 247.365L168.954 221.16L147.729 168.674L126.861 116.037L116.559 89.6626L106.426 63.2129L117.33 89.3432L128.083 115.549L149.289 168.035L170.157 220.671L180.46 247.046L190.593 273.496Z" fill="black"/>
<path d="M197.511 270.002L184.878 245.656L172.395 221.235L147.673 172.262L123.308 123.101L111.239 98.4734L99.3384 73.752L111.972 98.0977L124.455 122.537L149.177 171.511L173.541 220.653L185.611 245.299L197.511 270.002Z" fill="black"/>
<path d="M204.448 266.525L190.085 243.964L175.854 221.309L147.635 175.849L119.736 130.182L105.918 107.282L92.2319 84.2891L106.614 106.85L120.845 129.505L149.064 174.966L176.944 220.633L190.762 243.532L204.448 266.525Z" fill="black"/>
<path d="M211.386 263.051L195.274 242.255L179.313 221.366L147.598 179.437L116.183 137.264L100.598 116.093L85.1445 94.8281L101.256 115.605L117.217 136.494L148.932 178.441L180.328 220.615L195.932 241.767L211.386 263.051Z" fill="black"/>
<path d="M218.304 259.557L200.482 240.565L182.772 221.442L147.56 183.026L112.649 144.347L95.2778 124.923L78.0571 105.367L95.8794 124.378L113.589 143.483L148.801 181.917L183.712 220.596L201.083 240.02L218.304 259.557Z" fill="black"/>
<path d="M225.241 256.082L205.689 238.856L186.25 221.498L147.541 186.595L109.096 151.41L89.9761 133.715L70.9507 115.906L90.5025 133.132L109.96 150.49L148.65 185.393L187.096 220.578L206.234 238.274L225.241 256.082Z" fill="black"/>
<path d="M232.178 252.605L210.897 237.145L189.728 221.553L147.523 190.163L105.561 158.472L84.6559 142.524L63.8633 126.443L85.1447 141.885L106.313 157.477L148.5 188.867L190.461 220.558L211.367 236.506L232.178 252.605Z" fill="black"/>
<path d="M239.097 249.112L216.104 235.436L193.187 221.61L147.504 193.733L102.027 165.536L79.3543 151.334L56.7568 136.982L79.7679 150.658L102.666 164.484L148.35 192.361L193.845 220.558L216.518 234.76L239.097 249.112Z" fill="black"/>
<path d="M246.034 245.637L221.312 233.727L196.665 221.667L147.485 197.303L98.4738 172.6L74.034 160.126L49.6694 147.521L74.3912 159.431L99.0378 171.492L148.218 195.856L197.229 220.559L221.669 233.032L246.034 245.637Z" fill="black"/>
<path d="M252.971 242.16L226.52 231.998L200.143 221.703L147.466 200.852L94.9394 179.643L68.7324 168.935L42.563 158.059L69.0144 168.203L95.3906 178.497L148.068 199.367L200.595 220.557L226.82 231.284L252.971 242.16Z" fill="black"/>
<path d="M259.908 238.668L231.727 230.29L203.602 221.742L147.447 204.385L91.4046 186.689L63.4117 177.729L35.4751 168.58L63.6373 176.977L91.7618 185.524L147.917 202.882L203.978 220.578L231.952 229.538L259.908 238.668Z" fill="black"/>
<path d="M266.826 235.191L236.934 228.56L207.08 221.76L147.428 207.934L87.8516 193.732L58.0915 186.5L28.3877 179.117L58.2795 185.748L88.1336 192.549L147.786 206.393L207.362 220.595L237.104 227.809L266.826 235.191Z" fill="black"/>
<path d="M273.763 231.717L242.142 226.832L210.539 221.798L147.391 211.466L84.2983 200.777L52.7898 195.292L21.2812 189.656L52.9026 194.54L84.5051 199.575L147.654 209.907L210.746 220.614L242.255 226.081L273.763 231.717Z" fill="black"/>
<path d="M280.7 228.242L247.331 225.105L213.999 221.817L147.353 214.998L80.7453 207.803L47.4696 204.084L14.1938 200.195L47.5448 203.314L80.8769 206.601L147.522 213.439L214.13 220.634L247.425 224.353L280.7 228.242Z" fill="black"/>
<path d="M287.619 224.748L252.538 223.377L217.458 221.836L147.315 218.511L77.192 214.83L42.1491 212.857L7.0874 210.734L42.1867 212.106L77.2484 213.646L147.391 216.971L217.514 220.653L252.576 222.625L287.619 224.748Z" fill="black"/>
<path d="M294.556 221.272L257.727 221.648L220.917 221.854L147.278 222.042L73.639 221.854L36.8101 221.648L0 221.272L36.8101 220.896L73.639 220.671L147.278 220.502L220.917 220.69L257.727 220.896L294.556 221.272Z" fill="black"/>
</g>
</g>
<defs>
<clipPath id="clip0_1692_2007">
<rect width="297" height="296" fill="white"/>
</clipPath>
</defs>
</svg>
