<svg width="475" height="421" viewBox="0 0 475 421" fill="none" xmlns="http://www.w3.org/2000/svg">
<g clip-path="url(#clip0_1692_3526)">
<g opacity="0.9">
<path d="M473.57 273.038C477.907 212.827 375.72 156.365 245.33 146.926C114.94 137.487 5.72241 178.645 1.38581 238.856C-2.9508 299.067 99.2358 355.529 229.626 364.968C360.016 374.407 469.234 333.249 473.57 273.038Z" stroke="#979797" stroke-width="0.8" stroke-miterlimit="10"/>
<path d="M464.892 260.467C466.593 201.6 364.61 150.876 237.104 147.171C109.599 143.467 4.85656 188.185 3.15489 247.052C1.45321 305.919 103.437 356.644 230.942 360.348C358.447 364.053 463.19 319.335 464.892 260.467Z" stroke="#979797" stroke-width="0.8" stroke-miterlimit="10"/>
<path d="M232.349 355.789C356.948 353.762 457.201 305.479 456.269 247.947C455.338 190.415 353.575 145.42 228.976 147.448C104.377 149.475 4.1248 197.758 5.05634 255.29C5.98789 312.822 107.75 357.817 232.349 355.789Z" stroke="#979797" stroke-width="0.8" stroke-miterlimit="10"/>
<path d="M233.696 351.191C355.402 343.429 451.174 291.58 447.608 235.384C444.042 179.187 342.489 139.924 220.782 147.686C99.0761 155.448 3.30431 207.297 6.8702 263.493C10.4361 319.69 111.989 358.953 233.696 351.191Z" stroke="#979797" stroke-width="0.8" stroke-miterlimit="10"/>
<path d="M235.016 346.611C353.844 333.122 445.151 277.72 438.956 222.867C432.761 168.014 331.409 134.482 212.581 147.971C93.7535 161.46 2.44649 216.862 8.64165 271.715C14.8368 326.568 116.188 360.1 235.016 346.611Z" stroke="#979797" stroke-width="0.8" stroke-miterlimit="10"/>
<path d="M236.31 342.067C352.238 322.848 439.059 263.874 430.229 210.346C421.4 156.818 320.264 129.005 204.336 148.225C88.4079 167.445 1.58738 226.419 10.4168 279.947C19.2463 333.475 120.382 361.287 236.31 342.067Z" stroke="#979797" stroke-width="0.8" stroke-miterlimit="10"/>
<path d="M237.672 337.465C350.713 312.507 433.06 249.974 421.597 197.795C410.135 145.616 309.205 123.549 196.163 148.508C83.1213 173.466 0.774913 235.999 12.2372 288.178C23.6994 340.357 124.63 362.424 237.672 337.465Z" stroke="#979797" stroke-width="0.8" stroke-miterlimit="10"/>
<path d="M238.997 332.905C349.138 302.221 426.997 236.121 412.902 185.269C398.806 134.416 298.093 118.066 187.953 148.751C77.8123 179.436 -0.0474387 245.535 14.0481 296.388C28.1436 347.24 128.857 363.59 238.997 332.905Z" stroke="#979797" stroke-width="0.8" stroke-miterlimit="10"/>
<path d="M240.361 328.273C347.598 291.84 420.967 222.174 404.234 172.669C387.5 123.164 287.002 112.566 179.764 148.998C72.5262 185.431 -0.84224 255.097 15.891 304.602C32.6243 354.107 133.123 364.705 240.361 328.273Z" stroke="#979797" stroke-width="0.8" stroke-miterlimit="10"/>
<path d="M241.708 323.707C346.062 281.544 414.96 208.313 395.595 160.141C376.231 111.97 275.937 107.098 171.583 149.261C67.2297 191.424 -1.66769 264.654 17.6968 312.826C37.0613 360.998 137.355 365.869 241.708 323.707Z" stroke="#979797" stroke-width="0.8" stroke-miterlimit="10"/>
<path d="M243.045 319.165C344.505 271.278 408.922 194.482 386.924 147.635C364.925 100.788 264.842 101.631 163.382 149.518C61.9213 197.405 -2.49536 274.201 19.5031 321.048C41.5015 367.895 141.585 367.052 243.045 319.165Z" stroke="#979797" stroke-width="0.8" stroke-miterlimit="10"/>
<path d="M244.405 314.551C342.966 260.923 402.894 180.557 378.258 135.048C353.622 89.5401 253.751 96.1227 155.19 149.751C56.6287 203.379 -3.2996 283.745 21.3364 329.253C45.9723 374.762 145.843 368.179 244.405 314.551Z" stroke="#979797" stroke-width="0.8" stroke-miterlimit="10"/>
<path d="M245.724 309.976C341.397 250.621 396.856 166.702 369.596 122.538C342.335 78.3735 242.678 90.6877 147.006 150.042C51.3329 209.397 -4.12617 293.316 23.1342 337.48C50.3946 381.645 150.052 369.331 245.724 309.976Z" stroke="#979797" stroke-width="0.8" stroke-miterlimit="10"/>
<path d="M247.089 305.354C339.866 240.25 390.839 152.758 360.942 109.935C331.044 67.1126 231.598 85.1751 138.821 150.279C46.0446 215.383 -4.92883 302.875 24.9687 345.697C54.8662 388.52 154.313 370.457 247.089 305.354Z" stroke="#979797" stroke-width="0.8" stroke-miterlimit="10"/>
<path d="M248.394 300.738C338.279 229.902 384.77 138.84 352.235 97.3455C319.701 55.8511 220.459 79.6375 130.574 150.474C40.6891 221.31 -5.80251 312.372 26.7324 353.867C59.2673 395.361 158.508 371.575 248.394 300.738Z" stroke="#979797" stroke-width="0.8" stroke-miterlimit="10"/>
<path d="M249.695 296.189C336.694 219.618 378.717 124.995 343.557 84.8427C308.397 44.6907 209.368 74.2142 122.369 150.785C35.3695 227.356 -6.65432 321.979 28.5058 362.131C63.6659 402.283 162.696 372.76 249.695 296.189Z" stroke="#979797" stroke-width="0.8" stroke-miterlimit="10"/>
<path d="M251.038 291.591C335.132 209.29 372.668 111.109 334.877 72.2979C297.086 33.4871 198.279 68.7432 114.185 151.045C30.091 233.346 -7.44498 331.527 30.346 370.338C68.1369 409.148 166.944 373.892 251.038 291.591Z" stroke="#979797" stroke-width="0.8" stroke-miterlimit="10"/>
<path d="M252.386 287.011C333.589 198.973 366.644 97.2216 326.216 59.7423C285.789 22.263 187.187 63.2488 105.984 151.287C24.7808 239.325 -8.27415 341.076 32.1536 378.556C72.5814 416.035 171.183 375.049 252.386 287.011Z" stroke="#979797" stroke-width="0.8" stroke-miterlimit="10"/>
<path d="M253.706 282.419C332.02 188.651 360.606 83.3408 317.555 47.2018C274.505 11.0628 176.119 57.7803 97.8047 151.548C19.4905 245.316 -9.09596 350.627 33.9549 386.765C77.0058 422.904 175.392 376.187 253.706 282.419Z" stroke="#979797" stroke-width="0.8" stroke-miterlimit="10"/>
<path d="M255.044 277.809C330.46 178.308 354.562 69.4345 308.879 34.6328C263.195 -0.168977 165.025 52.2801 89.6095 151.781C14.194 251.282 -9.90857 360.156 35.775 394.957C81.4585 429.759 179.629 377.31 255.044 277.809Z" stroke="#979797" stroke-width="0.8" stroke-miterlimit="10"/>
<path d="M256.384 273.223C328.901 167.994 348.52 55.5596 300.204 22.0944C251.889 -11.371 153.935 46.8051 81.4187 152.034C8.90205 257.263 -10.7169 369.697 37.5984 403.163C85.9138 436.628 183.867 378.452 256.384 273.223Z" stroke="#979797" stroke-width="0.8" stroke-miterlimit="10"/>
<path d="M257.732 268.714C327.375 157.756 342.529 41.7512 291.58 9.61009C240.631 -22.5311 142.872 41.3628 73.2293 152.321C3.58649 263.279 -11.5677 379.284 39.3815 411.425C90.3306 443.566 188.09 379.673 257.732 268.714Z" stroke="#979797" stroke-width="0.8" stroke-miterlimit="10"/>
</g>
</g>
<defs>
<clipPath id="clip0_1692_3526">
<rect width="475" height="421" fill="white"/>
</clipPath>
</defs>
</svg>
