<svg width="200" height="200" viewBox="0 0 200 200" fill="none" xmlns="http://www.w3.org/2000/svg">
<g clip-path="url(#clip0_1692_1796)">
<g opacity="0.9">
<path d="M112.224 142.868C112.224 142.868 112.358 142.734 112.418 142.66C112.358 142.734 112.284 142.794 112.224 142.868C135.289 166.826 162.418 179.363 172.677 170.787L175.044 168.27C175.044 168.27 175.044 168.27 175.059 168.256C174.047 169.313 172.692 170.102 170.98 170.593C158.785 174.077 133.011 161.108 113.416 141.618C113.386 141.647 113.356 141.677 113.326 141.722C113.356 141.692 113.386 141.647 113.416 141.618C100.044 128.336 93.0016 115.441 93.7461 107.49C92.942 113.297 95.3244 124.271 112.239 142.883L112.224 142.868Z" fill="#979797"/>
<path d="M114.994 139.757C114.994 139.757 115.113 139.608 115.158 139.548C115.098 139.623 115.039 139.697 114.994 139.757C136.867 159.366 168.314 174.212 178.529 164.206C178.663 164.042 178.797 163.878 178.916 163.714L180.45 161.734C180.45 161.734 180.554 161.6 180.613 161.525C179.631 162.702 178.186 163.595 176.266 164.146C164.071 167.63 137.12 156.106 116.051 138.387C102.189 126.728 94.3418 115.293 94.0737 107.848C93.9397 113.595 97.6771 123.631 114.994 139.757Z" fill="#979797"/>
<path d="M106.03 67.9274C106.03 67.9274 105.986 67.8976 105.971 67.8827C105.986 67.8976 106.016 67.9125 106.03 67.9274C126.697 40.2025 154.095 18.657 162.388 23.6004L159.544 21.3223C152.442 16.2448 126.355 35.3931 104.601 66.7808C99.6725 74.1513 89.19 91.2895 92.9423 98.4068C91.5575 95.4288 91.9298 87.6861 106.03 67.9274ZM105.316 67.3467C105.316 67.3467 105.331 67.3467 105.345 67.3616C105.316 67.3318 105.271 67.302 105.241 67.2871C105.271 67.302 105.286 67.3318 105.316 67.3467Z" fill="#979797"/>
<path d="M86.8074 57.9963C86.8074 57.9963 86.733 57.9814 86.7032 57.9665C86.733 57.9665 86.7776 57.9814 86.8074 57.9963C91.7211 31.3137 105.583 6.84974 117.763 3.36552C119.52 2.85927 121.143 2.82949 122.632 3.20173L120.295 2.63592C119.669 2.48702 119.014 2.35301 118.359 2.20411C106.79 0.625793 90.7979 22.2011 85.0355 57.5645C82.9212 72.6627 83.5019 89.518 90.3661 96.948C85.1398 90.605 83.487 76.1172 86.8223 57.9963H86.8074Z" fill="#979797"/>
<path d="M78.0971 56.5813C78.2014 29.1245 88.1626 4.03514 100.357 0.550923C101.042 0.357356 101.727 0.238237 102.397 0.178678C101.251 0.104229 100.119 0.0595593 99.0769 0C87.3139 0.670042 75.6999 21.6796 76.2508 56.5068C76.8762 72.4092 81.0155 90.9172 90.3812 97.7665C83.0554 91.8106 78.0376 76.2507 78.112 56.5813H78.0971Z" fill="#979797"/>
<path d="M65.6045 5.09154C65.6045 5.09154 65.5449 5.10643 65.5151 5.12132L65.7236 5.04688C65.7236 5.04688 65.6491 5.07665 65.6045 5.09154Z" fill="#979797"/>
<path d="M128.99 196.545L128.618 196.634C128.737 196.604 128.856 196.575 128.976 196.545H128.99Z" fill="#979797"/>
<path d="M195.116 107.103C182.921 110.587 151.742 111.823 125.476 109.872C107.296 108.517 96.2475 105.986 95.1903 103.395C95.2201 103.35 95.2648 103.306 95.2946 103.261C96.858 105.301 107.787 106.85 125.432 107.147C125.432 107.028 125.432 106.909 125.432 106.79C125.432 106.909 125.432 107.028 125.446 107.147C151.682 107.609 182.847 105.137 195.041 101.653C198.392 100.7 199.97 99.762 199.925 98.8984L199.896 98.2135L199.851 97.5732C199.806 96.8585 199.747 96.0991 199.672 95.3248C199.479 96.0396 197.9 96.8436 194.788 97.737C182.594 101.221 151.489 104.557 125.312 105.197C108.144 105.614 97.3642 104.75 95.4137 103.142C95.4881 103.053 95.5626 102.963 95.637 102.874C98.1236 103.886 108.651 103.827 125.03 102.487C151.057 100.358 182.028 95.8162 194.222 92.3171C197.29 91.4386 198.883 90.709 199.121 90.1432C198.957 88.8627 198.779 87.5821 198.6 86.3612C197.543 88.6989 163.579 95.6673 124.747 100.566C124.747 100.596 124.747 100.641 124.762 100.67C124.762 100.641 124.762 100.596 124.747 100.566C115.292 101.727 99.8955 103.395 95.9199 102.561C96.0688 102.412 96.2028 102.264 96.3666 102.115C99.8062 102.01 109.633 100.566 124.255 97.9157C149.851 93.2701 180.464 86.6739 192.659 83.1896C196.069 82.2069 197.677 81.5816 197.662 81.2838C197.662 81.2391 197.647 81.1795 197.632 81.1349L196.903 78.0676C196.873 77.9633 196.843 77.8591 196.828 77.74C196.769 77.9335 195.146 78.4845 191.781 79.4523C179.586 82.9365 149.166 90.3665 123.809 96.0396C123.809 96.0396 123.809 96.0544 123.809 96.0693C123.809 96.0693 123.809 96.0544 123.809 96.0396C110.184 99.092 100.804 101.013 96.9324 101.593C97.2898 101.311 97.6471 101.028 98.0343 100.775C98.0343 100.775 98.0641 100.775 98.0641 100.76C98.0938 100.745 98.1385 100.73 98.1683 100.7L98.3321 100.626C98.3321 100.626 98.4363 100.581 98.481 100.551C98.5108 100.551 98.5405 100.521 98.5703 100.521C98.7192 100.462 98.883 100.402 99.0468 100.343C99.0468 100.343 99.0468 100.343 99.0617 100.343C99.2106 100.283 99.3595 100.224 99.5084 100.164C104.184 98.8388 112.254 96.5458 123.034 93.4934C123.034 93.4636 123.019 93.419 123.005 93.3892C123.005 93.419 123.034 93.4636 123.034 93.4934C147.975 86.4059 178.082 77.8293 190.277 74.3451C193.746 73.3475 195.384 72.8859 195.399 72.871L194.267 69.4463C194.222 69.3421 192.555 69.7441 189.085 70.7418C176.891 74.226 147.052 83.6066 122.439 91.6917C122.439 91.7215 122.454 91.7513 122.468 91.7811L122.439 91.6917C109.514 95.9353 100.61 98.9729 96.8133 100.402C96.4411 100.358 96.0688 100.298 95.6966 100.224C98.6299 98.541 107.698 94.6399 121.516 89.22C121.516 89.2051 121.501 89.1754 121.486 89.1605C121.486 89.1754 121.501 89.2051 121.516 89.22C145.622 79.7799 175.044 69.2975 187.239 65.7983C190.515 64.8603 192.212 64.5178 192.48 64.7114C192.376 64.4434 192.272 64.1754 192.153 63.9073L191.125 61.4952C191.125 61.4952 191.125 61.4654 191.111 61.4505C189.949 59.9169 156.611 71.8585 120.786 87.4779C112.209 91.245 98.4214 97.5137 95.2648 100.104C95.0861 100.06 94.8925 100.015 94.7139 99.9556C96.2475 97.8561 105.137 92.4809 119.669 85.1104C119.669 85.1104 119.669 85.0955 119.669 85.0807C119.669 85.0807 119.669 85.0955 119.669 85.1104C142.748 73.407 171.337 61.0783 183.532 57.5941C186.956 56.6113 188.713 56.4327 188.981 56.9389L187.716 54.5119C187.716 54.5119 187.701 54.4821 187.686 54.4672L187.343 53.8269C187.343 53.8269 187.343 53.812 187.328 53.7972C187.001 53.2016 185.199 53.3207 181.804 54.3034C169.61 57.7876 141.408 70.846 118.806 83.4726C118.806 83.4726 118.806 83.4726 118.806 83.4874C118.806 83.4874 118.806 83.4874 118.806 83.4726C104.154 91.662 95.4584 97.6477 94.4756 99.896C94.431 99.896 94.4012 99.8662 94.3565 99.8662C94.3118 99.8514 94.2672 99.8216 94.2225 99.8067C94.4905 97.3499 102.844 90.5154 117.495 81.2242C139.368 67.3618 166.989 53.2909 179.184 49.8067C182.519 48.8537 184.351 48.7942 184.812 49.4791C184.812 49.4642 184.797 49.4493 184.782 49.4344L182.921 46.516C182.921 46.516 182.921 46.5011 182.906 46.4863C182.37 45.712 180.509 45.7269 177.189 46.6798C164.994 50.164 137.82 64.9347 116.498 79.6608C101.95 89.7114 93.88 97.1414 94.0885 99.7471C94.0438 99.7322 93.9992 99.7024 93.9545 99.6876C93.0909 96.9032 100.7 88.6393 115.024 77.5464C115.024 77.5315 114.994 77.5017 114.979 77.4869C114.979 77.5017 115.009 77.5315 115.024 77.5464C135.527 61.6441 162.046 45.9353 174.24 42.4362C177.516 41.4982 179.422 41.5428 180.077 42.4064L179.705 41.9151L178.052 39.7561C177.993 39.6816 177.933 39.5923 177.859 39.5178C177.099 38.6393 175.178 38.5947 172.007 39.5029C159.812 42.9871 133.8 59.3659 113.907 76.0723C99.8062 87.9097 92.5697 96.7394 93.88 99.6429C93.8503 99.6429 93.8354 99.6131 93.8056 99.6131C91.8848 96.5607 98.5554 86.9419 112.269 74.092C131.253 56.2838 156.536 39.0116 168.731 35.5274C171.888 34.6191 173.853 34.7382 174.717 35.706C174.717 35.706 174.702 35.6911 174.687 35.6762L172.32 33.0408C171.382 32.0431 169.386 31.9091 166.274 32.7876C154.08 36.2718 129.348 54.1545 111.048 72.7221C97.6769 86.2718 91.4232 96.4565 93.7758 99.5982C93.7758 99.5982 93.7758 99.5982 93.7609 99.5982C93.7609 99.5982 93.7311 99.5833 93.7162 99.5685C90.8425 96.2778 96.456 85.3785 109.261 70.8907C109.231 70.8609 109.202 70.846 109.187 70.8162C109.217 70.846 109.246 70.8609 109.261 70.8907C126.578 51.3106 150.506 32.6089 162.701 29.1247C165.708 28.2611 167.719 28.41 168.791 29.4076C168.761 29.3779 168.731 29.3481 168.701 29.3183L166.379 27.1146C166.379 27.1146 166.23 26.9806 166.155 26.9061C165.009 25.9085 162.984 25.7596 160.05 26.5935C147.856 30.0777 124.523 49.3451 107.936 69.625C107.951 69.6399 107.966 69.6548 107.996 69.6846C107.981 69.6697 107.951 69.6548 107.936 69.6399C96.0093 84.217 90.8127 95.3546 93.3738 99.1515C93.21 98.9282 93.0611 98.6899 92.9271 98.4368C93.1355 98.8984 93.4036 99.2558 93.6567 99.5089C93.612 99.4791 93.5673 99.4493 93.5376 99.4047C93.5822 99.4493 93.6418 99.494 93.6865 99.5238C93.6865 99.5238 93.7014 99.5387 93.7162 99.5536C93.6865 99.5387 93.6567 99.5238 93.6269 99.5089C93.4482 99.36 93.2696 99.1962 93.1058 99.0324C93.2398 99.1664 93.3887 99.2855 93.5376 99.4047C93.2993 99.1962 93.0611 98.958 92.8229 98.6751C89.4429 94.1337 92.7931 81.5518 102.546 65.307C116.155 42.6447 137.06 21.4565 149.255 17.9574C151.757 17.2427 153.692 17.332 155.077 18.1063C154.839 17.9425 154.601 17.7787 154.362 17.6149L152.337 16.2599C150.878 15.3368 148.853 15.173 146.233 15.9324C134.038 19.4166 113.803 41.0664 101.042 64.2945C92.4208 79.9586 89.4131 92.3469 92.1081 97.6625C89.6662 93.5827 88.9664 84.2468 98.8681 62.9693C98.8383 62.9544 98.8086 62.9395 98.7788 62.9097C98.8086 62.9246 98.8383 62.9395 98.8681 62.9693C111.882 36.1229 136.108 8.74057 147.87 13.55C147.677 13.4309 147.483 13.3266 147.29 13.2075L145.473 12.195C145.473 12.195 145.414 12.1652 145.369 12.1355L144.669 11.7632C135.11 7.37071 112.82 27.9633 97.2898 62.0908C97.3047 62.0908 97.3345 62.1057 97.3494 62.1206C97.3345 62.1206 97.3047 62.1057 97.2898 62.0908C94.3118 68.8954 85.646 90.6941 92.674 98.5559C92.942 98.9133 93.2547 99.226 93.5971 99.4791C93.5822 99.4791 93.5674 99.4642 93.5525 99.4493C93.21 99.226 92.8526 98.9729 92.4804 98.6453C87.4476 93.7614 88.0581 79.4076 95.0117 60.9443C104.452 35.8847 121.977 12.7459 134.172 9.26172C136.45 8.60656 138.371 8.6959 139.949 9.41062L136.882 8.05564C136.644 7.95141 136.405 7.86207 136.152 7.75785C134.648 7.22181 132.876 7.22181 130.851 7.78763C118.657 11.2718 101.876 34.7382 93.344 60.2147C93.3738 60.2147 93.4184 60.2444 93.4482 60.2593C93.4184 60.2593 93.3738 60.2296 93.344 60.2147C87.3732 78.0676 87.0456 92.1682 91.6019 97.7966C87.9688 93.7763 84.6037 83.8448 90.9765 59.2915C90.9765 59.2915 90.9765 59.2915 90.9616 59.2915C90.9616 59.2915 90.9616 59.2915 90.9765 59.2915C98.9128 31.3284 117.495 2.5613 131.492 5.9264C131.283 5.85195 131.06 5.7775 130.851 5.70305L128.082 4.77988C127.948 4.73521 127.814 4.69054 127.665 4.64587C126.176 4.21407 124.493 4.24385 122.647 4.76499C110.452 8.24921 95.503 32.4005 89.2344 58.6959C89.2344 58.6959 89.2642 58.6959 89.2791 58.6959C89.2791 58.6959 89.2493 58.6959 89.2344 58.6959C84.6484 77.9335 86.0033 93.002 91.8252 98.3326C91.2892 97.9157 90.7978 97.4541 90.3363 96.9478C90.8723 97.603 91.4381 98.1688 92.0486 98.6304C85.7204 94.2081 80.6281 81.6411 82.4893 57.0878C82.4596 57.0878 82.4298 57.0878 82.4 57.0729C82.4298 57.0729 82.4596 57.0729 82.4893 57.0729C85.2886 29.4672 97.8705 0.268269 113.386 1.251L110.825 0.893641C110.035 0.804303 109.217 0.714964 108.383 0.625625C107.46 0.625625 106.507 0.744743 105.524 1.02765C93.3291 4.51187 82.2064 29.497 80.6877 56.8198C79.5263 77.5762 84.2314 93.7019 91.9146 98.7495C91.3934 98.4517 90.8723 98.1241 90.3809 97.7668C91.5572 98.7197 92.7931 99.4344 94.0736 99.8662C94.0736 99.8811 94.1034 99.9109 94.1183 99.9258C84.2463 96.9032 75.7145 79.5119 73.8235 56.5071C71.5453 29.0056 79.5858 3.8716 91.7806 0.387388C92.3762 0.2236 92.9569 0.104481 93.5376 0.0449219C92.257 0.0895913 90.9616 0.149151 89.7853 0.238489C89.2195 0.298049 88.6537 0.417167 88.073 0.580955C75.8783 4.06517 68.6716 29.1545 71.9622 56.6113C74.7317 79.6459 84.0081 97.0372 94.1332 99.9705C94.1332 99.9705 94.1481 100 94.1629 100.015C83.7103 97.201 73.3768 79.8692 69.431 56.8645C69.1034 56.9091 68.7758 56.9538 68.4333 56.9985C68.7609 56.9538 69.0885 56.9091 69.431 56.8645C64.7407 29.5416 70.8157 4.57143 82.9956 1.08721C83.2487 1.01276 83.5018 0.953201 83.755 0.908531C82.8467 1.02765 81.9533 1.16166 81.1641 1.26589L80.5685 1.37012C80.1814 1.42967 79.7943 1.51901 79.422 1.63813C67.2273 5.12235 61.9563 29.9735 67.6442 57.1474C67.808 57.1176 67.9718 57.0878 68.1355 57.0729C67.9718 57.1027 67.808 57.1325 67.6442 57.1474C72.4387 80.0926 83.5167 97.3499 94.1927 100.06C94.1927 100.06 94.2076 100.09 94.2225 100.104C83.2487 97.5285 71.1433 80.4201 65.1874 57.6387C58.1445 30.7328 62.3285 6.10508 74.5084 2.62086C74.5531 2.62086 74.6126 2.59108 74.6573 2.57619C74.6126 2.57619 74.5828 2.59108 74.5382 2.60597L72.528 3.11222C71.9176 3.27601 71.3071 3.42491 70.7413 3.5887C58.8145 7.41538 55.5388 31.656 63.4601 58.0854C63.5942 58.0556 63.7133 58.0259 63.8473 57.9812C63.7133 58.011 63.5942 58.0556 63.4601 58.0854C70.2499 80.7179 83.07 97.6774 94.2523 100.149C94.2523 100.149 94.2672 100.179 94.2821 100.194C82.8318 97.871 69.0289 81.1646 61.1076 58.8001C61.0778 58.8001 61.048 58.815 61.0182 58.8299C61.048 58.8299 61.0778 58.815 61.1076 58.8001C52.0248 33.1152 54.0647 9.48506 65.5447 5.18191L62.6561 6.20931C62.4476 6.28375 62.2243 6.37309 62.0158 6.44754C50.774 10.9592 49.5382 34.1873 59.4548 59.3808C59.559 59.3362 59.6484 59.3064 59.7526 59.2766C59.6484 59.3064 59.559 59.3511 59.4548 59.3957C68.1653 81.522 82.6531 98.0199 94.297 100.224V100.253C82.4298 98.1986 66.989 82.0431 57.1915 60.304C46.2177 35.9443 46.3071 13.416 57.0426 8.48745C56.998 8.50234 56.9682 8.51723 56.9235 8.54701L54.5858 9.63396L53.8711 9.97643C53.7669 10.0211 53.6627 10.0807 53.5584 10.1253C43.2249 15.3368 43.9396 37.329 55.6132 61.0336C66.1701 82.4601 82.266 98.3475 94.3267 100.268V100.298C94.3267 100.298 94.3416 100.298 94.3565 100.298C82.0724 98.5559 65.0682 83.1003 53.484 62.1503C53.4244 62.1801 53.3649 62.2099 53.3053 62.2397C53.3649 62.2099 53.4244 62.1801 53.4691 62.1355C41.051 39.6965 39.1451 18.7614 48.4214 12.8353C48.3768 12.8651 48.3172 12.8948 48.2725 12.9246L45.5775 14.5178C36.2565 20.2802 38.7431 40.9175 51.9801 63.014C52.0397 62.9842 52.0843 62.9544 52.1439 62.9097C52.0843 62.9395 52.0397 62.9842 51.9801 63.014C64.294 83.5768 81.9235 98.69 94.3714 100.313C94.3714 100.313 94.3863 100.343 94.4012 100.358C81.7448 98.9282 63.2815 84.3213 49.97 64.354C38.5048 47.0372 31.3279 25.8341 41.1105 17.4809C40.9914 17.5702 40.8574 17.6596 40.7383 17.734L38.3261 19.5059C38.1624 19.625 37.9986 19.759 37.8348 19.8782C29.973 26.2659 34.1421 45.2355 48.5703 65.3665C48.6001 65.3368 48.6448 65.307 48.6746 65.2921C48.6448 65.3219 48.6001 65.3517 48.5703 65.3665C62.5668 84.8871 81.6257 99.1069 94.4161 100.387C94.4161 100.387 94.4161 100.402 94.4161 100.417C81.4322 99.3153 61.584 85.6911 46.6644 66.8555C31.4024 47.5732 26.4441 29.3183 33.9485 22.9603L31.2535 25.3427C31.2535 25.3427 31.1195 25.4618 31.045 25.5363C24.1659 32.058 29.7198 49.5833 45.369 68.002C45.3839 67.9871 45.4137 67.9723 45.4286 67.9425C45.4137 67.9574 45.3839 67.9723 45.369 68.002C60.914 86.3016 81.313 99.494 94.4161 100.447C94.4161 100.447 94.4161 100.477 94.431 100.477C81.1492 99.7322 60.0206 87.2099 43.6269 69.6846C43.5376 69.7739 43.4482 69.8782 43.344 69.9675C43.4333 69.8782 43.5227 69.7739 43.612 69.6846C30.9855 56.0902 20.101 38.2969 27.3523 29.095C27.2779 29.1694 27.2034 29.2438 27.129 29.3332L25.4613 31.12C25.1635 31.4475 24.8657 31.7751 24.568 32.1027C19.1629 38.818 26.0123 54.5863 42.4357 70.9502C42.4357 70.9502 42.4357 70.9502 42.4506 70.9353C42.4506 70.9353 42.4506 70.9353 42.4357 70.9502C59.425 87.8948 81.045 99.9109 94.4458 100.521C94.4458 100.521 94.4458 100.536 94.4607 100.551C80.9259 100.149 58.621 88.8627 40.8574 72.7668C40.7532 72.9008 40.6489 73.0199 40.5447 73.1539C40.6489 73.0199 40.7532 72.8859 40.8574 72.7668C24.0319 57.5345 16.5275 42.7638 21.188 36.0634C20.4286 37.0312 19.6543 38.0288 18.9694 38.9371C14.696 45.5482 22.6323 59.6637 39.7853 74.1366C58.0849 89.5774 80.8366 100.328 94.4756 100.581C94.4756 100.596 94.4905 100.611 94.5054 100.626C80.7323 100.596 57.3702 90.6346 38.3857 76.1319C38.2666 76.3106 38.1475 76.5041 38.0135 76.6828C38.1326 76.5041 38.2517 76.3106 38.3708 76.1319C20.4881 62.4779 12.0307 49.0473 16.2743 42.734L14.3386 45.7418C14.3386 45.7418 14.294 45.8162 14.2791 45.846C10.4971 52.0699 19.3267 64.7858 37.4179 77.606C37.5816 77.3528 37.7454 77.0848 37.9092 76.8317C37.7454 77.0848 37.5816 77.338 37.4179 77.606C56.8937 91.4088 80.6579 100.789 94.5054 100.655C94.5054 100.67 94.5352 100.685 94.5501 100.7C80.5834 101.057 56.2833 92.5405 36.182 79.7352C36.0331 80.0032 35.8991 80.2712 35.7502 80.5393C35.8842 80.2712 36.0331 80.0032 36.182 79.7352C17.8824 68.0765 8.59118 56.388 11.6734 50.3427C11.6436 50.4023 11.6138 50.4469 11.584 50.5065L10.5269 52.5166L10.0653 53.4398C7.14687 59.2915 16.7508 70.3695 35.378 81.3135C35.4822 81.0902 35.6013 80.8668 35.7204 80.6584C35.6013 80.8817 35.4971 81.1051 35.3928 81.3135C55.911 93.3743 80.5834 101.266 94.6096 100.73C94.6096 100.73 94.6245 100.745 94.6394 100.76C94.6394 100.76 94.6394 100.76 94.6394 100.775C80.5239 101.534 55.3899 94.5506 34.3357 83.5619C34.2017 83.8597 34.0825 84.1575 33.9634 84.4553C34.0825 84.1575 34.2165 83.8597 34.3357 83.5619C23.4363 77.7549 5.4941 66.6917 7.95092 58.0259L6.67039 61.1378C6.61084 61.2867 6.56617 61.4207 6.50661 61.5696C4.69005 66.9895 14.8896 76.2808 33.6656 85.2296C33.7252 85.0658 33.7996 84.8871 33.8741 84.7233C33.7996 84.8871 33.7401 85.0658 33.6805 85.2296C55.0623 95.4142 80.4643 101.742 94.6394 100.819C94.6394 100.819 94.6394 100.834 94.6394 100.849C80.3899 102.01 54.6156 96.6352 32.8318 87.597C23.9872 83.8895 3.55842 74.3749 4.88362 66.1855C4.83895 66.3046 4.79428 66.4386 4.7645 66.5577L3.82644 69.625C2.41191 74.4493 13.1028 82.192 32.3107 89.3391C32.3553 89.1902 32.4 89.0562 32.4447 88.9222C32.4 89.0562 32.3553 89.2051 32.3255 89.354C54.3922 97.5583 80.3899 102.219 94.6841 100.909V100.953C80.3452 102.502 54.0796 98.8388 31.6704 91.8257C31.6704 91.8555 31.6704 91.8704 31.6555 91.9002C31.6555 91.8704 31.6555 91.8555 31.6704 91.8257C12.403 85.8103 1.50363 79.0354 2.54592 74.5684C2.54592 74.5684 2.54592 74.5684 2.54592 74.5833L2.02477 77.0402C1.93543 77.4869 1.8461 77.9484 1.75676 78.41C1.47385 82.5792 12.4179 88.5202 31.2833 93.6423C53.886 99.7769 80.3303 102.71 94.7139 100.998V101.043H94.7288C80.3154 103.008 53.6775 101.102 30.8515 96.2182C30.8515 96.2629 30.8515 96.3076 30.8366 96.3522C30.8366 96.3076 30.8366 96.2629 30.8515 96.2182C11.5394 92.0789 0.401784 86.9568 0.952707 83.1748L0.506012 86.8228C0.446453 88.9669 4.27313 93.2849 30.6281 98.0944C30.6281 97.9901 30.6579 97.9008 30.6579 97.7966C30.6579 97.9008 30.643 97.9901 30.6281 98.0944C53.5733 102.085 80.3303 103.231 94.7585 101.087C94.7734 101.102 94.8032 101.117 94.8479 101.117C80.4196 103.514 53.5286 103.455 30.4345 100.745C17.0635 99.1069 0.952707 96.248 0.133767 91.9597C0.133767 92.0044 0.133767 92.0491 0.133767 92.0938L0.0146484 95.6822C0.103987 97.3499 4.1838 100.477 30.375 102.666C53.5584 104.437 80.5685 103.723 94.967 101.132C94.9968 101.132 95.0266 101.132 95.0563 101.132C95.0266 101.147 94.9968 101.162 94.967 101.177C80.5685 104.006 53.5733 105.837 30.4196 105.39C30.4196 105.539 30.4196 105.688 30.4345 105.837C30.4345 105.688 30.4345 105.539 30.4196 105.39C17.2273 105.093 1.26539 104.08 0.0890975 100.923L0.133767 101.802V101.876C0.223106 102.8 0.297555 103.842 0.372004 104.899C1.28028 106.73 12.3136 107.758 30.5388 107.356C30.5388 107.326 30.5388 107.296 30.5388 107.252C30.5388 107.281 30.5388 107.311 30.5388 107.356C53.6031 106.85 80.4792 104.229 94.8925 101.236C94.8628 101.266 94.8479 101.281 94.8479 101.296C80.4494 104.542 53.7222 108.249 30.8217 110.066C12.0754 111.555 1.01227 111.391 0.833588 109.872L1.36962 113.535C1.5483 114.726 12.5072 114.25 31.1046 111.987C31.1046 111.942 31.1046 111.912 31.0897 111.867V111.987C53.8711 109.232 80.4941 104.735 94.8777 101.325C94.8777 101.325 94.8777 101.325 94.8777 101.34C94.8777 101.34 94.8777 101.355 94.8777 101.37C80.5537 105.018 54.1242 110.587 31.5959 114.622C31.5959 114.622 31.5959 114.622 31.5959 114.637C31.5959 114.637 31.5959 114.637 31.5959 114.622C13.9068 117.794 3.26063 119.208 2.38213 118.627C2.65015 119.744 2.94794 120.935 3.26063 122.156C4.40714 122.335 14.8449 120.31 32.0277 116.498C54.3476 111.555 80.5983 105.227 94.8777 101.415C94.8777 101.415 94.8777 101.43 94.8777 101.445V101.474C80.6579 105.524 54.7049 112.88 32.7425 119.074C15.6638 123.898 5.41965 126.757 4.57093 126.981C4.9134 128.172 5.27075 129.318 5.643 130.405C5.89612 130.033 16.0212 126.534 33.3381 120.891C33.3381 120.876 33.338 120.846 33.3232 120.831C33.3232 120.846 33.3381 120.876 33.3529 120.891C55.777 113.58 82.5191 105.182 96.3368 101.102C96.6793 101.013 97.0665 100.894 97.528 100.775C84.157 104.839 56.8788 114.562 34.2761 123.362C17.2273 130.003 7.4 134.351 7.4 135.096C7.45955 135.23 7.50422 135.364 7.56378 135.512L8.78475 138.401C8.78475 138.401 8.78475 138.416 8.78475 138.431C8.36783 137.508 17.9867 132.534 34.9908 125.104C56.5066 115.709 82.4595 105.599 96.2028 101.206C95.8306 101.325 95.5477 101.445 95.3541 101.519C81.5066 106.254 56.6406 117.109 36.1076 127.472C36.1076 127.472 36.1076 127.487 36.1076 127.502C36.1076 127.502 36.1076 127.487 36.1076 127.472C19.4905 135.87 10.2439 141.647 10.914 142.928L12.269 145.533L12.3136 145.623C12.3881 145.742 12.4625 145.876 12.537 145.995C12.0754 144.297 20.9944 138.014 36.9861 129.125C36.9861 129.11 36.9712 129.095 36.9563 129.08C36.9563 129.095 36.9712 129.11 36.9861 129.125C56.9533 118.017 81.2833 106.567 95.101 101.638C95.0414 101.683 94.9968 101.713 94.9819 101.727C81.2535 106.894 57.5489 119.208 38.2815 131.373C38.2964 131.403 38.3112 131.433 38.341 131.462C38.3261 131.433 38.2964 131.403 38.2815 131.373C22.7663 141.156 14.294 148.213 15.0087 150.268C15.1427 150.477 15.2618 150.7 15.3809 150.894L16.855 153.216C16.855 153.216 16.9295 153.336 16.9741 153.38C16.2297 151.653 19.5203 146.71 39.2791 132.937C39.2791 132.922 39.2642 132.907 39.2493 132.892C39.2493 132.907 39.2642 132.922 39.2791 132.937C58.0551 120.027 81.3279 107.073 94.967 101.772V101.817C81.4619 107.326 58.7847 121.129 40.7383 135.066C25.774 146.62 18.1207 155.078 19.7883 157.475C19.8777 157.594 19.9521 157.713 20.0414 157.817L20.2052 158.041C20.2052 158.041 20.2499 158.115 20.2797 158.145L21.724 160.036C21.7836 160.11 21.8431 160.185 21.9027 160.259C20.101 157.609 27.3672 148.645 41.855 136.525C41.8401 136.495 41.8104 136.465 41.7955 136.436L41.855 136.525C59.3506 121.873 81.5662 107.49 94.9819 101.847C94.9819 101.861 94.9819 101.876 94.9819 101.891C81.7151 107.728 60.1844 122.916 43.478 138.52C43.478 138.52 43.4929 138.535 43.5078 138.55C43.5078 138.55 43.4929 138.535 43.478 138.52C33.7252 147.767 22.6323 159.723 25.1338 164.205C25.1338 164.205 25.1487 164.235 25.1635 164.235L27.2928 166.617C27.2928 166.617 27.3821 166.722 27.4417 166.781C24.9402 163.729 31.2088 153.529 44.7139 139.89C44.699 139.875 44.6841 139.86 44.6692 139.831C44.6841 139.845 44.699 139.86 44.7139 139.89C60.8098 123.63 81.8491 107.892 94.9968 101.921C94.9968 101.921 94.9968 101.921 94.9968 101.936C94.9968 101.936 94.9968 101.951 94.9968 101.966C82.0129 108.1 61.7031 124.583 46.4858 141.722C33.5614 156.269 27.9479 167.213 30.9408 170.399C31.045 170.504 31.1641 170.608 31.2684 170.712L33.3529 172.692C33.3529 172.692 33.4572 172.782 33.5018 172.826C30.2559 169.461 35.4077 158.071 47.811 142.972C47.811 142.972 47.7812 142.957 47.7812 142.942C47.7812 142.942 47.811 142.957 47.811 142.972C62.3881 125.209 82.1618 108.234 95.0266 101.981C95.0266 101.981 95.0563 101.995 95.0712 102.01C82.3851 108.413 63.3857 126.087 49.7317 144.655C37.8497 160.81 33.4423 172.99 37.4625 176.296L40.3065 178.574C35.9438 175.209 39.8002 162.552 51.1612 145.786C51.1314 145.772 51.1016 145.742 51.0867 145.727C51.1165 145.742 51.1463 145.772 51.1612 145.786C64.1153 126.668 82.5191 108.562 95.0712 102.04C95.0712 102.055 95.0563 102.085 95.0414 102.1C82.6829 108.785 65.1427 127.487 53.2011 147.29C53.2011 147.29 53.2308 147.305 53.2308 147.32C53.2308 147.32 53.2011 147.305 53.2011 147.29C42.6889 164.726 39.5769 177.934 44.2821 181.492C44.4161 181.582 44.5501 181.671 44.6841 181.775L47.4983 183.666C44.4161 181.269 41.2743 173.496 54.7347 148.318C65.9319 128.038 82.8318 108.949 95.0563 102.144C95.0563 102.144 95.0563 102.159 95.0563 102.174V102.204C83.0403 109.157 67.0486 128.752 56.9086 149.643C56.9384 149.643 56.9533 149.673 56.9831 149.688C56.9533 149.688 56.9384 149.658 56.9086 149.643C47.6918 168.642 46.0837 183.011 51.9205 186.361L54.556 187.835L55.1814 188.163C48.9426 184.857 49.8955 170.072 58.5018 150.507C58.5018 150.507 58.4869 150.507 58.4721 150.492C58.4721 150.492 58.5018 150.492 58.5018 150.507C67.8675 129.199 83.2189 109.277 95.0712 102.219V102.264C83.4423 109.44 69.0289 129.81 60.7651 151.638C60.7949 151.638 60.8246 151.668 60.8544 151.683C60.8246 151.683 60.7949 151.653 60.7651 151.638C53.2011 171.62 53.0671 186.778 59.5292 190.322C59.7824 190.441 60.0206 190.56 60.2737 190.679L62.9986 191.885C62.9986 191.885 63.0581 191.915 63.0879 191.915C56.1195 188.595 55.509 172.99 62.4476 152.383C62.4179 152.383 62.3881 152.353 62.3583 152.338C62.3881 152.338 62.4179 152.368 62.4476 152.383C69.9074 130.227 83.621 109.574 95.101 102.308V102.338C83.8592 109.723 71.1135 130.718 64.8002 153.291C64.8151 153.291 64.83 153.291 64.8449 153.306C64.83 153.306 64.8151 153.306 64.8002 153.291C62.0307 163.624 56.8342 188.252 68.2398 193.925C68.6418 194.074 69.0438 194.223 69.431 194.357L71.7389 195.131C71.7389 195.131 71.858 195.176 71.9325 195.191C67.8824 193.479 59.3803 186.019 66.5274 153.872C66.4977 153.872 66.4679 153.857 66.4381 153.842C66.4679 153.842 66.4977 153.857 66.5274 153.872C72.0069 131.031 84.0379 109.828 95.101 102.368C95.101 102.368 95.101 102.398 95.1159 102.412C84.3059 109.962 73.2725 131.433 68.9694 154.586C65.7532 172.052 66.1552 192.109 76.7419 196.546C77.8139 196.814 78.886 197.082 79.9432 197.335C71.4858 194.268 67.4357 177.383 70.7413 155.003C70.7413 155.003 70.7264 155.003 70.7115 155.003C70.7115 155.003 70.7264 155.003 70.7413 155.003C74.1808 131.671 84.4846 110.051 95.1159 102.427C95.1159 102.442 95.1159 102.472 95.1159 102.487C84.7675 110.185 75.506 131.969 73.2725 155.48C73.3023 155.48 73.347 155.48 73.3768 155.495C73.347 155.495 73.3023 155.495 73.2725 155.48C71.6793 174.271 74.2999 195.489 86.45 198.675L90.4256 199.241C79.8241 197.141 74.1064 180.882 75.104 155.748C76.459 132.147 84.9759 110.289 95.1308 102.532C95.1308 102.532 95.1308 102.532 95.1308 102.546V102.576C85.2737 110.408 77.8139 132.311 77.6799 155.986C77.5459 180.539 85.3482 198.675 95.7115 199.747C96.8431 199.807 98.0641 199.851 99.2255 199.896C88.7877 198.63 80.3303 180.524 79.5411 156.075C78.7818 132.4 85.4673 110.483 95.1308 102.621V102.666C85.78 110.572 80.1665 132.445 82.1618 156.06C84.3208 181.656 94.6692 200.298 105.926 199.941L110.021 199.732C98.5257 200.566 87.1647 181.82 84.0081 155.956C83.9634 155.956 83.9188 155.956 83.889 155.956C83.9336 155.956 83.9783 155.956 84.0081 155.956C81.1492 132.415 86.0033 110.617 95.1457 102.695C95.1457 102.695 95.1457 102.725 95.1457 102.74C86.316 110.691 82.4893 132.341 86.5394 155.703H86.6734C86.6734 155.703 86.584 155.703 86.5394 155.703C90.9914 181.358 103.395 199.97 114.979 199.226C115.5 199.166 116.021 199.107 116.542 199.032L118.865 198.69L119.654 198.556C107.713 200.596 93.88 181.76 88.3261 155.435C88.3112 155.435 88.2964 155.435 88.2666 155.435C88.2815 155.435 88.2964 155.435 88.3261 155.435C83.4274 132.237 86.5394 110.736 95.1457 102.77C95.1457 102.77 95.1457 102.785 95.1457 102.8C95.1457 102.8 95.1457 102.814 95.1457 102.829C86.852 110.78 84.7526 132.043 90.783 154.944C90.8127 154.944 90.8425 154.929 90.8723 154.914C90.8425 154.914 90.8127 154.929 90.783 154.944C97.6174 180.897 112.418 199.479 124.404 197.603C125.178 197.424 125.982 197.246 126.787 197.052L128.648 196.576C116.513 199.434 100.446 180.792 92.5102 154.497C92.4804 154.497 92.4506 154.512 92.4059 154.527C92.4357 154.527 92.4655 154.512 92.5102 154.497C85.6758 131.85 87.0903 110.795 95.1457 102.844C95.1457 102.844 95.1457 102.874 95.1457 102.889C87.403 110.825 86.9563 131.537 94.8628 153.782C94.8777 153.782 94.8925 153.782 94.9223 153.767C94.9074 153.767 94.8925 153.767 94.8628 153.782C104.199 180.033 121.664 198.496 133.859 195.012C134.008 194.967 134.172 194.923 134.321 194.863L138.028 193.538C137.745 193.642 137.463 193.747 137.165 193.821C124.97 197.305 106.775 179.11 96.5155 153.187C96.4709 153.187 96.4411 153.216 96.3964 153.231C96.4411 153.231 96.4709 153.202 96.5155 153.187C87.8497 131.269 87.6263 110.84 95.1457 102.934V102.978C87.9688 110.825 89.0855 130.837 98.7788 152.249C98.8234 152.234 98.8532 152.219 98.8979 152.189C98.8532 152.204 98.8234 152.234 98.7788 152.249C110.274 177.666 129.482 195.429 141.676 191.945C141.989 191.856 142.287 191.751 142.57 191.647C142.912 191.498 143.255 191.349 143.582 191.2L145.458 190.322C145.726 190.188 146.009 190.054 146.292 189.905C145.831 190.113 145.339 190.307 144.818 190.456C132.623 193.94 112.716 176.504 100.357 151.504C89.964 130.48 88.207 110.825 95.1606 103.008C95.1606 103.023 95.1606 103.038 95.1606 103.053C88.5495 110.78 91.1552 129.944 102.501 150.358C116.051 174.732 136.912 191.662 149.106 188.178C149.732 187.999 150.327 187.761 150.893 187.478C151.176 187.314 151.459 187.165 151.742 187.001L154.616 185.289C144.446 190.917 123.258 180.286 103.975 149.479C93.7907 131.939 89.9938 116.722 93.0015 107.564C90.6192 116.573 95.1754 131.984 105.985 148.139C121.456 171.293 143.895 187.225 156.09 183.741C157.206 183.428 158.204 182.951 159.068 182.341L159.306 182.177L161.227 180.763C161.39 180.643 161.539 180.524 161.703 180.405C160.884 180.956 159.931 181.403 158.874 181.701C146.679 185.185 123.63 169.699 107.385 147.112C107.355 147.127 107.326 147.156 107.311 147.171C107.34 147.156 107.37 147.127 107.385 147.112C95.4435 130.509 90.5 114.682 93.5674 106.09C93.7162 105.748 93.88 105.435 94.0438 105.107C90.5745 113.252 96.0986 129.05 109.246 145.593C126.533 167.347 150.417 182.147 162.611 178.663C164.011 178.261 165.202 177.636 166.17 176.817C166.17 176.817 166.2 176.802 166.215 176.787L168.433 174.822C168.523 174.747 168.612 174.658 168.686 174.583C167.734 175.372 166.572 175.983 165.202 176.37C153.007 179.854 128.544 165.56 110.542 144.446C110.512 144.476 110.482 144.506 110.452 144.521C110.482 144.491 110.512 144.461 110.542 144.446C96.6346 128.127 90.6787 112.508 94.297 104.646C94.4161 104.437 94.5501 104.244 94.6841 104.035C94.1927 105.018 93.8949 106.12 93.7758 107.356C93.9545 106.016 94.3118 104.959 94.699 104.14C94.2523 105.197 94.0587 106.403 94.1034 107.743C94.1183 106.909 94.2225 106.165 94.3714 105.509C93.2696 112.478 101.727 124.3 117.495 136.287C117.54 136.212 117.585 136.138 117.644 136.063C117.6 136.138 117.555 136.212 117.495 136.287C144.788 156.656 175.729 166.334 183.77 157.013C183.844 156.909 183.919 156.79 183.993 156.686L185.735 153.961C185.735 153.961 185.75 153.931 185.765 153.916C178.603 163.401 147.156 154.482 118.448 134.813C118.418 134.857 118.389 134.902 118.359 134.962C118.389 134.917 118.418 134.857 118.448 134.813C112.388 130.509 94.2374 116.692 94.5501 106.209C94.833 112.657 103.916 122.677 119.669 132.683C142.704 147.305 171.262 156.328 183.457 152.844C185.765 152.189 187.314 151.132 188.162 149.747C188.341 149.405 188.535 149.077 188.698 148.75L189.309 147.588C189.383 147.439 189.458 147.29 189.532 147.141L189.964 146.278C189.205 147.797 187.597 148.973 185.08 149.702C172.885 153.187 143.954 144.863 120.473 131.12C120.443 131.18 120.414 131.224 120.384 131.284C120.414 131.224 120.443 131.165 120.473 131.12C103.618 121.248 94.1481 111.272 94.6394 105.137C94.6841 104.854 94.7436 104.586 94.8181 104.318C93.7311 110.036 103.633 119.58 121.516 128.872C145.577 141.379 174.97 148.69 187.165 145.191C189.756 144.446 191.364 143.27 192.049 141.766C192.078 141.692 192.108 141.617 192.138 141.558L193.359 138.58C193.359 138.58 193.404 138.461 193.433 138.386C189.473 146.531 157.564 143.449 122.186 127.204C112.031 122.305 95.7562 113.267 94.9521 105.316C95.8753 110.423 106.075 117.838 123.034 124.822C123.064 124.747 123.079 124.673 123.109 124.613C123.079 124.688 123.064 124.762 123.034 124.822C147.945 135.096 178.022 140.605 190.217 137.106C193.031 136.302 194.639 135.096 195.161 133.577C195.19 133.473 195.235 133.368 195.265 133.249L195.994 130.852C196.039 130.688 196.099 130.509 196.143 130.346C195.592 131.716 194.014 132.847 191.289 133.621C179.094 137.106 148.779 132.386 123.57 123.065C105.42 116.364 94.8777 109.098 94.9521 104.259C94.967 104.05 94.9968 103.827 95.0414 103.618C94.4161 108.071 105.271 114.682 124.225 120.578C149.776 128.529 180.39 132.132 192.585 128.648C195.577 127.8 197.186 126.593 197.528 125.149L198.287 121.576C196.903 128.544 162.641 128.618 124.627 118.776C105.881 113.52 95.9795 108.547 95.1754 103.976C96.0539 107.654 106.968 112.359 125.044 116.2C125.044 116.141 125.059 116.066 125.074 116.007C125.074 116.066 125.059 116.141 125.044 116.2C151.042 121.724 182.013 123.377 194.208 119.893C197.349 119 198.928 117.838 199.121 116.543L199.523 113.178C199.523 113.178 199.523 113.044 199.538 112.969C198.317 118.866 163.981 120.652 125.268 114.339C125.268 114.428 125.253 114.518 125.238 114.607C125.238 114.518 125.253 114.428 125.268 114.339C112.031 111.972 96.1731 108.16 95.1754 103.365C95.8604 106.314 106.968 109.574 125.446 111.704C125.446 111.644 125.446 111.585 125.446 111.525C125.446 111.585 125.446 111.644 125.446 111.719C151.682 114.741 182.832 114.369 195.027 110.885C198.139 109.991 199.717 108.979 199.896 107.922C199.896 107.743 199.91 107.579 199.925 107.415L200.03 104.125C200.03 104.125 200.03 104.095 200.03 104.08C199.985 105.078 198.421 106.09 195.146 107.028L195.116 107.103ZM94.1481 99.9109C94.1481 99.9109 94.1481 99.9407 94.1481 99.9556C94.1183 99.9258 94.0885 99.9109 94.0587 99.8811C94.0736 99.8811 94.1034 99.896 94.1183 99.896L94.1481 99.9109ZM94.1183 99.9407C94.1183 99.9407 94.1034 99.9109 94.0885 99.896C94.0885 99.896 94.1183 99.9258 94.1332 99.9407C94.1332 99.9407 94.1332 99.9407 94.1183 99.9407ZM94.1629 100C94.1629 100 94.1481 99.9854 94.1332 99.9705C94.1332 99.9705 94.1481 99.9705 94.1629 99.9705C94.1629 99.9705 94.1629 99.9705 94.1778 99.9854C94.1778 99.9854 94.1778 99.9854 94.1778 100C94.1778 100 94.1629 100 94.1481 100H94.1629ZM94.2523 99.9854C94.2523 99.9854 94.2821 99.9854 94.297 99.9854C94.3267 100 94.3565 100.015 94.3863 100.03C94.3565 100.03 94.3118 100.015 94.2821 100C94.2821 100 94.2821 100 94.2672 99.9854C94.2672 99.9854 94.2672 99.9854 94.2672 99.9705L94.2523 99.9854ZM94.2672 100.075C94.2672 100.075 94.2672 100.06 94.2672 100.045C94.2821 100.06 94.3118 100.075 94.3267 100.09C94.3118 100.09 94.297 100.09 94.2821 100.09L94.2672 100.075ZM94.3118 100.209C94.3118 100.209 94.3118 100.179 94.3118 100.164C94.3267 100.179 94.3416 100.194 94.3565 100.209C94.3416 100.209 94.3267 100.209 94.3118 100.209ZM94.3714 100.283C94.3714 100.283 94.3416 100.253 94.3267 100.238C94.3565 100.238 94.3714 100.238 94.4012 100.238C94.4012 100.238 94.4012 100.238 94.4161 100.238C94.4161 100.238 94.4161 100.253 94.4161 100.268C94.4012 100.268 94.3863 100.268 94.3714 100.268V100.283ZM94.3714 100.179C94.3714 100.179 94.4012 100.179 94.4161 100.179C94.4161 100.179 94.4161 100.194 94.4161 100.209C94.4012 100.209 94.3863 100.194 94.3714 100.179ZM94.4012 100.313C94.4012 100.313 94.4012 100.313 94.4161 100.313C94.4161 100.313 94.4161 100.313 94.4161 100.328C94.4161 100.328 94.4161 100.328 94.4012 100.313ZM94.431 100.164C94.431 100.164 94.3714 100.164 94.3416 100.149C94.3267 100.149 94.3118 100.119 94.297 100.104C94.3267 100.104 94.3565 100.104 94.3863 100.119C94.4012 100.119 94.4161 100.134 94.4458 100.149L94.431 100.164ZM94.431 100.104C94.431 100.104 94.4161 100.104 94.4012 100.104C94.3714 100.09 94.3416 100.075 94.3267 100.06C94.3565 100.06 94.4012 100.075 94.431 100.09C94.431 100.09 94.431 100.104 94.431 100.119V100.104ZM94.431 100.045C94.431 100.045 94.4012 100.03 94.3863 100.015C94.4012 100.015 94.4161 100.015 94.431 100.015V100.045ZM94.431 100.015C94.431 100.015 94.3416 100 94.3118 99.9854C94.2821 99.9854 94.2672 99.9556 94.2374 99.9407C94.2374 99.9407 94.2374 99.9407 94.2374 99.9258C94.3118 99.9407 94.3714 99.9705 94.4458 99.9854V100.015H94.431ZM32.5191 88.5947C32.5191 88.5947 32.5489 88.5053 32.5638 88.4755C32.6382 88.2224 32.7276 87.9693 32.802 87.731C32.7127 88.0139 32.6085 88.3117 32.5191 88.6095V88.5947ZM96.2624 100.358C96.1284 100.358 95.9795 100.328 95.8455 100.313C95.771 100.313 95.7115 100.283 95.637 100.268C95.7859 100.283 95.9199 100.313 96.0688 100.328C96.1284 100.328 96.2028 100.343 96.2624 100.358ZM96.6198 100.387C96.4857 100.387 96.3369 100.387 96.2028 100.373C96.1284 100.373 96.0539 100.358 95.9944 100.343C96.1433 100.343 96.2922 100.373 96.456 100.373C96.5155 100.373 96.5751 100.373 96.6346 100.373L96.6198 100.387ZM96.59 100.387C96.6495 100.387 96.7091 100.387 96.7687 100.387C96.7389 100.387 96.7091 100.387 96.6793 100.387C96.6495 100.387 96.6049 100.387 96.5751 100.387H96.59ZM94.9223 100.789C94.9223 100.789 94.8925 100.789 94.8777 100.789C94.8777 100.789 94.8925 100.775 94.9074 100.76C94.9968 100.76 95.0712 100.76 95.1457 100.76C95.2052 100.76 95.2648 100.775 95.3392 100.789C95.2052 100.789 95.0563 100.804 94.9074 100.819L94.9223 100.789ZM95.503 100.775C95.5775 100.775 95.6519 100.775 95.7413 100.775C95.5626 100.789 95.3839 100.819 95.2052 100.834C95.1457 100.834 95.0861 100.819 95.0414 100.804C95.2052 100.804 95.3541 100.775 95.5179 100.76L95.503 100.775ZM94.833 100.551C94.833 100.551 94.8181 100.566 94.8181 100.581C94.7883 100.581 94.7734 100.566 94.7436 100.551C94.7734 100.551 94.8032 100.551 94.833 100.551ZM94.6692 100.521C94.6692 100.521 94.6096 100.492 94.5799 100.477C94.6543 100.477 94.7139 100.477 94.7883 100.477C94.8032 100.477 94.833 100.492 94.8479 100.507C94.8479 100.507 94.8479 100.507 94.8479 100.521C94.7883 100.521 94.7288 100.521 94.6692 100.521ZM94.8032 100.849C94.8032 100.849 94.8479 100.849 94.8777 100.864C94.8479 100.864 94.8181 100.864 94.7883 100.864C94.7883 100.864 94.8032 100.849 94.8181 100.834L94.8032 100.849ZM94.7734 100.432C94.7734 100.432 94.8777 100.432 94.9223 100.432C94.9223 100.432 94.9074 100.447 94.8925 100.462C94.8479 100.462 94.8181 100.432 94.7734 100.417V100.432ZM95.0414 100.655C95.0414 100.655 95.0712 100.626 95.0861 100.626C95.1457 100.626 95.1903 100.626 95.2499 100.626C95.3095 100.626 95.369 100.641 95.4286 100.655C95.3094 100.655 95.1755 100.655 95.0563 100.655H95.0414ZM95.0414 100.715C95.0414 100.715 94.9819 100.715 94.9521 100.715C94.9521 100.715 94.967 100.715 94.9819 100.7C95.0117 100.7 95.0266 100.7 95.0563 100.715H95.0414ZM94.9372 100.283C94.9372 100.283 95.0266 100.283 95.0563 100.298C95.0563 100.298 95.0563 100.298 95.0414 100.313C95.0117 100.313 94.967 100.283 94.9372 100.283ZM95.1457 100.238C95.1457 100.238 95.0861 100.238 95.0712 100.238C95.0265 100.238 94.9819 100.209 94.9372 100.194C95.0117 100.209 95.0861 100.224 95.1606 100.238C95.1606 100.238 95.1606 100.238 95.1457 100.238ZM95.0266 100.238C95.0266 100.238 95.0861 100.253 95.1159 100.268C95.1159 100.268 95.1159 100.268 95.101 100.268C95.0563 100.268 95.0266 100.238 94.9819 100.224C94.9968 100.224 95.0117 100.224 95.0266 100.224V100.238ZM95.101 100.283C95.101 100.283 95.101 100.283 95.0861 100.298C95.0117 100.298 94.9223 100.268 94.8479 100.268C94.8032 100.268 94.7734 100.238 94.7436 100.224C94.8628 100.253 94.9968 100.268 95.1159 100.283H95.101ZM94.7883 100.283C94.7883 100.283 94.8628 100.313 94.9074 100.328C94.833 100.328 94.7734 100.313 94.699 100.298C94.6692 100.283 94.6245 100.268 94.5947 100.253C94.6543 100.253 94.7288 100.268 94.7883 100.283ZM95.0117 100.358C95.0117 100.358 94.9968 100.372 94.9819 100.387C94.9521 100.387 94.9223 100.387 94.8777 100.387C94.833 100.387 94.8032 100.358 94.7585 100.343C94.833 100.343 94.9074 100.358 94.9819 100.373L95.0117 100.358ZM94.8181 100.387C94.8181 100.387 94.9074 100.417 94.9521 100.432C94.8777 100.432 94.7883 100.417 94.7139 100.402C94.6841 100.402 94.6543 100.372 94.6245 100.358C94.699 100.358 94.7585 100.373 94.833 100.373L94.8181 100.387ZM95.3392 100.715C95.3392 100.715 95.2201 100.7 95.1606 100.685C95.2946 100.685 95.4286 100.685 95.5626 100.685C95.637 100.685 95.6966 100.685 95.771 100.7C95.6221 100.7 95.4881 100.715 95.3392 100.73V100.715ZM95.7115 100.641C95.7115 100.641 95.5924 100.641 95.5328 100.626C95.6668 100.626 95.8008 100.626 95.9348 100.626C96.0093 100.626 96.0986 100.626 96.1731 100.626C96.0242 100.626 95.8753 100.626 95.7115 100.641ZM95.3839 100.596C95.3839 100.596 95.2648 100.581 95.2201 100.566C95.3392 100.566 95.4732 100.566 95.5924 100.566C95.6519 100.566 95.6966 100.581 95.7561 100.596C95.637 100.596 95.5179 100.596 95.3988 100.596H95.3839ZM95.6966 100.551C95.6966 100.551 95.5775 100.536 95.5179 100.521C95.6221 100.521 95.7264 100.521 95.8306 100.521C95.905 100.521 95.9944 100.536 96.0688 100.536C95.9497 100.536 95.8306 100.536 95.7115 100.536L95.6966 100.551ZM95.9348 100.507C95.9348 100.507 95.8157 100.492 95.7561 100.477C95.8604 100.477 95.9646 100.477 96.0688 100.477C96.1433 100.477 96.2177 100.492 96.2922 100.492C96.1731 100.492 96.0539 100.492 95.9348 100.492V100.507ZM95.9348 100.477C95.8306 100.477 95.7413 100.477 95.637 100.477C95.5775 100.477 95.503 100.462 95.4435 100.447C95.5626 100.447 95.6668 100.447 95.7859 100.462C95.8306 100.462 95.8753 100.477 95.9348 100.492V100.477ZM95.6668 100.417C95.7561 100.417 95.8455 100.417 95.9348 100.432C95.9944 100.432 96.0688 100.447 96.1284 100.462C96.0242 100.462 95.9199 100.462 95.8157 100.462C95.771 100.462 95.7115 100.447 95.6668 100.432V100.417ZM95.9348 100.462C96.0539 100.462 96.1731 100.462 96.2922 100.462C96.3517 100.462 96.3964 100.462 96.456 100.462C96.3368 100.462 96.2028 100.462 96.0837 100.462C96.0391 100.462 95.9795 100.462 95.9348 100.447V100.462ZM96.3666 100.462C96.2773 100.462 96.2028 100.462 96.1135 100.447C96.2177 100.447 96.3071 100.447 96.4113 100.447C96.4709 100.447 96.5155 100.447 96.5751 100.447C96.5006 100.447 96.4411 100.447 96.3666 100.447V100.462ZM95.9944 100.417C95.9944 100.417 95.8455 100.402 95.7859 100.387C95.905 100.387 96.0242 100.402 96.1582 100.417C96.2028 100.417 96.2624 100.417 96.3071 100.432C96.2028 100.432 96.1135 100.432 96.0093 100.432L95.9944 100.417ZM96.1284 100.402C96.1284 100.402 96.0093 100.387 95.9497 100.373C96.0242 100.373 96.0986 100.372 96.1731 100.387C96.2475 100.387 96.322 100.402 96.3964 100.417C96.3071 100.417 96.2177 100.417 96.1284 100.417V100.402ZM95.8455 100.358C95.8455 100.358 95.7413 100.343 95.6966 100.328C95.7264 100.328 95.771 100.328 95.8008 100.328C95.8753 100.328 95.9497 100.358 96.0391 100.358C95.9795 100.358 95.9199 100.358 95.8604 100.343L95.8455 100.358ZM95.637 100.283C95.7264 100.298 95.8306 100.313 95.9199 100.328C95.8157 100.328 95.7264 100.298 95.6221 100.283H95.637ZM95.6072 100.298C95.6072 100.298 95.6668 100.298 95.6966 100.313C95.6668 100.313 95.637 100.313 95.6072 100.313V100.298ZM95.5924 100.298C95.5924 100.298 95.6668 100.298 95.6966 100.298C95.7413 100.298 95.7859 100.313 95.8306 100.328C95.7413 100.328 95.6668 100.313 95.5775 100.298C95.5775 100.298 95.5775 100.298 95.5924 100.298ZM95.5626 100.313C95.6817 100.313 95.8157 100.343 95.9348 100.358C95.9795 100.358 96.0242 100.372 96.0688 100.387C95.9348 100.387 95.8157 100.372 95.6817 100.358C95.637 100.358 95.5924 100.343 95.5626 100.328V100.313ZM95.5179 100.343C95.5179 100.343 95.5924 100.343 95.6221 100.343C95.6817 100.343 95.7561 100.373 95.8157 100.373C95.7413 100.373 95.6519 100.372 95.5775 100.358C95.5477 100.358 95.5328 100.358 95.503 100.343H95.5179ZM95.4732 100.373C95.4732 100.373 95.5328 100.373 95.5626 100.373C95.6072 100.373 95.6519 100.387 95.7115 100.402C95.6221 100.402 95.5328 100.402 95.4435 100.387C95.4435 100.387 95.4584 100.387 95.4732 100.373ZM95.3988 100.417C95.3988 100.417 95.4286 100.417 95.4435 100.417C95.4286 100.417 95.4137 100.417 95.3988 100.417ZM95.3541 100.447C95.3541 100.447 95.4881 100.447 95.5626 100.447C95.6221 100.447 95.6817 100.462 95.7561 100.477C95.6519 100.477 95.5328 100.477 95.4286 100.477C95.3988 100.477 95.369 100.477 95.3541 100.462C95.3541 100.462 95.3541 100.462 95.369 100.462L95.3541 100.447ZM95.2797 100.492C95.2797 100.492 95.2946 100.492 95.3095 100.492C95.3541 100.492 95.4137 100.521 95.4584 100.521C95.3839 100.521 95.3095 100.521 95.235 100.521C95.235 100.521 95.2648 100.507 95.2797 100.492ZM94.699 100.045C94.833 100.075 94.967 100.119 95.101 100.149C95.1457 100.149 95.1755 100.179 95.2201 100.179C95.101 100.149 94.9968 100.134 94.8777 100.104C94.8181 100.09 94.7585 100.06 94.7139 100.045H94.699ZM94.967 100.164C94.967 100.164 94.9521 100.164 94.9372 100.164C94.9074 100.164 94.8628 100.134 94.833 100.119C94.8777 100.134 94.9223 100.149 94.967 100.164ZM94.6841 100.06C94.6841 100.06 94.7139 100.06 94.7139 100.075C94.7139 100.075 94.6841 100.075 94.6692 100.075L94.6841 100.06ZM94.6841 100.075C94.6841 100.075 94.7734 100.09 94.8032 100.104C94.833 100.104 94.8628 100.134 94.9074 100.149C94.833 100.134 94.7585 100.119 94.6692 100.104C94.6692 100.104 94.6692 100.104 94.6692 100.09L94.6841 100.075ZM94.6692 100.104C94.7734 100.134 94.8777 100.149 94.9819 100.164C95.0117 100.164 95.0563 100.194 95.0861 100.209C94.9521 100.194 94.833 100.164 94.699 100.134C94.699 100.134 94.6692 100.134 94.6543 100.119C94.6543 100.119 94.6543 100.119 94.6543 100.104H94.6692ZM94.6394 100.149C94.6692 100.164 94.7139 100.179 94.7436 100.194C94.699 100.194 94.6543 100.194 94.6096 100.179C94.6096 100.179 94.6096 100.164 94.6096 100.149H94.6394ZM94.6096 100.253C94.6096 100.253 94.6692 100.253 94.699 100.253C94.7288 100.268 94.7734 100.283 94.8032 100.298C94.7436 100.298 94.6692 100.283 94.6096 100.268V100.238V100.253ZM94.5799 100.328C94.5799 100.328 94.6096 100.343 94.6245 100.358C94.6245 100.358 94.5947 100.358 94.5799 100.358C94.5799 100.358 94.5799 100.358 94.5799 100.343V100.328ZM94.5799 100.373C94.5799 100.373 94.6543 100.373 94.6841 100.373C94.7139 100.387 94.7436 100.402 94.7734 100.417C94.7139 100.417 94.6543 100.417 94.5799 100.417C94.5799 100.417 94.565 100.417 94.5501 100.402C94.5501 100.402 94.5501 100.387 94.5501 100.373H94.5799ZM94.5799 100.462C94.5799 100.462 94.6096 100.477 94.6096 100.492C94.6096 100.492 94.5799 100.492 94.565 100.492C94.565 100.492 94.565 100.477 94.565 100.462H94.5799ZM94.5799 100.566V100.536C94.6096 100.536 94.6394 100.536 94.6543 100.536C94.6841 100.551 94.699 100.566 94.7288 100.581C94.6841 100.581 94.6394 100.581 94.5799 100.581V100.566ZM94.6692 100.641C94.6692 100.641 94.6245 100.611 94.6096 100.596C94.6692 100.596 94.7288 100.596 94.7883 100.596C94.7883 100.596 94.8181 100.596 94.8181 100.611C94.8181 100.611 94.8181 100.626 94.8032 100.641C94.7585 100.641 94.7139 100.641 94.6543 100.641H94.6692ZM94.7734 100.7C94.7734 100.7 94.7288 100.685 94.7139 100.67C94.7436 100.67 94.7585 100.67 94.7883 100.67C94.7883 100.67 94.7883 100.685 94.7734 100.7ZM94.8479 100.938C94.8479 100.938 94.8181 100.938 94.8032 100.923C94.8032 100.923 94.8032 100.923 94.8032 100.909C94.8777 100.909 94.9521 100.909 95.0266 100.894C95.0861 100.894 95.1457 100.909 95.2052 100.923C95.0861 100.923 94.967 100.953 94.8479 100.968V100.938ZM95.3243 100.998C95.3243 100.998 95.235 100.998 95.1903 100.998C95.2648 100.998 95.3392 100.983 95.4137 100.968C95.3839 100.968 95.3541 100.998 95.3243 100.998ZM95.5179 100.923C95.369 100.953 95.2201 100.968 95.0563 100.983C95.0117 100.983 94.9521 100.968 94.9223 100.953C95.0712 100.938 95.2201 100.923 95.369 100.894C95.4286 100.894 95.4881 100.894 95.5626 100.894C95.5626 100.894 95.5328 100.894 95.5179 100.909V100.923ZM95.7413 100.834C95.7413 100.834 95.6668 100.834 95.637 100.834C95.5477 100.834 95.4732 100.834 95.3988 100.834C95.5477 100.819 95.7115 100.804 95.8604 100.775C95.8157 100.789 95.7859 100.804 95.7413 100.819V100.834ZM96.0093 100.73C96.0093 100.73 95.9497 100.73 95.9348 100.73C95.9646 100.73 96.0093 100.73 96.0391 100.73C96.0391 100.73 96.0242 100.73 96.0093 100.73ZM96.0986 100.7C95.9795 100.7 95.8604 100.715 95.7413 100.73C95.6668 100.73 95.5924 100.73 95.5328 100.73C95.6966 100.73 95.8455 100.7 96.0093 100.7C96.0539 100.7 96.0986 100.7 96.1433 100.7C96.1433 100.7 96.1135 100.7 96.0986 100.715V100.7ZM96.2326 100.641C96.2326 100.641 96.2028 100.641 96.1879 100.641C96.0986 100.641 96.0093 100.641 95.9199 100.641C96.0539 100.641 96.1731 100.641 96.3071 100.611C96.2773 100.611 96.2624 100.626 96.2326 100.641ZM96.3964 100.581C96.3964 100.581 96.322 100.581 96.2922 100.581C96.3368 100.581 96.3815 100.581 96.4262 100.581C96.4262 100.581 96.4113 100.581 96.3964 100.581ZM96.4709 100.551C96.3517 100.551 96.2326 100.551 96.1135 100.566C96.0391 100.566 95.9497 100.566 95.8753 100.551C96.0093 100.551 96.1433 100.551 96.2773 100.551C96.3369 100.551 96.4113 100.551 96.4709 100.551ZM96.5602 100.521C96.5602 100.521 96.4411 100.521 96.3815 100.521C96.3071 100.521 96.2326 100.521 96.1582 100.507C96.2624 100.507 96.3815 100.507 96.4858 100.507C96.5155 100.507 96.5453 100.507 96.59 100.507C96.59 100.507 96.5751 100.507 96.5602 100.507V100.521ZM96.6346 100.492C96.6346 100.492 96.5453 100.492 96.5006 100.492C96.4262 100.492 96.3666 100.492 96.3071 100.492C96.4262 100.492 96.5602 100.492 96.6793 100.492C96.6793 100.492 96.6495 100.492 96.6346 100.507V100.492ZM96.7091 100.462C96.7091 100.462 96.59 100.462 96.5304 100.462C96.59 100.462 96.6644 100.462 96.724 100.462C96.724 100.462 96.724 100.462 96.7091 100.462ZM96.7687 100.432C96.7687 100.432 96.6942 100.432 96.6644 100.432C96.6942 100.432 96.7389 100.432 96.7687 100.432ZM96.7984 100.432C96.6942 100.432 96.6049 100.432 96.5006 100.432C96.4262 100.432 96.3666 100.432 96.2922 100.417C96.3815 100.417 96.4857 100.417 96.5751 100.417C96.6495 100.417 96.724 100.417 96.7835 100.417L96.7984 100.432ZM96.8431 100.432C96.8431 100.432 96.6942 100.432 96.6198 100.432C96.5453 100.432 96.4858 100.432 96.4262 100.417C96.5751 100.417 96.7091 100.417 96.858 100.432C96.858 100.432 96.858 100.432 96.8431 100.432ZM96.8729 100.432C96.8729 100.432 96.7984 100.432 96.7538 100.432C96.7984 100.432 96.8431 100.432 96.8729 100.432ZM96.8729 100.432C96.7835 100.432 96.6793 100.432 96.59 100.432C96.5602 100.432 96.5304 100.432 96.4858 100.432C96.6198 100.432 96.7538 100.447 96.8878 100.447L96.8729 100.432ZM96.8729 100.432C96.724 100.432 96.5751 100.432 96.4262 100.402C96.3815 100.402 96.3517 100.402 96.3071 100.387C96.5006 100.402 96.7091 100.417 96.9027 100.432H96.9473C96.9473 100.432 96.9027 100.432 96.8729 100.432ZM118.091 135.483C118.091 135.483 118.002 135.617 117.957 135.691C117.927 135.736 117.897 135.78 117.868 135.81C117.942 135.706 118.016 135.587 118.076 135.483H118.091ZM95.2499 102.963C95.2499 102.963 95.2499 102.948 95.235 102.934C95.2648 102.904 95.2797 102.889 95.3095 102.859C95.3095 102.889 95.2797 102.919 95.2648 102.948C95.2648 102.948 95.2648 102.948 95.2499 102.963ZM95.1903 102.308C95.1903 102.308 95.1903 102.308 95.1754 102.308C95.1754 102.308 95.2052 102.293 95.2201 102.278C95.2201 102.278 95.2201 102.308 95.2052 102.323L95.1903 102.308ZM95.1903 102.591C95.1903 102.591 95.1457 102.621 95.1308 102.636C95.1308 102.621 95.1308 102.591 95.1457 102.576C95.1457 102.576 95.1457 102.576 95.1606 102.576C95.1606 102.576 95.1755 102.591 95.1903 102.606V102.591ZM95.2648 101.817C95.2648 101.817 95.3541 101.772 95.3988 101.757C95.369 101.772 95.3541 101.802 95.3243 101.817C95.3094 101.817 95.2797 101.817 95.2648 101.817ZM95.2946 102.085C95.2946 102.085 95.1755 102.144 95.1159 102.189C95.1159 102.159 95.1457 102.144 95.1606 102.115C95.1903 102.115 95.2052 102.085 95.235 102.07C95.2499 102.07 95.2797 102.07 95.2946 102.07V102.085ZM95.369 102.159C95.369 102.159 95.4137 102.129 95.4435 102.115C95.4583 102.115 95.4881 102.115 95.503 102.115C95.4286 102.159 95.369 102.204 95.2946 102.249C95.3095 102.219 95.3392 102.189 95.369 102.159ZM98.1981 100.73C98.1981 100.73 98.1832 100.73 98.1683 100.73C98.1534 100.73 98.1385 100.745 98.1236 100.76C98.0641 100.789 97.9896 100.819 97.9301 100.864C97.9598 100.864 97.9896 100.834 98.0045 100.819C98.0045 100.819 98.0194 100.819 98.0343 100.819C98.0641 100.804 98.1087 100.775 98.1385 100.76C98.1534 100.76 98.1832 100.745 98.1981 100.73C98.1981 100.73 98.1683 100.73 98.1534 100.745C98.1534 100.745 98.1534 100.745 98.1683 100.745L98.1981 100.73ZM95.6519 102.129C95.6519 102.129 95.6668 102.129 95.6817 102.129C95.6817 102.144 95.6519 102.159 95.637 102.174C95.5626 102.219 95.503 102.264 95.4286 102.323C95.4583 102.293 95.4881 102.249 95.503 102.219C95.5477 102.189 95.5924 102.159 95.637 102.129H95.6519ZM95.5924 102.129C95.5924 102.129 95.5924 102.129 95.5924 102.115C95.5924 102.115 95.5924 102.115 95.5775 102.115L95.5924 102.129ZM96.858 101.251C96.6942 101.325 96.5304 101.415 96.3666 101.489C96.4411 101.445 96.5155 101.4 96.59 101.355C96.8431 101.236 97.0813 101.117 97.3196 101.013C97.1558 101.087 96.992 101.162 96.8431 101.251H96.858ZM97.0069 101.191C97.26 101.072 97.5131 100.953 97.7514 100.849C97.6472 100.894 97.5429 100.953 97.4387 101.013C97.2005 101.117 96.9622 101.236 96.7389 101.37C96.8282 101.311 96.9176 101.266 97.0218 101.206L97.0069 101.191ZM96.4262 101.415C96.2475 101.504 96.0688 101.593 95.8902 101.683C95.9497 101.638 96.0242 101.593 96.0986 101.549C96.2922 101.459 96.4857 101.37 96.6644 101.281C96.5751 101.325 96.5006 101.37 96.4113 101.43L96.4262 101.415ZM96.2475 101.519C96.2475 101.519 96.0986 101.608 96.0391 101.653C95.9795 101.683 95.9348 101.713 95.8753 101.742C95.8455 101.742 95.8157 101.742 95.7859 101.742C95.9348 101.653 96.0986 101.579 96.2475 101.504V101.519ZM95.8753 102.115C95.8753 102.115 95.8753 102.115 95.8604 102.115H95.8753ZM95.8008 102.115C95.8008 102.115 95.7115 102.174 95.6668 102.204C95.6966 102.174 95.7264 102.144 95.7561 102.1C95.7561 102.1 95.7859 102.1 95.8008 102.1V102.115ZM95.6221 101.772C95.6221 101.772 95.6817 101.742 95.7264 101.727C95.7115 101.742 95.6817 101.757 95.6668 101.772H95.637H95.6221ZM95.7859 102.144C95.7859 102.144 95.7115 102.219 95.6817 102.264C95.6221 102.308 95.5775 102.353 95.5179 102.398C95.5477 102.368 95.5775 102.323 95.6072 102.293C95.6668 102.249 95.7264 102.204 95.7859 102.159V102.144ZM95.7859 102.204C95.7859 102.204 95.8753 102.129 95.9199 102.1C95.9199 102.1 95.9348 102.1 95.9497 102.1C95.9348 102.115 95.9199 102.129 95.9051 102.144C95.8306 102.204 95.771 102.249 95.6966 102.308C95.7264 102.264 95.7561 102.234 95.8008 102.189L95.7859 102.204ZM95.9497 102.129C95.9497 102.129 95.9646 102.129 95.9795 102.115C95.9795 102.115 95.9944 102.115 96.0093 102.115C95.9497 102.159 95.8902 102.204 95.8306 102.264C95.8753 102.219 95.905 102.174 95.9497 102.144V102.129ZM95.9795 102.144C95.9795 102.144 95.9199 102.204 95.8902 102.249C95.8157 102.308 95.7413 102.383 95.6668 102.442C95.6966 102.398 95.7264 102.368 95.771 102.323C95.8455 102.264 95.9199 102.204 95.9795 102.144ZM96.0391 102.144C96.0391 102.144 95.9646 102.219 95.9348 102.264C95.8753 102.308 95.8306 102.368 95.771 102.412C95.8008 102.368 95.8455 102.323 95.8902 102.278C95.9497 102.234 95.9944 102.189 96.0539 102.144H96.0391ZM95.9497 102.204C95.9497 102.204 96.0093 102.144 96.0391 102.115C96.0391 102.115 96.0391 102.115 96.0539 102.115C96.0242 102.144 95.9795 102.174 95.9497 102.204ZM96.0986 102.115C96.0986 102.115 96.0688 102.144 96.0391 102.159C96.0539 102.144 96.0688 102.129 96.0837 102.115H96.0986ZM96.0688 101.727C96.0688 101.727 96.2028 101.653 96.2624 101.623C96.2177 101.653 96.1731 101.698 96.1284 101.727C96.1135 101.727 96.0986 101.727 96.0688 101.727ZM96.0391 101.727C96.0391 101.727 96.1582 101.638 96.2177 101.593C96.3517 101.519 96.5006 101.445 96.6346 101.37C96.5602 101.415 96.4857 101.459 96.4113 101.519C96.2922 101.579 96.1731 101.653 96.0539 101.727H96.0391ZM96.59 101.445C96.8282 101.311 97.0664 101.191 97.2898 101.087C97.26 101.102 97.2302 101.117 97.2154 101.132C97.2898 101.087 97.3643 101.057 97.4387 101.028C97.5429 100.983 97.6323 100.938 97.7365 100.894C97.6472 100.938 97.5578 100.983 97.4834 101.028C97.3345 101.102 97.1856 101.177 97.0516 101.251C97.1111 101.221 97.1707 101.177 97.2302 101.147C97.1111 101.206 97.0069 101.266 96.9027 101.325C96.7389 101.415 96.5751 101.504 96.4113 101.593C96.4709 101.549 96.5453 101.504 96.6049 101.459L96.59 101.445ZM97.528 101.057C97.4387 101.102 97.3494 101.162 97.26 101.206C97.3196 101.162 97.3791 101.132 97.4387 101.087C97.5131 101.043 97.5876 100.998 97.662 100.968C97.662 100.968 97.6323 100.983 97.6174 100.998C97.662 100.968 97.7216 100.938 97.7663 100.909C97.8407 100.864 97.9152 100.834 97.9747 100.804C97.9896 100.804 98.0194 100.789 98.0343 100.775C97.9896 100.804 97.9449 100.819 97.9003 100.849C97.7812 100.909 97.6472 100.983 97.528 101.043C97.5578 101.028 97.5727 101.013 97.6025 100.998C97.5727 101.013 97.528 101.043 97.4983 101.057H97.528ZM97.394 101.117C97.5578 101.028 97.7216 100.938 97.8854 100.864C97.8407 100.894 97.7961 100.909 97.7365 100.938C97.7663 100.923 97.796 100.909 97.8258 100.894C97.8258 100.894 97.8109 100.894 97.7961 100.909C97.7514 100.938 97.6918 100.968 97.6472 100.983C97.6769 100.968 97.7067 100.953 97.7365 100.938C97.5876 101.013 97.4536 101.087 97.3345 101.162C97.2898 101.191 97.2302 101.221 97.1856 101.251C97.26 101.206 97.3345 101.162 97.4089 101.117H97.394ZM97.0516 101.311C97.126 101.266 97.2153 101.206 97.2898 101.162C97.3791 101.117 97.4685 101.072 97.5429 101.028C97.4834 101.057 97.4238 101.102 97.3494 101.147C97.2451 101.206 97.1409 101.266 97.0367 101.325L97.0516 101.311ZM97.5578 101.028C97.6471 100.983 97.7365 100.923 97.8407 100.879C97.9301 100.834 98.0045 100.789 98.0938 100.76C98.1236 100.76 98.1534 100.73 98.1832 100.73C98.1534 100.745 98.1236 100.76 98.0938 100.775C97.9152 100.864 97.7514 100.953 97.5727 101.043L97.5578 101.028ZM97.8258 100.864C97.6471 100.953 97.4536 101.043 97.26 101.147C97.3494 101.087 97.4387 101.043 97.5429 100.998C97.7514 100.894 97.9449 100.804 98.1534 100.715C98.0343 100.76 97.9301 100.819 97.8258 100.879V100.864ZM97.2451 101.147C97.2451 101.147 97.0962 101.236 97.0367 101.281C96.9175 101.355 96.7835 101.415 96.6644 101.489C96.7389 101.445 96.7984 101.4 96.8729 101.355C96.992 101.281 97.126 101.221 97.2451 101.162V101.147ZM97.1409 101.236C97.3345 101.132 97.528 101.028 97.7365 100.923C97.6769 100.953 97.6174 100.983 97.5727 101.013C97.662 100.968 97.7514 100.923 97.8407 100.879C97.8407 100.879 97.8109 100.879 97.8109 100.894C97.6918 100.953 97.5727 101.013 97.4536 101.072C97.4983 101.043 97.528 101.028 97.5727 100.998C97.4685 101.057 97.3642 101.102 97.26 101.162C97.1409 101.221 97.0218 101.296 96.9027 101.355C96.9771 101.311 97.0516 101.251 97.1409 101.206V101.236ZM97.0218 101.325C96.9473 101.37 96.858 101.43 96.7835 101.489C96.7091 101.534 96.6346 101.579 96.5751 101.623C96.6346 101.579 96.6942 101.534 96.7538 101.489C96.8431 101.43 96.9324 101.385 97.0218 101.325ZM96.9175 101.415C97.0069 101.355 97.0962 101.311 97.1856 101.266C97.1111 101.311 97.0516 101.355 96.992 101.4C96.9027 101.459 96.8133 101.504 96.724 101.564C96.7835 101.519 96.858 101.474 96.9175 101.43V101.415ZM97.0069 101.385C97.0069 101.385 97.1111 101.325 97.1558 101.296C97.0962 101.325 97.0516 101.37 97.0069 101.4C96.9473 101.43 96.9027 101.474 96.8431 101.504C96.9027 101.459 96.9622 101.415 97.0218 101.385H97.0069ZM97.1111 101.34C97.1111 101.34 97.26 101.251 97.3345 101.206C97.2749 101.251 97.2153 101.281 97.1558 101.325C97.0665 101.385 96.992 101.43 96.9027 101.489C96.9771 101.445 97.0516 101.385 97.126 101.34H97.1111ZM97.3196 101.221C97.3196 101.221 97.3643 101.191 97.394 101.177C97.3345 101.206 97.2898 101.251 97.2302 101.281C97.26 101.266 97.2898 101.236 97.3196 101.221ZM97.4536 101.147C97.4536 101.147 97.5429 101.102 97.5876 101.072C97.528 101.117 97.4536 101.147 97.394 101.191C97.4238 101.177 97.4387 101.162 97.4685 101.147H97.4536ZM97.5727 101.057C97.5727 101.057 97.4387 101.132 97.3791 101.177C97.4089 101.147 97.4536 101.132 97.4834 101.102C97.6025 101.043 97.7067 100.968 97.8258 100.909C97.7365 100.953 97.662 100.998 97.5727 101.057ZM97.6174 101.043C97.6174 101.043 97.662 101.013 97.6769 101.013C97.7514 100.968 97.8109 100.938 97.8854 100.894C97.8854 100.894 97.8705 100.894 97.8556 100.909C97.8705 100.909 97.8854 100.894 97.9003 100.879C97.7961 100.938 97.6918 100.983 97.6025 101.043C97.6025 101.043 97.6025 101.043 97.6174 101.043ZM97.7514 100.968C97.7514 100.968 97.8407 100.909 97.8854 100.894C97.9747 100.849 98.079 100.789 98.1683 100.745C98.1832 100.745 98.1981 100.73 98.213 100.715C98.1236 100.76 98.0343 100.804 97.9301 100.864C97.9301 100.864 97.9152 100.864 97.9003 100.864C97.8407 100.894 97.7812 100.923 97.7216 100.953L97.7514 100.968ZM97.7216 100.909C97.8109 100.864 97.9003 100.819 98.0045 100.775C98.079 100.745 98.1683 100.715 98.2428 100.67C98.079 100.745 97.9003 100.819 97.7365 100.909H97.7216ZM97.9598 100.775C97.7067 100.879 97.4536 100.998 97.2005 101.117C97.2898 101.072 97.394 101.013 97.4983 100.968C97.6918 100.879 97.8705 100.804 98.0641 100.73C98.1087 100.715 98.1683 100.685 98.213 100.67C98.1236 100.7 98.0492 100.745 97.9747 100.775H97.9598ZM97.7365 100.849C97.4387 100.983 97.126 101.117 96.8133 101.251C96.9175 101.191 97.0218 101.147 97.126 101.087C97.4536 100.938 97.7812 100.804 98.0938 100.685C97.9747 100.73 97.8556 100.789 97.7365 100.849ZM96.9473 101.162C96.7389 101.251 96.5304 101.355 96.3071 101.445C96.3964 101.4 96.4858 101.34 96.59 101.296C96.8133 101.191 97.0516 101.102 97.2749 101.013C97.1558 101.057 97.0516 101.117 96.9473 101.162ZM96.8431 101.162C96.9622 101.102 97.0962 101.043 97.2451 100.983C97.5131 100.879 97.7812 100.775 98.0492 100.685C97.9003 100.745 97.7663 100.804 97.6323 100.849C97.3791 100.953 97.126 101.057 96.858 101.162H96.8431ZM96.9771 101.072C96.6793 101.191 96.3815 101.311 96.0837 101.43C96.2028 101.37 96.3369 101.311 96.4709 101.236C96.8282 101.102 97.1707 100.968 97.4983 100.849C97.3047 100.923 97.1409 100.998 96.9622 101.072H96.9771ZM96.6495 101.221C96.5304 101.281 96.4262 101.325 96.322 101.385C96.0986 101.489 95.8753 101.579 95.637 101.683C95.7115 101.638 95.7859 101.593 95.8604 101.549C96.1284 101.43 96.3964 101.325 96.6495 101.221ZM96.0986 101.504C96.0093 101.549 95.9348 101.608 95.8604 101.653C95.7561 101.698 95.6668 101.742 95.5626 101.802C95.5328 101.802 95.503 101.802 95.4732 101.802C95.4732 101.802 95.4881 101.802 95.503 101.787C95.7115 101.698 95.905 101.593 96.0986 101.504ZM95.503 102.159C95.503 102.159 95.4435 102.219 95.4137 102.264C95.369 102.293 95.3243 102.323 95.2648 102.368C95.2648 102.368 95.2499 102.368 95.235 102.368C95.235 102.368 95.235 102.353 95.2499 102.338C95.3244 102.293 95.4137 102.234 95.4881 102.189L95.503 102.159ZM95.3392 102.8C95.3392 102.8 95.2797 102.859 95.2499 102.889C95.2499 102.859 95.2797 102.844 95.2797 102.814C95.3095 102.785 95.3392 102.77 95.3541 102.74C95.3541 102.755 95.3243 102.785 95.3243 102.8H95.3392ZM95.3988 102.77C95.3988 102.77 95.3988 102.77 95.4137 102.755C95.4137 102.755 95.4137 102.755 95.4435 102.755C95.4137 102.785 95.3839 102.814 95.3541 102.844C95.369 102.814 95.3839 102.785 95.3988 102.755V102.77ZM95.3392 102.383C95.3392 102.383 95.3243 102.383 95.3095 102.383C95.3243 102.383 95.3541 102.353 95.369 102.338C95.369 102.353 95.3392 102.368 95.3392 102.398V102.383ZM95.3392 102.71C95.3392 102.71 95.3243 102.725 95.3095 102.74C95.3095 102.74 95.3094 102.725 95.3243 102.71H95.3392ZM95.2648 102.651C95.2648 102.651 95.2797 102.666 95.2946 102.68C95.2648 102.71 95.235 102.74 95.2052 102.77C95.2052 102.74 95.2201 102.725 95.235 102.695C95.235 102.695 95.2648 102.68 95.2648 102.666V102.651ZM95.2797 102.725C95.2797 102.725 95.2499 102.785 95.2499 102.8C95.235 102.814 95.2201 102.829 95.1903 102.844C95.1903 102.844 95.1903 102.829 95.1903 102.814C95.1903 102.814 95.1903 102.814 95.1903 102.8C95.2201 102.77 95.2499 102.74 95.2946 102.71L95.2797 102.725ZM95.3541 102.904C95.3541 102.904 95.2946 102.963 95.2797 102.993C95.2797 102.978 95.2946 102.963 95.3095 102.934C95.3392 102.904 95.369 102.859 95.4137 102.829C95.3988 102.859 95.3839 102.874 95.369 102.904H95.3541ZM95.4137 102.829C95.4137 102.829 95.4286 102.8 95.4435 102.785C95.4435 102.8 95.4137 102.814 95.3988 102.829H95.4137ZM95.4137 102.427H95.3839C95.3839 102.427 95.3839 102.427 95.3839 102.412C95.4435 102.368 95.5179 102.323 95.5775 102.278C95.5477 102.308 95.5179 102.338 95.503 102.383C95.4732 102.412 95.4435 102.427 95.4137 102.457V102.427ZM95.503 102.457C95.503 102.457 95.5775 102.398 95.6072 102.368C95.5775 102.398 95.5626 102.427 95.5328 102.472H95.503V102.457ZM95.6221 102.487C95.6221 102.487 95.637 102.472 95.6519 102.457C95.6519 102.457 95.637 102.472 95.6221 102.487ZM95.5924 102.487C95.5924 102.487 95.5924 102.487 95.5775 102.487C95.5775 102.472 95.6073 102.457 95.6221 102.442C95.6817 102.398 95.7413 102.338 95.8008 102.293C95.771 102.323 95.7413 102.368 95.7115 102.398C95.6668 102.427 95.637 102.457 95.5924 102.502V102.487ZM95.6519 102.502C95.6519 102.502 95.7561 102.398 95.8157 102.353C95.7859 102.383 95.771 102.412 95.7413 102.442C95.7264 102.457 95.6966 102.487 95.6817 102.502C95.6817 102.502 95.6668 102.502 95.6519 102.502ZM95.7413 102.502C95.7413 102.502 95.7264 102.517 95.7115 102.532C95.7115 102.532 95.7115 102.532 95.6966 102.532C95.7413 102.487 95.771 102.457 95.8157 102.412C95.7859 102.442 95.771 102.472 95.7413 102.502ZM96.0986 102.174C96.0093 102.249 95.9199 102.338 95.8306 102.427C95.8604 102.383 95.905 102.338 95.9348 102.308C95.9348 102.308 95.9646 102.293 95.9646 102.278C96.0093 102.234 96.0539 102.204 96.0986 102.159C96.0986 102.159 96.0837 102.174 96.0688 102.189L96.0986 102.174ZM96.2028 101.742C96.2028 101.742 96.2475 101.713 96.2624 101.698C96.3964 101.623 96.5304 101.549 96.6644 101.474C96.5751 101.534 96.5006 101.579 96.4113 101.638C96.3517 101.668 96.2922 101.713 96.2326 101.742C96.2326 101.742 96.2028 101.742 96.1879 101.742H96.2028ZM96.3517 101.713C96.3517 101.713 96.4709 101.623 96.5304 101.579C96.6495 101.504 96.7538 101.445 96.8729 101.37C96.7984 101.415 96.7389 101.459 96.6644 101.519C96.5602 101.579 96.456 101.638 96.3517 101.713ZM96.3815 101.713C96.3815 101.713 96.4858 101.653 96.5304 101.608C96.4858 101.638 96.456 101.668 96.4113 101.698H96.3815V101.713ZM96.4709 101.713C96.4709 101.713 96.59 101.623 96.6644 101.593C96.6198 101.638 96.5602 101.668 96.5155 101.713H96.4858H96.4709ZM96.5453 101.713C96.5453 101.713 96.5751 101.698 96.5751 101.683C96.6644 101.623 96.7389 101.564 96.8282 101.519C96.7687 101.564 96.6942 101.623 96.6346 101.668C96.6198 101.668 96.59 101.698 96.5751 101.713C96.5751 101.713 96.5602 101.713 96.5453 101.713ZM96.6198 101.713C96.6198 101.713 96.6644 101.683 96.6793 101.653C96.7538 101.608 96.8133 101.564 96.8878 101.519C96.8431 101.549 96.8133 101.579 96.7687 101.608C96.724 101.638 96.6793 101.668 96.6346 101.698L96.6198 101.713ZM96.6495 101.713C96.6495 101.713 96.6793 101.698 96.6793 101.683C96.6793 101.683 96.6644 101.698 96.6495 101.713ZM96.6942 101.713C96.6942 101.713 96.6942 101.713 96.7091 101.713C96.7091 101.713 96.7091 101.713 96.6942 101.713ZM96.7984 101.623C96.7984 101.623 96.7091 101.683 96.6793 101.713C96.724 101.683 96.7686 101.638 96.8133 101.608C96.8878 101.564 96.9473 101.519 97.0218 101.474C96.9473 101.519 96.8878 101.579 96.8133 101.623H96.7984ZM97.0218 101.489C97.0218 101.489 97.0664 101.459 97.0962 101.43C97.1111 101.43 97.126 101.4 97.1409 101.4L97.0367 101.474C97.0367 101.474 97.0218 101.474 97.0069 101.489H97.0218ZM97.0962 101.445C97.0962 101.445 97.1409 101.415 97.1558 101.4C97.2302 101.355 97.2898 101.311 97.3642 101.266C97.3642 101.266 97.3791 101.266 97.394 101.251C97.2898 101.311 97.2005 101.385 97.0962 101.445ZM97.4089 101.236C97.4089 101.236 97.5429 101.162 97.6174 101.117C97.662 101.087 97.7067 101.072 97.7514 101.043C97.6323 101.102 97.528 101.177 97.4238 101.236H97.4089ZM97.8407 100.983C97.8407 100.983 97.9152 100.938 97.9449 100.923C97.9449 100.923 97.945 100.923 97.9598 100.923C97.9152 100.953 97.8705 100.968 97.8258 100.998L97.8407 100.983ZM98.0641 100.864C98.0641 100.864 98.0938 100.864 98.0938 100.849C98.0641 100.864 98.0194 100.894 97.9896 100.909C98.0194 100.909 98.0343 100.879 98.0641 100.864C98.0343 100.864 98.0194 100.894 97.9896 100.909C98.0343 100.879 98.079 100.864 98.1236 100.834C98.1087 100.834 98.079 100.849 98.0641 100.864ZM98.3023 100.745C98.3023 100.745 98.1832 100.804 98.1236 100.834C98.1236 100.834 98.1385 100.834 98.1534 100.834C98.1981 100.804 98.2427 100.789 98.2874 100.76L98.3023 100.745ZM98.3619 100.641C98.0343 100.76 97.6918 100.894 97.3494 101.043C97.4834 100.983 97.6174 100.923 97.7514 100.864C98.1385 100.715 98.5108 100.581 98.8681 100.447C98.6894 100.507 98.5256 100.566 98.3619 100.641ZM98.9723 100.417C98.6746 100.521 98.3768 100.626 98.0641 100.745C98.213 100.685 98.3619 100.626 98.5108 100.581C98.6448 100.536 98.7788 100.492 98.9128 100.447C98.9277 100.447 98.9575 100.447 98.9723 100.432V100.417ZM98.8235 100.462C98.6746 100.507 98.5405 100.566 98.3916 100.611C98.1385 100.7 97.8705 100.789 97.6025 100.894C97.7961 100.819 98.0045 100.745 98.2279 100.655C98.4214 100.596 98.6001 100.521 98.7788 100.462C98.7788 100.462 98.7937 100.462 98.8086 100.462H98.8235ZM98.7341 100.492C98.7341 100.492 98.615 100.536 98.5554 100.551C98.615 100.536 98.6745 100.507 98.7341 100.492ZM97.9003 100.775C97.5578 100.894 97.2005 101.028 96.8282 101.162C97.0367 101.072 97.2451 100.998 97.4834 100.909C97.8556 100.775 98.2279 100.655 98.5852 100.536C98.3321 100.611 98.1087 100.7 97.8854 100.775H97.9003ZM97.9747 100.7C98.0492 100.685 98.1236 100.655 98.213 100.641C97.7812 100.775 97.3196 100.923 96.858 101.072C97.1856 100.953 97.5578 100.834 97.9747 100.7ZM96.1731 101.311C96.9473 101.043 97.6769 100.804 98.3768 100.581C98.4065 100.581 98.4363 100.566 98.4661 100.551C98.3619 100.581 98.2576 100.626 98.1534 100.655C98.1981 100.641 98.2427 100.626 98.3023 100.611C98.213 100.641 98.1236 100.67 98.0343 100.7C98.079 100.7 98.1236 100.67 98.1683 100.655C97.8258 100.76 97.4834 100.879 97.1707 100.998C96.6644 101.177 96.1433 101.355 95.5924 101.564C95.7561 101.489 95.9497 101.415 96.1731 101.325V101.311ZM95.3541 101.683C95.7561 101.534 96.1433 101.385 96.5155 101.251C96.3368 101.325 96.1582 101.4 96.0093 101.474C95.7264 101.579 95.4435 101.698 95.1457 101.817C95.2052 101.772 95.2648 101.727 95.3541 101.683ZM95.0861 101.876C95.3095 101.787 95.5328 101.683 95.7561 101.593C95.6668 101.638 95.5924 101.683 95.5179 101.727C95.4137 101.772 95.2946 101.817 95.1903 101.876C95.1457 101.876 95.1159 101.876 95.0861 101.876ZM95.101 102.308C95.101 102.308 95.235 102.234 95.3095 102.189C95.2797 102.219 95.2648 102.249 95.2499 102.278C95.2201 102.293 95.1755 102.323 95.1457 102.338C95.1457 102.338 95.1159 102.323 95.1159 102.308H95.101ZM95.1308 102.8C95.1308 102.8 95.1308 102.785 95.1308 102.77C95.1308 102.77 95.1308 102.77 95.1308 102.755C95.1606 102.74 95.1754 102.71 95.2052 102.695C95.2052 102.725 95.1903 102.74 95.1754 102.77C95.1754 102.77 95.1457 102.8 95.1308 102.8ZM95.1457 102.859C95.1457 102.859 95.1457 102.844 95.1457 102.829C95.1457 102.829 95.1457 102.829 95.1606 102.814C95.1606 102.814 95.1606 102.844 95.1606 102.859H95.1457ZM95.1457 103.053C95.1457 103.053 95.1457 103.053 95.1308 103.068C95.1308 103.053 95.1308 103.038 95.1308 103.023C95.1308 103.023 95.1308 103.038 95.1308 103.053H95.1457ZM95.1159 103.142C95.1159 103.142 95.1159 103.127 95.1159 103.112C95.1159 103.112 95.1308 103.097 95.1457 103.082C95.1457 103.082 95.1457 103.082 95.1457 103.097C95.1457 103.097 95.1457 103.112 95.1457 103.127C95.1457 103.127 95.1308 103.157 95.1159 103.157C95.1159 103.157 95.1159 103.157 95.1159 103.142ZM95.1159 103.231V103.202C95.1159 103.202 95.1159 103.187 95.1308 103.172C95.1308 103.187 95.1308 103.216 95.1308 103.231H95.1159ZM95.1308 103.216C95.1308 103.216 95.1308 103.172 95.1606 103.142C95.1606 103.142 95.1606 103.157 95.1606 103.172C95.1606 103.187 95.1308 103.202 95.1159 103.216H95.1308ZM95.1754 102.963C95.1754 102.963 95.1903 102.963 95.2052 102.948V102.978L95.1754 102.963Z" fill="#979797"/>
</g>
</g>
<defs>
<clipPath id="clip0_1692_1796">
<rect width="200" height="200" fill="white"/>
</clipPath>
</defs>
</svg>
