<svg width="196" height="139" viewBox="0 0 196 139" fill="none" xmlns="http://www.w3.org/2000/svg">
<path d="M95.3185 63.2162C94.3055 62.5977 93.2869 62.0473 92.5084 61.3624C90.0788 59.7155 87.6867 58.0345 85.1092 56.4626C84.3174 55.9945 83.536 55.4877 82.788 54.9572C83.2646 55.1699 84.2108 55.8328 84.9511 56.1839C82.3921 54.4761 80.0576 53.0629 77.7073 51.5432C77.5527 51.4383 77.3906 51.3428 77.2324 51.2634C77.0742 51.1841 76.9237 51.1227 76.7914 51.0836L79.4955 52.84C78.5726 52.4048 77.6007 51.814 76.7394 51.1644C76.1648 50.7137 75.5215 50.2834 74.8683 49.9128C74.215 49.5467 73.5652 49.1322 72.9545 48.6921C72.2579 48.1976 71.5328 47.7226 70.7967 47.2784C70.2425 46.9563 69.6902 46.6202 69.1434 46.2724C67.6306 45.2985 66.1258 44.3119 64.6048 43.3507C64.0625 43.0016 63.3223 42.5431 63.2032 42.323C63.1356 42.1898 62.6211 41.8811 62.2557 41.6503C60.6622 40.6469 59.1004 39.7132 57.5423 38.7618C56.1521 37.9198 54.7727 37.0446 53.4147 36.1428C51.969 35.1719 50.5337 34.2323 49.0981 33.3171C48.6475 33.0349 48.2027 32.7418 47.7679 32.4406C46.9046 31.8423 46.013 31.2683 45.1109 30.7302C43.306 29.6319 41.5137 28.4969 39.7442 27.3315C36.5101 25.207 33.3601 23.2734 30.1981 21.2872C26.7076 19.0963 23.2839 16.8968 19.8417 14.6071C18.7664 13.8947 17.7473 13.214 16.7178 12.502C15.8099 11.875 15.3622 11.6293 15.2054 11.6584C14.8631 11.7136 15.8496 12.6355 17.4752 13.7917C19.2967 15.0679 21.1487 16.3229 23.0235 17.5515C24.636 18.6209 26.2546 19.6808 27.8172 20.7561C28.6675 21.3416 31.9844 23.4566 32.8764 24.0129C33.7685 24.5692 34.1915 25.0678 35.2768 25.6813C35.314 25.7187 35.3991 25.7892 35.3767 25.7882C35.1884 25.7947 35.7873 26.1869 36.2753 26.5011C37.2839 27.1504 38.325 27.8206 39.3014 28.4245C40.8168 29.3467 42.3219 30.2984 43.8093 31.2748C44.5113 31.7512 45.235 32.2043 45.9631 32.6232C46.9559 33.1659 48.1018 33.8879 49.1288 34.4728C49.6038 34.7352 50.0782 35.0338 50.5261 35.3521C50.3348 35.3276 49.5079 34.8132 49.6538 35.0393C50.7389 35.6488 51.8222 36.3115 52.8783 37.0119C54.3962 38.0495 55.8935 38.9642 57.3925 39.9358C57.8984 40.2491 58.3999 40.572 58.8945 40.9027C59.5839 41.3806 60.3025 41.8318 61.0246 42.2403C61.7679 42.6577 62.506 43.1328 63.1936 43.6366C62.6045 43.3604 61.6061 42.6953 61.1667 42.5558C61.8075 43.0019 61.8463 43.1681 62.621 43.6802C63.7766 44.4466 64.7891 45.2686 66.0944 45.9811C66.264 46.0815 66.4316 46.1894 66.5933 46.3023C67.6317 46.9942 68.6895 47.6623 69.7557 48.2999C72.0834 49.7356 74.3901 51.1085 76.7679 52.657C77.7544 53.3152 78.7609 53.9489 79.7751 54.5503C80.165 54.7762 80.5492 55.0288 80.9066 55.2944C81.5709 55.781 82.2801 56.2428 82.998 56.6564C83.4489 56.9091 83.8959 57.2007 84.3052 57.509C83.6931 57.2102 83.0609 56.8431 82.4573 56.436C80.7246 55.2556 79.6248 54.7717 78.1637 53.8962C78.4497 54.125 78.7555 54.3505 79.0739 54.5672C80.3594 55.4059 81.6472 56.2529 82.9418 57.0773C84.0263 57.7754 85.1826 58.5646 86.1084 58.997C86.4295 59.1674 86.7533 59.3608 87.0669 59.5692C88.077 60.2182 89.0999 60.8437 90.1267 61.4402C91.8285 62.4304 93.4558 63.5721 95.1154 64.6517C95.4708 64.9101 95.8501 65.1543 96.2325 65.3707C97.7979 66.0961 99.34 67.3106 100.891 68.3318C101.125 68.4819 101.214 68.5818 101.207 68.6157C101.201 68.6496 101.075 68.5953 100.824 68.4477C100.397 68.1948 99.6315 67.6798 99.582 67.6972C99.4201 67.77 98.4179 67.1226 97.7651 66.7786C98.1752 67.09 98.6295 67.3824 99.0828 67.6268C100.971 68.6546 102.866 69.7833 104.721 70.9851C104.885 71.0904 105.051 71.1912 105.217 71.2866C106.898 72.2498 108.712 73.3751 110.472 74.4297C110.738 74.5893 111.177 74.8835 111.13 74.7414C107.265 72.2754 103.28 69.9117 99.2833 67.077C100.492 67.7955 101.694 68.545 102.879 69.3196C104.865 70.6129 106.879 71.8648 108.904 73.0659C109.37 73.3417 110.286 73.8127 110.214 73.9854C110.288 74.0489 110.374 74.1116 110.464 74.1688C111.437 74.7417 112.41 75.4822 113.283 75.9839C114.905 76.9397 116.514 77.949 118.092 78.9987C120.207 80.36 122.37 81.7528 124.415 83.1046C126.648 84.5801 128.887 85.9029 131.057 87.3806C131.329 87.5638 131.609 87.7373 131.891 87.897C133.672 88.9364 135.448 90.0194 137.205 91.1387C138.885 92.1866 140.441 93.0809 142.151 94.0828C141.359 93.4299 140.367 92.9931 139.668 92.4467C139.868 92.5304 140.086 92.6478 140.294 92.7848C141.135 93.3258 141.981 93.8703 142.816 94.4079C143.651 94.9455 143.701 95.1772 144.534 95.6593C145.371 96.1405 146.203 96.6639 147.006 97.2152C147.058 97.2458 147.109 97.2786 147.158 97.313C147.764 97.7801 148.451 98.214 149.122 98.5522C151.288 99.726 153.463 101.026 155.586 102.413C155.845 102.581 156.109 102.739 156.373 102.884C158.089 103.852 159.936 104.974 161.749 106.065C163.96 107.396 166.232 108.919 168.417 110.207C169.109 110.919 169.459 111.173 171.227 112.24C171.996 112.701 172.741 113.127 173.495 113.565C174.209 113.978 174.921 114.407 175.629 114.849C178.161 116.444 180.691 118.005 183.221 119.627C183.488 119.795 183.758 119.954 184.027 120.103C184.291 120.253 184.51 120.354 184.488 120.292C184.466 120.231 184.111 119.996 183.847 119.823C181.176 118.086 178.591 116.312 175.827 114.601C174.93 114.04 174.042 113.459 173.171 112.864C172.358 112.309 171.525 111.773 170.682 111.262C167.797 109.509 164.936 107.685 162.122 105.807C158.877 103.64 155.566 101.527 152.245 99.4182C150.51 98.3141 148.775 97.2314 147.03 96.1058C145.285 94.9802 143.444 93.8489 141.684 92.664C141.466 92.5149 141.243 92.3711 141.017 92.2347C139.605 91.3833 138.205 90.4973 136.825 89.5836C135.36 88.6628 133.907 87.7185 132.473 86.7547C129.813 84.9285 127.105 83.1785 124.356 81.3843C123.424 80.7549 122.474 80.1435 121.515 79.5552C120.654 79.0458 121.604 79.7023 121.454 79.6503C120.625 79.1032 119.598 78.5053 119.222 78.0771C119.047 77.9347 118.852 77.7956 118.649 77.6681L114.696 75.1234L114.665 75.1725L118.11 77.4461C117.461 77.0897 116.811 76.6926 116.183 76.2688C113.654 74.6095 111.142 73.1153 108.615 71.4773C108.137 71.1701 107.62 70.8547 107.515 70.886C107.913 71.152 108.321 71.4056 108.731 71.6419C109.059 71.871 109.371 72.0896 109.379 72.16C109.388 72.2303 109.079 72.0314 108.834 71.8987C107.414 71.1259 105.773 70.0422 104.275 69.152C104.218 69.1185 104.161 69.0821 104.107 69.0438C103.657 68.7541 103.178 68.4256 103.098 68.2871C103.019 68.1485 103.352 68.298 103.897 68.6195C104.163 68.7776 104.439 68.9686 104.732 69.1327C105.025 69.2968 105.422 69.55 105.322 69.4073C103.935 68.4763 102.516 67.6904 101.069 66.7096C101.283 66.7107 102.383 67.5153 102.487 67.4498C99.7607 65.605 96.9387 63.8715 94.1163 62.3078C95.929 63.5307 97.7122 64.5017 99.469 65.7401C98.0868 64.9444 96.6881 64.0553 95.3185 63.2162ZM124.525 83.0051C123.903 82.566 123.251 82.1505 122.593 81.7755C122.493 81.7221 122.391 81.6603 122.295 81.5935C122.198 81.5268 122.109 81.4564 122.031 81.3864C121.936 81.2716 122.251 81.4497 122.525 81.6195C122.802 81.7877 123.076 81.9641 123.344 82.1466C124.252 82.7707 125.175 83.381 126.11 83.974C125.575 83.6933 125.035 83.3629 124.525 83.0051ZM71.4214 49.1436C71.3525 49.1553 70.8814 48.8744 70.5951 48.652C70.3087 48.4296 70.5945 48.5576 70.7864 48.6408C71.4595 48.9701 72.1545 49.3753 72.8163 49.8242C72.3193 49.5715 71.5856 49.1149 71.4214 49.1436ZM92.065 61.3839C91.2636 60.9366 90.4669 60.4237 89.7279 59.8795C90.5273 60.3347 91.3196 60.8448 92.065 61.3839ZM90.9719 61.4735C91.7931 61.9269 92.6146 62.43 93.4088 62.966C92.7644 62.6565 92.0067 62.106 90.9719 61.4735ZM60.9489 42.084C60.6598 41.9136 60.3464 41.8284 60.0731 41.5382C59.9248 41.3754 60.4758 41.7347 60.7846 41.9222L61.8854 42.595C61.6507 42.5425 61.2444 42.2563 60.9489 42.084ZM126.768 84.1311C127.412 84.4983 128.052 84.902 128.666 85.3284C128.019 84.9841 127.367 84.5727 126.768 84.1311ZM113.817 76.0363C112.92 75.571 112.678 75.4237 111.3 74.4899C112.104 75.0049 112.871 75.4565 113.817 76.0363ZM77.5811 52.7638C77.3361 52.655 77.0782 52.5194 76.8225 52.3648C76.5667 52.2101 76.318 52.0395 76.0905 51.8625C76.5913 52.1237 77.099 52.4307 77.5811 52.7638ZM94.4632 62.8292C94.67 62.9488 94.915 63.1043 94.9933 63.1973C95.0715 63.2902 94.7753 63.095 94.6367 63.0125C94.3926 62.8554 94.1269 62.6844 93.7989 62.4911C94.0066 62.5715 94.2368 62.6886 94.4632 62.8292ZM164.708 107.795C164.697 107.74 164.984 107.925 165.18 108.05C165.321 108.14 165.459 108.235 165.589 108.333C165.569 108.363 165.303 108.193 165.098 108.07C164.893 107.948 164.706 107.822 164.697 107.788L164.708 107.795ZM72.1625 49.1838C72.0348 49.0989 71.9136 49.0088 71.8046 48.9176C71.7237 48.8408 71.8281 48.8811 72.0179 49.0033C72.2014 49.1129 72.3752 49.2413 72.5116 49.3682C72.455 49.3609 72.3177 49.2882 72.1516 49.1768L72.1625 49.1838ZM111.328 73.6607C111.404 73.6607 111.653 73.8099 111.926 73.9828C112.007 74.0352 112.157 74.1475 112.148 74.1504C112.123 74.1884 111.813 73.991 111.577 73.8457C111.486 73.7835 111.399 73.7191 111.317 73.6537L111.328 73.6607ZM127.216 83.8166C127.111 83.7528 127.008 83.6863 126.907 83.6177C126.777 83.5339 126.81 83.5418 126.983 83.6535L127.526 84.0026C127.418 83.9406 127.311 83.8761 127.205 83.8096L127.216 83.8166ZM85.0118 56.447C85.2016 56.5692 85.3128 56.6587 85.2822 56.6704C85.2517 56.6821 85.11 56.6043 84.9419 56.4961C84.7738 56.3879 84.6572 56.2949 84.6651 56.2708C84.7101 56.2837 84.7615 56.3042 84.8157 56.331C84.87 56.3578 84.9258 56.3902 84.9793 56.4261L85.0118 56.447ZM85.811 58.196C85.7444 58.1622 85.6765 58.1215 85.6122 58.077C85.5479 58.0325 85.4888 57.9854 85.4396 57.939C85.4396 57.939 85.5027 57.9483 85.5762 57.9889C85.7166 58.0658 85.8553 58.1607 85.9703 58.2583C85.9154 58.2364 85.8574 58.2192 85.7785 58.1751L85.811 58.196ZM134.07 88.8964C133.912 88.7951 133.712 88.666 133.709 88.6349C133.839 88.6999 133.972 88.7742 134.104 88.8555C134.177 88.8972 134.25 88.9444 134.318 88.9943C134.386 89.0442 134.448 89.0958 134.499 89.1461C134.338 89.0512 134.186 88.9665 134.037 88.8754L134.07 88.8964Z" fill="black"/>
<g clip-path="url(#clip0_1681_2223)">
<path d="M122.126 84.9178C121.503 84.8174 120.904 84.6671 120.347 84.7343C118.792 84.606 117.239 84.5208 115.655 84.2639C115.174 84.1749 114.683 84.1179 114.195 84.0946C114.459 84.1958 115.072 84.2309 115.49 84.3738C113.862 84.2203 112.432 83.9804 110.955 83.8058C110.856 83.7977 110.758 83.7792 110.667 83.7517C110.576 83.7241 110.495 83.6882 110.429 83.6464L112.131 83.8419C111.612 83.6619 111.015 83.5638 110.439 83.5637C110.049 83.5755 109.639 83.5376 109.248 83.4533C108.859 83.366 108.452 83.3138 108.052 83.2996C107.598 83.2782 107.14 83.2285 106.689 83.152C106.355 83.0858 106.016 83.0303 105.674 82.9857C104.725 82.8703 103.775 82.7678 102.828 82.6395C102.488 82.5981 102.03 82.5293 101.902 82.619C101.826 82.6755 101.511 82.6209 101.284 82.5899C100.293 82.4529 99.3401 82.2843 98.3822 82.13C97.53 81.9875 96.6696 81.8735 95.8076 81.7888C94.8858 81.7063 93.9798 81.6076 93.0827 81.4919C92.803 81.4521 92.5215 81.4228 92.2409 81.4044C91.6835 81.3678 91.1243 81.2998 90.5744 81.2016C89.4661 81.0201 88.349 80.8705 87.2294 80.7536C85.1851 80.5362 83.2446 80.2311 81.2798 79.9559C79.1115 79.651 76.9659 79.3867 74.7793 79.1751C74.0974 79.1069 73.449 79.0461 72.7849 79.0016C72.1996 78.9616 71.9347 78.8981 71.8849 78.7967C71.7731 78.5807 72.4989 78.4584 73.5595 78.5068C74.7406 78.5743 75.9257 78.6723 77.1097 78.8004C78.1327 78.9018 79.1546 79.0129 80.1606 79.0843C80.7081 79.1229 82.7809 79.3899 83.3337 79.4703C83.8865 79.5507 84.2363 79.427 84.8852 79.5685C84.9136 79.5621 84.9728 79.5578 84.9637 79.5468C84.8934 79.4445 85.2715 79.4855 85.5775 79.5227C86.2101 79.5997 86.8631 79.6791 87.4663 79.7706C88.3968 79.9229 89.3344 80.0496 90.2744 80.15C90.7238 80.1867 91.1729 80.2507 91.611 80.3406C92.1977 80.4827 92.9105 80.5809 93.5262 80.7117C93.8079 80.7778 94.1029 80.8188 94.3951 80.8322C94.3119 80.7497 93.7999 80.6743 93.9408 80.5943C94.5882 80.7385 95.2546 80.8449 95.9247 80.9113C96.8993 80.9855 97.82 81.1337 98.7627 81.2434C99.0754 81.2905 99.3899 81.3287 99.7048 81.358C100.15 81.3871 100.596 81.4497 101.028 81.5436C101.472 81.6424 101.934 81.6987 102.389 81.7091C102.058 81.5932 101.423 81.5324 101.201 81.4001C101.615 81.4259 101.692 81.3316 102.183 81.3814C102.917 81.4541 103.615 81.4141 104.386 81.6016C104.489 81.6206 104.594 81.6334 104.699 81.6397C105.359 81.7028 106.018 81.7923 106.668 81.9072C108.105 82.128 109.51 82.3812 111.008 82.5502C111.635 82.6095 112.261 82.6961 112.878 82.809C113.113 82.856 113.356 82.8816 113.593 82.8845C114.032 82.8945 114.479 82.945 114.911 83.0332C115.18 83.0935 115.462 83.1249 115.735 83.1252C115.387 83.013 115.005 82.9373 114.62 82.904C113.509 82.8166 112.902 82.5783 112.01 82.4221C112.206 82.4131 112.409 82.4167 112.613 82.4329C113.423 82.5232 114.238 82.6091 115.046 82.7141C115.727 82.7968 116.469 82.8541 116.988 83.0375C117.176 83.0869 117.373 83.122 117.573 83.1415C118.206 83.2193 118.835 83.32 119.455 83.4428C120.483 83.6452 121.539 83.7045 122.584 83.8234C122.818 83.83 123.056 83.859 123.284 83.9086C124.161 84.2225 125.211 84.1874 126.192 84.2903C126.338 84.3081 126.41 84.2855 126.42 84.2588C126.43 84.2321 126.361 84.2039 126.21 84.1756C125.95 84.1275 125.461 84.0846 125.449 84.0468C125.413 83.9126 124.784 83.8376 124.403 83.7354C124.678 83.734 124.963 83.7686 125.229 83.8359C126.343 84.1091 127.498 84.3164 128.664 84.4528C128.767 84.4653 128.869 84.4821 128.969 84.503C129.979 84.713 131.101 84.8808 132.175 85.0691C132.337 85.097 132.617 85.1228 132.546 85.1965C130.13 84.8861 127.706 84.4432 125.102 84.3189C125.837 84.4522 126.582 84.5604 127.33 84.6425C128.581 84.7843 129.827 84.9683 131.059 85.1933C131.343 85.2458 131.873 85.3975 131.909 85.2407C131.962 85.2356 132.018 85.2369 132.074 85.2444C132.665 85.3557 133.318 85.3512 133.843 85.4595C134.827 85.6436 135.826 85.785 136.829 85.8819C138.155 86.0432 139.512 86.2083 140.808 86.3396C142.222 86.4837 143.582 86.7363 144.974 86.8463C145.147 86.8616 145.321 86.8876 145.489 86.9238C146.566 87.1337 147.657 87.3104 148.755 87.4527C149.796 87.604 150.732 87.7969 151.768 87.9952C151.218 88.0336 150.671 87.819 150.196 87.8321C150.305 87.8784 150.433 87.9105 150.565 87.9246C151.092 87.9887 151.623 88.0532 152.146 88.1169C152.67 88.1807 152.776 88.0471 153.278 88.1477C153.782 88.2514 154.299 88.3232 154.816 88.361C154.847 88.3668 154.879 88.3707 154.911 88.3726C155.319 88.3654 155.747 88.4238 156.133 88.5394C157.409 88.8564 158.736 89.092 160.075 89.2394C160.238 89.2582 160.399 89.2867 160.555 89.3241C161.58 89.5491 162.714 89.7364 163.823 89.9272C165.175 90.1591 166.622 90.2908 167.948 90.5393C168.482 90.4084 168.713 90.415 169.795 90.5993C170.264 90.6811 170.712 90.775 171.167 90.8649C171.597 90.9518 172.033 91.0268 172.472 91.0895C174.047 91.3074 175.609 91.5467 177.193 91.7444C177.359 91.7673 177.522 91.7977 177.682 91.8351C177.84 91.8692 177.963 91.9137 177.931 91.9444C177.9 91.9751 177.675 91.9527 177.508 91.9341C175.826 91.7427 174.164 91.6211 172.456 91.3639C171.899 91.2838 171.339 91.2223 170.78 91.1798C170.258 91.1394 169.735 91.0758 169.219 90.99C167.448 90.6983 165.661 90.4671 163.871 90.2983C161.806 90.1047 159.737 89.8398 157.665 89.5664C156.581 89.4247 155.506 89.2693 154.41 89.1377C153.315 89.0061 152.181 88.8286 151.057 88.7298C150.917 88.7194 150.777 88.7023 150.639 88.6789C149.775 88.5318 148.902 88.4141 148.028 88.3267C147.117 88.1994 146.202 88.0947 145.287 88.0132C143.577 87.889 141.876 87.687 140.143 87.4943C139.547 87.4432 138.951 87.3707 138.36 87.2775C137.837 87.181 138.45 87.2226 138.372 87.1802C137.847 87.1263 137.227 87.0047 136.922 87.1041C136.801 87.1113 136.674 87.1059 136.547 87.0882L134.068 86.7867L134.074 86.7364L136.256 86.9606C135.872 86.8689 135.472 86.8047 135.071 86.7704C133.473 86.5991 131.943 86.3225 130.354 86.1375C130.055 86.101 129.737 86.0492 129.708 85.9733C129.961 85.9968 130.214 86.0342 130.461 86.0846C130.673 86.0973 130.875 86.1087 130.905 86.0646C130.934 86.0205 130.74 85.9969 130.596 85.9613C129.759 85.7557 128.719 85.649 127.807 85.4838C127.773 85.4771 127.737 85.4728 127.702 85.471C127.419 85.4366 127.112 85.414 127.029 85.4681C126.947 85.5222 127.131 85.5924 127.462 85.654C127.624 85.6836 127.802 85.6954 127.977 85.7348C128.151 85.7741 128.4 85.8059 128.308 85.8523C127.423 85.7727 126.581 85.5765 125.655 85.5001C125.738 85.6105 126.464 85.6281 126.48 85.7271C124.736 85.581 122.998 85.3085 121.322 84.9187C122.48 85.0184 123.532 85.2764 124.674 85.3363C123.842 85.166 122.969 85.0516 122.126 84.9178ZM140.813 86.4653C140.409 86.4449 140.001 86.392 139.607 86.3087C139.548 86.2932 139.486 86.283 139.423 86.2788C139.361 86.2747 139.3 86.2765 139.244 86.2843C139.164 86.3141 139.353 86.3551 139.522 86.3806C139.692 86.4087 139.864 86.4296 140.036 86.4431C140.62 86.4849 141.205 86.5445 141.788 86.6217C141.476 86.5373 141.144 86.484 140.813 86.4653ZM107.628 82.1917C107.605 82.1479 107.318 82.0965 107.124 82.1009C106.931 82.1053 107.089 82.1657 107.194 82.2081C107.578 82.331 107.998 82.4131 108.421 82.4479C108.135 82.3636 107.68 82.2969 107.628 82.1917ZM120.183 84.489C119.706 84.3807 119.207 84.3199 118.718 84.3107C119.197 84.4126 119.694 84.473 120.183 84.489ZM119.794 83.8592C120.281 83.9736 120.787 84.054 121.294 84.0976C120.929 83.9759 120.431 83.9613 119.794 83.8592ZM100.94 81.6119C100.765 81.5791 100.612 81.4749 100.398 81.5328C100.28 81.5678 100.627 81.6067 100.817 81.638L101.494 81.7467C101.383 81.6609 101.119 81.6468 100.94 81.6119ZM142.101 86.8556C142.487 86.9373 142.886 86.9918 143.283 87.0174C142.904 86.9181 142.498 86.8625 142.101 86.8556ZM134.069 85.7009C133.548 85.5553 133.399 85.5306 132.518 85.4579C133.021 85.5207 133.487 85.6086 134.069 85.7009ZM111.362 82.8994C111.227 82.8469 111.076 82.8063 110.92 82.7799C110.763 82.7535 110.603 82.7418 110.449 82.7455C110.74 82.8258 111.051 82.8782 111.362 82.8994ZM121.651 84.7399C121.775 84.7649 121.928 84.7851 121.993 84.7618C122.058 84.7384 121.871 84.7189 121.786 84.7037C121.633 84.6851 121.467 84.6648 121.268 84.6274C121.378 84.6801 121.511 84.719 121.651 84.7399ZM165.613 90.2733C165.589 90.3049 165.769 90.3268 165.891 90.3433C165.979 90.3545 166.068 90.3603 166.155 90.3606C166.159 90.3298 165.992 90.3079 165.867 90.2861C165.742 90.2643 165.623 90.2531 165.606 90.2725L165.613 90.2733ZM107.929 82.5492C107.848 82.5413 107.768 82.5404 107.691 82.5466C107.631 82.5574 107.687 82.5839 107.806 82.5984C107.918 82.6183 108.033 82.6202 108.133 82.6037C108.108 82.5793 108.028 82.558 107.922 82.5484L107.929 82.5492ZM132.219 86.0435C132.249 86.0833 132.401 86.11 132.57 86.1323C132.621 86.1385 132.721 86.1391 132.719 86.1322C132.724 86.0933 132.53 86.0681 132.384 86.0455C132.326 86.0411 132.268 86.0402 132.212 86.0426L132.219 86.0435ZM142.157 87.305C142.093 87.2947 142.028 87.2868 141.963 87.2814C141.881 87.2714 141.897 87.2832 142.006 87.2965L142.346 87.3378C142.282 87.3248 142.216 87.3136 142.15 87.3041L142.157 87.305ZM115.612 84.2241C115.731 84.2386 115.807 84.2347 115.8 84.2108C115.792 84.1868 115.708 84.1668 115.603 84.1539C115.498 84.1411 115.418 84.1446 115.412 84.1652C115.434 84.1798 115.461 84.1924 115.492 84.2021C115.523 84.2118 115.557 84.2185 115.591 84.2216L115.612 84.2241ZM116.574 83.4346C116.536 83.4233 116.494 83.416 116.453 83.4132C116.411 83.4105 116.371 83.4123 116.334 83.4186C116.334 83.4186 116.362 83.445 116.406 83.4553C116.489 83.4752 116.578 83.482 116.659 83.4745C116.629 83.4611 116.601 83.4428 116.554 83.4321L116.574 83.4346ZM146.705 87.3679C146.606 87.3559 146.481 87.3406 146.468 87.3604C146.542 87.3834 146.622 87.4014 146.703 87.4137C146.747 87.4232 146.793 87.4286 146.838 87.4296C146.883 87.4305 146.926 87.427 146.965 87.4192C146.867 87.4007 146.776 87.3798 146.685 87.3654L146.705 87.3679Z" fill="black"/>
<path d="M119.521 83.216C120.396 83.4335 121.309 83.5868 122.227 83.6702C121.988 83.5574 121.691 83.4822 121.387 83.4577C120.782 83.376 120.151 83.3157 119.521 83.216Z" fill="black"/>
<path d="M133.379 86.6958C132.886 86.5977 132.386 86.5197 131.882 86.4628C132.406 86.6104 132.406 86.6104 133.379 86.6958Z" fill="black"/>
<path d="M126.968 84.1062C127.253 84.1953 127.569 84.248 127.88 84.2584C127.955 84.2675 127.975 84.2468 127.912 84.2293C127.607 84.1524 127.283 84.1102 126.968 84.1062Z" fill="black"/>
<path d="M142.99 86.501C142.637 86.4419 142.28 86.3984 141.923 86.3712C142.233 86.4352 142.55 86.4826 142.868 86.5125C142.933 86.52 142.998 86.5252 143.063 86.5279L142.99 86.501Z" fill="black"/>
<path d="M111.461 82.4585C111.356 82.4242 111.239 82.4042 111.123 82.401C111.049 82.3919 111.029 82.4092 111.079 82.4284C111.184 82.4613 111.301 82.4812 111.417 82.486C111.492 82.4886 111.504 82.4752 111.461 82.4585Z" fill="black"/>
<path d="M143.249 86.4325C143.19 86.4198 143.131 86.4092 143.071 86.401C143.012 86.3938 142.917 86.3971 142.916 86.4036C142.915 86.4101 143.034 86.4426 143.125 86.4454C143.169 86.4453 143.211 86.441 143.249 86.4325Z" fill="black"/>
</g>
<defs>
<clipPath id="clip0_1681_2223">
<rect width="106.851" height="1.90112" fill="white" transform="matrix(0.992683 0.120748 0.120748 -0.992683 71.8413 79.2461)"/>
</clipPath>
</defs>
</svg>
