<svg width="216" height="105" viewBox="0 0 216 105" fill="none" xmlns="http://www.w3.org/2000/svg">
<g opacity="0.6">
<path fill-rule="evenodd" clip-rule="evenodd" d="M13.5946 34.6913C14.5814 33.3151 15.1118 31.7928 15.161 30.1976C15.161 30.1976 14.1801 29.5377 13.687 29.7337C12.8444 29.4685 14.1474 28.9656 14.5016 28.3747C12.5685 28.258 12.0707 29.506 9.50749 28.7696C10.5607 29.1011 9.9601 29.6846 11.471 29.8791C12.9819 30.0737 11.7545 29.4065 12.5971 29.6716C13.4397 29.9368 11.9652 29.4728 11.7527 29.8274C10.6901 31.6001 9.03086 33.1147 7.75766 34.8211C10.4262 35.5907 12.9925 35.6958 13.5946 34.6913Z" fill="#231F33"/>
<path fill-rule="evenodd" clip-rule="evenodd" d="M154.661 55.2038C153.823 54.8669 152.939 54.5885 152.028 54.3752C148.973 53.414 146.932 53.8955 146.258 55.2286C145.584 56.5617 146.669 57.6756 149.477 58.6296C151.222 58.1235 153.031 57.6847 154.897 57.3152C156.657 56.8857 156.835 56.3798 154.661 55.2038Z" fill="#231F33"/>
<path fill-rule="evenodd" clip-rule="evenodd" d="M71.0082 90.3338C71.4388 89.5671 71.5624 88.7185 71.3704 87.8491C70.0692 87.9313 68.1365 87.8147 67.7833 88.1952C67.3873 88.9566 67.3111 89.7985 67.5612 90.6538C68.7571 90.5385 70.6549 90.7143 71.0082 90.3338Z" fill="#231F33"/>
<path fill-rule="evenodd" clip-rule="evenodd" d="M209.407 61.8278C209.867 62.0804 210.419 62.254 210.987 62.3251C214.115 62.5369 214.085 61.3333 213.95 60.0968C213.678 59.6539 213.3 59.2271 212.831 58.8315L209.277 59.5392C209.308 60.3218 209.27 61.0121 209.407 61.8278Z" fill="#231F33"/>
<path fill-rule="evenodd" clip-rule="evenodd" d="M59.6259 104.102L60.7174 103.743L59.8086 102.544L57.8389 102.697L59.6259 104.102Z" fill="#231F33"/>
<path fill-rule="evenodd" clip-rule="evenodd" d="M26.6819 0.953229C25.463 2.17134 24.8509 3.62417 24.9053 5.17022C24.5157 5.82021 22.9068 3.90915 22.48 5.03905C23.7438 5.4368 24.5799 7.17488 22.6514 6.00611C21.4882 6.69358 24.5478 6.60285 24.0174 7.27878C21.2408 7.10732 24.679 8.68105 22.2537 8.54994C23.2016 8.84825 23.4124 8.91458 24.3604 9.21289C25.5291 7.26294 25.01 5.41387 27.0876 4.66298C26.107 3.79252 28.1536 2.04851 26.6819 0.953229Z" fill="#231F33"/>
<path fill-rule="evenodd" clip-rule="evenodd" d="M34.5968 7.79856C34.8392 8.64741 32.3785 8.57539 33.7114 9.27579C35.0442 9.97618 33.711 9.27567 34.6589 9.57398C34.9904 9.35762 35.1654 9.06267 35.154 8.7391C35.1426 8.41554 34.9459 8.08336 34.5968 7.79856Z" fill="#231F33"/>
<path fill-rule="evenodd" clip-rule="evenodd" d="M27.9937 6.28253C27.7707 6.59522 27.7388 6.96411 27.9023 7.3326C28.0657 7.70108 28.4159 8.04905 28.8993 8.32335C29.2181 7.79156 30.584 8.85353 30.8692 7.96001C31.1544 7.06649 29.609 6.72063 27.9937 6.28253Z" fill="#231F33"/>
<path fill-rule="evenodd" clip-rule="evenodd" d="M96.384 36.0922C96.5547 37.2696 94.7649 36.4956 94.6205 37.3632C96.9721 38.2437 97.647 36.7004 96.384 36.0922Z" fill="#231F33"/>
<path fill-rule="evenodd" clip-rule="evenodd" d="M90.6963 42.4506C92.4849 43.4349 94.1123 41.1376 91.7588 40.6779C92.0002 41.7371 91.1558 41.8928 90.6963 42.4506Z" fill="#231F33"/>
<path fill-rule="evenodd" clip-rule="evenodd" d="M20.2132 24.9047C21.5824 25.3356 20.9833 25.7089 22.0719 25.9812C21.727 24.468 23.2053 24.0903 21.6646 22.6924C19.9057 22.9115 22.0074 24.6265 20.2132 24.9047Z" fill="#231F33"/>
<path fill-rule="evenodd" clip-rule="evenodd" d="M14.1895 27.6445C14.6853 26.8173 13.4922 26.3014 15.0749 26.1673C14.127 25.869 13.9878 25.4741 12.8628 25.4712C13.4556 26.5708 10.1887 25.9641 11.9774 26.9484L13.9125 26.6444C13.1734 26.8332 13.2769 27.2871 14.1895 27.6445Z" fill="#231F33"/>
<path fill-rule="evenodd" clip-rule="evenodd" d="M15.0932 29.8954C15.9199 30.2593 16.8883 30.4384 17.798 30.3955C17.798 30.3955 18.223 29.6864 17.6265 29.4285C17.0299 29.1705 15.7624 29.6144 15.0932 29.8954Z" fill="#231F33"/>
<path fill-rule="evenodd" clip-rule="evenodd" d="M10.4834 30.6918C10.7668 30.2191 6.30871 28.6756 7.85034 29.8632C7.85034 29.8632 8.02732 29.5677 8.55394 29.7334C9.08056 29.8991 8.12885 30.4425 8.72538 30.7005C9.3219 30.9585 10.2709 31.0464 10.4834 30.6918Z" fill="#231F33"/>
<path fill-rule="evenodd" clip-rule="evenodd" d="M42.2885 49.4797C43.0677 48.1798 39.9762 47.6985 38.6024 48.3197C40.1822 48.8169 39.9314 49.8618 39.3293 50.8663C41.2252 51.4629 40.073 49.6254 42.0043 50.1629C41.3388 49.6023 39.6869 49.4336 40.359 48.5213C41.031 47.609 41.6565 49.2809 42.2885 49.4797Z" fill="#231F33"/>
<path fill-rule="evenodd" clip-rule="evenodd" d="M16.6324 47.5868C16.9792 48.6792 13.6769 48.1315 15.5699 49.3593C15.8533 48.8866 15.889 48.8277 16.8006 49.3955C17.7122 49.9633 18.107 48.0508 16.6324 47.5868Z" fill="#231F33"/>
<path fill-rule="evenodd" clip-rule="evenodd" d="M30.6894 56.7171C30.0519 57.7807 28.8318 55.4302 30.6596 55.5137C30.087 55.457 29.5282 55.2811 29.0801 55.0167C27.8842 55.132 28.5843 55.8439 28.053 56.7302C30.5808 57.5257 28.6409 58.8818 29.7967 59.8777C30.9525 60.8735 31.6926 60.4743 32.0104 60.1529C29.9049 59.2796 31.9859 57.687 30.6894 56.7171Z" fill="#231F33"/>
<path fill-rule="evenodd" clip-rule="evenodd" d="M37.5423 57.399C39.1166 59.1586 36.1963 59.6444 38.3345 61.0898C38.2692 59.9455 39.9992 58.3126 37.5423 57.399Z" fill="#231F33"/>
<path fill-rule="evenodd" clip-rule="evenodd" d="M12.0196 57.1635C13.4942 57.6275 14.1995 57.0769 15.1148 56.8031C13.219 56.2065 12.3393 56.4213 12.0196 57.1635Z" fill="#231F33"/>
<path fill-rule="evenodd" clip-rule="evenodd" d="M37.0059 67.4844C36.3795 66.023 38.3516 65.2389 37.1604 64.3021C37.1893 65.7159 34.163 66.379 37.0059 67.4844Z" fill="#231F33"/>
<path fill-rule="evenodd" clip-rule="evenodd" d="M13.8813 65.5449C13.6409 64.2752 16.496 62.6453 14.6347 62.2C14.6981 63.7651 11.9883 64.3171 13.8813 65.5449Z" fill="#231F33"/>
<path fill-rule="evenodd" clip-rule="evenodd" d="M10.8935 65.3059C10.6379 65.9831 10.7576 66.7329 11.2357 67.4504C11.4508 67.3248 11.6128 67.1688 11.7124 66.9916C11.812 66.8144 11.8467 66.6197 11.8147 66.4193C11.7828 66.219 11.6848 66.017 11.5264 65.8257C11.3681 65.6343 11.1528 65.4575 10.8935 65.3059Z" fill="#231F33"/>
<path fill-rule="evenodd" clip-rule="evenodd" d="M2.35166 72.872C2.70584 72.2811 3.06009 71.6902 1.79618 71.2925C1.33575 72.0606 1.19399 72.297 0.137943 72.5968C0.853995 72.8225 1.62716 72.9187 2.35166 72.872Z" fill="#231F33"/>
<path fill-rule="evenodd" clip-rule="evenodd" d="M30.445 80.3086C30.0909 80.8994 27.8049 80.9526 30.438 81.7812C30.2292 81.2941 31.6745 80.555 30.445 80.3086Z" fill="#231F33"/>
<path fill-rule="evenodd" clip-rule="evenodd" d="M56.5664 88.3192C55.9708 88.2115 55.3967 88.0309 54.8815 87.789C55.2282 88.8814 53.3584 90.3299 55.6084 90.3356C54.8385 89.5314 56.1768 88.9692 56.5664 88.3192Z" fill="#231F33"/>
<path fill-rule="evenodd" clip-rule="evenodd" d="M39.1458 92.3191C38.5437 93.3236 41.0379 93.7573 41.7789 93.1477C42.5199 92.5381 40.762 92.5468 39.1458 92.3191Z" fill="#231F33"/>
<path fill-rule="evenodd" clip-rule="evenodd" d="M16.6154 98.9936C18.1952 99.4908 19.8871 98.5482 18.2374 97.9588C18.3035 98.8927 16.5492 98.0597 16.6154 98.9936Z" fill="#231F33"/>
<path fill-rule="evenodd" clip-rule="evenodd" d="M23.5691 21.1834C21.32 20.9673 22.8354 20.1097 21.0784 19.908C19.3214 19.7063 20.0157 21.6806 21.8118 20.9816C21.5285 21.4543 18.3977 21.8737 20.7847 22.6951C20.7204 21.3404 22.8316 20.9513 23.4234 22.2614C25.1105 22.3709 23.6461 19.5923 26.0686 20.3546C24.773 19.1743 25.5131 18.7751 25.3416 17.808C23.4411 18.2635 25.821 20.7683 23.5691 21.1834Z" fill="#231F33"/>
<path fill-rule="evenodd" clip-rule="evenodd" d="M101.89 47.1668C102.089 49.9685 97.3427 49.9498 98.0017 51.9834C99.4753 51.621 100.64 50.9636 101.336 50.1014C102.032 49.2392 102.226 48.2143 101.89 47.1668Z" fill="#231F33"/>
<path fill-rule="evenodd" clip-rule="evenodd" d="M23.8277 26.1825C24.4531 27.8543 22.8362 27.8371 20.656 27.9236C22.9051 28.1397 26.1332 29.6473 27.7857 29.6055C25.188 28.7178 25.7217 27.1999 23.8277 26.1825Z" fill="#231F33"/>
<path fill-rule="evenodd" clip-rule="evenodd" d="M28.8378 30.147C30.702 29.9611 28.1817 27.4822 28.6011 28.0356C29.0206 28.589 27.7156 29.5129 28.8378 30.147Z" fill="#231F33"/>
<path fill-rule="evenodd" clip-rule="evenodd" d="M88.6069 45.9352C88.2698 46.1995 87.8088 46.3929 87.2683 46.4972C86.874 47.0516 86.5311 47.6236 86.2412 48.2109C86.6252 48.8234 89.7338 45.5172 88.6069 45.9352Z" fill="#231F33"/>
<path fill-rule="evenodd" clip-rule="evenodd" d="M16.1923 35.7887C17.8375 37.4302 16.1063 39.2733 18.5278 40.2461C17.7961 38.7516 18.1907 37.0497 16.1923 35.7887Z" fill="#231F33"/>
<path fill-rule="evenodd" clip-rule="evenodd" d="M18.0663 41.2259C17.4937 41.1691 16.9349 40.9933 16.4868 40.7289C15.9201 41.6743 15.5657 42.2651 17.25 43.0059C17.1158 41.5589 16.4836 41.36 18.0663 41.2259Z" fill="#231F33"/>
<path fill-rule="evenodd" clip-rule="evenodd" d="M20.6986 42.2647C20.4861 42.6192 20.1323 43.2102 18.9718 43.2665C17.8114 43.3227 19.9531 43.9264 20.4088 44.2103C20.8646 44.4942 20.8338 43.5012 20.3798 42.7965C19.9259 42.0917 23.8948 42.9896 22.4921 42.197C22.2808 42.3272 21.9927 42.404 21.6699 42.4162C21.3471 42.4284 21.0066 42.3753 20.6986 42.2647Z" fill="#231F33"/>
<path fill-rule="evenodd" clip-rule="evenodd" d="M14.2965 43.1291C15.2444 43.4274 15.3123 43.9404 14.8528 44.4982C14.2924 44.4027 13.7516 44.2325 13.2727 44.0009C12.6352 45.0645 14.1826 44.9896 15.3793 44.6639C16.5761 44.3381 15.3535 42.6189 14.2965 43.1291Z" fill="#231F33"/>
<path fill-rule="evenodd" clip-rule="evenodd" d="M38.6914 52.1396C38.6504 53.4612 36.9201 55.094 38.0396 56.3594C37.9336 55.1758 38.5799 54.0976 39.8459 53.3458C37.8773 53.2882 40.4475 52.5518 38.6914 52.1396Z" fill="#231F33"/>
<path fill-rule="evenodd" clip-rule="evenodd" d="M34.6311 55.9911C35.1876 57.3602 31.6755 56.536 33.5685 57.7638C33.9059 57.5029 34.4019 57.3372 34.9765 57.2938C35.6085 57.4927 35.9928 58.1053 36.5567 57.7911C37.1206 57.4769 35.4373 56.5258 34.6311 55.9911Z" fill="#231F33"/>
<path fill-rule="evenodd" clip-rule="evenodd" d="M20.7835 54.8646C20.1459 55.9282 21.7251 56.6358 22.6357 57.4141C23.1325 56.3764 20.8496 55.7985 20.7835 54.8646Z" fill="#231F33"/>
<path fill-rule="evenodd" clip-rule="evenodd" d="M28.4635 59.1781C28.1149 58.5065 29.4199 57.5828 27.6648 56.9602C25.7514 58.9352 24.2222 61.0666 23.1015 63.3202C23.7335 63.5191 24.3653 63.7179 24.012 64.0984C25.0105 63.1358 25.6707 62.0343 25.96 60.8485C25.7829 61.144 24.8335 61.2665 24.8354 60.8457C24.8372 60.4249 27.7225 59.7877 28.4635 59.1781Z" fill="#231F33"/>
<path fill-rule="evenodd" clip-rule="evenodd" d="M52.2676 66.6676C54.8802 64.1887 51.7866 64.1282 52.2676 66.6676V66.6676Z" fill="#231F33"/>
<path fill-rule="evenodd" clip-rule="evenodd" d="M11.7909 69.0291C11.7909 69.0291 9.95754 70.208 10.8701 70.5654C11.7826 70.9228 15.0176 70.7469 14.5972 70.4039C11.7124 70.8305 12.0034 68.6745 11.7909 69.0291Z" fill="#231F33"/>
<path fill-rule="evenodd" clip-rule="evenodd" d="M6.41269 69.0233C2.93694 67.9295 3.06912 69.7972 2.15197 70.4919C3.52121 70.9228 2.84917 71.835 5.02744 72.1694C2.60774 70.7758 6.23207 70.1605 3.38271 70.528C3.52902 69.2396 5.35665 69.3231 6.41269 69.0233Z" fill="#231F33"/>
<path fill-rule="evenodd" clip-rule="evenodd" d="M31.3691 77.9317C30.9087 78.6999 30.3775 79.5862 28.8358 78.3987C29.6402 79.3542 28.1276 79.5805 28.6877 80.1079C29.219 79.2216 32.9443 79.4809 31.3691 77.9317Z" fill="#231F33"/>
<path fill-rule="evenodd" clip-rule="evenodd" d="M41.7955 81.6344C43.9356 82.6591 46.9564 83.2585 47.7235 84.694C48.9949 83.4084 41.1291 81.2842 41.7955 81.6344Z" fill="#231F33"/>
<path fill-rule="evenodd" clip-rule="evenodd" d="M41.8052 87.4669C39.6987 86.804 41.1105 85.4925 39.2855 84.7777C39.3872 85.6525 39.9056 87.7119 41.8052 87.4669Z" fill="#231F33"/>
<path fill-rule="evenodd" clip-rule="evenodd" d="M25.3429 9.66191C24.7722 9.62139 24.1995 9.51277 23.6572 9.3421C23.1148 9.17144 22.6137 8.94214 22.1833 8.66758C21.9353 9.0812 21.6874 9.49487 21.4395 9.90849C21.1915 10.3221 23.4425 10.1174 24.0726 10.7371C24.7027 11.3568 22.9811 11.096 21.7526 10.6391C21.9242 11.6062 21.3918 12.7029 23.0061 13.3514C23.3286 11.9779 25.9665 11.7545 25.3429 9.66191Z" fill="#231F33"/>
</g>
</svg>
