<svg width="640" height="18" viewBox="0 0 640 18" fill="none" xmlns="http://www.w3.org/2000/svg">
<g clip-path="url(#clip0_1686_173)">
<path d="M318.312 4.70929C311.506 4.18431 305.065 5.00785 298.096 4.73608C307.258 3.58225 318.438 3.18675 329.313 3.63182C329.308 4.25706 324.807 3.79077 324.266 4.43342C329.627 4.68324 334.993 4.09588 340.354 4.29271C340.942 4.66778 339.44 4.72074 338.367 4.78735C337.294 4.85396 336.222 4.82518 335.256 4.89255C334.783 4.9091 334.335 4.9445 333.939 4.9966C333.543 5.04871 333.207 5.11644 332.951 5.19578C332.695 5.27511 332.524 5.36442 332.45 5.45831C332.375 5.55221 332.397 5.64877 332.515 5.74222C332.995 6.15893 334.818 6.2036 336.533 6.26871C336.747 6.27553 336.963 6.27706 337.177 6.27325C342.541 5.92962 348.975 6.08103 354.128 5.42856C354.986 5.30745 356.113 5.27301 356.007 5.00732C355.902 4.74163 354.67 4.61635 353.383 4.52248C352.097 4.42861 350.54 4.72495 348.879 4.49066C348.882 4.02438 350.974 3.93318 352.797 3.95665C362.396 4.02444 371.676 3.49651 381.327 3.69184C383.845 3.78131 386.409 3.68222 388.515 3.41408L375.379 3.09875C375.38 2.99278 375.381 2.87621 375.381 2.77024C380.422 2.80584 385.408 2.84106 390.395 2.87628C391.146 2.88158 392.432 2.96487 392.646 3.07236C394.356 3.96406 398.004 3.68248 401.275 3.75857C401.759 3.55003 398.114 3.32293 401.279 3.13333C404.797 2.99617 408.439 2.9967 412.004 3.13488C422.422 3.21513 432.807 3.50867 442.992 4.01081C448.446 4.23134 453.998 4.30974 459.506 4.24401C464.894 4.40254 470.35 4.36201 475.594 4.12449C476.421 4.08768 477.288 4.09381 478.114 4.14229C484.838 4.3116 491.604 4.35939 498.329 4.28506C504.925 4.33165 511.468 4.24009 518.01 4.23331C530.526 4.13608 543.104 4.29596 555.543 4.71037C566.222 5.13374 577.141 5.15331 587.716 4.76804C590.801 4.64193 594.018 4.66466 597.1 4.83432C600.397 5.03457 603.831 5.11627 607.233 5.07546C617.584 4.87302 627.554 5.5051 637.687 5.70385C638.706 5.71104 639.993 5.72014 640.205 5.99719C640.252 6.10534 640.12 6.21238 639.83 6.30211C639.539 6.39184 639.105 6.45939 638.593 6.49451C637.686 6.58906 636.68 6.64337 635.643 6.65382C626.045 6.58603 616.605 6.78432 607.113 6.85505C604.379 6.88199 601.699 6.99544 599.175 7.1911C596.442 7.40276 593.648 7.58469 590.806 7.73607C584.208 8.0498 582.868 7.90257 579.821 6.5987C571.72 7.08198 562.982 6.70231 554.775 7.06826C547.952 7.30933 541.299 7.69217 534.927 8.21044C534.064 8.32356 533.027 8.37585 531.976 8.35917C523.438 8.20973 514.997 8.63991 508.051 9.57852C505.583 9.86842 503.329 10.1598 500.651 9.64281C500.484 9.61343 500.279 9.59364 500.062 9.58567C496.97 9.40514 493.694 9.43812 490.784 9.6791C487.726 9.92245 487.197 8.91192 484.033 8.94256C480.869 8.97321 477.705 8.89786 474.488 8.92813C474.002 8.93219 473.535 8.96246 473.137 9.01568C472.74 9.0689 472.428 9.14307 472.233 9.23016C475.072 9.69532 478.457 8.76541 481.723 9.45615C475.875 9.93801 469.735 10.2788 463.43 10.4715C456.622 10.4903 449.915 10.733 443.585 11.1898C442.635 11.2855 441.541 11.3151 440.474 11.2738C432.165 10.823 423.85 11.3365 415.379 11.0965C407.388 10.9213 399.371 10.8258 391.358 10.8103C385.268 10.6221 379.089 10.7238 373.338 11.107C370.119 11.4022 366.262 10.8556 362.614 11.0842C362.614 11.0842 361.649 11.0138 361.649 10.9714C361.657 9.91165 358.275 10.4919 356.29 10.5944C349.056 11.0468 341.428 11.2369 333.764 11.156C329.175 11.0831 324.588 11.1838 320.249 11.4526C335.844 12.7815 350.543 11.8256 365.129 11.7696C365.501 12.2809 363.839 12.2268 362.82 12.2832C356.204 12.5427 349.712 12.9008 343.401 13.3542C342.832 13.4065 342.211 13.4346 341.577 13.4367C334.073 13.3991 326.778 13.8255 320.709 14.6564C319.984 14.7556 319.11 14.8056 318.214 14.7992C317.318 14.7929 316.446 14.7306 315.722 14.6212C318.084 14.267 321.837 14.2829 322.165 13.448C322.167 13.1724 325.222 13.3318 326.778 13.2262C327.185 13.209 327.541 13.1627 327.778 13.0961C328.016 13.0294 328.119 12.947 328.068 12.8644C328.069 12.6736 327.641 12.4905 326.73 12.4734C320.832 12.347 314.619 11.3281 309.194 12.6145C308.12 12.8719 306.405 12.6796 304.957 12.6588C298.684 12.6145 292.359 12.1565 286.082 12.6314C282.499 12.9261 278.638 13.0787 274.711 13.081C273.424 13.0573 272.157 13.1318 271.17 13.2892C267.947 14.0612 263.445 13.8175 259.423 13.8527C254.543 13.8818 249.61 13.7834 244.731 13.7489C243.419 13.7045 242.189 13.5852 241.194 13.406C246.558 13.0729 250.373 12.0189 257.288 12.3327C258.584 12.3633 259.886 12.3295 261.077 12.2342C262.267 12.1389 263.308 11.9853 264.102 11.7873C263.362 11.6864 262.496 11.6293 261.61 11.623C260.725 11.6167 259.858 11.6616 259.116 11.7521C257.893 11.8715 256.53 11.9288 255.146 11.9191C253.763 11.9093 252.401 11.8328 251.18 11.6961C250.522 11.6209 249.785 11.5788 249.036 11.5735C248.287 11.5682 247.549 11.5999 246.89 11.6658C243.278 11.9058 239.402 11.9729 235.574 11.8614C226.69 11.9234 217.897 12.174 209.347 12.6088C205.55 12.8485 201.499 12.9141 197.495 12.8006C196.884 12.7588 196.23 12.7541 195.618 12.7873C190.895 13.4005 186.718 12.6079 182.322 12.5027C179.372 12.4818 178.948 11.7794 176.483 11.6242C177.882 10.9558 181.849 11.058 183.729 10.5626C182.456 10.4284 181.039 10.3613 179.618 10.368C178.197 10.3747 176.823 10.455 175.632 10.6008C173.215 10.8606 170.348 10.9202 167.641 10.7669C165.758 10.6952 163.841 10.6817 161.957 10.7268C156.287 10.8388 150.548 10.8232 144.852 10.6801C140.62 10.5991 136.414 10.7845 132.836 11.2099C132.036 10.579 135.147 10.4844 135.687 10.0219C134.807 9.94419 133.847 9.91345 132.904 9.93287C131.962 9.95229 131.071 10.0211 130.323 10.1324C126.336 10.3892 122.446 10.698 118.681 11.057C116.209 11.2949 113.39 11.3678 110.636 11.2651C104.909 11.1993 99.1949 11.3054 93.6883 11.5799C89.9553 11.7166 86.1407 11.7679 82.319 11.7328C80.4423 11.7195 78.1902 11.7036 78.6769 11.1242C78.6774 11.0606 78.3562 10.9841 78.1958 10.9194C74.2246 11.3471 72.1945 10.2835 68.8691 10.3766C62.5454 10.5414 56.129 10.5743 49.7248 10.4746C43.6669 10.2269 37.5357 10.0737 31.3888 10.0165C24.1343 9.95604 16.9209 9.70189 9.94474 9.261C6.81445 9.02946 4.13452 8.59847 2.33828 8.03768C0.542035 7.4769 -0.265521 6.8191 0.0462014 6.17068C0.425739 5.57988 2.03624 5.32631 5.41315 5.51973C9.35264 5.70608 13.3506 5.82999 17.3686 5.8903C30.4783 6.1225 43.628 6.06252 56.5687 5.71146C68.3774 5.27157 80.4083 5.05492 92.501 5.06442C99.3268 5.16128 106.15 5.04496 112.72 4.71973C115.937 4.50988 119.435 4.50132 122.747 4.69517C124.412 4.77044 126.122 4.78252 127.788 4.73077C133.306 4.67618 138.858 4.73314 144.356 4.90077C149.597 5.01752 154.869 4.9434 159.908 4.68209C165.666 4.3752 171.523 4.13702 177.448 3.96876C178.843 3.9786 180.72 3.83289 181.146 4.24922C181.839 4.93237 184.681 4.87825 186.505 4.83814C192.19 4.71932 197.927 4.81285 203.665 4.77919C205.782 4.76108 207.853 4.66802 209.78 4.50442C212.442 4.36924 215.286 4.41165 217.876 4.62519C219.04 4.731 220.306 4.78032 221.567 4.76892C222.828 4.75753 224.045 4.68577 225.116 4.55976C227.746 4.18622 230.478 4.59764 232.3 4.78007C236.693 5.30921 239.484 4.8944 242.438 4.31118L232.143 4.23846C232.682 3.83955 234.024 3.61587 235.364 3.62534C244.212 3.68783 252.955 3.24089 262.767 3.53274C260.135 4.11824 256.49 3.86995 254.825 4.3139C257.661 4.54077 260.779 4.56279 263.619 4.37601C273.22 3.99871 282.546 4.63684 291.873 5.05245C295.192 5.92372 298.842 5.44079 302.596 5.28715C307.947 5.21136 313.219 5.01755 318.312 4.70929ZM421.177 10.2473C417.564 10.2649 413.941 10.1642 410.454 9.94899C409.429 9.89945 408.37 9.89198 407.344 9.92702C406.325 9.91982 405.198 10.0602 405.679 10.3286C405.768 10.367 405.897 10.4016 406.057 10.4301C406.217 10.4585 406.404 10.4801 406.606 10.4936C406.809 10.507 407.022 10.5119 407.231 10.508C407.441 10.5041 407.642 10.4914 407.823 10.4709C408.935 10.3608 410.164 10.3008 411.423 10.295C412.683 10.2893 413.943 10.338 415.116 10.4376C416.136 10.5204 417.242 10.5464 418.312 10.5128C419.382 10.4792 420.373 10.3873 421.177 10.2473ZM219.873 10.447C218.459 10.4082 217.031 10.4414 215.725 10.5435C214.42 10.6456 213.28 10.8132 212.415 11.0302C211.77 11.227 210.535 11.462 211.928 11.6732C212.186 11.7139 212.489 11.7414 212.81 11.7532C213.131 11.765 213.46 11.7607 213.764 11.7407C214.069 11.7206 214.341 11.6855 214.555 11.6386C214.768 11.5917 214.916 11.5345 214.986 11.4722C215.365 10.8602 218.154 10.7739 219.873 10.447ZM282.371 6.57502C283.731 6.73347 285.274 6.81529 286.828 6.81129C288.381 6.80729 289.883 6.71762 291.166 6.55237C289.765 6.42185 288.24 6.35689 286.713 6.36267C285.186 6.36844 283.699 6.44479 282.371 6.58563L282.371 6.57502ZM297.523 9.96739C294.353 9.8452 291.109 9.96641 288.458 10.3061C292.481 10.1755 295.321 10.4605 297.523 9.9356L297.523 9.96739ZM178.32 9.58118L174.083 9.75261C172.956 9.80824 170.865 9.80409 171.56 10.1163C172.682 10.6436 173.759 10.1318 174.778 10.0225C175.798 9.9131 177.459 10.0626 178.32 9.59179L178.32 9.58118ZM430.356 8.89198C427.987 8.73198 425.427 8.75954 423.223 8.96878C424.319 9.10368 425.587 9.16967 426.855 9.15775C428.122 9.14583 429.326 9.0566 430.302 8.90221L430.356 8.89198ZM365.301 10.1918C370.662 10.431 371.467 10.3943 374.688 9.87652C371.601 10.0365 368.443 10.1453 365.248 10.202L365.301 10.1918ZM232.155 10.1098C234.405 10.3164 236.336 10.3619 237.519 9.84033C236.554 9.79825 235.559 9.80166 234.618 9.85027C233.676 9.89888 232.814 9.9913 232.101 10.12L232.155 10.1098ZM297.869 6.5467C299.102 6.55541 300.068 6.50927 301.033 6.4631C301.999 6.41693 302.321 6.29201 302.268 6.24924C302.215 6.20647 301.036 6.06039 300.285 6.11867C299.743 6.14983 299.245 6.20428 298.828 6.27821C298.411 6.35215 298.083 6.44377 297.869 6.5467ZM567.166 6.60469C567.97 6.61037 568.935 6.6172 568.937 6.36287C568.472 6.30058 567.935 6.26383 567.383 6.25651C566.632 6.25121 565.56 6.24363 565.665 6.47753C565.771 6.71143 566.361 6.60961 566.951 6.60318L567.166 6.60469ZM218.594 9.22975C218.426 9.15833 218.147 9.09881 217.799 9.06006C217.452 9.02132 217.054 9.00545 216.665 9.01479C215.968 9.00987 215.538 9.13399 215.913 9.25321C216.086 9.29902 216.304 9.33766 216.553 9.36676C216.802 9.39585 217.076 9.41477 217.359 9.42239C217.596 9.41453 217.81 9.39097 217.966 9.35552C218.122 9.32007 218.211 9.27481 218.219 9.2271L218.594 9.22975ZM365.114 6.31161C366.079 6.31843 367.152 6.273 367.261 6.01943C367.261 6.01943 366.672 5.89868 366.35 5.90701C366.029 5.91533 364.42 5.95696 364.203 6.18858C363.774 6.21735 364.417 6.2643 364.739 6.30896L365.114 6.31161ZM425.389 6.06965L423.298 6.05488C422.654 6.05033 422.547 6.04957 423.297 6.11846C423.686 6.13691 424.087 6.13975 424.477 6.12679L425.389 6.06965ZM262.81 4.92138C262.793 4.9513 262.81 4.98185 262.861 5.01074C262.911 5.03963 262.993 5.06614 263.101 5.08828C263.209 5.11042 263.34 5.12761 263.485 5.13863C263.629 5.14964 263.783 5.15416 263.935 5.15186C264.09 5.15438 264.245 5.15086 264.391 5.14147C264.537 5.13208 264.671 5.11703 264.785 5.09717C264.9 5.0773 264.993 5.05302 265.059 5.02571C265.125 4.99841 265.163 4.96862 265.17 4.93804C265.199 4.90778 265.19 4.87633 265.144 4.84639C265.097 4.81646 265.015 4.78894 264.905 4.76624C264.794 4.74354 264.658 4.72632 264.508 4.71609C264.358 4.70586 264.199 4.70295 264.045 4.70755C263.88 4.69677 263.706 4.69258 263.535 4.69528C263.364 4.69797 263.198 4.7075 263.048 4.72324C262.897 4.73899 262.766 4.76064 262.661 4.78694C262.555 4.81324 262.479 4.84364 262.435 4.87633L262.81 4.92138ZM269.85 10.3654C269.774 10.3394 269.672 10.3167 269.551 10.2986C269.429 10.2806 269.291 10.2676 269.145 10.2606C268.998 10.2536 268.847 10.2526 268.701 10.2579C268.555 10.2631 268.417 10.2743 268.296 10.2909C268.147 10.3091 268.028 10.3353 267.952 10.3666C267.876 10.3978 267.846 10.4329 267.865 10.468C267.916 10.4956 268 10.5205 268.109 10.5408C268.217 10.561 268.348 10.5759 268.491 10.5842C268.633 10.5924 268.782 10.5939 268.925 10.5884C269.068 10.5828 269.201 10.5705 269.313 10.5524C269.313 10.5524 269.26 10.3824 269.475 10.3204L269.85 10.3654ZM452.767 9.3788C452.724 9.34686 452.65 9.31673 452.547 9.29022C452.445 9.26371 452.318 9.24136 452.173 9.22451C452.028 9.20765 451.868 9.19666 451.703 9.19215C451.538 9.18764 451.372 9.1897 451.213 9.19826C450.677 9.19447 449.765 9.3046 449.764 9.34699C449.764 9.38938 450.621 9.51201 451.211 9.49498C451.801 9.47795 451.856 9.37236 452.392 9.33375L452.767 9.3788Z" fill="#C62828"/>
<path d="M286.445 14.2451C291.115 13.5666 297.012 13.2884 302.859 13.4708C300.603 14.1119 300.603 14.1225 297.492 14.1641C294.006 14.2243 290.253 14.1236 286.445 14.2451Z" fill="#C62828"/>
<path d="M371.197 2.92095C368.333 3.14308 365.246 3.24396 362.132 3.21726C365.354 2.67832 365.354 2.67832 371.197 2.92095Z" fill="#C62828"/>
<path d="M331.327 14.4133C331.932 14.2583 332.788 14.1496 333.761 14.1046C334.733 14.0596 335.765 14.0809 336.691 14.165C336.78 14.1759 336.854 14.1911 336.905 14.2092C336.956 14.2272 336.983 14.2474 336.983 14.2678C336.983 14.2881 336.956 14.3079 336.904 14.3252C336.853 14.3425 336.779 14.3567 336.69 14.3664C335.933 14.4762 335.023 14.5391 334.071 14.5474C333.119 14.5558 332.166 14.5091 331.327 14.4133Z" fill="#C62828"/>
<path d="M428.242 11.9932C426.419 11.9061 424.593 12.2854 421.807 11.9477C424.008 11.656 425.883 11.8705 427.492 11.8077C427.899 11.8131 428.3 11.8339 428.672 11.8691L428.242 11.9932Z" fill="#C62828"/>
<path d="M237.98 12.7801C237.768 12.8462 237.439 12.8941 237.054 12.9147C236.669 12.9354 236.255 12.9275 235.888 12.8925C235.799 12.8816 235.725 12.8663 235.674 12.8483C235.623 12.8303 235.596 12.8101 235.596 12.7897C235.596 12.7694 235.623 12.7495 235.675 12.7322C235.726 12.7149 235.8 12.7008 235.889 12.6911C236.118 12.6259 236.457 12.5791 236.848 12.5587C237.239 12.5383 237.658 12.5455 238.035 12.5791C238.195 12.612 238.248 12.6972 237.98 12.7801Z" fill="#C62828"/>
<path d="M429.685 12.6394C429.309 12.6367 428.934 12.7083 428.612 12.6954C428.29 12.6825 427.701 12.5936 427.701 12.5512C427.702 12.5088 428.453 12.3975 428.989 12.4543C429.525 12.5111 429.471 12.5743 429.685 12.6394Z" fill="#C62828"/>
</g>
<defs>
<clipPath id="clip0_1686_173">
<rect width="639.927" height="12.5476" fill="white" transform="translate(0.0883789 0.0664062) rotate(0.404667)"/>
</clipPath>
</defs>
</svg>
