<svg width="332" height="486" viewBox="0 0 332 486" fill="none" xmlns="http://www.w3.org/2000/svg">
<g clip-path="url(#clip0_1681_2562)">
<path d="M250.866 224.485C248.89 220.019 244.07 218.397 240.304 215.829C239.597 217.459 239.84 219.793 241.322 219.922C242.263 220.068 243.067 220.47 243.663 221.094C244.26 221.717 244.631 222.543 244.745 223.498C245.391 225.558 247.526 226.279 248.496 228.079C249.018 228.715 249.599 229.296 250.235 229.818C248.893 229.614 248.962 228.3 247.984 228.612C246.193 229.158 247.492 227.322 246.928 226.941C246.842 226.856 246.702 226.716 246.659 226.673C243.121 227.377 243.493 224.214 242.451 222.464C241.826 221.286 241.525 219.848 239.45 220.355C237.985 220.704 238.033 218.938 237.738 218.459C236.842 216.456 234.727 215.909 233.415 214.473C232.917 213.747 232.564 212.906 232.366 211.98C231.545 209.837 228.901 209.99 227.459 208.641C226.96 208.338 226.628 207.845 226.509 207.229C226.432 205.309 225.815 204.015 223.59 204.587C223.912 204.264 225.137 205.058 224.543 203.634C224.049 202.576 223.115 201.87 221.901 201.638C219.812 201.086 218.93 199.005 217.165 197.978C218.39 198.127 219.217 197.601 219.524 196.156C219.509 195.312 219.024 195.84 218.601 196.155L218.14 196.617C217.383 195.613 216.61 194.625 215.894 193.602C215.636 193.344 215.452 192.884 215.906 192.323C216.36 191.762 216.762 191.918 217.244 191.909C218.171 191.883 219.194 192.106 219.903 190.602C220.612 189.098 219.536 188.821 218.992 188.615C216.103 187.509 215.325 184.272 212.769 182.792C211.889 182.064 210.873 181.492 209.746 181.091C209.109 180.976 208.529 180.826 209.069 179.921C209.609 179.017 209.946 179.323 210.486 179.556C211.108 179.698 211.773 179.754 212.467 179.723C213.423 179.818 214.211 179.653 214.348 178.314C214.375 178.158 214.333 177.9 214.374 177.88C217.766 176.077 214.92 176.089 214.526 175.388L213.657 175.441L212.964 175.21C212.999 174.401 212.808 173.675 212.412 173.106C212.016 172.537 211.428 172.145 210.708 171.969L210.786 173.738C208.669 172.404 206.665 170.933 204.78 169.33C202.804 167.355 200.16 166.156 198.168 164.133C196.02 161.986 193.432 160.043 191.597 157.562C189.51 154.861 186.346 153.602 183.68 151.673C185.939 149.629 186.016 149.552 187.454 150.991C188.678 152.215 190.486 152.639 191.816 153.693C193.258 155.224 194.583 156.867 195.785 158.614C198.016 160.999 200.39 163.22 202.965 165.241C203.782 165.905 204.446 166.722 205.371 167.279C206.037 167.729 206.137 169.304 207.86 167.861C208.198 167.523 208.448 167.895 208.501 168.164C208.847 170.201 210.874 170.537 211.906 171.845C213.703 169.124 213.995 166.557 211.984 165.776C210.618 165.209 209.509 164.407 208.266 163.718C207.794 163.46 207.259 163.694 207.69 162.619C207.777 162.134 207.699 161.691 207.469 161.361C207.239 161.03 206.87 160.832 206.421 160.797C203.754 160.65 202.663 158.607 200.848 157.437C199.789 156.778 198.843 155.985 197.82 155.269C197.555 155.124 197.351 154.904 197.223 154.627C197.095 154.35 197.046 154.022 197.08 153.669C197.26 152.424 197.055 151.288 196.491 150.411C195.926 149.534 195.03 148.957 193.919 148.756C193.122 148.543 192.814 147.928 194.247 146.839C195.998 145.517 196.054 144.281 194.797 143.24C193.969 142.565 192.538 142.149 193.188 140.34C194.287 143.836 197.912 145.064 199.35 148.5C200.28 147.247 200.028 146.104 201.032 145.079C202.036 144.053 200.849 143.543 200.272 143.304C198.925 142.527 197.792 141.487 196.913 140.222C197.397 140.006 197.883 139.969 198.267 140.118C198.651 140.267 198.904 140.59 198.971 141.02C199.102 141.479 199.436 141.802 199.903 141.919C200.37 142.037 200.934 141.94 201.476 141.65C201.729 141.46 201.949 141.222 202.116 140.959C202.283 140.696 202.391 140.416 202.43 140.147C202.469 139.878 202.437 139.628 202.338 139.421C202.239 139.213 202.076 139.056 201.865 138.964C203.058 138.651 202.464 139.932 203.2 139.776C203.935 139.62 203.502 141.492 204.723 140.593C205.945 139.693 204.952 139.376 204.745 138.832C204.538 138.287 204.875 138.101 205.127 137.677C205.38 137.335 205.574 136.967 205.697 136.596C205.82 136.226 205.87 135.86 205.843 135.522C205.817 135.184 205.714 134.881 205.542 134.632C205.37 134.382 205.133 134.192 204.844 134.073C203.717 133.254 202.705 132.304 201.821 131.235C201.406 130.662 200.751 130.32 199.958 130.263C200.424 129.961 200.929 129.811 201.378 129.841C201.827 129.871 202.188 130.078 202.394 130.425C203.657 131.989 205.434 133.048 207.562 133.502C208.514 133.839 211.847 131.086 212.045 129.9C212.175 129.169 211.572 129.428 211.218 129.288C210.615 129.192 210.083 128.962 209.652 128.611C209.222 128.259 208.902 127.794 208.711 127.243C208.525 126.442 208.395 125.605 206.87 126.508C206.022 127.012 204.854 126.613 205.873 125.357C207.303 123.713 206.377 123.157 205.647 122.857C203.863 122.149 204.71 120.014 204.393 118.528C204.206 117.727 205.705 117.473 206.272 116.842C207.271 115.843 207.891 116.554 207.969 116.755C208.748 118.918 211.776 118.38 212.857 120.199C213.061 120.403 213.759 121.1 214.377 120.397C214.995 119.693 214.306 119.158 213.875 118.88C212.454 117.772 210.802 116.937 208.967 116.401C210.852 116.041 212.292 114.193 213.132 115.801C213.357 116.026 213.938 115.531 214.14 115.18C214.896 113.666 215.446 112.124 215.774 110.604C215.925 109.743 216.218 108.862 216.641 107.997C217.549 106.446 217.594 108.397 218.345 107.796C218.591 107.55 219.103 107.662 219.677 107.345C218.256 106.446 218.27 103.878 215.312 104.732C214.807 104.872 214.163 103.583 213.977 102.782C213.636 100.781 212.445 99.3747 211.945 97.4913C211.567 96.1298 212.337 95.2093 213.492 95.2571C215.549 95.347 216.059 93.613 216.856 92.4729C217.368 91.7246 216.874 90.308 218.231 90.067C219.5 89.7548 220.669 89.9323 221.493 90.5624C222.344 91.2751 223.261 91.9146 224.238 92.4772C224.485 92.7241 224.882 93.1213 225.434 92.505C225.986 91.8887 225.552 91.4854 225.184 91.2094C224.788 90.8742 224.329 90.6114 223.818 90.4279C223.232 90.275 222.77 89.9249 222.491 89.4213C222.212 88.9177 222.127 88.2831 222.247 87.5968C222.294 87.1208 221.726 86.6147 222.637 86.1116C223.548 85.6086 223.589 86.2334 223.927 86.5401C224.759 87.6495 225.737 88.6277 226.847 89.4603C227.925 90.2449 228.864 91.1845 229.649 92.2625C231.524 90.3872 230.653 89.6697 229.845 88.3087C228.841 86.6285 227.097 85.5602 226.625 83.5202C226.496 82.9615 226.558 81.5473 227.528 81.3497C229.956 80.7038 230.389 79.6915 229.675 78.0862C230.568 77.4726 230.653 78.4184 231.301 78.1137C231.287 77.6966 231.162 77.3274 230.937 77.0387C230.713 76.75 230.396 76.5507 230.015 76.4584C227.584 76.5485 228.006 74.1728 226.868 73.0348C226.589 72.7557 226.084 72.2511 226.83 71.3981C227.575 70.5452 228.121 71.0298 228.666 71.2365C229.628 71.6743 230.434 72.3237 231.044 73.1531C231.291 73.4 231.543 74.1137 232.332 73.3037C232.793 72.8426 233.331 72.3046 232.968 71.7876C231.478 69.7134 233.412 69.4963 234.976 69.0923L235.04 69.1568L234.976 69.0923C235.405 68.3841 234.527 68.0595 235.091 67.302C235.921 67.3683 236.664 67.6234 237.271 68.0511C237.879 68.4787 238.338 69.0694 238.62 69.7855C240.02 71.7999 242.793 71.7754 244.886 72.7312C245.886 72.01 244.199 71.8291 245.076 71.2309C245.954 70.6327 246.676 71.048 247.941 71.5441C246.72 67.9557 244.445 65.7426 243.935 62.2809L245.668 62.4156C245.301 60.635 243.741 59.8122 244.488 57.6695C246.391 57.9131 246.764 59.9455 248.796 60.5329C248.491 58.6908 246.69 58.5807 246.652 56.729C248.305 58.3824 249.973 59.7425 253.16 58.5952C251.179 57.5056 251.216 54.5914 248.586 54.0216C247.184 53.6638 247.384 52.6042 248.674 51.0352C248.843 50.8661 248.982 50.5128 248.927 50.3962C247.585 47.7015 248.549 43.624 245.451 41.8479C243.994 41.0065 243.719 38.4258 243.653 36.238C243.622 34.4861 244.849 33.5605 246.524 33.6677C250.088 33.8818 252.163 36.0798 254.604 37.7829C254.905 38.009 255.275 38.1493 255.691 38.1951C256.107 38.2408 256.56 38.1911 257.022 38.049C256.294 34.2467 252.223 33.25 251.581 29.5336C256.726 31.3889 259.607 35.8076 264.161 38.4251L260.868 34.5472C262.607 33.5811 262.814 35.2637 264.176 34.7816C264.675 33.2518 263.811 32.849 262.801 32.4847C262.241 32.2934 261.492 31.8827 262.158 30.9807C263.095 29.7652 263.708 30.655 264.016 31.0554C266.211 34.1422 269.871 35.7427 272.119 38.8203C272.861 39.839 273.744 41.4901 274.846 41.5472C276.567 41.6083 276.339 42.3947 276.789 43.4905C276.922 44.2235 277.28 44.8299 277.824 45.2438C278.368 45.6576 279.077 45.8631 279.874 45.8378C280.119 45.8036 280.334 45.8642 280.477 46.0075C280.621 46.1508 280.681 46.3662 280.647 46.6107C280.557 47.2529 280.716 47.8188 281.092 48.195C281.468 48.5713 282.034 48.7302 282.676 48.6399C283.051 48.6456 283.374 48.7715 283.603 49.0011C283.833 49.2308 283.959 49.5537 283.965 49.9282C283.688 50.2048 283.519 50.3739 283.761 50.647L283.493 51.3013C283.869 51.4621 283.944 52.1822 284.723 51.6394C284.998 53.056 285.858 54.1231 287.136 54.6368C287.798 53.331 286.139 53.4864 286.592 52.2177C287.65 52.1689 287.85 53.1068 288.052 53.6778C288.62 54.7874 289.445 55.6961 290.485 56.3559C292.203 57.9468 293.792 59.6693 295.245 61.5158C295.556 61.8271 295.674 62.3751 295.214 62.8992C294.754 63.4233 294.997 63.6963 295.313 63.7666C298.944 64.3231 299.816 68.0239 302.789 69.3672C304.247 70.0565 304.796 71.8048 305.974 72.8598C308.597 75.1754 310.11 78.4718 312.42 81.0579C313.05 81.9502 313.921 82.6225 314.977 83.0312C315.01 80.8509 313.414 80.2999 312.817 79.1797C314.495 81.4733 317.545 82.3098 319.156 84.843C318.036 85.1682 316.771 85.5319 317.986 86.5931C319.65 88.2571 321.314 89.9212 322.978 91.5853C323.343 91.9504 323.543 92.6733 324.635 91.582C325.326 90.8903 325.881 91.9676 325.687 92.2042C324.322 93.913 325.95 93.7884 326.365 94.2962C328.549 96.8794 330.917 99.2782 333.024 101.938C334.12 103.311 336.764 103.158 336.651 105.719C336.638 105.86 337.495 105.733 337.956 105.702C338.416 105.671 338.774 105.506 338.926 105.935C340.402 108.045 342.577 109.51 345.238 110.187C346.498 110.571 347.556 111.272 348.337 112.241C352.8 117.011 358.306 120.673 363.127 125.064C366.106 127.797 369.08 130.556 372.162 133.207C373.909 134.339 375.206 135.982 375.949 138.008C376.379 139.576 378.486 139.315 379.648 140.171C383.004 142.635 386.201 145.278 389.351 147.968C391.889 149.912 394.195 152.115 396.247 154.556C396.778 155.942 397.517 157.187 398.447 158.262C398.554 158.369 398.56 158.621 398.616 158.801C401.389 157.208 400.337 161.074 402.333 160.581C401.92 162.196 403.256 161.934 404.105 162.352C405.151 162.844 405.891 163.723 406.224 164.871C406.415 165.8 406.847 166.591 407.487 167.184C408.127 167.776 408.958 168.153 409.916 168.286C410.233 168.414 410.498 168.616 410.695 168.881C414.907 172.786 419.145 176.685 423.311 180.636C425.93 183.256 428.796 185.629 431.159 188.484C433.307 191.124 435.958 193.283 438.075 195.954C438.728 196.761 439.777 197.194 440.491 197.94C442.197 199.425 443.647 201.174 444.812 203.152C445.788 205.204 448.033 206.373 449.948 207.765C451.862 209.157 453.44 210.242 455.193 211.473C455.29 211.57 455.429 211.71 455.462 211.742C454.479 214.571 457.275 214.631 457.989 216.236C458.163 217.029 458.595 217.668 459.233 218.077C459.871 218.486 460.688 218.648 461.587 218.543C461.987 218.512 462.344 218.607 462.611 218.814C462.878 219.021 463.044 219.331 463.087 219.705C463.3 221.64 465.624 221.72 465.568 223.816C465.549 224.565 466.769 223.388 467.173 223.822C468.588 225.391 470.732 226.275 471.301 228.626C471.308 228.762 471.305 228.902 471.29 229.045C474.659 228.51 473.66 232.215 475.39 233.361C477.131 234.795 478.724 236.387 480.157 238.128C480.393 238.364 480.737 238.708 480.987 238.651C483.943 237.671 484.095 240.375 484.684 241.61C485.174 242.774 485.888 243.778 486.798 244.585C489.078 246.342 489.783 249.352 491.704 251.274C493.267 253.283 495.064 255.079 497.072 256.642C497.255 256.824 497.645 256.907 497.62 257.189C497.657 258.763 497.992 259.652 500.068 258.07C500.624 257.642 501.359 258.346 501.108 258.618C499.075 260.888 501.133 261.041 501.862 261.493C503.835 262.698 504.429 264.982 505.557 266.817C506.435 267.974 507.46 268.998 508.617 269.877C511.468 273.174 513.821 276.918 515.635 281.045C515.871 281.281 515.565 282.082 516.258 281.668C518.983 280.059 519.545 281.881 519.965 283.285C520.207 284.312 520.681 285.203 521.359 285.907C522.036 286.611 522.905 287.114 523.914 287.388C524.954 287.659 525.804 287.925 524.229 289.393C523.583 290.038 523.665 290.428 524.041 290.804C524.417 291.18 524.619 291.751 525.493 291.242C527.696 289.94 528.3 291.527 528.535 292.623C528.785 294.378 529.403 295.946 530.357 297.243C531.378 297.969 532.586 298.459 533.93 298.694C535.462 298.949 536.721 299.695 537.556 300.845C536.188 301.783 536.067 300.186 534.934 300.375C535.311 302.381 536.865 303.382 537.502 305.064C537.641 305.203 537.963 305.526 538.185 305.347C540.425 303.837 540.494 305.658 541.153 306.502C541.958 307.522 541.675 309.329 543.012 309.99C543.431 310.193 543.315 310.846 542.711 311.472C541.819 312.363 542.786 312.899 542.993 312.799C544.992 311.724 545.073 313.404 545.645 314.099C547.677 316.038 549.278 318.395 550.395 321.093C551.25 324.254 553.199 326.449 554.423 329.24C554.717 329.934 554.257 330.673 553.545 330.483C552.394 330.131 551.647 331.136 550.797 331.578C550.49 332.593 552.193 332.329 551.354 333.426C550.748 334.203 549.828 333.621 549.502 333.818C548.018 334.701 546.099 333.828 545.062 336.11C544.779 336.78 544.405 337.82 545.628 337.691C545.738 337.697 545.836 337.729 545.916 337.785C545.996 337.84 546.056 337.918 546.092 338.012C546.128 338.107 546.139 338.216 546.123 338.332C546.108 338.448 546.068 338.569 546.004 338.685C545.941 338.802 545.857 338.912 545.757 339.007C545.657 339.103 545.545 339.182 545.427 339.239C545.309 339.296 545.189 339.33 545.074 339.338C544.96 339.346 544.854 339.328 544.764 339.286C544.027 338.949 543.431 337.677 542.374 339.078C541.316 340.48 543.339 340.259 543.461 341.211C542.553 342.27 542.388 340.138 541.623 341.31C540.859 342.482 541.754 342.639 542.148 343.126C542.542 343.612 542.278 343.962 541.843 344.419C539.992 346.441 540.276 347.832 541.515 349.041C542.181 349.706 541.315 351.023 541.738 351.846C542.381 353.135 540.97 353.322 540.208 354.127C538.409 355.926 540.099 356.877 540.48 358.15C540.611 358.619 541.897 357.999 541.285 358.955C540.673 359.911 540.116 359.415 539.731 359.092C539.346 358.768 538.309 359.053 538.315 359.305C538.323 360.328 536.325 359.835 536.78 361.398C537.38 363.504 534.632 365.028 533.219 366.291C531.807 367.553 530.598 366.313 529.904 365.311C529.694 364.851 529.363 364.481 528.934 364.228C528.506 363.974 527.989 363.843 527.421 363.843C527.684 364.998 527.134 366.385 528.278 366.852C527.481 368.207 527.418 366.853 526.869 367.165C526.321 367.477 524.953 367.707 525.601 368.97C526.082 370.229 526.474 371.544 526.773 372.909C526.858 372.995 526.791 373.234 526.87 373.283C527.682 373.696 527.416 374.198 526.699 375.602C526.216 376.472 525.93 376.371 525.926 375.967C525.909 374.781 524.807 374.509 524.549 373.544C524.29 372.578 523.684 372.003 522.292 373.009C520.9 374.015 521.154 372.301 520.264 372.61C520.37 369.949 518.215 369.27 516.749 367.988C516.18 367.419 514.92 367.112 516.734 365.576C517.675 364.764 516.634 364.646 516.41 364.268C514.996 365.682 514.763 364.219 514.011 364.113C513.645 364.002 513.201 364.048 512.759 364.243C512.317 364.437 511.906 364.767 511.598 365.173C510.996 365.809 510.571 366.567 510.397 367.318C510.222 368.068 510.308 368.764 510.64 369.288C511.223 371.383 512.541 373.001 514.418 373.926C514.678 374.005 514.865 374.192 514.944 374.452C515.106 376.244 515.91 375.419 516.882 373.931C515.005 376.389 516.859 376.982 517.217 378.17C517.448 378.954 517.954 379.556 518.667 379.898C520.171 380.541 519.558 381.648 518.24 383.159C515.951 380.531 513.231 378.334 512.046 374.752C511.866 374.202 511.546 373.298 510.629 373.55C508.66 374.102 509.376 373.342 510.302 372.331C510.717 371.916 510.582 371.75 510.24 371.47C509.393 370.628 508.141 370.249 506.712 370.402C506.276 370.45 505.82 370.602 505.381 370.847C504.942 371.092 504.533 371.422 504.187 371.811C503.552 372.682 504.566 373.021 504.914 373.553C505.554 374.296 505.925 375.268 505.993 376.378C506.061 377.489 505.824 378.702 505.303 379.906C504.671 381.333 504.969 382.86 504.812 384.456C503.831 384.213 503.691 383.15 502.604 383.078C501.176 383.003 499.163 384.371 499.647 385.562C500.691 388.297 498.566 392.29 500.451 394.635C500.666 394.85 501.024 395.823 500.055 396.299C499.869 396.394 499.678 396.447 499.499 396.452C499.321 396.458 499.16 396.416 499.031 396.33C498.903 396.245 498.811 396.119 498.765 395.963C498.719 395.808 498.719 395.628 498.766 395.44C498.993 394.376 498.167 394.257 497.783 393.782C496.991 392.835 495.91 393.507 495.306 394.778C494.6 396.063 494.239 397.403 494.268 398.628C494.428 399.175 494.352 399.836 494.055 400.493C493.757 401.149 493.258 401.756 492.648 402.203C491.746 402.868 492.209 403.393 492.144 403.974C492.078 404.554 492.738 405.398 492.347 406.39C492.125 406.998 492.307 407.826 491.502 408.158C491.226 408.2 490.969 408.172 490.752 408.079C490.535 407.985 490.365 407.828 490.257 407.621C489.786 406.288 488.067 407.213 487.052 406.875C486.038 406.537 485.644 408.541 486.015 409.157C487.085 410.535 485.975 412.869 486.797 414.366C487.016 414.77 485.872 416.515 485.071 417.252C484.27 417.988 483.775 417.001 483.43 416.595C482.904 415.828 482.479 414.98 482.16 414.064C482.009 413.655 481.755 413.317 481.415 413.072C481.074 412.827 480.656 412.681 480.187 412.645C480.147 413.712 480.523 414.613 481.242 415.175C482.311 416.705 481.383 418.728 480.764 420.507C480.44 421.474 478.833 422.265 477.706 421.568C476.312 420.41 475.007 419.156 473.796 417.812C472.413 419.195 473.206 419.712 473.698 420.358C474.984 421.494 476.01 422.893 476.741 424.508C477.263 426.412 476.686 427.526 474.501 428.723C473.383 429.326 471.974 429.854 472.369 431.478C472.46 431.816 472.004 432.251 471.552 432.445C471.348 432.554 471.136 432.589 470.962 432.542C470.788 432.495 470.667 432.369 470.624 432.193C470.538 432.107 470.627 431.889 470.587 431.757C470.251 430.16 469.104 430.857 467.887 431.73C467.679 430.908 468.672 429.442 467.304 429.242C466.942 429.244 466.618 429.152 466.36 428.973C466.102 428.794 465.918 428.534 465.824 428.215C465.731 427.897 465.731 427.531 465.824 427.148C465.917 426.766 466.101 426.379 466.359 426.022C467.46 424.664 466.907 424.357 466.384 423.742C466.009 423.366 465.324 423.235 465.726 422.253C465.788 421.95 465.776 421.662 465.689 421.415C465.603 421.168 465.446 420.969 465.231 420.837C464.645 420.65 464.406 421.856 463.729 422.039C465.112 420.656 465.008 419.814 463.967 418.988C462.925 418.161 461.563 418.214 461.012 417.047C459.78 414.371 456.289 413.954 455.118 411.153C454.961 410.751 453.625 411.014 452.861 411.263C452.096 411.513 452.52 411.968 452.757 412.204C455.741 415.189 458.028 418.829 461.028 421.798C461.822 422.592 462.211 421.474 462.765 421.414C462.227 421.952 461.913 422.437 462.426 422.827C462.938 423.216 463.403 423.803 462.203 424.724C461.002 425.645 460.259 425.702 459.904 424.639C459.751 424.148 459.036 424.048 459.491 423.12C459.747 422.607 459.036 422.05 458.675 422.304C456.782 423.639 456.529 422.002 455.496 421.768C453.451 421.322 453.162 418.82 450.929 418.584C450.766 418.575 448.79 417.46 450.999 415.765C451.659 415.257 451.214 414.842 450.839 414.745C446.925 413.72 447.391 413.233 444.683 410.894C442.849 409.336 441.422 407.049 438.591 406.616C437.006 406.129 435.581 405.387 434.356 404.409C433.013 403.712 430.035 403.685 430.875 400.59C428.985 400.483 428.543 398.627 427.325 397.87C425.777 396.906 425.515 394.892 423.977 393.939C422.44 392.985 420.08 392.532 418.899 390.643C417.228 388.019 413.988 387.115 411.618 385.299C409.973 384.023 409.099 381.612 407.439 380.137C406.473 379.17 406.123 377.652 404.584 377.281C404.209 377.183 403.982 376.68 403.401 377.175C403.183 377.361 403.016 377.602 402.934 377.85C402.853 378.099 402.862 378.337 402.961 378.517C403.695 380.081 402.102 380.363 401.52 380.151C400.589 379.772 397.756 382.197 398.709 378.968C399.088 377.687 397.082 376.666 399.72 375.123C400.253 374.826 399.808 374.627 399.719 374.415C399.546 373.965 398.998 374.063 398.573 374.037C398.148 374.011 398.035 374.36 398.105 374.676C398.393 375.978 396.83 375.952 396.365 376.717C396.351 376.685 396.345 376.649 396.348 376.609C396.351 376.569 396.362 376.528 396.381 376.487L396.112 376.218L395.982 376.241C396.181 375.119 395.571 374.14 396.695 372.866C397.125 372.436 396.789 371.977 396.49 371.954C394.774 371.867 395.129 369.579 393.437 369.424C392.654 369.348 392.928 368.731 393.688 368.014C394.779 366.923 394.235 365.642 393.707 365.697C392.503 365.785 392.449 364.808 391.911 364.423C391.728 364.241 391.663 363.684 391.071 364.383C390.479 365.082 390.443 365.139 389.657 364.444C388.87 363.75 388.032 363.342 389.584 361.79C389.999 361.375 389.688 361.063 389.3 360.614C387.883 359.197 385.528 359.147 384.276 357.65L384.353 357.573L383.808 357.581C383.723 357.626 383.636 357.646 383.558 357.638C383.43 357.756 383.306 357.879 383.189 358.007C382.493 358.295 382.358 357.915 382.321 357.416L382.293 356.927L381.703 356.337L381.795 356.245C382.072 355.968 382.318 355.722 382.039 355.443C382.678 354.975 383.595 354.509 383.404 353.734C383.345 353.449 383.171 353.234 382.913 353.129C382.655 353.024 382.331 353.035 382.001 353.161C380.998 353.542 380.738 352.943 380.758 352.257C380.784 351.115 381.573 351.872 382 351.531C382.427 351.189 383.005 350.784 382.634 350.382C381.12 348.868 379.606 347.354 378.092 345.84C377.717 345.465 377.09 346.006 376.765 346.266C376.091 346.79 376.606 347.09 376.853 347.337C377.615 348.099 378.378 348.862 379.14 349.624C378.776 349.752 378.655 349.508 378.457 349.341C377.813 348.696 377.888 348.772 376.562 349.905C375.235 351.038 375.892 351.326 376.4 351.526C378.558 352.331 379.449 354.575 381.581 355.385L381.422 356.425C379.694 356.757 377.743 357.849 376.616 356.292C375.727 355.034 374.085 354.529 374.198 352.398C374.232 352.063 375.23 348.788 372.337 351.059C371.988 350.885 371.716 350.613 371.542 350.265C370.573 348.035 369.966 345.399 366.471 345.931C362.891 342.167 356.791 341.354 353.863 336.766C353.02 335.462 353.35 333.179 351.119 333.069C351.119 333.069 350.936 332.887 350.975 332.741C351.352 330.044 351.352 330.044 348.63 328.644C347.875 329.549 349.209 329.653 348.643 330.563C348.023 330.281 347.399 330.025 347.639 329.098C348.102 327.132 346.395 324.995 344.575 325.849C342.755 326.703 342.614 325.856 341.91 325.121C339.871 323.081 337.646 321.226 335.525 319.289C335.096 318.86 334.083 318.584 334.758 317.63C335.433 316.676 335.695 317.83 336.265 317.754C336.835 317.679 337.391 317.466 337.218 317.231C336.627 316.641 337.367 315.536 336.876 314.738C335.601 312.664 331.891 313.411 331.52 310.089C331.391 309.163 330.913 308.427 330.165 308.003C329.418 307.58 328.445 307.494 327.408 307.76C327.408 307.76 327.213 307.718 327.113 307.711C328.274 305.798 326.182 305.765 326.16 304.606C327.027 303.352 327.629 305.091 328.289 303.937C328.948 302.783 327.789 302.761 327.597 302.138C326.842 300.774 325.845 299.601 324.637 298.656C324.304 298.323 323.518 298.336 324.38 297.324C324.491 297.171 324.627 297.035 324.779 296.925C324.932 296.814 325.096 296.733 325.26 296.687C325.424 296.641 325.583 296.631 325.726 296.658C325.868 296.686 325.991 296.749 326.084 296.844C326.961 297.384 328.366 297.805 325.679 300.19C327.397 299.418 328.328 298.658 329.397 299.328C328.613 296.484 326.428 295.405 325.122 293.577C324.821 293.276 324.527 292.582 323.889 293.113C322.953 293.898 323.84 294.171 324.07 294.585C324.25 294.826 324.462 295.039 324.704 295.218C322.951 296.971 321.975 296.486 321.189 295.362C320.403 294.237 318.111 294.682 319.411 292.201C317.785 293.033 317.705 291.632 317.11 291.067C316.514 290.503 315.704 290.154 316.414 288.65C316.743 287.934 316.243 287.188 314.729 287.672C314.016 287.912 312.891 286.633 312.582 285.525C312.561 285.362 312.496 285.221 312.393 285.115C312.291 285.009 312.153 284.941 311.992 284.916C311.831 284.891 311.651 284.91 311.469 284.972C311.287 285.034 311.107 285.137 310.945 285.272C310.095 285.928 311.546 285.873 311.059 286.554L305.186 280.681L305.678 280.189L307.986 282.497C308.266 282.777 308.598 283.109 309.161 282.504C309.724 281.898 309.275 281.788 309.096 281.517C307.684 279.643 306.767 277.404 304.276 276.481C303.917 276.368 303.809 275.123 303.609 274.4C303.516 273.777 303.221 273.263 302.76 272.923C302.3 272.582 301.693 272.43 301.016 272.484C300.577 272.559 300.162 272.538 299.798 272.42C299.435 272.302 299.133 272.091 298.914 271.802C298.696 271.512 298.565 271.152 298.532 270.746C298.498 270.34 298.563 269.898 298.722 269.452C299.186 268.194 297.913 268.458 297.64 267.786C297.136 265.719 295.815 264.17 293.905 263.405C292.535 263.254 291.435 262.588 290.788 261.518C289.75 259.035 287.075 258.296 285.641 256.187C284.578 254.852 283.326 253.693 281.906 252.729C279.803 251.117 279.187 248.319 277.584 246.315C275.98 244.312 275.152 241.425 271.356 242.086C270.782 242.188 270.733 241.463 270.422 241.152L270.488 240.849L271.214 239.823C271.179 239.699 271.128 239.585 271.06 239.484C271.049 237.691 266.55 235.405 264.788 236.286C263.725 236.791 262.628 237.201 262.164 236.183C262.779 235.568 262.993 235.998 263.15 236.185C263.751 236.786 264.531 236.307 265.028 235.789C265.286 235.452 265.431 235.071 265.434 234.724C265.436 234.377 265.296 234.091 265.042 233.928C264.156 233.396 263.36 232.754 262.665 232.011C262.465 231.842 262.192 231.763 261.883 231.783C259.056 232.614 259.056 232.614 257.802 230.776C258.853 229.982 259.473 230.264 260.046 230.807C260.315 231.076 260.637 231.398 261.222 230.876C261.808 230.355 261.369 229.978 261.542 229.505C261.887 228.559 261.275 229.085 260.816 229.179C258.968 229.545 259.002 227.364 257.417 227.317C256.787 227.947 257.691 229.19 256.494 229.314C255.948 229.278 255.493 229.055 255.192 228.677C254.891 228.299 254.761 227.785 254.819 227.209C255.067 225.244 254.837 225.044 252.883 226.441C251.496 227.483 251.289 226.015 250.603 225.606C251.034 225.176 251.172 224.823 250.835 224.516L250.866 224.485ZM388.898 356.185L389.027 356.314C389.317 356.603 389.514 357.2 390.067 356.862C390.62 356.524 390.467 356.033 390.151 355.747L390.044 355.64C389.997 355.507 389.893 355.415 389.752 355.382C389.611 355.349 389.443 355.376 389.279 355.46C388.568 355.548 388.548 355.804 388.898 356.185ZM319.962 161.702L320.078 162.187L320.405 161.623L320.263 161.143L319.962 161.702ZM340.561 175.63C340.151 175.374 340.036 173.814 339.112 175.811C338.513 176.411 337.779 176.63 337.411 176.139C337.328 176.017 337.213 175.923 337.074 175.863C336.935 175.803 336.775 175.777 336.602 175.788C336.429 175.798 336.248 175.845 336.068 175.925C335.889 176.005 335.715 176.116 335.558 176.253C334.407 177.039 336.197 177.138 335.444 177.891C334.696 178.188 334.809 176.765 333.631 177.707C335.865 180.573 338.93 182.641 342.606 183.762C342.904 182.493 342.841 181.293 342.423 180.303C342.005 179.313 341.25 178.575 340.248 178.176L340.739 177.684C341.984 176.439 340.265 176.656 340.373 175.904C340.457 175.825 340.523 175.729 340.561 175.63V175.63ZM374.197 230.416C375.637 232.625 376.459 235.476 379.912 235.609C380.122 235.651 380.303 235.745 380.442 235.884C380.581 236.023 380.675 236.204 380.717 236.414C380.945 239.47 383.588 240.607 384.897 242.776C386.686 245.64 389.282 247.805 392.495 249.114C395.411 250.278 396.034 254.743 400.875 253.037C400.875 253.037 400.961 253.123 401.004 253.166C402.959 255.613 406.328 256.43 408.568 258.485C408.965 258.883 409.319 259.882 410.041 259.159C410.764 258.437 412.008 258.052 411.946 256.975C412.028 256.538 411.973 256.134 411.789 255.818C411.605 255.502 411.301 255.29 410.919 255.211C410.366 255.119 409.491 254.921 409.461 254.522C409.695 251.282 406.897 251.374 404.89 250.504C405.683 249.883 406.917 249.272 406.107 248.278C403.939 245.261 401.268 242.694 398.159 240.637C397.999 241.184 397.645 241.752 397.764 241.933C399.513 244.456 401.523 246.754 403.776 248.805C403.257 248.809 402.723 248.183 402.601 248.584C401.875 251.178 401.828 247.811 401.45 248.877C400.407 248.695 400.659 247.349 399.832 246.952C397.165 245.668 395.617 243.136 393.139 241.642C392.735 241.423 391.914 241.063 392.432 240.352C393.338 239.167 393.456 240.638 394.107 240.459C394.238 240.436 394.338 240.228 394.69 240.027C394.068 238.759 394.616 236.879 393.51 235.773C391.095 233.358 388.956 230.666 386.648 228.142C385.937 227.495 384.933 227.194 383.792 227.284C382.947 227.27 384.706 225.124 383.286 224.719C382.251 224.375 381.366 223.803 380.678 223.033C376.383 218.738 372.246 214.416 367.639 210.455C366.601 212.03 368.282 211.959 368.192 213.037C367.4 212.882 366.802 212.404 366.509 211.693L363.5 207.423C362.989 206.666 362.122 206.783 361.304 207.686C360.486 208.59 360.776 209.31 361.455 209.682C362.264 210.088 362.911 210.702 363.353 211.484C363.796 212.265 364.025 213.197 364.025 214.219C363.703 213.329 363.019 212.7 362.091 212.439C361.791 212.138 361.415 211.333 360.62 212.321C360.504 212.475 360.417 212.642 360.365 212.81C360.313 212.978 360.297 213.143 360.32 213.292C360.342 213.441 360.401 213.57 360.493 213.671C360.585 213.771 360.707 213.84 360.851 213.873C363.244 214.421 363.704 217.096 366.004 217.888C367.172 218.288 368.346 216.942 368.518 217.328C369.226 219.175 371.63 218.811 372.755 220.09C373.217 220.552 372.615 220.811 372.493 221.212C372.02 222.737 370.433 224.624 370.664 225.531C370.752 226.434 371.122 227.197 371.731 227.729C372.34 228.262 373.162 228.542 374.1 228.537C373.315 229.473 372.809 230.258 374.197 230.416V230.416ZM353.451 205.49C353.91 206.256 354.709 206.379 355.593 205.603C357.536 203.918 357.834 203.878 358.907 205.381C359.272 205.746 359.503 206.653 360.488 205.948C361.473 205.242 360.609 204.839 360.654 204.3C360.869 202.087 358.614 202.045 357.986 200.526C357.816 199.852 357.467 199.287 356.968 198.875C356.469 198.462 355.832 198.213 355.108 198.146C354.384 198.08 353.593 198.199 352.795 198.493C351.997 198.788 351.215 199.25 350.51 199.843C348.736 201.144 348.539 202.114 350.067 202.905C351.352 203.575 353.179 203.68 353.451 205.49V205.49ZM282.77 134.563C284.166 131.901 283.012 130.993 282.441 129.868C281.523 128.059 280.289 125.964 278.382 125.81C276.361 125.677 274.675 124.842 273.572 123.428C272.369 122.225 271.52 120.669 270.467 119.339C270.271 119.068 269.985 118.881 269.636 118.797C269.288 118.712 268.889 118.733 268.479 118.858C267.886 119.064 268.17 119.747 267.876 120.191C267.087 121.431 268.317 121.124 268.719 121.495C269.395 122.172 270.831 121.702 271.4 122.701C274.077 127.56 279.445 129.793 282.77 134.563ZM434.048 284.581C434.607 285.139 435.68 286.213 436.765 287.297C436.969 287.501 437.258 287.791 437.776 287.294C438.294 286.798 438.015 286.519 437.805 286.278C435.476 283.733 433.208 281.127 430.755 278.705C428.748 276.698 425.738 275.778 424.732 272.682C424.132 271.235 422.952 270.227 421.384 269.826C420.888 269.699 420.32 269.623 419.859 270.299C419.397 270.975 419.948 271.003 420.217 271.272C421.677 272.732 422.983 274.346 424.397 275.852C425.608 277.496 427.048 278.935 428.692 280.146C430.665 281.412 432.457 282.896 434.048 284.581V284.581ZM405.073 369.04C403.847 367.322 402.258 365.93 400.368 364.919C400.029 364.765 399.724 364.275 399.211 364.746C398.698 365.216 399.196 365.684 399.368 366.07C399.539 366.457 400.107 366.318 399.634 366.921C399.434 367.09 399.205 367.206 398.981 367.252C398.413 367.39 398.184 365.901 397.286 367.616C396.624 368.922 397.651 368.904 398.03 369.405C398.409 369.907 399.584 370.191 399.052 370.981C397.624 373.118 399.362 372.367 399.952 372.035C401.318 371.249 401.907 371.776 402.488 372.419C403.07 373.062 403.599 373.714 404.108 374.407C404.617 375.1 405.314 374.446 405.755 374.026C406.447 373.334 406.037 373.078 405.483 372.924C403.927 372.505 403.82 370.83 403.066 369.738C403.746 369.035 404.234 369.492 405.073 369.04V369.04ZM419.018 386.551C419.429 387.241 419.992 387.804 420.682 388.215C421.78 388.513 422.341 390.55 423.832 389.059C424.585 388.306 423.38 386.763 422.41 386.316C420.041 385.207 419.168 382.643 417.082 381.295C415.793 380.436 414.473 379.608 413.357 378.707C412.712 378.063 412.11 378.751 411.526 379.335C410.604 380.257 411.528 380.106 411.838 380.354L419.018 386.551ZM263.623 109.821C262.96 109.496 262.332 108.837 261.382 109.916C260.905 110.392 259.678 111.04 260.36 111.968C261.972 114.246 263.829 116.309 265.914 118.137C266.204 118.427 266.515 119.168 267.417 118.288C267.697 118.025 267.902 117.698 267.996 117.367C268.089 117.037 268.064 116.725 267.926 116.491C266.676 114.134 264.648 112.382 263.623 109.821ZM350.782 194.89C350.782 194.89 350.69 194.982 350.659 195.012C350.628 195.043 350.608 195.3 350.831 195.184C351.054 195.069 350.923 195.092 350.939 195.077C350.954 195.061 350.814 194.922 350.782 194.89ZM448.957 407.544C448.957 407.544 448.811 407.583 448.78 407.613C448.75 407.644 448.714 407.916 448.952 407.785C448.978 407.774 449.004 407.757 449.025 407.735C449.047 407.714 449.064 407.688 449.075 407.662C449.075 407.662 448.978 407.566 448.957 407.544ZM495.948 343.375C495.948 343.375 495.894 343.322 495.873 343.3C495.851 343.279 495.586 343.351 495.627 343.546L495.713 343.632C495.713 343.632 495.87 343.389 495.916 343.343L495.948 343.375ZM257.24 106.327L257.282 106.092L257.062 106.119L257.063 106.397L257.24 106.327ZM348.494 321.222C348.494 321.222 348.569 321.297 348.692 321.174C348.815 321.051 348.73 321.028 348.744 320.95L348.459 321.064L348.494 321.222ZM401.316 373.613C401.316 373.613 401.17 373.652 401.193 373.736C401.216 373.821 401.131 374.013 401.354 373.897C401.576 373.782 401.446 373.805 401.477 373.774L401.316 373.613Z" fill="#C62828"/>
<path d="M279.467 260.772C276.62 259.646 275.209 256.913 272.844 255.285C268.713 252.416 266.239 247.912 262.245 244.841C260.144 243.353 258.487 241.373 257.354 238.996C256.646 237.913 255.762 236.978 254.725 236.214C254.274 235.763 253.587 235.506 253.692 234.413C255.227 235.025 255.864 236.922 256.974 236.864C257.721 236.832 258.412 236.958 259.006 237.234C259.6 237.511 260.084 237.933 260.43 238.476C262.989 241.435 265.529 244.435 268.411 247.071C270.341 248.386 272.096 249.905 273.66 251.613C275.683 254.528 279.564 255.458 281.094 258.802C280.556 259.34 279.713 259.603 279.449 260.446L279.467 260.772Z" fill="#C62828"/>
<path d="M327.142 319.513C326.704 318.603 326.051 317.856 325.219 317.314C324.843 316.938 324.285 317.088 324.058 317.659C323.197 319.872 322.982 318.735 322.079 318.263C319.692 317.043 318.451 314.634 316.232 313.246C315.311 312.663 316.954 312.953 316.785 312.692C316.21 311.871 317.388 310.221 316.6 309.678C315.319 308.401 313.789 307.388 312.052 306.668C310.222 306.222 308.781 304.012 307.543 302.159C308.362 302.456 308.88 303.312 310.177 302.488C311.087 301.922 311.473 302.523 311.866 302.946C315.417 306.867 319.473 310.369 322.874 314.355C324.668 316.425 326.793 318.273 328.85 320.146C329.043 320.339 329.47 320.428 329.397 320.693C329.304 321.43 330.609 321.629 329.702 322.535C328.796 323.442 328.591 322.315 328.091 322C327.347 321.563 327.195 319.997 325.392 321.607C324.762 322.237 324.405 321.542 324.341 321.047C324.277 320.553 324.744 319.914 325.385 319.724C325.985 319.585 326.574 319.514 327.142 319.513V319.513Z" fill="#C62828"/>
<path d="M345.632 340.616C345.402 340.758 345.19 340.941 345.011 341.152C344.832 341.363 344.69 341.597 344.597 341.836C344.503 342.076 344.46 342.315 344.471 342.536C344.482 342.757 344.545 342.955 344.658 343.115C344.861 343.407 344.975 343.769 344.991 344.174C345.007 344.578 344.924 345.014 344.749 345.45C341.685 344.907 340.873 341.789 338.262 340.685C335.673 339.336 333.445 337.521 331.646 335.299C330.111 333.763 328.44 332.277 326.987 330.639C326.179 329.738 325.573 328.655 325.192 327.431C324.865 326.212 324.242 326.234 322.966 327.51C323.222 326.137 323.835 324.966 323.025 324.187C325.526 324.592 327.478 325.967 328.542 328.075C329.284 329.309 330.194 330.373 330.982 331.561C331.076 331.624 331.155 331.703 331.218 331.797C330.892 332.854 331.595 333.095 332.069 333.631C332.542 334.166 335.019 334.03 333.15 336.372C332.904 336.618 333.256 336.909 333.601 336.823C336.626 335.944 337.004 338.658 338.733 339.527C339.833 340.333 340.794 341.294 341.6 342.393C342.378 341.358 341.726 341.044 341.892 340.534C342.059 340.024 342.334 339.039 342.783 338.72C343.814 337.968 343.455 339.207 343.786 339.477C344.414 339.859 345.031 340.229 345.632 340.616Z" fill="#C62828"/>
<path d="M268.552 258.31L268.41 261.243C270.237 259.996 268.321 263.951 270.468 262.255C270.299 262.425 270.092 262.739 270.111 262.913C270.038 263.5 270.11 264.046 270.321 264.504C270.533 264.961 270.877 265.317 271.326 265.542C272.541 266.173 274.499 266.255 274.933 268.011C275.245 269.245 276.862 268.895 277.818 269.421C278.142 269.591 278.605 269.9 278.57 270.172C278.464 270.404 278.316 270.627 278.134 270.827C277.953 271.027 277.742 271.199 277.517 271.333C276.939 271.739 276.778 271.148 276.563 270.933C275.64 270.01 274.855 268.948 273.589 267.466C273.125 270.077 275.133 270.732 275.559 272.818C270.603 269.184 266.825 264.976 262.75 261.085C262.095 260.43 262.874 259.672 262.844 258.843C263.963 259.378 264.525 261.692 264.991 260.99C266.19 259.576 268.315 260.994 268.552 258.31Z" fill="#C62828"/>
<path d="M292.082 266.194C293.753 266.803 295.071 267.919 295.907 269.434C295.076 269.341 294.356 269.052 293.639 270.241C292.923 271.43 293.796 271.781 294.348 272.087C296.517 273.286 298.304 274.958 299.628 277.029C300.946 279.146 303.564 279.92 304.455 282.379C304.574 282.806 304.601 283.281 304.535 283.781C303.21 284.054 304.514 282.191 303.6 282.569C302.686 282.946 302.674 283.795 302.787 284.584C302.836 284.879 302.223 285.556 301.746 285.11C301.69 285.073 301.644 285.026 301.606 284.971C300.069 282.341 297.934 280.205 295.304 278.669C297.625 277.915 298.137 277.167 296.758 276.034C296.301 275.469 295.787 274.956 295.222 274.499C294.564 274.148 294.772 274.048 294.229 273.044C293.519 271.929 292.684 270.918 291.731 270.024C292.691 269.6 293.519 270.92 294.213 269.431C294.692 268.373 293.62 268.285 293.075 267.863C292.671 267.366 292.338 266.807 292.082 266.194V266.194Z" fill="#C62828"/>
<path d="M339.446 337.935C338.872 337.177 340.034 334.619 337.235 336.216C336.873 336.407 336.161 335.357 335.536 334.824C336.168 334.749 336.319 335.608 336.817 335.153C337.315 334.698 337.162 333.991 336.776 333.605L330.732 327.561C329.969 326.798 329.585 326.045 332.137 324.416C330.262 326.291 330.91 326.909 331.568 327.475C333.092 328.722 334.727 329.835 336.117 331.193C337.34 332.826 338.779 334.264 340.411 335.488C342.182 336.337 341.245 337.274 339.446 337.935Z" fill="#C62828"/>
<path d="M297.788 298.643C296.542 297.397 296.947 295.619 295.771 294.905C294.925 294.538 294.225 293.971 293.711 293.236C293.197 292.501 292.88 291.612 292.777 290.62C292.779 290.253 292.241 290.083 292.676 289.626C292.776 289.52 292.891 289.428 293.014 289.359C293.137 289.289 293.264 289.242 293.389 289.221C293.513 289.2 293.631 289.206 293.735 289.238C293.838 289.269 293.926 289.327 293.992 289.405C296.016 291.675 298.95 293.165 298.993 297.051C299.011 297.591 299.765 297.976 298.793 298.603C298.612 298.704 298.423 298.762 298.246 298.769C298.068 298.776 297.91 298.732 297.788 298.643V298.643Z" fill="#C62828"/>
<path d="M245.919 242.81L244.345 242.558C244.176 242.727 243.992 242.911 243.823 243.081C246.929 245.879 249.563 249.128 253.685 251.191C252.967 251.425 252.265 251.472 251.655 251.327C251.044 251.182 250.547 250.85 250.216 250.365L239.613 240.377C239.474 240.218 239.42 239.989 239.461 239.734C241.156 241.582 244.562 240.838 245.919 242.81Z" fill="#C62828"/>
<path d="M323.287 322.852C319.862 323.915 319.146 321.969 318.185 320.547C317.021 318.768 316.336 316.577 314.161 315.724C318.1 316.896 320.07 320.25 323.287 322.852Z" fill="#C62828"/>
<path d="M279.467 260.771L279.443 260.408C280.072 259.93 281.14 259.892 281.088 258.764C281.781 259.058 281.744 259.912 282.113 260.466C281.984 260.337 281.665 260.355 281.598 260.658C281.532 260.96 281.813 260.873 282.071 260.7C282.175 260.727 282.248 260.801 282.275 260.904L282.097 261.341L282.41 261.285L282.39 260.897C282.765 262.132 284.966 261.843 284.435 263.833C284.352 263.75 284.302 263.637 284.291 263.505C284.562 262.976 284.366 262.872 283.851 263.065L283.162 263.174L283.087 263.099C283.275 262.611 283.14 262.445 282.636 262.648L282.507 262.519C282.726 262 282.544 261.881 282.056 262.068L281.497 262.37L281.982 262.486L282.1 262.604C281.886 263.097 282.032 263.274 282.562 263.066L282.648 263.152L282.542 263.815L282.433 264.505C282.24 265.019 282.406 265.154 282.894 264.966C282.923 265.014 282.971 265.045 283.031 265.055C283.09 265.065 283.159 265.053 283.226 265.021V265.021C283.041 265.206 282.857 265.39 283.101 265.511C283.345 265.632 283.354 265.365 283.484 265.279C282.931 265.417 282.414 265.368 282.018 265.14C281.622 264.911 281.37 264.517 281.305 264.022C280.852 262.822 280.236 261.731 279.467 260.771V260.771ZM281.315 261.758C281.315 261.758 281.327 261.616 281.229 261.672C281.131 261.727 280.957 261.707 280.998 261.902C281.04 262.097 281.063 261.967 281.073 261.977C281.084 261.988 281.284 261.788 281.315 261.758ZM281.22 259.941C281.22 259.941 281.074 259.98 281.097 260.064C281.12 260.149 281.031 260.367 281.269 260.236C281.296 260.227 281.322 260.21 281.344 260.188C281.366 260.166 281.383 260.14 281.392 260.113C281.392 260.113 281.237 259.989 281.188 259.909L281.22 259.941Z" fill="#C62828"/>
<path d="M213.686 175.346L214.555 175.293C214.199 175.52 213.867 175.68 213.686 175.346Z" fill="#C62828"/>
<path d="M283.651 264.833L283.769 264.951C283.661 265.058 283.584 265.135 283.618 265.23C283.628 265.149 283.607 265.078 283.56 265.031C283.512 264.984 283.442 264.963 283.361 264.973V264.973C283.46 264.958 283.562 264.908 283.651 264.833V264.833Z" fill="#C62828"/>
<path d="M213.016 175.139L212.983 175.105L212.829 175.259L213.016 175.139Z" fill="#C62828"/>
<path d="M271.103 239.527C271.17 239.628 271.222 239.742 271.257 239.866C271.186 239.767 271.134 239.653 271.103 239.527Z" fill="#C62828"/>
<path d="M270.833 240.547L270.766 240.849C270.68 240.763 270.71 240.67 270.833 240.547Z" fill="#C62828"/>
<path d="M284.424 264.253L284.166 264.211C284.267 264.069 284.393 263.942 284.535 263.842C284.513 263.977 284.475 264.115 284.424 264.253V264.253Z" fill="#C62828"/>
<path d="M250.866 224.484C250.727 224.623 250.685 224.857 250.601 225.049C251.116 224.919 250.881 224.684 250.866 224.484Z" fill="#C62828"/>
<path d="M250.629 225.601C250.813 225.417 251.197 225.032 250.642 225.031L250.629 225.601Z" fill="#C62828"/>
<path d="M218.6 196.092C218.741 196.101 218.867 196.143 218.969 196.215C218.896 196.218 218.829 196.206 218.771 196.18C218.713 196.153 218.665 196.113 218.63 196.061L218.6 196.092Z" fill="#C62828"/>
<path d="M284.089 263.58L284.051 264.219C283.926 264.256 283.802 264.322 283.689 264.409L283.041 264.499L282.933 264.392L283.044 263.765L283.183 263.627L283.82 263.526C283.896 263.568 283.988 263.587 284.089 263.58V263.58Z" fill="#C62828"/>
</g>
<g clip-path="url(#clip1_1681_2562)">
<path d="M315.687 217.036C311.741 215.228 307.789 213.698 304.709 211.463C295.209 206.468 285.841 201.309 275.801 196.716C272.72 195.365 269.67 193.85 266.739 192.217C268.579 192.752 272.283 194.785 275.145 195.699C265.144 190.546 256.053 186.428 246.878 181.891C246.274 181.573 245.643 181.297 245.031 181.084C244.418 180.871 243.839 180.726 243.333 180.658L253.89 185.909C250.324 184.779 246.539 183.054 243.155 181.018C240.895 179.59 238.38 178.291 235.843 177.239C233.305 176.204 230.77 174.973 228.376 173.612C225.647 172.09 222.815 170.665 219.949 169.372C217.794 168.449 215.642 167.467 213.51 166.435C207.605 163.532 201.728 160.573 195.796 157.727C193.68 156.687 190.795 155.339 190.298 154.532C190.014 154.041 188.011 153.144 186.586 152.461C180.372 149.494 174.292 146.786 168.223 144.005C162.809 141.551 157.429 138.955 152.122 136.239C146.471 133.302 140.866 130.485 135.265 127.767C133.508 126.934 131.771 126.054 130.069 125.134C126.69 123.306 123.21 121.595 119.699 120.036C112.669 116.829 105.679 113.466 98.7667 109.964C86.1349 103.588 73.8625 97.9232 61.5326 92.0548C47.9225 85.5835 34.5616 79.0327 21.1109 72.1302C16.9096 69.9858 12.9269 67.9312 8.89774 65.7572C5.34493 63.8437 3.607 63.1562 3.02437 63.3792C1.75012 63.8331 5.66459 66.8817 12.0336 70.4432C19.1658 74.3558 26.4079 78.1624 33.7299 81.8472C40.0301 85.0674 46.3512 88.2452 52.4653 91.5233C55.7923 93.3082 68.733 99.591 72.2104 101.23C75.6878 102.87 77.3894 104.593 81.606 106.332C81.7544 106.458 82.0898 106.684 82.0055 106.696C81.2994 106.849 83.6381 108.025 85.5427 108.962C89.4791 110.897 93.5424 112.894 97.3476 114.668C103.25 117.361 109.12 120.18 114.929 123.11C117.675 124.556 120.496 125.893 123.327 127.089C127.18 128.605 131.648 130.741 135.639 132.404C137.484 133.141 139.334 134.023 141.089 135.004C140.364 135.034 137.141 133.52 137.74 134.333C141.955 136.056 146.175 137.995 150.301 140.104C156.239 143.26 162.072 145.934 167.923 148.837C169.895 149.758 171.852 150.721 173.786 151.719C176.484 153.179 179.286 154.512 182.091 155.671C184.978 156.851 187.859 158.267 190.556 159.832C188.28 159.117 184.379 157.112 182.696 156.846C185.204 158.211 185.387 158.855 188.414 160.395C192.929 162.703 196.919 165.332 201.985 167.321C202.644 167.611 203.299 167.933 203.932 168.279C207.99 170.365 212.115 172.344 216.265 174.193C225.336 178.406 234.313 182.38 243.597 187.015C247.453 189.001 251.378 190.874 255.324 192.613C256.84 193.26 258.341 194.019 259.744 194.847C262.35 196.36 265.119 197.742 267.91 198.923C269.661 199.637 271.407 200.51 273.014 201.476C270.646 200.686 268.188 199.633 265.828 198.401C259.051 194.814 254.809 193.607 249.121 191.066C250.248 191.795 251.448 192.497 252.693 193.155C257.712 195.667 262.742 198.21 267.793 200.658C272.026 202.738 276.549 205.138 280.125 206.255C281.37 206.725 282.63 207.285 283.856 207.913C287.798 209.846 291.782 211.676 295.775 213.386C302.393 216.227 308.766 219.729 315.245 222.958C316.639 223.76 318.119 224.488 319.605 225.101C325.651 226.967 331.719 230.82 337.78 233.887C338.69 234.334 339.047 234.677 339.03 234.818C339.013 234.959 338.527 234.825 337.554 234.4C335.89 233.669 332.898 232.111 332.716 232.214C332.124 232.617 328.212 230.685 325.681 229.74C327.292 230.718 329.065 231.589 330.824 232.268C338.15 235.135 345.525 238.403 352.767 241.993C353.406 242.307 354.053 242.601 354.7 242.873C361.233 245.619 368.304 248.928 375.155 251.989C376.189 252.453 377.907 253.342 377.7 252.801C362.618 245.474 347.11 238.641 331.454 229.917C336.159 231.995 340.843 234.204 345.469 236.526C353.227 240.395 361.075 244.08 368.954 247.553C370.77 248.349 374.319 249.628 374.084 250.374C374.378 250.579 374.713 250.774 375.065 250.944C378.852 252.595 382.675 254.922 386.07 256.354C392.377 259.11 398.654 262.09 404.819 265.255C413.072 269.312 421.516 273.463 429.503 277.53C438.226 281.968 446.939 285.786 455.427 290.275C456.491 290.829 457.583 291.34 458.675 291.793C465.605 294.778 472.52 297.943 479.376 301.267C485.925 304.355 491.975 306.908 498.625 309.79C495.504 307.694 491.678 306.603 488.928 304.874C489.698 305.076 490.542 305.402 491.357 305.813C494.637 307.426 497.939 309.049 501.198 310.651C504.457 312.253 504.698 313.153 507.935 314.534C511.19 315.907 514.434 317.455 517.577 319.134C517.778 319.222 517.977 319.32 518.17 319.425C520.55 320.899 523.231 322.183 525.827 323.093C534.23 326.36 542.699 330.127 550.99 334.286C552 334.788 553.028 335.246 554.051 335.651C560.717 338.392 567.911 341.665 574.971 344.837C583.579 348.709 592.458 353.311 600.959 357.025C603.72 359.428 605.093 360.217 611.976 363.32C614.97 364.66 617.868 365.874 620.798 367.13C623.575 368.311 626.349 369.557 629.106 370.863C638.982 375.577 648.842 380.161 658.715 384.988C659.754 385.484 660.803 385.944 661.849 386.362C662.875 386.788 663.721 387.045 663.625 386.813C663.528 386.582 662.142 385.874 661.108 385.357C650.682 380.161 640.567 374.758 629.796 369.726C626.298 368.072 622.832 366.334 619.426 364.523C616.243 362.835 612.992 361.237 609.712 359.747C598.475 354.63 587.313 349.216 576.315 343.548C563.633 337.006 550.716 330.727 537.762 324.472C530.99 321.196 524.229 318.004 517.418 314.646C510.607 311.289 503.434 307.974 496.551 304.388C495.7 303.934 494.828 303.505 493.948 303.108C488.453 300.631 482.989 298.007 477.601 295.256C471.887 292.535 466.214 289.711 460.606 286.796C450.202 281.233 439.631 276.01 428.897 270.636C425.251 268.73 421.544 266.908 417.808 265.185C414.458 263.714 418.177 265.717 417.599 265.609C414.361 263.965 410.37 262.248 408.859 260.777C408.17 260.321 407.407 259.892 406.615 259.515L391.187 251.931L391.08 252.15L404.537 258.986C402.018 257.988 399.487 256.826 397.033 255.542C387.156 250.564 377.378 246.24 367.512 241.346C365.65 240.43 363.632 239.509 363.247 239.705C364.802 240.509 366.392 241.255 367.987 241.93C369.271 242.632 370.492 243.302 370.539 243.58C370.586 243.858 369.38 243.265 368.432 242.896C362.922 240.74 356.509 237.482 350.68 234.907C350.457 234.81 350.236 234.702 350.024 234.584C348.268 233.72 346.394 232.72 346.064 232.216C345.734 231.711 347.02 232.088 349.139 233.016C350.176 233.473 351.256 234.056 352.394 234.52C353.533 234.983 355.081 235.735 354.674 235.228C349.252 232.413 343.742 230.204 338.083 227.229C338.888 227.089 343.204 229.589 343.578 229.255C332.918 223.662 321.923 218.582 310.964 214.187C318.052 217.891 324.972 220.599 331.852 224.403C326.479 222.13 321.022 219.492 315.687 217.036ZM429.894 277.055C427.461 275.705 424.915 274.471 422.36 273.404C421.97 273.257 421.575 273.076 421.197 272.872C420.819 272.669 420.466 272.446 420.159 272.216C419.776 271.818 421 272.322 422.068 272.821C423.147 273.312 424.217 273.838 425.264 274.392C428.815 276.294 432.424 278.13 436.069 279.889C433.997 279.118 431.891 278.152 429.894 277.055ZM222.715 176.468C222.459 176.561 220.625 175.748 219.499 175.045C218.373 174.342 219.476 174.664 220.216 174.87C222.819 175.743 225.522 176.906 228.11 178.268C226.186 177.586 223.326 176.241 222.715 176.468ZM303.048 211.85C299.935 210.588 296.826 209.06 293.926 207.366C297.033 208.66 300.125 210.181 303.048 211.85ZM298.96 212.949C302.147 214.222 305.348 215.694 308.453 217.318C305.962 216.506 302.99 214.799 298.96 212.949ZM181.771 155.092C180.647 154.601 179.45 154.469 178.358 153.484C177.763 152.928 179.915 154.004 181.118 154.551L185.406 156.519C184.512 156.466 182.921 155.587 181.771 155.092ZM438.578 280.077C441.08 281.122 443.576 282.316 445.981 283.62C443.47 282.669 440.927 281.452 438.578 280.077ZM388.088 256.204C384.613 254.935 383.668 254.505 378.281 251.672C381.416 253.205 384.403 254.507 388.088 256.204ZM246.678 186.896C245.732 186.623 244.733 186.251 243.737 185.8C242.741 185.35 241.768 184.83 240.873 184.27C242.814 184.985 244.791 185.879 246.678 186.896ZM312.385 216.054C313.189 216.396 314.145 216.858 314.46 217.179C314.775 217.501 313.618 216.915 313.078 216.676C312.126 216.208 311.089 215.698 309.813 215.14C310.611 215.324 311.503 215.64 312.385 216.054ZM586.48 349.81C586.426 349.599 587.548 350.151 588.313 350.518C588.863 350.786 589.4 351.077 589.911 351.383C589.845 351.517 588.805 351.015 588.008 350.658C587.211 350.301 586.477 349.923 586.438 349.789L586.48 349.81ZM225.509 176.129C225.01 175.873 224.535 175.592 224.105 175.298C223.783 175.043 224.185 175.135 224.925 175.499C225.64 175.817 226.322 176.217 226.863 176.636C226.648 176.645 226.116 176.445 225.467 176.108L225.509 176.129ZM378.198 248.312C378.487 248.26 379.456 248.693 380.518 249.206C380.835 249.362 381.425 249.714 381.39 249.732C381.306 249.901 380.096 249.315 379.176 248.889C378.821 248.7 378.479 248.499 378.156 248.291L378.198 248.312ZM440.19 278.507C439.784 278.32 439.38 278.122 438.984 277.914C438.476 277.664 438.603 277.674 439.28 278.007L441.396 279.047C440.979 278.87 440.562 278.682 440.148 278.486L440.19 278.507ZM275.432 196.719C276.172 197.083 276.61 197.368 276.498 197.436C276.386 197.504 275.836 197.286 275.18 196.964C274.524 196.641 274.065 196.346 274.089 196.243C274.261 196.264 274.459 196.312 274.669 196.384C274.878 196.455 275.096 196.548 275.305 196.656L275.432 196.719ZM278.827 203.228C278.57 203.136 278.305 203.018 278.054 202.883C277.802 202.747 277.57 202.596 277.374 202.443C277.374 202.443 277.613 202.438 277.899 202.552C278.443 202.767 278.986 203.055 279.44 203.371C279.229 203.32 279.007 203.29 278.701 203.165L278.827 203.228ZM467.089 294.348C466.476 294.047 465.693 293.662 465.674 293.538C466.179 293.712 466.696 293.922 467.208 294.161C467.494 294.279 467.778 294.42 468.045 294.575C468.312 294.73 468.555 294.897 468.761 295.065C468.133 294.791 467.541 294.553 466.962 294.286L467.089 294.348Z" fill="#141414"/>
<path d="M295.511 214.514C301.269 216.751 307.073 219.379 312.706 222.299C310.977 221.897 309.016 221.141 307.161 220.162C303.377 218.345 299.496 216.35 295.511 214.514Z" fill="#141414"/>
<path d="M245.993 188.985C245.278 188.749 244.53 188.411 243.842 188.015C243.377 187.786 243.312 187.65 243.658 187.749C244.374 187.994 245.117 188.329 245.809 188.719C246.26 188.976 246.293 189.071 245.993 188.985Z" fill="#141414"/>
</g>
<g clip-path="url(#clip2_1681_2562)">
<path d="M352.98 163.528C350.496 161.766 347.967 160.201 346.149 158.242C340.263 153.543 334.493 148.746 328.172 144.268C326.224 142.934 324.32 141.489 322.518 139.975C323.721 140.578 326.004 142.47 327.863 143.467C321.652 138.596 315.922 134.57 310.196 130.237C309.821 129.938 309.422 129.666 309.027 129.44C308.632 129.215 308.249 129.041 307.907 128.931L314.492 133.939C312.173 132.704 309.789 131.021 307.73 129.165C306.365 127.877 304.804 126.65 303.19 125.596C301.574 124.553 299.988 123.372 298.52 122.115C296.842 120.704 295.078 119.35 293.271 118.084C291.905 117.167 290.55 116.209 289.215 115.218C285.527 112.441 281.867 109.628 278.152 106.888C276.83 105.893 275.018 104.586 274.79 103.954C274.664 103.571 273.4 102.692 272.507 102.034C268.613 99.1741 264.775 96.5147 260.955 93.8039C257.543 91.4051 254.175 88.9103 250.876 86.3385C247.37 83.5688 243.878 80.8895 240.375 78.2805C239.273 77.4763 238.191 76.6405 237.141 75.7811C235.055 74.0738 232.881 72.4374 230.664 70.9047C226.237 67.7757 221.86 64.5404 217.558 61.2169C209.692 55.1585 201.973 49.6491 194.244 43.988C185.711 37.7436 177.363 31.4732 169.005 24.9424C166.392 22.9107 163.919 20.9693 161.431 18.9376C159.236 17.1485 158.126 16.4496 157.688 16.5369C156.733 16.7039 159.014 19.342 162.929 22.6422C167.324 26.2843 171.811 29.8646 176.372 33.3681C180.289 36.418 184.226 39.4403 188.005 42.5086C190.061 44.1789 198.156 50.2082 200.338 51.7936C202.52 53.379 203.453 54.8083 206.135 56.5545C206.22 56.6617 206.421 56.863 206.36 56.8607C205.846 56.8837 207.303 58.0022 208.493 58.8979C210.951 60.7489 213.489 62.6596 215.88 64.3806C219.597 67.008 223.273 69.7208 226.891 72.5051C228.591 73.8643 230.361 75.1555 232.158 76.348C234.619 77.8921 237.419 79.9498 239.956 81.6148C241.133 82.3615 242.292 83.2124 243.371 84.1211C242.862 84.0545 240.838 82.5886 241.136 83.2378C243.82 84.9724 246.476 86.8606 249.041 88.8582C252.715 91.8186 256.387 94.4244 260.038 97.1949C261.276 98.0877 262.499 99.0082 263.699 99.9515C265.365 101.315 267.121 102.601 268.906 103.764C270.744 104.952 272.543 106.306 274.193 107.745C272.712 106.961 270.288 105.064 269.155 104.671C270.702 105.944 270.736 106.423 272.618 107.883C275.426 110.069 277.82 112.418 281.057 114.445C281.474 114.731 281.883 115.039 282.273 115.361C284.794 117.334 287.378 119.239 289.998 121.055C295.7 125.146 301.371 129.056 307.16 133.472C309.554 135.349 312.014 137.155 314.509 138.868C315.47 139.511 316.404 140.232 317.26 140.99C318.854 142.379 320.58 143.696 322.351 144.874C323.467 145.593 324.555 146.424 325.533 147.305C323.999 146.456 322.441 145.411 320.978 144.25C316.782 140.882 314.004 139.51 310.414 137.016C311.092 137.67 311.825 138.314 312.596 138.932C315.725 141.324 318.856 143.739 322.016 146.089C324.659 148.08 327.459 150.331 329.786 151.558C330.585 152.043 331.381 152.594 332.142 153.188C334.605 155.039 337.113 156.821 339.644 158.519C343.838 161.339 347.764 164.597 351.804 167.675C352.658 168.413 353.582 169.109 354.527 169.725C358.466 171.783 362.129 175.254 365.901 178.166C366.469 178.594 366.668 178.88 366.635 178.978C366.603 179.076 366.284 178.922 365.668 178.502C364.616 177.781 362.76 176.312 362.618 176.364C362.147 176.577 359.705 174.732 358.08 173.753C359.06 174.643 360.167 175.476 361.292 176.172C365.976 179.095 370.634 182.31 375.154 185.737C375.553 186.037 375.96 186.324 376.371 186.596C380.52 189.338 384.961 192.545 389.285 195.548C389.937 196.003 391.003 196.842 390.939 196.433C381.506 189.404 371.704 182.672 362.076 174.581C365.049 176.627 367.988 178.763 370.871 180.972C375.708 184.66 380.635 188.227 385.615 191.648C386.763 192.433 389.048 193.772 388.776 194.272C388.95 194.454 389.155 194.633 389.375 194.796C391.772 196.427 394.093 198.542 396.249 199.971C400.239 202.693 404.174 205.569 408.005 208.563C413.16 212.444 418.434 216.415 423.402 220.27C428.829 224.478 434.339 228.246 439.594 232.461C440.254 232.984 440.94 233.478 441.634 233.933C446.024 236.893 450.378 239.978 454.667 243.169C458.776 246.155 462.617 248.701 466.827 251.554C464.96 249.688 462.455 248.449 460.792 246.888C461.299 247.125 461.839 247.459 462.347 247.85C464.396 249.392 466.458 250.945 468.493 252.477C470.529 254.01 470.565 254.678 472.617 256.05C474.684 257.42 476.717 258.912 478.66 260.485C478.787 260.572 478.912 260.666 479.03 260.764C480.472 262.098 482.152 263.335 483.827 264.296C489.202 267.635 494.55 271.336 499.716 275.294C500.346 275.772 500.995 276.222 501.648 276.634C505.891 279.389 510.423 282.585 514.876 285.693C520.305 289.485 525.816 293.829 531.194 297.496C532.765 299.536 533.606 300.262 537.946 303.3C539.835 304.614 541.676 305.828 543.533 307.075C545.295 308.25 547.045 309.471 548.774 310.732C554.963 315.277 561.16 319.727 567.33 324.35C567.981 324.829 568.645 325.282 569.312 325.706C569.965 326.132 570.516 326.418 570.483 326.242C570.45 326.066 569.588 325.395 568.943 324.903C562.441 319.95 556.187 314.888 549.421 310.01C547.226 308.412 545.067 306.758 542.959 305.059C540.99 303.475 538.959 301.946 536.892 300.491C529.814 295.496 522.832 290.299 516 284.942C508.125 278.76 500.047 272.736 491.939 266.725C487.702 263.578 483.46 260.492 479.207 257.283C474.954 254.074 470.443 250.85 466.174 247.471C465.647 247.045 465.103 246.635 464.548 246.247C461.083 243.821 457.661 241.296 454.311 238.69C450.729 236.066 447.191 233.373 443.712 230.624C437.279 225.413 430.68 220.424 423.99 215.308C421.73 213.512 419.414 211.769 417.064 210.093C414.946 208.642 417.243 210.515 416.856 210.369C414.842 208.808 412.313 207.106 411.476 205.879C411.063 205.472 410.594 205.075 410.098 204.711L400.462 197.456L400.354 197.599L408.728 204.083C407.119 203.069 405.526 201.937 404.004 200.728C397.853 195.996 391.675 191.741 385.52 187.07C384.357 186.195 383.087 185.296 382.789 185.389C383.755 186.148 384.753 186.87 385.765 187.543C386.557 188.197 387.309 188.821 387.301 189.023C387.293 189.226 386.54 188.659 385.934 188.282C382.411 186.083 378.421 182.993 374.738 180.457C374.597 180.362 374.459 180.258 374.328 180.149C373.231 179.323 372.073 178.386 371.917 177.988C371.761 177.589 372.601 178.014 373.942 178.929C374.597 179.379 375.264 179.924 375.989 180.391C376.714 180.858 377.683 181.58 377.473 181.171C374.109 178.515 370.594 176.279 367.088 173.481C367.669 173.479 370.309 175.777 370.619 175.585C364.012 170.322 357.097 165.383 350.107 160.934C354.502 164.422 358.925 167.184 363.161 170.719C359.751 168.454 356.337 165.919 352.98 163.528ZM423.744 219.981C422.247 218.727 420.654 217.543 419.031 216.476C418.781 216.324 418.532 216.148 418.299 215.957C418.065 215.767 417.852 215.566 417.671 215.366C417.463 215.036 418.242 215.543 418.913 216.027C419.593 216.506 420.261 217.009 420.909 217.53C423.104 219.31 425.349 221.051 427.63 222.741C426.3 221.943 424.975 221.002 423.744 219.981ZM294.158 123.453C293.966 123.488 292.808 122.688 292.126 122.052C291.445 121.417 292.166 121.78 292.651 122.016C294.337 122.951 296.049 124.105 297.653 125.385C296.412 124.667 294.617 123.366 294.158 123.453ZM344.935 158.314C342.952 157.04 341.01 155.578 339.238 154.024C341.212 155.32 343.144 156.774 344.935 158.314ZM341.926 158.596C343.96 159.886 345.974 161.32 347.899 162.849C346.283 161.97 344.463 160.398 341.926 158.596ZM268.768 103.314C268.056 102.829 267.242 102.59 266.625 101.759C266.293 101.293 267.634 102.317 268.392 102.851L271.091 104.768C270.476 104.622 269.496 103.805 268.768 103.314ZM429.351 223.18C430.941 224.225 432.504 225.376 433.989 226.593C432.379 225.614 430.786 224.441 429.351 223.18ZM397.677 200.11C395.442 198.787 394.846 198.368 391.509 195.704C393.468 197.172 395.358 198.458 397.677 200.11ZM309.323 133.762C308.704 133.453 308.063 133.068 307.435 132.627C306.807 132.187 306.205 131.7 305.664 131.194C306.912 131.937 308.158 132.811 309.323 133.762ZM350.824 162.431C351.333 162.771 351.932 163.214 352.104 163.481C352.276 163.747 351.556 163.191 351.215 162.956C350.62 162.508 349.973 162.02 349.165 161.47C349.695 161.697 350.269 162.03 350.824 162.431ZM522.164 290.619C522.158 290.463 522.858 290.99 523.337 291.344C523.681 291.601 524.013 291.872 524.324 292.151C524.258 292.239 523.607 291.756 523.104 291.406C522.602 291.056 522.146 290.699 522.138 290.599L522.164 290.619ZM296.154 123.552C295.844 123.31 295.554 123.052 295.297 122.792C295.111 122.572 295.377 122.686 295.84 123.034C296.291 123.346 296.707 123.713 297.023 124.076C296.872 124.056 296.531 123.85 296.128 123.532L296.154 123.552ZM391.944 193.31C392.152 193.309 392.764 193.734 393.428 194.227C393.627 194.376 393.986 194.697 393.959 194.705C393.876 194.815 393.119 194.253 392.54 193.839C392.321 193.661 392.111 193.477 391.917 193.291L391.944 193.31ZM430.704 222.263C430.448 222.081 430.196 221.891 429.951 221.695C429.633 221.457 429.72 221.479 430.143 221.797L431.465 222.792C431.2 222.616 430.937 222.432 430.678 222.243L430.704 222.263ZM327.914 144.225C328.377 144.573 328.64 144.829 328.552 144.863C328.464 144.898 328.112 144.676 327.703 144.368C327.293 144.059 327.017 143.794 327.048 143.724C327.165 143.76 327.296 143.818 327.431 143.894C327.567 143.97 327.705 144.063 327.835 144.165L327.914 144.225ZM329.326 149.254C329.16 149.158 328.993 149.042 328.837 148.915C328.682 148.788 328.542 148.653 328.428 148.52C328.428 148.52 328.596 148.546 328.778 148.661C329.126 148.88 329.462 149.151 329.732 149.43C329.592 149.368 329.442 149.32 329.247 149.194L329.326 149.254ZM447.121 236.768C446.738 236.479 446.249 236.111 446.254 236.022C446.58 236.206 446.91 236.418 447.231 236.649C447.413 236.768 447.591 236.903 447.754 237.045C447.917 237.188 448.062 237.335 448.181 237.479C447.783 237.209 447.406 236.968 447.042 236.708L447.121 236.768Z" fill="#141414"/>
<path d="M308.54 135.16C308.077 134.905 307.605 134.575 307.184 134.21C306.893 133.991 306.869 133.886 307.094 133.999C307.558 134.26 308.026 134.588 308.451 134.948C308.728 135.186 308.736 135.257 308.54 135.16Z" fill="#141414"/>
</g>
<g clip-path="url(#clip3_1681_2562)">
<path d="M343.197 386.938C342.681 388.181 342.356 389.478 341.391 390.294C339.709 393.166 337.892 395.955 336.584 399.119C336.223 400.1 335.744 401.04 335.163 401.908C335.193 401.271 335.906 400.167 336.009 399.191C334.311 402.234 333.155 405.107 331.728 407.935C331.621 408.117 331.548 408.318 331.514 408.524C331.48 408.73 331.486 408.935 331.532 409.125L333.195 405.877C333.074 407.095 332.585 408.289 331.811 409.264C331.247 409.902 330.818 410.667 330.562 411.487C330.318 412.31 329.939 413.096 329.445 413.8C328.902 414.609 328.445 415.477 328.085 416.384C327.846 417.075 327.568 417.753 327.252 418.415C326.345 420.238 325.394 422.039 324.531 423.884C324.206 424.537 323.811 425.441 323.351 425.489C323.067 425.511 322.819 426.146 322.612 426.589C321.718 428.524 320.976 430.454 320.182 432.365C319.493 434.076 318.701 435.746 317.812 437.364C316.836 439.08 315.933 440.799 315.097 442.534C314.848 443.083 314.563 443.614 314.245 444.124C313.612 445.136 313.077 446.21 312.652 447.325C311.743 449.543 310.719 451.715 309.587 453.829C307.533 457.698 305.901 461.556 304.139 465.399C302.199 469.643 300.159 473.771 297.895 477.869C297.196 479.152 296.518 480.363 295.767 481.571C295.107 482.636 294.954 483.204 295.213 483.48C295.756 484.076 297.126 483.078 298.399 481.193C299.772 479.067 301.053 476.877 302.235 474.633C303.287 472.711 304.306 470.772 305.431 468.936C306.044 467.936 307.978 463.926 308.464 462.839C308.95 461.753 309.818 461.394 310.237 460.029C310.296 459.993 310.389 459.901 310.413 459.937C310.646 460.249 311.024 459.532 311.316 458.944C311.921 457.729 312.545 456.474 313.063 455.281C313.827 453.42 314.682 451.595 315.625 449.815C316.113 448.986 316.512 448.105 316.813 447.194C317.146 445.934 317.791 444.543 318.199 443.255C318.366 442.653 318.632 442.077 318.982 441.557C319.135 441.854 318.688 442.862 319.134 442.774C319.543 441.407 320.098 440.079 320.787 438.82C321.861 437.032 322.625 435.194 323.542 433.393C323.812 432.775 324.112 432.171 324.442 431.583C324.948 430.775 325.348 429.901 325.628 428.994C325.908 428.057 326.35 427.168 326.928 426.38C326.855 427.159 326.195 428.347 326.321 428.972C326.797 428.222 327.203 428.269 327.704 427.345C328.457 425.967 329.527 424.861 329.962 423.203C330.04 422.993 330.141 422.791 330.261 422.602C330.947 421.366 331.547 420.083 332.053 418.766C333.278 415.919 334.357 413.065 335.831 410.212C336.485 409.039 337.049 407.816 337.518 406.56C337.683 406.073 337.928 405.614 338.239 405.207C338.797 404.446 339.236 403.595 339.535 402.697C339.703 402.129 339.982 401.593 340.349 401.13C340.24 401.931 339.969 402.719 339.557 403.434C338.342 405.479 338.291 406.953 337.592 408.757C337.885 408.442 338.146 408.093 338.369 407.717C339.17 406.175 339.99 404.636 340.742 403.07C341.392 401.763 342.207 400.399 342.318 399.175C342.412 398.764 342.565 398.364 342.771 397.99C343.373 396.772 343.896 395.518 344.337 394.237C345.071 392.117 346.302 390.219 347.327 388.226C347.621 387.818 347.848 387.361 347.997 386.88C348.169 384.806 349.695 383.095 350.686 381.241C350.826 380.96 350.995 380.881 351.094 380.914C351.194 380.947 351.191 381.117 351.078 381.428C350.882 381.958 350.363 382.865 350.467 382.958C350.85 383.271 350.243 384.477 350.059 385.314C350.434 384.852 350.706 384.304 350.849 383.726C351.471 381.327 352.36 378.983 353.492 376.752C353.59 376.555 353.673 376.351 353.741 376.142C354.426 374.038 355.398 371.823 356.24 369.65C356.369 369.323 356.663 368.801 356.33 368.782C354.074 373.455 352.233 378.392 349.126 383.032C349.688 381.536 350.343 380.072 351.086 378.652C352.316 376.268 353.403 373.812 354.339 371.305C354.551 370.726 354.778 369.543 355.331 369.777C355.418 369.698 355.49 369.6 355.541 369.49C355.979 368.281 356.872 367.185 357.232 366.093C357.965 364.081 358.856 362.123 359.895 360.245C361.162 357.697 362.459 355.09 363.782 352.65C365.224 349.985 366.244 347.207 367.763 344.646C367.948 344.324 368.098 343.982 368.208 343.628C368.984 341.41 369.886 339.231 370.907 337.105C371.823 335.059 372.464 333.112 373.221 330.986C372.357 331.844 372.31 333.174 371.629 333.952C371.627 333.681 371.696 333.404 371.828 333.154C372.332 332.141 372.839 331.122 373.34 330.116C373.84 329.11 374.412 329.182 374.765 328.143C375.109 327.095 375.575 326.085 376.149 325.14C376.173 325.076 376.204 325.014 376.24 324.957C376.813 324.279 377.202 323.445 377.35 322.575C378.05 319.818 379.08 317.129 380.41 314.585C380.569 314.274 380.694 313.948 380.784 313.613C381.442 311.454 382.366 309.184 383.246 306.948C384.322 304.223 385.848 301.526 386.835 298.814C387.974 298.158 388.263 297.756 389.128 295.578C389.498 294.629 389.799 293.694 390.122 292.755C390.423 291.863 390.769 290.985 391.158 290.124C392.579 287.049 393.913 283.955 395.411 280.902C395.56 280.578 395.683 280.244 395.778 279.903C395.882 279.571 395.904 279.28 395.763 279.275C395.622 279.271 395.391 279.694 395.226 280.011C393.577 283.217 391.729 286.259 390.255 289.634C389.763 290.727 389.207 291.79 388.59 292.816C388.017 293.775 387.518 294.779 387.098 295.815C385.651 299.361 383.987 302.821 382.119 306.168C379.961 310.025 378.026 314.026 376.114 318.047C375.11 320.148 374.162 322.26 373.11 324.361C372.058 326.462 371.1 328.717 369.905 330.804C369.75 331.06 369.616 331.329 369.505 331.607C368.815 333.346 368.018 335.045 367.121 336.689C366.304 338.47 365.408 340.215 364.439 341.916C362.534 345.044 360.893 348.303 359.178 351.599C358.54 352.703 357.971 353.848 357.475 355.023C357.081 356.09 357.772 354.975 357.803 355.186C357.27 356.176 356.825 357.455 356.095 357.784C355.909 357.975 355.755 358.2 355.642 358.447L353.273 363.21L353.442 363.295L355.659 359.181C355.437 360.004 355.105 360.801 354.675 361.544C353.074 364.571 351.902 367.68 350.357 370.718C350.071 371.293 349.809 371.929 350.014 372.12C350.28 371.648 350.5 371.15 350.67 370.637C350.916 370.254 351.151 369.89 351.333 369.923C351.514 369.957 351.329 370.329 351.249 370.64C350.781 372.445 349.724 374.405 349.027 376.259C349.002 376.33 348.968 376.399 348.927 376.462C348.657 377.004 348.315 377.567 348.03 377.605C347.745 377.643 347.769 377.198 348.016 376.522C348.139 376.192 348.341 375.869 348.45 375.499C348.559 375.129 348.79 374.65 348.518 374.718C347.583 376.364 347.079 378.159 346.078 379.87C345.835 379.521 346.756 378.259 346.459 378.046C344.581 381.271 343.115 384.727 342.111 388.297C343.35 386.15 343.938 383.883 345.283 381.838C344.71 383.566 343.902 385.259 343.197 386.938ZM363.386 352.404C362.906 353.126 362.528 353.916 362.264 354.74C362.235 354.869 362.184 354.993 362.113 355.107C362.043 355.22 361.955 355.319 361.854 355.4C361.651 355.478 361.773 355.082 361.919 354.748C362.058 354.407 362.222 354.077 362.41 353.761C363.062 352.694 363.659 351.591 364.196 350.46C364.047 351.146 363.771 351.809 363.386 352.404ZM332.431 416.606C332.542 416.727 332.321 417.309 332.046 417.629C331.771 417.949 331.79 417.567 331.795 417.309C331.917 416.429 332.219 415.563 332.677 414.781C332.562 415.424 332.165 416.319 332.431 416.606ZM341.958 391.033C341.664 392.044 341.186 393.004 340.557 393.849C340.875 392.846 341.35 391.891 341.958 391.033ZM343.457 392.879C343.745 391.839 344.167 390.832 344.71 389.891C344.61 390.738 343.986 391.609 343.457 392.879ZM325.29 429.013C325.16 429.372 325.288 429.827 324.814 430.081C324.543 430.214 324.885 429.553 325.04 429.174L325.602 427.824C325.729 428.172 325.419 428.645 325.29 429.013ZM363.866 349.489C364.124 348.681 364.485 347.905 364.937 347.185C364.746 348.014 364.378 348.805 363.866 349.489ZM356.761 365.255C356.527 366.411 356.406 366.709 355.453 368.338C355.928 367.368 356.273 366.414 356.761 365.255ZM335.187 408.954C335.173 409.282 335.101 409.613 334.975 409.928C334.848 410.243 334.671 410.535 334.451 410.789C334.586 410.145 334.836 409.52 335.187 408.954ZM343.128 388.077C343.215 387.819 343.356 387.522 343.519 387.457C343.681 387.391 343.491 387.745 343.427 387.916C343.28 388.21 343.121 388.53 342.973 388.938C342.953 388.652 343.006 388.354 343.128 388.077ZM384.545 303.266C384.411 303.248 384.583 302.902 384.695 302.664C384.778 302.494 384.878 302.333 384.994 302.186C385.098 302.237 384.944 302.56 384.846 302.813C384.748 303.065 384.623 303.289 384.539 303.279L384.545 303.266ZM331.689 415.422C331.606 415.574 331.5 415.712 331.378 415.83C331.262 415.911 331.252 415.767 331.365 415.538C331.452 415.311 331.601 415.113 331.789 414.975C331.834 415.062 331.795 415.238 331.683 415.435L331.689 415.422ZM353.17 367.74C353.082 367.615 353.201 367.307 353.358 366.978C353.406 366.88 353.539 366.709 353.558 366.727C353.689 366.792 353.509 367.167 353.386 367.456C353.321 367.563 353.247 367.663 353.163 367.753L353.17 367.74ZM362.498 348.548C362.445 348.676 362.383 348.8 362.313 348.92C362.235 349.077 362.218 349.028 362.322 348.819L362.648 348.165C362.602 348.299 362.55 348.431 362.492 348.561L362.498 348.548ZM336.654 399.267C336.768 399.039 336.883 398.917 336.95 398.974C337.017 399.032 336.968 399.212 336.867 399.414C336.767 399.617 336.648 399.745 336.574 399.716C336.557 399.652 336.553 399.581 336.564 399.51C336.574 399.44 336.598 399.37 336.634 399.306L336.654 399.267ZM340.485 399.127C340.469 399.213 340.437 399.297 340.39 399.373C340.343 399.448 340.283 399.513 340.213 399.563C340.213 399.563 340.166 399.466 340.192 399.373C340.24 399.195 340.338 399.031 340.471 398.908C340.474 398.983 340.494 399.067 340.465 399.166L340.485 399.127ZM368.419 340.734C368.325 340.923 368.205 341.165 368.124 341.149C368.151 340.98 368.2 340.812 368.269 340.651C368.298 340.559 368.342 340.471 368.4 340.393C368.457 340.315 368.527 340.249 368.604 340.198C368.532 340.399 368.477 340.591 368.4 340.773L368.419 340.734Z" fill="#141414"/>
</g>
<g clip-path="url(#clip4_1681_2562)">
<path d="M357.594 185.925C355.327 188.058 353.241 190.267 350.932 191.718C345.052 196.686 339.102 201.524 333.34 206.954C331.61 208.635 329.78 210.254 327.907 211.762C328.761 210.688 331.109 208.772 332.493 207.122C326.373 212.379 321.181 217.307 315.693 222.179C315.318 222.496 314.965 222.84 314.658 223.189C314.35 223.537 314.096 223.882 313.913 224.198L320.249 218.599C318.532 220.658 316.364 222.707 314.101 224.409C312.545 225.529 311.004 226.85 309.619 228.251C308.246 229.656 306.743 231.009 305.195 232.234C303.449 233.638 301.739 235.136 300.106 236.691C298.909 237.873 297.677 239.037 296.415 240.175C292.894 243.316 289.343 246.423 285.851 249.597C284.589 250.723 282.915 252.275 282.249 252.393C281.849 252.453 280.712 253.541 279.874 254.303C276.226 257.632 272.785 260.938 269.298 264.219C266.205 267.153 263.029 270.028 259.794 272.822C256.32 275.787 252.936 278.752 249.619 281.74C248.592 282.683 247.538 283.6 246.469 284.483C244.344 286.237 242.268 288.088 240.284 289.999C236.255 293.803 232.135 297.54 227.945 301.19C220.302 307.865 213.225 314.489 205.998 321.097C198.026 328.394 190.069 335.505 181.857 342.584C179.3 344.798 176.861 346.891 174.331 348.983C172.103 350.83 171.176 351.797 171.163 352.24C171.112 353.2 174.185 351.411 178.266 348.136C182.786 344.448 187.267 340.661 191.69 336.788C195.528 333.469 199.344 330.126 203.169 326.945C205.251 325.214 212.917 318.31 214.945 316.442C216.972 314.575 218.57 313.901 220.865 311.571C220.988 311.506 221.229 311.343 221.213 311.402C221.121 311.908 222.533 310.671 223.669 309.658C226.016 307.564 228.439 305.403 230.645 303.354C234.028 300.16 237.485 297.02 240.998 293.95C242.698 292.515 244.348 291.001 245.908 289.444C247.958 287.296 250.582 284.904 252.767 282.703C253.755 281.677 254.84 280.687 255.964 279.784C255.786 280.27 253.91 282.003 254.607 281.82C256.892 279.486 259.32 277.206 261.833 275.033C265.53 271.937 268.882 268.784 272.389 265.678C273.533 264.617 274.701 263.576 275.885 262.56C277.582 261.16 279.224 259.658 280.752 258.108C282.317 256.51 284.035 254.978 285.801 253.605C284.708 254.922 282.324 256.974 281.689 258.016C283.272 256.716 283.744 256.763 285.584 255.167C288.335 252.788 291.152 250.84 293.844 248.015C294.215 247.655 294.606 247.307 295.006 246.979C297.486 244.845 299.914 242.638 302.263 240.38C307.511 235.492 312.577 230.602 318.16 225.682C320.518 223.655 322.823 221.553 325.044 219.401C325.883 218.569 326.792 217.776 327.72 217.066C329.426 215.741 331.091 214.273 332.63 212.739C333.578 211.769 334.629 210.845 335.703 210.036C334.536 211.392 333.173 212.741 331.718 213.977C327.509 217.515 325.556 220.001 322.331 223.092C323.118 222.539 323.907 221.93 324.68 221.28C327.702 218.622 330.748 215.964 333.737 213.269C336.262 211.018 339.074 208.658 340.786 206.588C341.435 205.889 342.148 205.203 342.896 204.558C345.244 202.46 347.535 200.307 349.751 198.117C353.426 194.489 357.469 191.196 361.362 187.761C362.27 187.051 363.153 186.263 363.962 185.443C366.841 181.938 371.031 178.937 374.703 175.737C375.246 175.253 375.568 175.106 375.656 175.154C375.744 175.202 375.524 175.488 374.978 176.019C374.043 176.928 372.201 178.496 372.219 178.643C372.322 179.139 369.983 181.217 368.67 182.642C369.753 181.833 370.81 180.89 371.737 179.906C375.623 175.818 379.787 171.802 384.126 167.957C384.507 167.618 384.877 167.267 385.232 166.911C388.823 163.315 392.93 159.51 396.814 155.786C397.402 155.225 398.455 154.322 398.043 154.318C389.107 162.363 380.377 170.817 370.365 178.877C373.017 176.313 375.749 173.797 378.539 171.349C383.202 167.237 387.769 163.018 392.205 158.722C393.224 157.731 395.035 155.722 395.46 156.071C395.676 155.931 395.896 155.76 396.103 155.572C398.223 153.503 400.797 151.587 402.666 149.719C406.202 146.275 409.875 142.909 413.64 139.664C418.562 135.274 423.598 130.783 428.453 126.572C433.754 121.971 438.644 117.215 443.914 112.783C444.569 112.225 445.203 111.638 445.799 111.035C449.655 107.239 453.625 103.5 457.683 99.8409C461.503 96.3231 464.834 92.995 468.546 89.3571C466.316 90.8705 464.553 93.1118 462.665 94.4759C463.008 94.0201 463.453 93.5483 463.946 93.1175C465.903 91.3728 467.871 89.6168 469.815 87.8833C471.759 86.1498 472.416 86.2257 474.208 84.4491C476 82.6584 477.904 80.9207 479.866 79.2837C479.979 79.1742 480.098 79.0683 480.219 78.9686C481.838 77.7819 483.415 76.347 484.722 74.8707C489.167 70.1753 493.957 65.5677 498.956 61.1795C499.562 60.6437 500.144 60.0845 500.689 59.5149C504.314 55.829 508.431 51.9339 512.445 48.101C517.342 43.4286 522.793 38.7677 527.558 34.1245C529.89 32.9288 530.784 32.2285 534.705 28.4939C536.403 26.8672 537.993 25.2707 539.62 23.6641C541.155 22.1391 542.732 20.6329 544.344 19.1535C550.141 13.8642 555.849 8.55075 561.719 3.29284C562.329 2.73618 562.918 2.16334 563.479 1.58204C564.039 1.0157 564.439 0.524678 564.261 0.527775C564.082 0.530832 563.238 1.26132 562.616 1.80875C556.352 7.33627 550.037 12.604 543.786 18.4015C541.743 20.2795 539.654 22.1135 537.532 23.8899C535.554 25.5506 533.615 27.28 531.739 29.0565C525.305 35.1399 518.697 41.0959 511.966 46.8777C504.201 53.5428 496.544 60.4312 488.893 67.3514C484.889 70.967 480.944 74.5974 476.876 78.2178C472.808 81.8383 468.669 85.7086 464.431 89.3167C463.9 89.7604 463.38 90.2241 462.879 90.7012C459.749 93.6829 456.531 96.6049 453.251 99.4443C449.901 102.507 446.495 105.515 443.046 108.456C436.547 113.873 430.226 119.489 423.761 125.173C421.511 127.082 419.301 129.054 417.147 131.071C415.265 132.899 417.598 130.967 417.369 131.32C415.403 133.028 413.184 135.215 411.805 135.828C411.317 136.165 410.827 136.557 410.363 136.981L401.162 145.187L401.276 145.315L409.446 138.215C408.102 139.617 406.647 140.985 405.132 142.27C399.161 147.492 393.647 152.818 387.734 158.055C386.624 159.045 385.467 160.136 385.491 160.442C386.444 159.625 387.369 158.77 388.248 157.894C389.06 157.229 389.834 156.598 390.03 156.639C390.225 156.681 389.506 157.322 389.004 157.852C386.081 160.927 382.187 164.31 378.902 167.486C378.777 167.608 378.646 167.726 378.51 167.835C377.463 168.769 376.294 169.745 375.872 169.831C375.45 169.917 376.05 169.167 377.239 168.01C377.822 167.445 378.501 166.884 379.117 166.254C379.732 165.623 380.65 164.797 380.205 164.933C376.873 167.778 373.916 170.84 370.414 173.799C370.542 173.231 373.364 171.034 373.247 170.7C366.659 176.278 360.315 182.211 354.432 188.299C358.802 184.586 362.474 180.725 366.854 177.175C363.892 180.129 360.666 183.043 357.594 185.925ZM428.248 126.19C426.696 127.444 425.189 128.802 423.79 130.211C423.587 130.43 423.36 130.643 423.123 130.84C422.885 131.036 422.642 131.211 422.408 131.354C422.041 131.502 422.707 130.826 423.327 130.251C423.945 129.667 424.583 129.098 425.233 128.551C427.454 126.703 429.646 124.8 431.798 122.853C430.726 124.019 429.515 125.157 428.248 126.19ZM305.521 236.716C305.513 236.91 304.477 237.908 303.707 238.468C302.938 239.028 303.451 238.384 303.789 237.949C305.074 236.458 306.577 234.977 308.18 233.624C307.205 234.716 305.54 236.254 305.521 236.716ZM350.731 192.915C349.051 194.641 347.197 196.295 345.291 197.767C346.991 196.054 348.835 194.409 350.731 192.915ZM350.335 195.901C352.042 194.129 353.885 192.4 355.8 190.774C354.586 192.206 352.652 193.723 350.335 195.901ZM280.285 258.168C279.654 258.782 279.24 259.538 278.295 260.002C277.767 260.249 279.062 259.11 279.75 258.458L282.216 256.141C281.936 256.717 280.924 257.538 280.285 258.168ZM432.608 121.245C433.979 119.866 435.446 118.53 436.96 117.283C435.649 118.692 434.154 120.053 432.608 121.245ZM403.12 148.348C401.336 150.311 400.795 150.823 397.461 153.64C399.326 151.97 400.997 150.338 403.12 148.348ZM318.924 223.617C318.486 224.17 317.969 224.733 317.4 225.273C316.832 225.813 316.225 226.32 315.612 226.764C316.613 225.67 317.74 224.598 318.924 223.617ZM356.046 187.848C356.491 187.407 357.055 186.896 357.353 186.772C357.65 186.648 356.948 187.259 356.644 187.553C356.076 188.059 355.458 188.611 354.742 189.308C355.081 188.828 355.533 188.323 356.046 187.848ZM518.859 41.8008C518.706 41.7814 519.374 41.1848 519.825 40.7754C520.152 40.4823 520.489 40.2036 520.83 39.946C520.9 40.0246 520.286 40.5803 519.833 41.0134C519.381 41.4465 518.932 41.8321 518.834 41.8233L518.859 41.8008ZM306.063 234.783C305.759 235.045 305.444 235.286 305.133 235.493C304.878 235.639 305.048 235.398 305.49 235.004C305.894 234.615 306.343 234.269 306.767 234.022C306.714 234.166 306.437 234.465 306.038 234.805L306.063 234.783ZM395.232 152.817C395.277 152.614 395.827 152.086 396.454 151.519C396.643 151.351 397.035 151.053 397.037 151.081C397.126 151.18 396.41 151.826 395.879 152.323C395.657 152.508 395.432 152.681 395.207 152.84L395.232 152.817ZM432.018 119.771C431.785 119.991 431.544 120.205 431.299 120.413C430.996 120.683 431.037 120.602 431.441 120.242L432.703 119.116C432.472 119.345 432.235 119.571 431.993 119.794L432.018 119.771ZM333.241 207.198C333.682 206.804 333.99 206.59 334.003 206.682C334.017 206.773 333.724 207.08 333.333 207.429C332.941 207.778 332.622 208.003 332.561 207.961C332.622 207.853 332.707 207.735 332.812 207.615C332.916 207.495 333.037 207.376 333.165 207.266L333.241 207.198ZM338.444 206.655C338.313 206.801 338.163 206.945 338.005 207.076C337.847 207.206 337.685 207.321 337.531 207.41C337.531 207.41 337.592 207.25 337.745 207.092C338.036 206.788 338.374 206.505 338.705 206.288C338.614 206.414 338.534 206.552 338.368 206.722L338.444 206.655ZM449.779 106.147C449.413 106.473 448.946 106.89 448.86 106.87C449.112 106.582 449.391 106.295 449.688 106.02C449.844 105.862 450.015 105.711 450.189 105.575C450.364 105.439 450.54 105.322 450.707 105.23C450.355 105.573 450.037 105.902 449.703 106.214L449.779 106.147Z" fill="#141414"/>
<path d="M320.107 224.615C319.756 225.025 319.33 225.431 318.882 225.782C318.604 226.03 318.497 226.036 318.657 225.834C319.014 225.425 319.437 225.023 319.882 224.667C320.174 224.436 320.245 224.44 320.107 224.615Z" fill="#141414"/>
</g>
<g clip-path="url(#clip5_1681_2562)">
<path d="M514.382 355.49C519.063 357.786 523.872 359.921 528.734 361.861C533.099 363.695 537.509 365.364 541.903 366.846C543.989 367.462 546.121 368.271 548.177 369.228C549.066 369.632 549.969 370.006 550.877 370.345C553.263 371.308 555.633 372.326 557.977 373.394C560.657 374.556 562.369 375.601 562.364 375.979C562.341 377.72 557.878 377.845 547.056 374.091C544.519 373.204 542.003 372.46 539.563 371.875C535.274 370.898 530.729 369.386 526.29 367.462C525.486 367.113 524.373 366.631 524.266 366.768C523.928 367.144 521.966 366.199 520.077 365.415C518.02 364.501 515.927 363.675 513.837 362.953C510.851 362.02 509.937 361.63 507.945 360.351C506.396 359.407 504.763 358.499 503.069 357.643C499.183 355.591 494.459 353.453 490.958 351.431C490.341 351.118 489.704 350.826 489.059 350.56C488.375 350.223 487.643 349.967 486.972 349.827C486.539 349.8 486.873 350.057 487.508 350.428C488.144 350.798 488.709 351.109 489.211 351.421C489.712 351.734 489.53 351.75 488.961 351.556C487.529 351.048 486.103 350.43 484.753 349.732C483.535 349.127 482.63 348.497 483.35 348.637C485.582 349.07 483.298 347.837 482.216 347.029C481.792 346.721 480.958 346.258 481.273 346.193C482.55 346.479 484.409 347.552 485.695 347.89C485.134 347.431 484.44 346.984 483.672 346.587C482.904 346.19 482.082 345.854 481.273 345.605C475.482 343.456 469.705 341.137 463.984 338.667C463.025 338.211 462.02 337.842 461.058 337.594C459.73 337.331 458.269 336.819 456.912 336.141C456.561 335.956 456.183 335.8 455.811 335.685C455.439 335.57 455.084 335.501 454.778 335.483C454.358 335.497 454.159 335.589 455.016 336.109C456.406 336.947 457.933 337.716 459.511 338.372C460.57 338.831 461.636 339.234 462.69 339.668C463.381 339.92 464.048 340.27 464.571 340.655C464.932 340.996 464.308 340.856 463.425 340.58C461.749 340.033 460.061 339.359 458.431 338.587C456.985 337.918 455.787 337.524 455.389 337.636C454.99 337.748 456.196 338.271 457.23 338.749C457.954 339.062 458.33 339.333 458.24 339.43C458.15 339.528 457.557 339.353 456.901 339.105C456.11 338.817 455.32 338.501 454.541 338.159C451.986 336.983 449.382 335.894 446.766 334.906C445.065 334.276 443.9 333.622 444.119 333.373C444.339 333.124 443.409 332.661 441.999 331.985C438.044 330.092 434.013 328.374 429.958 326.527C429.352 326.246 428.727 326.001 428.107 325.801C426.015 325.304 423.38 324.037 420.974 323.088C418.22 322.031 415.523 320.746 413.057 319.318C408.612 316.752 403.851 314.378 398.947 312.28C395.168 310.641 391.584 308.737 387.529 307.33C386.492 306.969 384.942 306.137 384.605 306.364C384.448 306.469 383.488 306.04 382.707 305.749C379.584 304.528 376.501 303.144 373.539 301.632C367.991 298.881 362.252 296.365 356.457 294.143C354.387 293.364 352.347 292.431 350.438 291.391C349.267 290.752 348.137 290.274 347.577 290.316C347.017 290.359 345.598 289.814 344.07 289.188C340.018 287.52 336.03 285.702 331.928 284.149C329.374 283.172 326.94 281.956 325.97 281.037C325.502 280.604 324.849 280.177 324.109 279.821C321.968 278.738 319.857 277.621 317.563 276.561C314.832 275.294 311.847 273.881 309.295 273.232C308.664 273.055 308.013 272.799 307.404 272.489C305.119 271.386 302.767 270.377 300.398 269.481C298.055 268.533 295.75 267.468 293.542 266.313C288.949 263.93 284.248 261.646 279.472 259.476C274.791 257.31 270.313 255.191 266.022 253.009C262.514 251.232 258.852 249.629 255.158 248.252C250.844 246.672 246.538 244.956 242.276 243.118C240.574 242.38 238.859 241.636 237.144 240.893C233.362 239.188 229.531 237.583 225.679 236.088C220.578 234.181 215.525 231.958 210.692 229.495C208.607 228.436 206.479 227.42 204.321 226.454C201.916 225.419 199.566 224.275 197.328 223.048C195.376 221.958 193.321 220.937 191.211 220.01C187.375 218.246 183.298 216.526 179.914 214.637C178.443 213.855 176.887 213.15 175.31 212.552C171.203 210.944 167.135 209.168 163.168 207.252C161.895 206.632 160.595 206.045 159.281 205.496C157.254 204.71 155.307 203.694 153.685 202.577C151.327 200.97 148.721 199.43 145.955 198.008C145.126 197.571 143.631 196.87 144.106 196.839C144.582 196.807 145.896 197.484 146.828 197.906L147.978 198.446C154.3 201.306 160.413 204.318 166.951 207.046C167.997 207.495 169.03 207.97 170.043 208.47C173.699 210.245 177.558 211.882 181.331 213.571C185.45 215.417 189.834 217.092 193.557 219.152C193.81 219.276 194.071 219.39 194.335 219.489C198.22 221.066 201.934 222.926 205.704 224.513C212.718 227.465 219.615 230.651 226.636 233.588C229.798 234.923 232.945 236.146 236.135 237.564C241.469 239.948 247.129 242.206 252.301 244.817C253.32 245.33 254.673 245.845 255.821 246.391C260.281 248.397 264.688 250.49 269.023 252.66C270.942 253.655 272.905 254.61 274.9 255.517C277.855 256.852 280.854 258.235 283.592 259.594C285.576 260.58 287.595 261.527 289.638 262.429C294.281 264.496 298.652 265.982 303.279 267.94C306.526 269.255 309.729 270.706 312.834 272.267C313.537 272.656 314.283 273.016 315.046 273.333C318.305 274.627 321.541 276.196 324.809 277.435C326.244 277.995 327.66 278.633 329.018 279.331C330.459 280.081 332.003 280.719 333.526 281.197C336.497 282.085 339.523 283.227 342.461 284.566C344.122 285.286 345.65 285.949 346.517 286.004C346.777 286.043 347.061 286.113 347.351 286.211C348.877 286.695 349.896 287.244 349.744 287.522C349.683 287.662 350.014 287.853 350.738 288.166C352.747 289.114 354.825 289.941 356.888 290.613C358.286 291.05 359.704 291.623 361.048 292.292C362.043 292.792 363.061 293.267 364.093 293.714C368.268 295.393 372.436 297.052 376.569 298.683C378.417 299.413 380.314 300.069 382.292 300.868C384.492 301.792 386.71 302.653 388.928 303.442C390.374 303.885 391.84 304.575 393.026 305.373C394.169 306.143 395.546 306.83 396.953 307.331C397.881 307.71 398.803 308.11 399.714 308.528C400.956 309.146 402.291 309.616 403.511 309.866C404.057 309.93 404.691 310.109 405.313 310.374C407.959 312.056 408.247 312.198 412.268 313.609C413.833 314.178 415.396 314.794 416.945 315.453C420.316 316.909 423.72 318.272 427.132 319.531C429.814 320.457 432.497 321.553 435.099 322.784C441.267 325.622 447.615 328.097 453.904 330.118C455.824 330.645 457.821 331.472 459.6 332.475C460.166 332.799 460.779 333.093 461.406 333.341C465.189 334.749 467.88 336.326 471 337.833C471.575 338.115 472.139 338.409 472.688 338.713C474.03 339.45 475.516 340.057 476.948 340.453C476.302 339.924 474.49 339.073 474.852 338.898C478.858 340.124 483.584 342.149 487.875 343.891C491.175 345.238 494.349 346.436 497.47 347.718C498.067 347.811 497.468 347.468 497.33 347.307C497.193 347.147 497.43 347.078 498.171 347.387C501.032 348.566 503.855 349.85 506.602 351.221C507.411 351.631 507.422 351.79 506.481 351.5C505.934 351.329 505.141 350.919 504.691 350.855C507.645 352.486 511.316 353.971 514.382 355.49ZM487.764 344.697C485.862 344.094 483.938 343.293 482.141 342.355C481.475 341.983 480.721 341.693 480.027 341.539C479.99 341.534 479.957 341.535 479.932 341.541C479.908 341.547 479.891 341.559 479.884 341.575C479.877 341.591 479.88 341.611 479.893 341.633C479.905 341.655 479.927 341.679 479.956 341.704C480.23 341.989 481.088 342.361 481.878 342.668L490.869 346.127C489.917 345.56 488.843 345.066 487.764 344.697ZM502.269 356.258C502.609 356.481 502.995 356.687 503.4 356.863C503.805 357.038 504.219 357.179 504.614 357.274C505.423 357.465 505.834 357.435 504.538 356.79C503.018 356.036 501.975 355.358 499.901 354.34C500.513 354.982 501.32 355.635 502.269 356.258ZM423.527 323.697C421.508 322.485 419.392 321.319 417.205 320.214C417.387 321.153 420.885 322.486 423.527 323.697ZM384.483 305.581C385.428 306.045 386.849 306.732 387.208 306.638C387.567 306.545 385.951 305.867 384.986 305.449C384.271 305.084 383.508 304.778 382.762 304.556C382.568 304.71 383.692 305.203 384.481 305.586L384.483 305.581ZM510.714 354.772C510.905 354.847 511.098 354.91 511.285 354.961C510.936 354.809 510.612 354.639 510.25 354.482C510.018 354.395 509.786 354.316 509.557 354.247C510.006 354.459 510.363 354.626 510.712 354.777L510.714 354.772ZM328.793 282.053C328.639 282.076 328.964 282.246 329.39 282.401C329.564 282.477 329.778 282.498 329.775 282.467C329.773 282.437 329.5 282.295 329.334 282.199C329.169 282.104 328.846 282.041 328.793 282.053Z" fill="#141414"/>
</g>
<defs>
<clipPath id="clip0_1681_2562">
<rect width="442.251" height="176.158" fill="white" transform="translate(261.532 16.9199) rotate(45)"/>
</clipPath>
<clipPath id="clip1_1681_2562">
<rect width="735.481" height="9.17484" fill="white" transform="translate(4.04785 61.459) rotate(26.1794)"/>
</clipPath>
<clipPath id="clip2_1681_2562">
<rect width="516.025" height="6.6934" fill="white" transform="translate(158.682 15.2988) rotate(36.9759)"/>
</clipPath>
<clipPath id="clip3_1681_2562">
<rect width="227.601" height="7.11408" fill="white" transform="translate(293.712 482.709) rotate(-63.5522)"/>
</clipPath>
<clipPath id="clip4_1681_2562">
<rect width="527.438" height="6.45922" fill="white" transform="translate(170.181 351.064) rotate(-41.7286)"/>
</clipPath>
<clipPath id="clip5_1681_2562">
<rect width="455.265" height="10.3754" fill="white" transform="matrix(-0.917477 -0.397788 -0.397788 0.917477 562.753 375.412)"/>
</clipPath>
</defs>
</svg>
