<svg width="149" height="53" viewBox="0 0 149 53" fill="none" xmlns="http://www.w3.org/2000/svg">
<g clip-path="url(#clip0_1681_2093)">
<path d="M56.048 15.2621C55.3442 15.1774 54.613 15.2812 54.1414 14.6626C52.5076 14.0277 50.9186 13.2452 49.1273 13.0347C48.5721 13.0091 48.0391 12.8653 47.5439 12.6077C47.9009 12.4408 48.53 12.7448 49.0778 12.5401C47.348 11.9422 45.7221 11.7792 44.1173 11.3591C44.0133 11.3184 43.8996 11.3141 43.784 11.3463C43.6684 11.3785 43.5538 11.4465 43.448 11.5455L45.2918 12.0499C44.6082 12.3118 43.9322 12.2372 43.3747 11.8385C43.0085 11.5266 42.574 11.3738 42.1109 11.3938C41.6462 11.4257 41.2006 11.3245 40.7986 11.0957C40.3374 10.855 39.8444 10.709 39.3313 10.6612C38.9409 10.6578 38.5568 10.6147 38.1816 10.532C37.1471 10.273 36.1242 9.96803 35.0782 9.75496C34.7075 9.66212 34.1954 9.58274 34.1614 9.18357C34.1448 8.93525 33.7856 8.90635 33.5343 8.85563C32.4372 8.64198 31.3456 8.56397 30.2633 8.43334C29.2952 8.33507 28.3478 8.13252 27.4284 7.82724C26.4532 7.47318 25.477 7.18603 24.4924 6.9639C24.1816 6.90766 23.8797 6.8137 23.5895 6.6829C23.0133 6.42262 22.4036 6.26996 21.7728 6.22798C20.5176 6.08704 19.2859 5.8296 18.0847 5.4571C15.8874 4.79092 13.7025 4.5002 11.524 4.08901C9.11885 3.63936 6.7764 3.06501 4.44722 2.28036C3.71861 2.04298 3.02997 1.80342 2.34231 1.49694C1.73562 1.22905 1.41538 1.26484 1.26523 1.58126C0.940017 2.25061 1.51972 3.17706 2.59493 3.74539C3.80612 4.33106 5.05169 4.81409 6.32644 5.19247C7.41862 5.5514 8.51944 5.87587 9.56492 6.32688C10.1337 6.57307 12.4084 7.0877 13.0242 7.19308C13.6401 7.29846 13.8545 7.96865 14.6247 7.92956C14.6457 7.97145 14.6987 8.02744 14.679 8.05912C14.508 8.36423 14.9152 8.48452 15.2489 8.56808C15.9386 8.74076 16.6505 8.91901 17.3263 9.02108C18.38 9.13991 19.4149 9.35215 20.4256 9.65676C20.8975 9.84175 21.3966 9.93185 21.9109 9.92491C22.6216 9.8404 23.4103 9.99516 24.1377 9.96977C24.4769 9.93652 24.8035 9.99965 25.0998 10.1557C24.9364 10.3834 24.3651 10.2892 24.4211 10.6633C25.1925 10.6139 25.9447 10.708 26.66 10.9432C27.6778 11.3628 28.718 11.489 29.7407 11.7634C30.0907 11.8175 30.4336 11.9033 30.7678 12.0206C31.2279 12.2286 31.723 12.3217 32.2353 12.2965C32.7637 12.2625 33.2684 12.3889 33.7184 12.6678C33.2815 12.8392 32.6063 12.6091 32.2584 12.9126C32.6854 13.1111 32.6653 13.4906 33.1906 13.6588C33.9733 13.9158 34.6093 14.539 35.544 14.4251C35.6629 14.4309 35.7775 14.4596 35.8851 14.5105C36.5875 14.7501 37.3149 14.8976 38.0601 14.9513C39.6724 15.1841 41.2867 15.2832 42.9066 15.7376C43.5735 15.9676 44.2664 16.1023 44.9769 16.14C45.2518 16.1405 45.5128 16.2203 45.7455 16.3752C46.1802 16.6447 46.6633 16.7802 47.1703 16.7747C47.491 16.7528 47.7954 16.8395 48.0604 17.0281C47.6104 17.1747 47.1649 17.1718 46.7583 17.0195C45.595 16.5512 44.769 16.9547 43.7484 16.8762C43.9292 17.0434 44.1288 17.1714 44.3426 17.2569C45.2179 17.5066 46.0925 17.7745 46.9807 17.9724C47.7222 18.1581 48.4981 18.4745 49.1852 18.2009C49.4167 18.1603 49.6431 18.1757 49.8554 18.2467C50.5464 18.4165 51.2567 18.5046 51.9801 18.5101C53.1786 18.5233 54.2602 19.0505 55.3912 19.3643C55.6244 19.5036 55.8837 19.5686 56.155 19.5555C57.3188 19.0778 58.2999 19.9278 59.3533 20.2526C59.5127 20.2925 59.5596 20.4202 59.5425 20.5197C59.5255 20.6192 59.4304 20.6686 59.2549 20.6613C58.955 20.6473 58.4392 20.4571 58.389 20.5788C58.2198 21.0186 57.5353 20.8411 57.0637 20.9306C57.3285 21.126 57.639 21.2038 57.9647 21.1562C59.3176 20.9841 60.6433 21.0679 61.9095 21.4054C62.0214 21.4331 62.1369 21.4457 62.2547 21.443C63.4432 21.4171 64.6978 21.6152 65.9272 21.7094C66.1123 21.7253 66.4092 21.8301 66.4144 21.5262C63.7638 20.9236 60.9722 20.7739 58.3263 19.3972C59.1727 19.4465 60.0022 19.5889 60.8083 19.8234C62.1621 20.2013 63.5534 20.4293 64.9717 20.5058C65.2989 20.5206 65.9647 20.3638 65.8423 20.9313C65.8879 20.9853 65.9439 21.0202 66.0059 21.0333C66.6892 21.0579 67.3166 21.5263 67.9339 21.5161C69.0714 21.5618 70.181 21.766 71.2485 22.1263C72.6945 22.4884 74.1738 22.8588 75.5598 23.3035C77.074 23.7864 78.6445 23.8561 80.1017 24.4408C80.2851 24.5085 80.4789 24.5386 80.6782 24.5302C81.932 24.5515 83.1657 24.6972 84.3712 24.9666C85.5311 25.1655 86.6309 25.1479 87.8324 25.1802C87.3387 24.6659 86.5937 25.0287 86.1476 24.6545C86.2992 24.5697 86.4554 24.5473 86.5972 24.5901C87.1719 24.734 87.7503 24.8788 88.3213 25.0218C88.8923 25.1647 88.8607 25.7001 89.4476 25.7006C90.0394 25.691 90.6121 25.8016 91.1502 26.0292C91.1864 26.0311 91.2213 26.0398 91.254 26.0552C91.6424 26.3634 92.1153 26.4583 92.6046 26.3263C94.1586 26.1149 95.6796 26.2205 97.1243 26.6401C97.3007 26.6877 97.4853 26.7011 97.6738 26.68C98.8924 26.6128 100.178 26.7515 101.443 26.8607C102.985 26.9966 104.518 27.5453 106.051 27.6058C106.436 28.4285 106.666 28.5654 107.899 28.6787C108.435 28.7216 108.963 28.7072 109.494 28.7119C109.998 28.7101 110.495 28.753 110.983 28.8405C112.726 29.1794 114.478 29.4351 116.21 29.8505C116.394 29.886 116.583 29.8946 116.775 29.876C116.963 29.8679 117.126 29.7989 117.126 29.6708C117.127 29.5428 116.886 29.4643 116.706 29.413C114.886 28.9085 113.155 28.1758 111.243 27.8802C110.624 27.7711 110.02 27.5954 109.436 27.3545C108.89 27.1324 108.32 26.9897 107.734 26.9284C105.727 26.7089 103.764 26.2685 101.862 25.6107C99.6692 24.8479 97.3997 24.3285 95.1193 23.8368C93.9279 23.5751 92.731 23.367 91.5385 23.0623C90.3461 22.7576 89.0695 22.5844 87.8827 22.1469C87.7368 22.0858 87.5841 22.0476 87.4267 22.0327C86.4426 21.9422 85.4796 21.7439 84.5452 21.4394C83.5358 21.248 82.5453 20.9755 81.5778 20.6231C79.7973 19.866 77.9477 19.3845 76.0763 18.8488C75.4483 18.6122 74.7989 18.4496 74.1334 18.3623C73.53 18.3333 74.1649 18.6143 74.0471 18.7069C73.4848 18.5295 72.7623 18.5195 72.5665 17.9638C72.4568 17.8553 72.3281 17.7857 72.1883 17.7593L69.4853 17.0825L69.4408 17.2605L71.7777 17.9983C71.3138 18.0492 70.8624 17.9938 70.4398 17.8342C68.721 17.3183 66.9623 17.2137 65.238 16.7514C64.9117 16.6697 64.5517 16.6284 64.4476 16.8709C64.7164 16.9652 64.9983 17.0112 65.288 17.0081C65.5063 17.1116 65.7136 17.2123 65.6978 17.3854C65.6821 17.5585 65.4707 17.5055 65.2955 17.5288C64.2779 17.6586 63.1643 17.3065 62.1158 17.2453C62.0755 17.2444 62.0368 17.2347 62.0009 17.2166C61.6931 17.1395 61.3724 17.0042 61.3469 16.7598C61.3214 16.5154 61.5707 16.4008 61.9528 16.4171C62.1394 16.4272 62.3236 16.51 62.5322 16.4951C62.7408 16.4802 63.0129 16.5422 62.9706 16.3179C62.0347 15.9798 61.0221 16.0742 60.0489 15.6962C60.2405 15.3719 60.961 15.8148 61.0755 15.4833C59.2411 14.7791 57.2841 14.5155 55.2704 14.7011C56.4914 15.1595 57.7692 14.9972 58.9349 15.5821C57.9587 15.594 56.9986 15.3841 56.048 15.2621ZM75.6913 22.8725C75.2796 22.6623 74.8319 22.5626 74.3664 22.5774C74.2939 22.5902 74.2234 22.5821 74.1589 22.5534C74.0944 22.5246 74.0373 22.4759 73.9907 22.4101C73.9436 22.2518 74.1671 22.2406 74.3568 22.2698C74.5495 22.2905 74.7369 22.3374 74.9166 22.41C75.5241 22.6706 76.1505 22.8703 76.7922 23.0078C76.4059 23.0834 76.0304 23.0373 75.6913 22.8725ZM39.2746 14.6329C39.209 14.769 38.8794 14.7475 38.6963 14.5979C38.5131 14.4483 38.727 14.3492 38.8715 14.2756C39.3661 14.1163 39.8553 14.1239 40.3002 14.2976C39.9382 14.3901 39.4313 14.3059 39.2746 14.6329ZM53.7367 15.3975C53.1661 15.4413 52.6213 15.3049 52.1387 14.9974C52.7049 14.9775 53.2466 15.1131 53.7367 15.3975ZM52.727 17.3055C53.3133 17.2474 53.8836 17.3202 54.4184 17.5214C53.943 17.6893 53.4456 17.3938 52.727 17.3055ZM32.2191 11.9994C32.0162 11.9913 31.7635 12.2455 31.6144 11.8968C31.5352 11.6939 31.9105 11.8001 32.1253 11.8233L32.8898 11.9171C32.6968 12.1374 32.4271 12.0027 32.2191 11.9994ZM77.3304 22.4162C77.7864 22.4015 78.2267 22.4892 78.6365 22.6761C78.1699 22.7566 77.7212 22.6673 77.3304 22.4162ZM68.3952 20.8381C67.7449 20.9804 67.576 20.9625 66.6496 20.6024C67.1998 20.7341 67.7388 20.7531 68.3952 20.8381ZM43.6005 14.776C43.4167 14.8635 43.2304 14.8996 43.0522 14.8822C42.874 14.8648 42.7075 14.7943 42.562 14.6747C42.9247 14.5989 43.2784 14.6334 43.6005 14.776ZM55.4091 15.5477C55.5549 15.5476 55.7232 15.5836 55.7626 15.7095C55.8021 15.8353 55.601 15.7728 55.504 15.7668C55.3372 15.725 55.1555 15.6795 54.9252 15.6707C55.0849 15.5652 55.2526 15.5226 55.4091 15.5477ZM103.524 26.9057C103.532 26.7795 103.728 26.8287 103.863 26.8564C103.96 26.8789 104.051 26.9203 104.136 26.9795C104.108 27.0887 103.925 27.0489 103.782 27.0376C103.639 27.0262 103.512 26.9822 103.516 26.9038L103.524 26.9057ZM39.9258 13.6057C39.8394 13.5768 39.7606 13.524 39.693 13.4497C39.6458 13.3707 39.7261 13.3176 39.8558 13.3501C39.9842 13.3589 40.0976 13.4324 40.1779 13.5589C40.1295 13.6261 40.0305 13.6441 39.9184 13.6038L39.9258 13.6057ZM66.9486 18.37C67.0173 18.2529 67.1913 18.266 67.3781 18.3066C67.4338 18.3206 67.5312 18.3877 67.5218 18.4098C67.4872 18.5476 67.2745 18.5004 67.1107 18.4777C67.0499 18.4523 66.993 18.4155 66.9411 18.3681L66.9486 18.37ZM77.836 20.9008C77.7635 20.8918 77.6928 20.8741 77.6246 20.8479C77.5356 20.8256 77.5628 20.7958 77.6815 20.8255L78.0522 20.9184C77.9765 20.9186 77.9018 20.9121 77.8285 20.899L77.836 20.9008ZM49.0452 13.1424C49.1749 13.1748 49.245 13.2412 49.2137 13.3188C49.1825 13.3965 49.0812 13.4077 48.9662 13.379C48.8513 13.3502 48.7775 13.2829 48.7925 13.2073C48.8286 13.1723 48.8679 13.1479 48.9077 13.1358C48.9475 13.1236 48.9868 13.1239 49.0229 13.1368L49.0452 13.1424ZM49.1833 16.5402C49.1348 16.5526 49.0874 16.5491 49.0444 16.5299C49.0015 16.5107 48.9642 16.4763 48.9353 16.4293C48.9353 16.4293 48.9888 16.3572 49.0413 16.352C49.1417 16.3406 49.2348 16.3789 49.3056 16.461C49.2636 16.4871 49.2173 16.5304 49.1611 16.5346L49.1833 16.5402ZM82.3016 23.838C82.194 23.811 82.0569 23.7767 82.0644 23.6992C82.1599 23.6714 82.2546 23.6643 82.3455 23.6781C82.3977 23.6757 82.4475 23.6888 82.492 23.7167C82.5364 23.7446 82.5746 23.7867 82.6043 23.8405C82.491 23.8366 82.3823 23.846 82.2793 23.8324L82.3016 23.838Z" fill="#413F49"/>
<path d="M51.8163 19.3433C52.881 19.1975 53.9192 19.3009 54.8918 19.6495C54.5468 19.8737 54.1836 19.9274 53.8648 19.8013C53.1976 19.6648 52.5261 19.4356 51.8163 19.3433Z" fill="#413F49"/>
<path d="M68.7279 16.9173C68.1526 16.9152 67.5893 16.8374 67.0445 16.685C67.6999 16.5379 67.6999 16.5379 68.7279 16.9173Z" fill="#413F49"/>
<path d="M59.918 21.4334C60.2843 21.3234 60.6431 21.3604 60.955 21.5404C61.0366 21.5609 61.035 21.6459 60.9559 21.6627C60.5841 21.7175 60.2278 21.6387 59.918 21.4334Z" fill="#413F49"/>
<path d="M77.8341 24.2642C77.4327 24.2237 77.0429 24.1261 76.6699 23.9727C77.0343 23.9662 77.3891 24.0222 77.7273 24.1398C77.7978 24.1588 77.8661 24.1861 77.9315 24.2215L77.8341 24.2642Z" fill="#413F49"/>
<path d="M43.253 16.3747C43.1169 16.4205 42.983 16.4082 42.8679 16.3393C42.7863 16.3188 42.785 16.2453 42.8521 16.2132C42.9877 16.173 43.1207 16.1852 43.2373 16.2486C43.3131 16.292 43.3113 16.3465 43.253 16.3747Z" fill="#413F49"/>
<path d="M78.0151 24.6755C77.9459 24.6791 77.8779 24.6743 77.8116 24.6612C77.7479 24.6452 77.6597 24.5682 77.6654 24.5452C77.6712 24.5223 77.8181 24.4919 77.9084 24.5451C77.9511 24.576 77.9873 24.6203 78.0151 24.6755Z" fill="#413F49"/>
</g>
<g clip-path="url(#clip1_1681_2093)">
<path d="M136.063 41.5408C135.893 41.5449 135.631 41.7148 135.766 41.2318C135.565 40.8622 135.443 40.3601 135.008 40.3747C134.855 40.4134 134.762 40.3476 134.73 40.1792C134.909 39.9958 134.96 40.1895 135.212 39.9525C134.967 39.6254 134.559 39.6629 134.272 39.4758C134.259 39.452 134.227 39.4607 134.179 39.5012C134.131 39.5418 134.067 39.6131 133.992 39.7104L134.312 39.9441C133.994 40.2455 133.828 40.2552 133.84 39.9716C133.87 39.7422 133.81 39.6577 133.664 39.7259C133.513 39.8044 133.426 39.7658 133.409 39.6122C133.38 39.4546 133.299 39.3825 133.168 39.3975C133.055 39.4374 132.96 39.4422 132.886 39.412C132.696 39.3015 132.529 39.1501 132.315 39.0807C132.247 39.0411 132.131 39.0286 132.297 38.6873C132.402 38.4745 132.309 38.4889 132.258 38.4726C132.029 38.4083 131.741 38.4606 131.479 38.4664C131.237 38.4877 131.047 38.4165 130.911 38.2535C130.78 38.0544 130.619 37.9132 130.427 37.8292C130.361 37.8147 130.313 37.7666 130.285 37.6854C130.231 37.5236 130.118 37.4585 129.951 37.4914C129.643 37.5073 129.393 37.4199 129.204 37.2296C128.851 36.8948 128.335 36.8832 127.874 36.7667C127.363 36.6419 126.926 36.4023 126.587 35.9796C126.477 35.8543 126.38 35.7228 126.313 35.5333C126.252 35.3683 126.142 35.4343 125.957 35.7243C125.565 36.3386 125.325 37.0758 125.391 37.4492C125.489 37.8226 125.643 38.1035 125.851 38.2907C126.014 38.4812 126.195 38.6409 126.304 38.9161C126.363 39.0665 126.806 39.2618 126.941 39.2854C127.076 39.3089 126.843 39.8647 127.087 39.7464C127.075 39.7803 127.066 39.8229 127.046 39.8525C126.86 40.135 126.927 40.1943 126.989 40.2299C127.116 40.3035 127.247 40.3795 127.401 40.3936C127.659 40.3807 127.871 40.4507 128.034 40.6031C128.091 40.7112 128.199 40.7344 128.354 40.672C128.601 40.521 128.765 40.5682 128.991 40.4665C129.106 40.4005 129.174 40.4193 129.192 40.5217C129.043 40.7364 128.916 40.7176 128.767 41.0349C129.017 40.9076 129.197 40.9064 129.304 41.0312C129.418 41.2823 129.67 41.2773 129.85 41.4023C129.929 41.4107 129.992 41.4473 130.039 41.5119C130.083 41.6413 130.187 41.6674 130.35 41.5895C130.521 41.5021 130.614 41.556 130.623 41.7478C130.418 41.9438 130.321 41.819 130.084 42.1195C130.122 42.2443 129.948 42.5745 130.028 42.6623C130.145 42.7986 130.057 43.2675 130.383 43.0665C130.416 43.0585 130.437 43.0708 130.446 43.1029C130.547 43.233 130.696 43.2807 130.893 43.2454C131.265 43.2698 131.698 43.1783 131.974 43.3935C132.069 43.5191 132.214 43.5595 132.407 43.5142C132.488 43.4844 132.53 43.5248 132.53 43.6332C132.539 43.8185 132.621 43.8826 132.773 43.8222C132.878 43.7682 132.929 43.8097 132.924 43.9436C132.726 44.1197 132.596 44.1661 132.543 44.079C132.407 43.8018 131.985 44.2413 131.718 44.2853C131.698 44.41 131.7 44.4987 131.725 44.5493C131.873 44.6691 132.012 44.8047 132.187 44.8784C132.323 44.9575 132.412 45.1459 132.736 44.8341C132.822 44.7735 132.882 44.762 132.913 44.8001C133.042 44.8711 133.213 44.8693 133.424 44.7947C133.772 44.6747 133.857 45.0118 134.052 45.1589C134.059 45.2538 134.107 45.2815 134.193 45.2404C134.748 44.6998 134.661 45.3269 134.828 45.4921C134.857 45.5092 134.814 45.6144 134.765 45.7023C134.716 45.7902 134.666 45.8433 134.618 45.8563C134.535 45.877 134.467 45.7692 134.399 45.8799C134.154 46.2787 134.03 46.2003 133.852 46.3294C133.843 46.4693 133.9 46.5024 134.018 46.4255C134.493 46.1284 134.847 46.0554 135.071 46.2082C135.092 46.2199 135.121 46.2182 135.157 46.2029C135.519 46.0501 135.801 46.0838 136.122 46.0304C136.17 46.0237 136.211 46.0818 136.347 45.8185C135.832 45.5884 135.075 45.7652 134.904 44.8654C135.132 44.8151 135.313 44.8473 135.447 44.9616C135.679 45.1397 135.989 45.1842 136.374 45.0947C136.464 45.0716 136.73 44.863 136.442 45.367C136.432 45.4087 136.433 45.4327 136.445 45.4372C136.636 45.3836 136.614 45.7196 136.8 45.6431C137.116 45.5578 137.353 45.6127 137.508 45.807C137.774 45.9613 138.047 46.1193 138.259 46.3516C138.492 46.603 138.924 46.491 139.095 46.8365C139.119 46.875 139.163 46.8797 139.226 46.8506C139.586 46.7314 139.886 46.7221 140.122 46.8227C140.377 46.8674 140.709 46.7315 141.049 46.6276C141.131 46.2372 140.751 46.6326 140.785 46.3581C140.867 46.2681 140.923 46.2316 140.946 46.253C141.052 46.3144 141.159 46.3761 141.264 46.4371C141.369 46.498 141.122 46.9642 141.295 46.9003C141.474 46.8271 141.594 46.8599 141.652 46.9976C141.662 46.9953 141.668 46.999 141.671 47.0087C141.649 47.2325 141.747 47.2627 141.95 47.0948C142.502 46.7416 142.904 46.6661 143.145 46.8703C143.176 46.8922 143.224 46.8835 143.289 46.8445C143.679 46.6528 143.996 46.6317 144.321 46.5873C144.716 46.5356 144.926 46.8418 145.351 46.7258C145.1 47.3948 145.108 47.4879 145.421 47.4506C145.561 47.4288 145.723 47.3585 145.877 47.3044C146.027 47.2475 146.154 47.2301 146.26 47.2522C146.624 47.3539 147.028 47.3827 147.355 47.5518C147.393 47.5624 147.445 47.549 147.51 47.5118C147.569 47.4843 147.648 47.4068 147.705 47.296C147.762 47.1853 147.725 47.1438 147.695 47.1193C147.381 46.8828 147.195 46.4394 146.762 46.3936C146.627 46.3672 146.527 46.2816 146.461 46.1374C146.399 46.0052 146.294 45.9444 146.148 45.9557C145.653 45.9861 145.269 45.8207 144.999 45.4608C144.69 45.042 144.25 44.8419 143.795 44.6671C143.559 44.5716 143.298 44.5229 143.081 44.3904C142.864 44.2578 142.564 44.2481 142.408 44.0001C142.392 43.9633 142.364 43.947 142.324 43.9514C142.074 43.9811 141.877 43.9154 141.737 43.7546C141.523 43.6999 141.352 43.573 141.222 43.3745C141.032 42.9153 140.7 42.7021 140.385 42.4443C140.304 42.3086 140.185 42.2393 140.027 42.2368C139.862 42.278 139.925 42.4513 139.849 42.5442C139.762 42.4525 139.553 42.5231 139.741 42.0643C139.757 41.9825 139.75 41.9364 139.72 41.9289L139.222 41.6404L139.13 41.7992L139.493 42.1806C139.334 42.2755 139.225 42.2771 139.171 42.1855C138.892 41.9281 138.42 42.0306 138.116 41.8201C138.056 41.7853 137.968 41.7891 137.829 42.0101C137.867 42.0622 137.93 42.071 138.017 42.0365C138.035 42.1021 138.052 42.1664 137.97 42.3177C137.889 42.4691 137.85 42.4465 137.788 42.4858C137.43 42.7096 137.258 42.5274 136.975 42.5896C136.964 42.5932 136.957 42.5891 136.954 42.5773C136.898 42.5445 136.863 42.4627 136.964 42.2542C137.064 42.0457 137.189 41.9194 137.294 41.8915C137.345 41.8798 137.363 41.9311 137.431 41.8954C137.499 41.8596 137.552 41.8834 137.639 41.6942C137.512 41.5046 137.172 41.6972 137.052 41.4773C137.252 41.1759 137.268 41.4797 137.449 41.1806C137.22 40.7731 136.759 40.7599 136.082 41.1413C136.24 41.4035 136.689 41.1231 136.774 41.5008C136.48 41.6182 136.29 41.5421 136.063 41.5408ZM138.489 45.9647C138.46 45.8282 138.372 45.7911 138.228 45.8549C138.201 45.8739 138.184 45.8746 138.178 45.8569C138.171 45.8391 138.176 45.8033 138.192 45.7515C138.248 45.6198 138.319 45.5856 138.362 45.59C138.41 45.5868 138.444 45.6068 138.465 45.6498C138.529 45.8085 138.625 45.9124 138.754 45.9608C138.606 46.0686 138.516 46.0699 138.489 45.9647ZM131.392 42.8369C131.312 42.9618 131.225 42.9794 131.237 42.8701C131.249 42.7609 131.356 42.6518 131.431 42.5722C131.648 42.3803 131.789 42.3332 131.843 42.4346C131.695 42.5542 131.583 42.537 131.392 42.8369ZM135.321 41.9114C135.133 42.0119 135.033 41.9537 135.027 41.7408C135.203 41.6616 135.303 41.7194 135.321 41.9114ZM134.178 43.6715C134.377 43.557 134.513 43.5574 134.581 43.6726C134.367 43.8699 134.351 43.669 134.178 43.6715ZM130.477 41.3345C130.42 41.3497 130.233 41.5971 130.344 41.3121C130.41 41.1454 130.474 41.196 130.527 41.1925L130.711 41.1897C130.556 41.4013 130.537 41.3145 130.477 41.3345ZM139.175 45.3904C139.316 45.3277 139.407 45.3552 139.445 45.4718C139.271 45.5926 139.179 45.5646 139.175 45.3904ZM137.237 45.0064C136.982 45.2008 136.94 45.2039 136.826 44.9942C136.93 45.0476 137.081 45.0049 137.237 45.0064ZM132.605 42.4861C132.512 42.5819 132.441 42.6335 132.396 42.6381C132.352 42.6426 132.334 42.5999 132.344 42.5125C132.484 42.4072 132.573 42.3982 132.605 42.4861ZM135.748 41.8578C135.791 41.8417 135.825 41.8544 135.781 41.9589C135.737 42.0633 135.705 42.0313 135.679 42.0368C135.648 42.019 135.615 41.9996 135.551 42.0172C135.645 41.9085 135.713 41.8533 135.748 41.8578ZM144.915 46.3979C144.974 46.288 145.01 46.309 145.037 46.3181C145.056 46.327 145.065 46.3527 145.063 46.3947C145.007 46.492 144.971 46.4777 144.933 46.4836C144.896 46.4894 144.878 46.4653 144.914 46.3971L144.915 46.3979ZM132.039 41.8775C132.027 41.862 132.027 41.825 132.04 41.7683C132.061 41.7052 132.108 41.6504 132.132 41.6643C132.166 41.6578 132.167 41.7089 132.134 41.8095C132.09 41.8729 132.053 41.8992 132.038 41.8767L132.039 41.8775ZM137.903 43.0316C137.975 42.9229 138.021 42.9151 138.058 42.9298C138.068 42.9357 138.067 42.983 138.055 43.0031C137.984 43.1261 137.942 43.1086 137.903 43.107C137.897 43.0916 137.896 43.0661 137.902 43.0308L137.903 43.0316ZM139.995 44.0251C139.978 44.0252 139.965 44.0177 139.956 44.0025C139.94 43.993 139.961 43.9642 139.983 43.9769L140.051 44.0165C140.029 44.025 140.01 44.0276 139.994 44.0243L139.995 44.0251ZM134.936 40.4767C134.96 40.4905 134.951 40.5402 134.907 40.6108C134.864 40.6813 134.829 40.7021 134.808 40.6899C134.787 40.6776 134.795 40.6275 134.833 40.5605C134.859 40.5264 134.881 40.501 134.898 40.4861C134.915 40.4712 134.927 40.4672 134.932 40.4743L134.936 40.4767ZM133.471 43.3987C133.451 43.4148 133.439 43.4169 133.435 43.405C133.431 43.3931 133.435 43.3675 133.447 43.33C133.447 43.33 133.495 43.2619 133.513 43.2516C133.547 43.2307 133.558 43.2536 133.542 43.3168C133.518 43.344 133.486 43.3865 133.467 43.3963L133.471 43.3987ZM140.012 46.0741C139.992 46.0626 139.967 46.048 140.003 45.9802C140.044 45.9457 140.075 45.9291 140.095 45.9311C140.112 45.9233 140.121 45.9291 140.122 45.9484C140.122 45.9676 140.115 45.9998 140.1 46.0431C140.068 46.0521 140.032 46.0722 140.008 46.0717L140.012 46.0741Z" fill="#413F49"/>
<path d="M133.007 45.5331C133.387 45.2909 133.649 45.2669 133.782 45.4621C133.581 45.6936 133.45 45.7797 133.411 45.7054C133.274 45.6602 133.177 45.5354 133.007 45.5331Z" fill="#413F49"/>
<path d="M139.074 41.5813C138.905 41.6422 138.772 41.6366 138.679 41.5643C138.938 41.3655 138.938 41.3655 139.074 41.5813Z" fill="#413F49"/>
<path d="M134.472 46.4498C134.63 46.3147 134.719 46.3075 134.732 46.4291C134.747 46.4378 134.709 46.5115 134.678 46.5347C134.544 46.6227 134.473 46.5935 134.472 46.4498Z" fill="#413F49"/>
<path d="M138.506 46.934C138.405 46.9429 138.333 46.9011 138.291 46.8091C138.401 46.7637 138.482 46.7734 138.53 46.8381C138.542 46.8468 138.55 46.863 138.554 46.8864L138.506 46.934Z" fill="#413F49"/>
<path d="M131.795 43.9054C131.735 43.9601 131.701 43.9642 131.697 43.9174C131.682 43.9087 131.715 43.8453 131.749 43.8102C131.806 43.7604 131.84 43.7563 131.846 43.7982C131.849 43.8274 131.824 43.8747 131.795 43.9054Z" fill="#413F49"/>
<path d="M138.379 47.2691C138.356 47.2794 138.338 47.2824 138.324 47.2782C138.312 47.2711 138.319 47.2143 138.331 47.194C138.343 47.1737 138.4 47.1322 138.404 47.1684C138.403 47.1904 138.395 47.2247 138.379 47.2691Z" fill="#413F49"/>
</g>
<defs>
<clipPath id="clip0_1681_2093">
<rect width="119.206" height="6.89216" fill="white" transform="translate(1.67432) rotate(14.0576)"/>
</clipPath>
<clipPath id="clip1_1681_2093">
<rect width="24.6166" height="6.89216" fill="white" transform="translate(126.78 34.3125) rotate(30.0973)"/>
</clipPath>
</defs>
</svg>
