<svg width="367" height="521" viewBox="0 0 367 521" fill="none" xmlns="http://www.w3.org/2000/svg">
<g clip-path="url(#clip0_1681_2956)">
<path d="M79.8892 53.5614C80.1723 54.4335 80.6488 55.2589 81.2626 55.9402C86.0936 63.0092 88.2989 72.023 95.7929 77.2117C98.726 83.4399 102.747 89.1426 107.52 93.8437C107.742 94.2294 107.606 95.5083 107.827 96.3237C108.048 97.1391 108.429 99.7477 108.98 99.9441C113.983 101.685 114.102 108.817 119.219 110.32C122.558 114.043 125.006 118.664 126.174 123.449C126.417 125.709 126.119 127.682 128.703 129.019C134.419 132.818 139.234 138.718 142.159 145.509C143.904 148.531 141.983 151.697 144.411 154.496C146.839 157.295 150.275 158.483 151.529 162.388C152.129 164.185 154.164 164.896 155.131 166.138C156.098 167.379 156.021 170.167 156.976 171.93C162.931 182.894 169.073 193.749 175.02 204.374C175.438 205.218 176.091 205.92 176.835 206.327C179.887 207.393 178.295 212.427 182.08 212.814L187.611 222.394L194.281 234.487L196.125 238.223C197.016 239.766 195.548 241.985 194.007 241.589C192.466 241.192 190.01 240.725 188.541 238.83C187.416 239.479 186.897 240.636 187.696 241.804C188.562 242.98 189.647 243.916 190.815 244.493C191.982 245.07 193.179 245.263 194.254 245.046C196.691 243.64 198.94 242.341 201.47 240.88C201.986 240.583 202.319 239.104 201.975 238.617C198.975 234.177 198.122 228.155 192.683 225.551C192.393 225.413 192.118 225.205 191.877 224.943C191.637 224.682 191.437 224.373 191.294 224.042C191.151 223.711 191.068 223.365 191.052 223.032C191.036 222.699 191.087 222.387 191.201 222.12C191.847 219.776 190.509 217.891 189.405 215.871C186.621 211.049 184.072 206.092 181.465 201.253C182.566 192.988 175.118 190.259 171.213 185.227C170.545 184.07 169.154 183.501 168.393 182.398C167.631 181.295 166.128 178.476 168.239 176.829C169.363 176.18 168.847 174.42 167.051 174.772C165.255 175.123 163.917 175.295 162.833 173.092C159.589 166.393 153.444 160.511 153.171 152.354C148.597 150.708 148.211 144.844 144.312 142.637C140.414 140.43 140.443 138.1 140.149 134.669C140.03 132.739 139.453 130.737 138.481 128.881C137.508 127.026 136.177 125.385 134.631 124.138C131.595 121.644 129.052 118.296 127.343 114.545C125.265 110.944 123.186 107.344 121.107 103.744C115.493 102.785 117.592 95.0576 112.813 93.2733C111.445 89.6054 107.447 86.6847 108.364 82.2123C107.449 81.5575 106.643 80.6561 106.04 79.6106C105.436 78.5651 105.058 77.4175 104.949 76.2975C100.692 74.9836 100.866 69.2252 96.9753 67.3565C93.085 65.4878 92.123 60.8999 90.0249 57.4822C87.9267 54.0645 84.6966 53.0146 82.089 50.6625C81.8663 50.2768 80.4527 50.75 80.0017 51.2675C79.695 51.9015 79.6547 52.7248 79.8892 53.5614V53.5614Z" fill="#231F33"/>
<path d="M241.211 304.602L257.523 333.588L272.525 360.159C273.379 361.638 274.493 363.567 275.441 364.476C278.006 366.425 279.284 369.373 281.002 371.981C283.897 376.482 285.522 382.23 290.063 385.181C291.807 387.909 293.435 390.728 294.925 393.603C296.638 397.158 299.927 398.087 301.519 401.797C301.798 402.653 302.249 403.521 302.807 404.277C303.365 405.033 304.002 405.638 304.626 406.005C305.021 403.976 303.288 402.148 302.344 400.292C300.525 397.142 298.632 393.863 296.813 390.713C294.994 387.563 293.875 384.523 292.025 382.419C290.175 380.315 288.647 376.568 287.204 373.63C287.086 373.219 286.904 372.796 286.672 372.394C286.44 371.992 286.164 371.622 285.868 371.315C284.641 370.24 283.454 368.913 282.377 367.413C281.3 365.913 280.356 364.272 279.602 362.589L269.208 344.587C267.715 342.256 266.323 339.845 265.051 337.386C263.974 335.007 260.961 334.775 260.926 331.195C260.892 327.615 258.444 326.456 257.394 323.976C254.316 316.666 248.668 311.869 244.627 304.944C244.256 304.301 243.371 303.869 242.719 303.474C242.066 303.118 241.419 302.805 240.781 302.536C241.057 303.234 240.946 304.069 241.211 304.602Z" fill="#231F33"/>
<path d="M223.066 269.473L230.257 282.466C231.564 282.226 232.664 282.79 233.628 284.548C234.591 286.307 236.152 288.92 237.34 290.978C237.804 290.71 238.28 289.835 238.133 289.491C237.042 287.086 235.845 284.713 234.549 282.388C233.435 280.459 232.223 277.644 230.895 276.954C227.479 275.24 229.526 272.258 227.609 270.279C226.661 269.396 225.665 268.668 224.661 268.123C224.015 267.899 223.394 267.822 222.827 267.897C222.827 267.897 222.88 269.152 223.066 269.473Z" fill="#231F33"/>
<path d="M192.051 236.716C193.202 236.051 195.862 234.515 193.243 233.799C188.727 232.12 188.62 232.267 187.065 227.25C186.953 226.809 186.723 226.411 186.397 226.093C184.961 224.436 185.341 220.445 182.344 221.232C179.347 222.019 182.941 225.088 180.577 227.139C180.129 227.357 179.696 227.607 179.283 227.886C179.035 230.944 179.074 233.835 183.255 234.765C185.427 235.58 187.461 236.651 189.314 237.953C190.249 237.597 191.163 237.184 192.051 236.716V236.716Z" fill="#231F33"/>
<path d="M29.509 53.3298C31.4969 53.024 33.4636 53.4146 35.0324 54.4271C37.1898 55.8389 37.9436 55.318 39.1311 52.0607C39.4822 50.725 39.6345 49.367 39.5832 48.0278C37.844 48.5354 36.0378 48.6113 34.3468 48.2481C32.6559 47.8849 31.1399 47.0955 29.9516 45.9591C28.265 44.5325 27.1702 46.6219 26.6437 47.8689C24.6027 52.3048 25.0923 53.651 29.509 53.3298Z" fill="#231F33"/>
<path d="M196.156 255.95C196.899 257.236 199.156 257.99 200.798 258.842C201.339 259.07 201.931 259.193 202.543 259.206C202.821 258.36 203.605 257.393 203.38 256.837C201.784 254.072 199.538 251.511 200.971 247.683C201.53 246.16 201.157 245.348 199.932 245.883C198.42 246.503 197.146 247.604 196.351 248.98C195.609 251.304 195.542 253.715 196.156 255.95Z" fill="#231F33"/>
<path d="M206.156 261.147C205.221 261.687 204.08 263.032 204.268 263.523C204.79 265.175 205.66 266.682 206.829 267.959C207.126 268.474 208.787 268.029 209.766 268.064C210.745 268.099 211.995 266.777 212.13 266.014C212.407 264.876 212.291 263.719 211.8 262.718C211.309 261.718 210.469 260.928 209.408 260.47C209.19 260.269 208.92 260.126 208.619 260.05C208.319 259.975 207.997 259.97 207.679 260.036C207.362 260.103 207.058 260.238 206.794 260.431C206.529 260.624 206.311 260.87 206.156 261.147V261.147Z" fill="#231F33"/>
<path d="M147.053 195.146C144.583 194.686 141.971 194.48 139.393 194.167C138.887 194.164 138.375 194.229 137.874 194.359C137.814 195.251 137.466 196.309 137.765 196.994C139.563 201.27 141.052 201.525 145.979 198.766C146.893 198.174 147.705 197.444 148.378 196.61C148.378 196.61 147.707 195.282 147.053 195.146Z" fill="#231F33"/>
<path d="M212.888 257.861C213.985 258.599 214.936 259.25 216.875 257.959C218.815 256.668 219.128 255.716 218.457 254.389C218.208 254 217.864 253.678 217.451 253.444C217.039 253.211 216.567 253.072 216.071 253.039C215.575 253.005 215.066 253.078 214.582 253.251C214.097 253.424 213.649 253.694 213.27 254.04C212.699 254.554 212.34 255.24 212.268 255.952C212.197 256.664 212.419 257.349 212.888 257.861V257.861Z" fill="#231F33"/>
<path d="M290.338 433.027C291.584 432.118 292.551 430.903 293.117 429.537C293.548 429.288 292.226 427.994 291.929 427.48C289.489 426.574 289.628 428.808 288.772 429.817L283.896 433.661C285.634 436.172 288.222 434.677 290.338 433.027Z" fill="#231F33"/>
<path d="M223.543 379.609C223.543 379.609 221.987 379.736 220.975 379.977C222.46 382.549 223.945 385.12 225.467 387.756C225.467 387.756 227.06 387.693 227.854 387.407C228.647 387.12 228.492 386.353 228.306 386.032C226.852 383.799 225.262 381.655 223.543 379.609Z" fill="#231F33"/>
<path d="M232.515 291.191C232.399 292.051 232.411 292.91 232.55 293.743C232.861 295.278 234.385 295.426 236.08 294.876C237.776 294.326 239.381 292.456 238.523 290.637L234.108 291.128L232.515 291.191Z" fill="#231F33"/>
<path d="M301.655 457.611C303.534 458.096 305.451 458.478 307.397 458.754C307.593 457.77 307.665 456.779 307.61 455.802C307.262 454.202 305.703 454.159 304.007 454.71C302.312 455.26 300.349 457.508 301.655 457.611Z" fill="#231F33"/>
<path d="M177.285 224.925C176.336 224.444 174.388 225.055 172.908 225.48C171.428 225.906 171.957 227.487 172.066 227.509C173.133 228.034 174.322 228.337 175.562 228.402C176.802 228.467 178.068 228.292 179.283 227.886C178.952 226.709 178.259 225.681 177.285 224.925Z" fill="#231F33"/>
<path d="M280.226 430.292C279.283 431.325 278.448 432.439 277.735 433.616C277.311 434.375 277.612 435.23 277.587 436.016C278.623 435.916 279.655 435.694 280.658 435.358C281.557 434.924 282.423 434.424 283.247 433.863C283.148 433.525 282.97 433.218 282.727 432.963L280.226 430.292Z" fill="#231F33"/>
<path d="M147.367 202.166C146.327 202.255 145.305 202.608 144.409 203.188C143.979 203.438 143.614 203.783 143.349 204.189C143.083 204.594 142.926 205.048 142.892 205.506C142.858 205.964 142.949 206.411 143.156 206.805C143.363 207.199 143.679 207.525 144.073 207.754C145.123 208.577 145.916 208.29 146.453 206.894C146.982 206.023 147.419 205.11 147.757 204.17C147.928 203.471 147.657 202.171 147.367 202.166Z" fill="#231F33"/>
<path d="M157.584 225.841C156.686 225.952 155.803 226.228 154.986 226.655C155.395 227.362 155.119 228.379 155.599 229.045C155.823 229.312 156.106 229.529 156.431 229.682C156.756 229.836 157.117 229.923 157.492 229.938C157.867 229.953 158.249 229.896 158.616 229.77C158.982 229.645 159.324 229.453 159.623 229.207L161.695 226.982C161.695 226.982 160.855 226.524 160.419 226.433C159.512 226.131 158.561 225.932 157.584 225.841V225.841Z" fill="#231F33"/>
<path d="M47.948 42.2564C47.9419 42.1123 47.9021 41.9738 47.8316 41.8517C47.761 41.7295 47.6613 41.6262 47.5395 41.5488C45.1061 41.1536 43.2088 42.849 41.3763 43.9928C41.0552 44.1781 40.7699 44.4182 40.5367 44.6993C40.3035 44.9804 40.1271 45.2972 40.0172 45.6313C39.9074 45.9654 39.8664 46.3102 39.8966 46.6464C39.9269 46.9825 40.0278 47.3034 40.1936 47.5904C42.5665 46.2204 45.0114 44.8088 47.3844 43.4388C47.688 43.0954 47.8843 42.6837 47.948 42.2564Z" fill="#231F33"/>
<path d="M217.14 367.191C216.127 367.234 215.112 367.442 214.141 367.808C212.056 369.012 211.504 371.046 212.863 372.404C213.123 372.854 214.424 372.617 215.403 372.652L217.085 368.424C217.085 368.424 217.073 367.573 217.14 367.191Z" fill="#231F33"/>
<path d="M208.536 358.1C207.992 357.472 207.239 357.038 206.381 356.858C206.124 357.048 205.905 357.281 205.737 357.544C205.569 357.807 205.455 358.093 205.401 358.388C205.348 358.682 205.356 358.978 205.426 359.257C205.496 359.537 205.626 359.795 205.808 360.017L207.218 362.46C207.568 362.727 207.995 362.895 208.457 362.945C208.457 362.945 209.473 363.045 209.58 362.897C209.686 362.75 210.146 361.885 210.032 361.522C209.724 360.3 209.22 359.146 208.536 358.1V358.1Z" fill="#231F33"/>
<path d="M222.283 263.838C223.779 261.946 222.429 261.268 221.367 260.424C220.304 259.58 220.457 260.178 220.021 260.087C219.967 261.353 220.021 262.612 220.182 263.851C220.182 263.851 221.703 263.83 222.283 263.838Z" fill="#231F33"/>
<path d="M228.169 286.156C228.541 286.799 229.246 288.021 230.111 287.693C232.677 287.154 231.716 285.823 231.303 284.776C230.979 284.05 230.581 283.362 230.115 282.718C228.714 283.613 227.68 284.81 228.169 286.156Z" fill="#231F33"/>
<path d="M213.509 282.02L215.919 283.372C216.089 282.503 216.652 281.32 216.281 280.677C215.91 280.034 214.82 279.806 213.98 279.348L213.509 282.02Z" fill="#231F33"/>
<path d="M301.896 448.727C301.975 447.491 301.91 446.264 301.701 445.068C301.701 445.068 300.216 445.154 299.421 445.27L299.419 447.758L301.896 448.727Z" fill="#231F33"/>
<path d="M321.653 488.927L323.756 486.427C322.738 486.347 321.694 486.455 320.681 486.746C319.865 487.441 319.166 488.251 318.612 489.14L321.653 488.927Z" fill="#231F33"/>
<path d="M287.516 446.571L290.406 445.931L292.222 443.597C290.762 443.798 289.312 444.12 287.887 444.557C287.887 444.557 287.65 445.808 287.516 446.571Z" fill="#231F33"/>
<path d="M295.637 452.17C295.772 451.407 296.229 450.371 296.039 449.709C295.848 449.048 294.793 448.714 294.243 448.26C293.693 447.806 292.636 449.96 292.782 450.047C293.63 450.867 294.589 451.58 295.637 452.17V452.17Z" fill="#231F33"/>
<path d="M155.208 208.44C154.551 208.133 153.674 207.611 153.062 207.879C150.905 209.124 149.467 209.954 150.367 212.178C151.805 211.348 153.171 210.559 154.537 209.77C154.919 209.404 155.158 208.931 155.208 208.44V208.44Z" fill="#231F33"/>
<path d="M135.809 189.122C135.378 189.372 135.387 190.052 135.067 190.494C136.585 190.273 138.095 189.946 139.583 189.515C139.583 189.515 139.926 188.117 140.098 187.417C139.328 187.247 138.496 187.321 137.724 187.628C136.953 187.935 136.282 188.458 135.809 189.122V189.122Z" fill="#231F33"/>
<path d="M155.433 216.969C153.793 216.287 152.687 217.526 151.578 218.595C151.277 219.005 151.05 219.455 150.908 219.924L153.768 219.73C154.517 219.063 155.233 218.364 155.913 217.634C155.913 217.634 155.688 217.079 155.433 216.969Z" fill="#231F33"/>
<path d="M267.225 293.354C267.225 293.354 267.935 292.259 267.821 291.896C267.707 291.533 266.911 291.649 266.438 291.494L265.842 292.952L267.225 293.354Z" fill="#231F33"/>
<path d="M152.886 105.111L152.478 104.404C152.478 104.404 151.608 104.392 151.687 104.861C151.369 105.198 151.138 105.596 151.014 106.02L152.886 105.111Z" fill="#231F33"/>
<path d="M324.08 422.719C324.08 422.719 324.989 422.966 325.354 423.098C325.718 423.231 326.17 421.856 326.024 421.769C324.85 420.732 324.059 421.188 324.08 422.719Z" fill="#231F33"/>
<path d="M244.197 292.162C245.257 292.836 246.05 292.549 246.291 291.638C246.533 290.727 245.994 291.124 245.809 290.802C245.623 290.481 244.939 290.79 244.946 291.3C244.953 291.811 244.088 292.139 244.197 292.162Z" fill="#231F33"/>
<path d="M241.086 297.902C241.086 297.902 241.293 297.097 241.11 296.945C240.927 296.794 240.309 296.722 239.945 296.589L240.115 298.377L241.086 297.902Z" fill="#231F33"/>
<path d="M299.404 407.047L299.309 408.044L300.617 408.318L301.216 407.029L299.404 407.047Z" fill="#231F33"/>
<path d="M222.79 282.319L223.876 282.206L224.511 280.982L223.203 280.709L222.79 282.319Z" fill="#231F33"/>
<path d="M309.925 463.465C310.285 463.258 310.635 462.37 310.521 462.007C310.407 461.644 309.575 461.696 309.067 461.646L308.433 463.041L309.925 463.465Z" fill="#231F33"/>
<path d="M71.3044 33.0576C71.6639 32.8501 71.9445 32.1734 71.8679 31.8747C71.7913 31.5761 71.1048 31.7154 70.6687 31.6243L70.2907 33.1286L71.3044 33.0576Z" fill="#231F33"/>
<path d="M74.3928 49.534C74.3928 49.534 75.2303 49.8222 75.7035 49.9776C76.1768 50.133 76.4852 48.8405 76.3367 48.5834C76.1882 48.3262 75.3904 48.2728 74.9172 48.1174C74.4439 47.962 74.2072 49.2126 74.3928 49.534Z" fill="#231F33"/>
<path d="M305.11 469.074L305.708 467.786L304.365 467.618L303.952 469.228L305.11 469.074Z" fill="#231F33"/>
<path d="M133.136 184.494C132.777 184.701 132.712 185.253 132.464 185.654L134.593 185.024L134.185 184.317C134.185 184.317 133.099 184.429 133.136 184.494Z" fill="#231F33"/>
<path d="M149.931 214.743C150.506 214.411 150.13 213.428 150.049 212.789C149.371 213.238 148.826 213.851 148.479 214.553C148.237 215.464 149.4 215.65 149.931 214.743Z" fill="#231F33"/>
<path d="M167.259 252.23L165.879 251.999L165.357 253.586L166.551 253.496L167.259 252.23Z" fill="#231F33"/>
<path d="M272.719 450.999C273.67 451.65 274.391 451.405 274.67 450.559C274.948 449.713 274.373 450.045 274.224 449.788C274.076 449.53 273.354 449.775 273.361 450.286C273.368 450.796 272.573 450.912 272.719 450.999Z" fill="#231F33"/>
<path d="M115.254 191.217C114.679 191.549 115.055 192.532 115.173 193.235C115.292 193.938 116.755 192.322 116.707 191.407C116.658 190.492 116.045 190.76 115.254 191.217Z" fill="#231F33"/>
<path d="M217.668 379.231C217.668 379.231 218.076 379.938 218.113 380.002C218.9 379.913 219.685 379.775 220.463 379.588C219.765 378.877 219.247 378.147 217.668 379.231Z" fill="#231F33"/>
<path d="M91.185 153.679L91.3174 155.403L92.2523 154.863C92.2523 154.863 92.4585 154.058 92.3124 153.971C92.1662 153.884 91.4726 153.513 91.185 153.679Z" fill="#231F33"/>
<path d="M52.6486 97.0625C52.6486 97.0625 52.2403 96.3553 52.2032 96.291C51.356 96.3859 50.5109 96.5304 49.6725 96.7235C50.4079 97.499 50.9623 98.2933 52.6486 97.0625Z" fill="#231F33"/>
<path d="M2.53801 57.9294L2.12975 57.2222C2.12975 57.2222 1.25989 57.2101 1.26689 57.7204C1.27388 58.2307 0.770556 58.5215 0.522374 58.922L2.53801 57.9294Z" fill="#231F33"/>
<path d="M263.896 288.418C263.896 288.418 264.471 288.086 264.83 287.878C265.19 287.67 265.074 287.137 264.891 286.986C264.707 286.835 263.798 286.588 263.691 286.736C263.585 286.883 262.917 288.383 263.896 288.418Z" fill="#231F33"/>
</g>
<defs>
<clipPath id="clip0_1681_2956">
<rect width="534" height="115" fill="white" transform="translate(99.5957 0.521484) rotate(60)"/>
</clipPath>
</defs>
</svg>
