<svg width="309" height="319" viewBox="0 0 309 319" fill="none" xmlns="http://www.w3.org/2000/svg">
<g clip-path="url(#clip0_1689_133)">
<path d="M146.593 234.69C143.415 236.194 142.336 239.693 140.557 242.451C141.743 242.93 143.418 242.712 143.484 241.643C143.572 240.963 143.846 240.377 144.284 239.936C144.722 239.496 145.309 239.213 145.995 239.114C147.466 238.611 147.946 237.061 149.223 236.33C149.672 235.943 150.079 235.514 150.443 235.046C150.321 236.016 149.374 235.99 149.617 236.689C150.042 237.968 148.697 237.066 148.433 237.479C148.373 237.543 148.275 237.646 148.245 237.678C148.817 240.211 146.533 240.002 145.293 240.784C144.456 241.256 143.427 241.499 143.83 242.983C144.108 244.031 142.836 244.029 142.497 244.249C141.072 244.931 140.717 246.463 139.707 247.435C139.193 247.806 138.595 248.076 137.932 248.236C136.405 248.866 136.564 250.766 135.619 251.828C135.41 252.193 135.061 252.441 134.62 252.538C133.239 252.628 132.319 253.097 132.772 254.688C132.534 254.461 133.083 253.566 132.069 254.019C131.316 254.394 130.825 255.079 130.68 255.957C130.321 257.471 128.84 258.144 128.133 259.433C128.218 258.549 127.824 257.963 126.778 257.769C126.171 257.795 126.56 258.135 126.795 258.433L127.135 258.757C126.427 259.32 125.73 259.894 125.007 260.429C124.826 260.619 124.498 260.759 124.086 260.443C123.674 260.127 123.779 259.835 123.763 259.488C123.728 258.821 123.869 258.081 122.774 257.598C121.678 257.115 121.499 257.895 121.36 258.291C120.618 260.39 118.302 261.009 117.283 262.876C116.776 263.523 116.383 264.264 116.114 265.083C116.044 265.544 115.947 265.964 115.285 265.592C114.624 265.22 114.839 264.972 114.996 264.579C115.087 264.129 115.115 263.649 115.08 263.15C115.131 262.46 114.998 261.896 114.032 261.822C113.918 261.805 113.734 261.841 113.718 261.811C112.358 259.403 112.419 261.451 111.922 261.748L111.976 262.372L111.822 262.875C111.24 262.865 110.721 263.015 110.319 263.311C109.916 263.607 109.645 264.037 109.532 264.558L110.803 264.47C109.882 266.018 108.86 267.488 107.741 268.874C106.355 270.332 105.541 272.257 104.121 273.728C102.615 275.313 101.265 277.212 99.5128 278.578C97.6066 280.13 96.7588 282.43 95.4196 284.385C93.9065 282.796 93.8498 282.743 94.8589 281.681C95.7173 280.777 95.9899 279.468 96.7237 278.491C97.7993 277.426 98.9573 276.442 100.193 275.545C101.869 273.895 103.423 272.145 104.831 270.255C105.294 269.655 105.87 269.162 106.253 268.486C106.565 267.998 107.697 267.897 106.627 266.684C106.377 266.447 106.641 266.26 106.833 266.217C108.293 265.93 108.497 264.465 109.42 263.699C107.429 262.455 105.575 262.292 105.05 263.753C104.668 264.747 104.111 265.56 103.637 266.467C103.461 266.812 103.639 267.193 102.857 266.902C102.506 266.849 102.189 266.913 101.955 267.084C101.722 267.256 101.586 267.525 101.569 267.849C101.512 269.771 100.061 270.594 99.2528 271.922C98.7979 272.696 98.2446 273.392 97.7481 274.142C97.6482 274.335 97.4939 274.486 97.2967 274.583C97.0995 274.68 96.8646 274.721 96.6097 274.703C95.7102 274.596 94.8965 274.765 94.2756 275.187C93.6548 275.61 93.2559 276.265 93.1316 277.069C92.9932 277.646 92.556 277.879 91.7462 276.868C90.7623 275.631 89.8716 275.614 89.1453 276.538C88.6749 277.146 88.4017 278.184 87.0874 277.749C89.5838 276.894 90.4007 274.262 92.8475 273.164C91.9291 272.518 91.1106 272.72 90.3543 272.017C89.5979 271.313 89.2526 272.176 89.0913 272.596C88.5566 273.58 87.8289 274.414 86.9343 275.07C86.7701 274.726 86.7343 274.377 86.8344 274.098C86.9345 273.818 87.1627 273.631 87.4707 273.574C87.7992 273.472 88.0252 273.225 88.1012 272.887C88.1772 272.549 88.0972 272.145 87.878 271.76C87.7367 271.581 87.5615 271.427 87.3691 271.312C87.1768 271.197 86.9737 271.124 86.7792 271.101C86.5847 271.078 86.4052 271.105 86.2579 271.18C86.1106 271.255 86.0004 271.376 85.9378 271.53C85.6906 270.676 86.6236 271.08 86.4979 270.554C86.3722 270.027 87.7277 270.305 87.0578 269.442C86.3879 268.579 86.1781 269.3 85.7898 269.459C85.4014 269.617 85.2613 269.379 84.9514 269.205C84.7008 269.029 84.4326 268.897 84.1635 268.815C83.8944 268.733 83.6302 268.704 83.3874 268.729C83.1446 268.754 82.9283 268.834 82.7521 268.962C82.5759 269.09 82.4435 269.265 82.3632 269.475C81.7942 270.301 81.129 271.047 80.3755 271.703C79.9708 272.012 79.737 272.49 79.7105 273.062C79.4848 272.732 79.3674 272.371 79.3806 272.047C79.3938 271.724 79.5366 271.46 79.7821 271.305C80.8851 270.367 81.614 269.069 81.9022 267.529C82.1271 266.838 80.0841 264.489 79.2272 264.369C78.6986 264.289 78.8958 264.717 78.8021 264.975C78.744 265.411 78.5879 265.798 78.343 266.114C78.0981 266.431 77.7693 266.669 77.3758 266.817C76.8025 266.966 76.2027 267.074 76.8806 268.156C77.2593 268.757 76.9932 269.605 76.0709 268.894C74.861 267.895 74.4776 268.572 74.275 269.103C73.7985 270.4 72.2462 269.829 71.1826 270.085C70.6093 270.234 70.3993 269.16 69.9343 268.763C69.1968 268.063 69.6978 267.604 69.841 267.544C71.3832 266.943 70.9407 264.773 72.2295 263.962C72.3726 263.812 72.8621 263.297 72.3441 262.865C71.8262 262.433 71.4536 262.938 71.2619 263.254C70.4902 264.297 69.92 265.501 69.5677 266.832C69.2742 265.482 67.9171 264.479 69.0592 263.845C69.2174 263.679 68.8504 263.27 68.5935 263.131C67.4903 262.615 66.3699 262.247 65.2701 262.039C64.6475 261.946 64.0082 261.751 63.3781 261.463C62.2446 260.838 63.6483 260.769 63.2018 260.239C63.0203 260.067 63.0912 259.697 62.8525 259.289C62.2321 260.328 60.383 260.366 61.0519 262.479C61.1621 262.84 60.2461 263.327 59.6728 263.476C58.2394 263.758 57.2488 264.641 55.9024 265.036C54.9294 265.332 54.2527 264.795 54.266 263.963C54.2929 262.481 53.0355 262.145 52.2002 261.593C51.6522 261.238 50.6417 261.62 50.4433 260.647C50.1953 259.74 50.3016 258.895 50.74 258.29C51.2373 257.665 51.6808 256.993 52.0678 256.279C52.241 256.097 52.5196 255.804 52.0659 255.418C51.6121 255.032 51.3298 255.352 51.1379 255.622C50.9039 255.913 50.7232 256.248 50.6005 256.619C50.5012 257.044 50.2577 257.383 49.9003 257.593C49.543 257.803 49.0878 257.876 48.5916 257.802C48.2481 257.777 47.8943 258.195 47.5155 257.548C47.1367 256.902 47.5857 256.861 47.8002 256.613C48.5834 255.993 49.2695 255.271 49.8485 254.457C50.3933 253.667 51.0524 252.973 51.8139 252.389C50.4297 251.074 49.9292 251.714 48.9645 252.32C47.7736 253.074 47.0367 254.349 45.5771 254.726C45.1773 254.829 44.1583 254.811 43.9982 254.116C43.4887 252.38 42.7522 252.087 41.6099 252.63C41.1519 251.999 41.831 251.921 41.5998 251.46C41.2998 251.478 41.0364 251.574 40.8327 251.741C40.629 251.908 40.4914 252.14 40.432 252.416C40.5415 254.164 38.8238 253.904 38.0256 254.744C37.8298 254.95 37.4759 255.322 36.8483 254.801C36.2207 254.28 36.5594 253.878 36.6982 253.482C36.9957 252.782 37.4483 252.19 38.0341 251.736C38.2073 251.553 38.7163 251.359 38.1188 250.806C37.7785 250.482 37.3814 250.105 37.0159 250.376C35.5503 251.487 35.3586 250.098 35.0391 248.98L35.0843 248.933L35.0391 248.98C34.5214 248.684 34.304 249.322 33.7483 248.93C33.7808 248.331 33.9508 247.792 34.2475 247.347C34.5441 246.902 34.9609 246.56 35.4711 246.344C36.8953 245.3 36.8267 243.305 37.4762 241.781C36.9388 241.074 36.8396 242.291 36.3929 241.671C35.9462 241.05 36.2319 240.523 36.5657 239.603C34.0053 240.548 32.4542 242.226 29.972 242.657L30.0372 241.407C28.7623 241.704 28.1987 242.842 26.6427 242.344C26.7831 240.969 28.2392 240.664 28.6246 239.19C27.3043 239.444 27.2581 240.742 25.9261 240.803C27.0857 239.583 28.0341 238.358 27.1498 236.085C26.402 237.531 24.3037 237.557 23.9419 239.46C23.7101 240.477 22.9438 240.352 21.7908 239.452C21.666 239.334 21.4091 239.24 21.3262 239.282C19.4113 240.298 16.4588 239.679 15.2373 241.941C14.6584 243.005 12.806 243.25 11.2325 243.338C9.97213 243.392 9.28339 242.527 9.32979 241.319C9.41848 238.749 10.9624 237.215 12.1434 235.427C12.3006 235.207 12.3948 234.938 12.4201 234.637C12.4454 234.337 12.4013 234.012 12.2906 233.682C9.56713 234.276 8.92453 237.224 6.26135 237.755C7.50227 234.018 10.6298 231.863 12.4302 228.537L9.69949 230.978C8.97219 229.744 10.1794 229.565 9.80745 228.593C8.69721 228.262 8.42311 228.891 8.17942 229.625C8.05201 230.031 7.77018 230.578 7.10873 230.115C6.21666 229.463 6.84587 229.006 7.12841 228.777C9.30987 227.14 10.3947 224.476 12.5685 222.802C13.2881 222.249 14.4603 221.583 14.4812 220.789C14.4935 219.549 15.0637 219.699 15.8442 219.355C16.3693 219.245 16.7992 218.977 17.0871 218.578C17.375 218.178 17.5099 217.664 17.477 217.091C17.4479 216.916 17.4876 216.759 17.5881 216.654C17.6886 216.548 17.8425 216.5 18.0192 216.52C18.483 216.574 18.8874 216.449 19.1513 216.171C19.4152 215.893 19.5192 215.483 19.4424 215.023C19.4397 214.753 19.5243 214.518 19.6854 214.349C19.8465 214.179 20.0766 214.083 20.346 214.072C20.5502 214.266 20.6751 214.384 20.8671 214.205L21.343 214.386C21.4519 214.112 21.9688 214.045 21.5637 213.495C22.5783 213.27 23.3306 212.632 23.6769 211.703C22.7249 211.25 22.8672 212.441 21.9457 212.138C21.8912 211.378 22.5626 211.217 22.9698 211.061C23.7581 210.632 24.3969 210.021 24.8527 209.261C25.9662 207.995 27.1769 206.819 28.4792 205.74C28.6976 205.51 29.0899 205.415 29.4755 205.737C29.8612 206.058 30.0532 205.879 30.098 205.65C30.4319 203.026 33.0796 202.33 33.9919 200.166C34.4613 199.104 35.7095 198.677 36.4472 197.809C38.0657 195.879 40.4106 194.729 42.2296 193.019C42.8602 192.55 43.3281 191.91 43.6029 191.142C42.033 191.159 41.6657 192.318 40.8704 192.768C42.4904 191.518 43.0365 189.307 44.8302 188.101C45.0848 188.901 45.3699 189.805 46.1114 188.912C47.2785 187.683 48.4457 186.455 49.6129 185.227C49.869 184.957 50.3856 184.8 49.5801 184.034C49.0696 183.549 49.8347 183.13 50.0086 183.265C51.2637 184.217 51.1441 183.047 51.5019 182.739C53.3211 181.12 55.0042 179.371 56.8801 177.806C57.8482 176.992 57.6893 175.092 59.5348 175.126C59.6367 175.132 59.5297 174.518 59.4988 174.187C59.4678 173.856 59.3427 173.602 59.6482 173.485C61.1401 172.383 62.1548 170.791 62.5929 168.863C62.8465 167.949 63.3314 167.175 64.0144 166.595C67.3659 163.295 69.9006 159.265 72.9722 155.714C74.8845 153.52 76.8157 151.329 78.6675 149.062C79.4499 147.783 80.609 146.82 82.0539 146.248C83.174 145.91 82.948 144.398 83.5424 143.545C85.2541 141.085 87.0981 138.736 88.9762 136.418C90.3293 134.556 91.8723 132.856 93.5917 131.334C94.5792 130.926 95.4617 130.372 96.2185 129.683C96.2938 129.604 96.4749 129.595 96.6031 129.551C95.4063 127.584 98.208 128.271 97.8161 126.843C98.9866 127.111 98.7732 126.154 99.0586 125.536C99.3931 124.773 100.013 124.225 100.833 123.964C101.498 123.81 102.059 123.484 102.474 123.012C102.888 122.54 103.145 121.935 103.223 121.244C103.309 121.013 103.45 120.819 103.637 120.672C106.37 117.569 109.099 114.447 111.866 111.376C113.703 109.442 115.359 107.336 117.371 105.583C119.231 103.988 120.737 102.041 122.62 100.468C123.189 99.9829 123.482 99.2205 124.005 98.6924C125.043 97.4374 126.275 96.3619 127.678 95.4865C129.136 94.7465 129.937 93.1092 130.903 91.7055C131.87 90.3019 132.622 89.1468 133.476 87.862C133.544 87.7907 133.642 87.6876 133.664 87.6639C135.719 88.3192 135.711 86.3057 136.853 85.7625C137.42 85.6227 137.873 85.3001 138.155 84.8334C138.438 84.3667 138.539 83.7755 138.447 83.1305C138.418 82.8431 138.479 82.5845 138.623 82.3882C138.767 82.1919 138.988 82.0669 139.256 82.0293C140.645 81.8406 140.66 80.166 142.169 80.1679C142.709 80.1679 141.839 79.3112 142.144 79.0129C143.248 77.9653 143.844 76.4059 145.526 75.9535C145.624 75.9456 145.725 75.9457 145.828 75.9539C145.381 73.5387 148.066 74.1897 148.86 72.9229C149.859 71.6437 150.976 70.4682 152.203 69.4045C152.369 69.2301 152.61 68.9765 152.564 68.7974C151.805 66.6884 153.748 66.5293 154.626 66.0821C155.455 65.7082 156.164 65.1761 156.728 64.5058C157.951 62.8328 160.105 62.2704 161.453 60.8519C162.87 59.69 164.13 58.3643 165.218 56.8896C165.346 56.7549 165.398 56.4728 165.602 56.4855C166.734 56.4302 167.367 56.1726 166.19 54.7074C165.873 54.3148 166.366 53.7731 166.566 53.9484C168.237 55.3706 168.31 53.886 168.622 53.3531C169.452 51.9107 171.086 51.4418 172.386 50.5962C173.202 49.9426 173.921 49.1863 174.532 48.3377C176.853 46.225 179.505 44.4626 182.442 43.0811C182.607 42.9068 183.189 43.1126 182.878 42.6215C181.67 40.6893 182.971 40.2517 183.974 39.9231C184.709 39.73 185.341 39.3728 185.836 38.8721C186.33 38.3713 186.677 37.7369 186.855 37.0053C187.031 36.2524 187.207 35.6355 188.292 36.7424C188.769 37.1952 189.048 37.1287 189.311 36.8513C189.575 36.574 189.982 36.4181 189.6 35.7982C188.622 34.2364 189.754 33.7731 190.538 33.5836C191.797 33.3714 192.913 32.8977 193.83 32.1873C194.333 31.4393 194.664 30.5607 194.809 29.5891C194.964 28.4819 195.478 27.562 196.29 26.9399C196.99 27.907 195.843 28.0235 196 28.8357C197.437 28.5275 198.129 27.3904 199.328 26.9011C199.426 26.7981 199.652 26.5604 199.519 26.4044C198.391 24.8197 199.7 24.7368 200.296 24.2468C201.015 23.6487 202.321 23.8191 202.772 22.845C202.911 22.5397 203.383 22.6111 203.844 23.0344C204.502 23.6597 204.87 22.9541 204.795 22.8066C203.984 21.3878 205.191 21.2986 205.681 20.8742C207.039 19.3759 208.707 18.1801 210.628 17.3265C212.887 16.6532 214.431 15.21 216.418 14.2779C216.912 14.0535 217.452 14.371 217.329 14.8871C217.097 15.7221 217.834 16.2415 218.167 16.8449C218.904 17.047 218.682 15.8261 219.487 16.4102C220.058 16.8319 219.656 17.5052 219.803 17.736C220.466 18.788 219.873 20.1848 221.535 20.8895C222.022 21.081 222.778 21.3313 222.663 20.4528C222.665 20.3738 222.686 20.3025 222.724 20.2439C222.763 20.1852 222.818 20.1406 222.885 20.1132C222.952 20.0857 223.031 20.0761 223.115 20.0848C223.198 20.0936 223.286 20.1206 223.371 20.164C223.456 20.2074 223.537 20.2661 223.608 20.3361C223.678 20.4061 223.737 20.4858 223.78 20.5696C223.824 20.6534 223.85 20.7394 223.858 20.8216C223.866 20.9038 223.855 20.9803 223.826 21.0458C223.597 21.5822 222.692 22.0345 223.721 22.7701C224.749 23.5058 224.553 22.0532 225.236 21.948C226.015 22.5826 224.483 22.7405 225.341 23.2691C226.198 23.7977 226.295 23.1507 226.638 22.8581C226.981 22.5656 227.238 22.7495 227.574 23.0542C229.064 24.3492 230.06 24.1192 230.907 23.2051C231.374 22.7137 232.337 23.3128 232.922 22.9933C233.838 22.5065 233.998 23.5188 234.592 24.0528C235.919 25.3141 236.573 24.0807 237.482 23.7831C237.818 23.6798 237.348 22.7658 238.047 23.1888C238.746 23.6118 238.4 24.0217 238.174 24.3048C237.948 24.5879 238.173 25.3288 238.354 25.3199C239.089 25.2953 238.772 26.7429 239.888 26.3861C241.393 25.9158 242.541 27.8661 243.475 28.8595C244.409 29.8529 243.54 30.7455 242.831 31.2637C242.504 31.4234 242.244 31.6684 242.069 31.9815C241.894 32.2947 241.809 32.6687 241.82 33.0776C242.646 32.8672 243.654 33.2374 243.97 32.4059C244.96 32.9545 243.986 33.0247 244.221 33.4138C244.456 33.8028 244.647 34.7834 245.544 34.2937C246.441 33.9239 247.38 33.6181 248.357 33.378C248.417 33.3146 248.591 33.359 248.625 33.3007C248.907 32.7088 249.273 32.8912 250.297 33.3815C250.932 33.7132 250.864 33.9205 250.573 33.9309C249.721 33.965 249.545 34.7633 248.855 34.967C248.165 35.1707 247.762 35.6174 248.511 36.6009C249.261 37.5845 248.023 37.4334 248.262 38.0678C246.344 38.0405 245.895 39.604 244.999 40.6831C244.6 41.1031 244.402 42.0158 243.263 40.7376C242.662 40.0756 242.596 40.8269 242.328 40.9949C243.372 41.9867 242.323 42.1815 242.26 42.7249C242.187 42.9904 242.229 43.3088 242.377 43.6233C242.525 43.9379 242.769 44.2281 243.068 44.4424C243.537 44.8639 244.09 45.1555 244.633 45.2674C245.177 45.3794 245.676 45.3048 246.047 45.0564C247.544 44.598 248.685 43.6192 249.316 42.2518C249.368 42.063 249.499 41.9251 249.685 41.8635C250.972 41.7138 250.363 41.1503 249.275 40.478C251.078 41.7842 251.471 40.4388 252.319 40.1593C252.879 39.9783 253.304 39.603 253.536 39.0835C253.971 37.9892 254.78 38.4106 255.891 39.3311C254.042 41.0273 252.511 43.0252 249.954 43.9436C249.562 44.0836 248.917 44.3305 249.115 44.9858C249.548 46.3929 248.988 45.8912 248.244 45.2437C247.937 44.9527 247.82 45.0528 247.625 45.3042C247.035 45.9289 246.785 46.8368 246.921 47.8625C246.963 48.1759 247.082 48.5014 247.266 48.8127C247.45 49.124 247.695 49.4124 247.982 49.6545C248.62 50.0956 248.845 49.3592 249.222 49.099C249.745 48.6247 250.438 48.3397 251.236 48.2704C252.034 48.201 252.911 48.3496 253.787 48.7022C254.826 49.1313 255.92 48.889 257.071 48.9725C256.914 49.683 256.152 49.8033 256.12 50.587C256.092 51.6161 257.114 53.0397 257.962 52.6696C259.912 51.8678 262.825 53.3238 264.478 51.9244C264.629 51.7659 265.323 51.4902 265.683 52.1791C265.755 52.3109 265.796 52.4473 265.803 52.5759C265.811 52.7045 265.783 52.8211 265.724 52.915C265.665 53.0089 265.576 53.0772 265.465 53.1134C265.354 53.1497 265.224 53.1528 265.089 53.1225C264.318 52.9788 264.248 53.5754 263.913 53.8601C263.246 54.4481 263.75 55.2131 264.675 55.6251C265.613 56.1097 266.584 56.3449 267.466 56.3012C267.856 56.1762 268.334 56.2186 268.811 56.4206C269.289 56.6227 269.735 56.9709 270.068 57.402C270.564 58.039 270.933 57.696 271.352 57.7322C271.771 57.7685 272.366 57.2784 273.088 57.5417C273.529 57.6901 274.122 57.5441 274.376 58.1173C274.411 58.315 274.396 58.5008 274.332 58.6587C274.269 58.8165 274.159 58.9416 274.012 59.023C273.061 59.3868 273.758 60.6072 273.534 61.3436C273.309 62.08 274.759 62.3266 275.196 62.0483C276.168 61.2527 277.868 62.0085 278.93 61.3898C279.217 61.2247 280.494 62.0162 281.039 62.579C281.583 63.1418 280.882 63.5161 280.596 63.7719C280.054 64.1646 279.452 64.4863 278.798 64.7325C278.506 64.8489 278.267 65.0381 278.098 65.2874C277.928 65.5368 277.83 65.8406 277.813 66.1787C278.582 66.188 279.223 65.901 279.615 65.3728C280.696 64.5756 282.169 65.2064 283.461 65.6194C284.163 65.8345 284.762 66.9766 284.281 67.8011C283.473 68.8257 282.595 69.7879 281.649 70.684C282.67 71.6543 283.027 71.0738 283.483 70.7078C284.278 69.7611 285.266 68.997 286.414 68.4412C287.776 68.0308 288.588 68.4257 289.49 69.9761C289.944 70.77 290.35 71.7741 291.512 71.4605C291.753 71.3882 292.075 71.7088 292.223 72.0303C292.305 72.175 292.334 72.327 292.303 72.4532C292.273 72.5793 292.184 72.6692 292.058 72.7033C291.998 72.7667 291.839 72.7064 291.745 72.7375C290.602 73.0087 291.125 73.822 291.776 74.6819C291.187 74.8466 290.114 74.1585 289.995 75.1466C290.004 75.4071 289.943 75.6423 289.819 75.8314C289.695 76.0204 289.511 76.1576 289.284 76.2307C289.056 76.3038 288.792 76.3106 288.515 76.2505C288.238 76.1904 287.957 76.0653 287.695 75.8862C286.697 75.1188 286.487 75.5221 286.053 75.9097C285.79 76.1871 285.708 76.6823 284.994 76.4111C284.774 76.3718 284.567 76.3861 284.391 76.4527C284.215 76.5193 284.075 76.6361 283.984 76.7929C283.86 77.2183 284.732 77.3685 284.876 77.8526C283.855 76.8823 283.252 76.9722 282.676 77.7371C282.1 78.502 282.163 79.4814 281.334 79.8997C279.43 80.8353 279.194 83.3556 277.199 84.2502C276.913 84.37 277.126 85.3269 277.32 85.8728C277.514 86.4188 277.834 86.1047 277.999 85.9303C280.093 83.7273 282.67 82.0145 284.752 79.8007C285.31 79.2143 284.498 78.9555 284.444 78.5576C284.841 78.9349 285.196 79.1518 285.467 78.7759C285.738 78.3999 286.153 78.0547 286.837 78.9016C287.522 79.7485 287.576 80.2824 286.818 80.5575C286.468 80.6766 286.409 81.1934 285.732 80.8826C285.358 80.7082 284.971 81.2296 285.16 81.4848C286.155 82.8229 284.982 83.0351 284.833 83.7829C284.549 85.2628 282.754 85.5167 282.625 87.1288C282.622 87.2461 281.855 88.6891 280.595 87.1297C280.216 86.6646 279.926 86.9924 279.863 87.2637C279.197 90.0998 278.838 89.7735 277.205 91.7651C276.117 93.1142 274.497 94.1833 274.237 96.2287C273.916 97.3784 273.408 98.4179 272.727 99.3176C272.25 100.297 272.284 102.441 270.042 101.893C269.999 103.256 268.672 103.608 268.149 104.498C267.484 105.63 266.039 105.856 265.381 106.98C264.723 108.104 264.44 109.811 263.102 110.696C261.244 111.946 260.653 114.295 259.389 116.035C258.501 117.242 256.782 117.915 255.75 119.137C255.073 119.85 253.986 120.13 253.747 121.245C253.684 121.516 253.325 121.688 253.692 122.097C253.83 122.252 254.007 122.367 254.187 122.421C254.368 122.475 254.539 122.464 254.667 122.39C255.779 121.833 256.012 122.974 255.869 123.397C255.614 124.074 257.411 126.068 255.07 125.442C254.141 125.193 253.442 126.655 252.283 124.785C252.06 124.406 251.925 124.73 251.774 124.798C251.453 124.931 251.533 125.324 251.523 125.63C251.512 125.937 251.765 126.012 251.991 125.955C252.923 125.725 252.933 126.85 253.492 127.17C253.47 127.181 253.443 127.186 253.415 127.185C253.386 127.183 253.356 127.176 253.326 127.163L253.138 127.361L253.157 127.455C252.345 127.332 251.652 127.789 250.714 127.004C250.397 126.702 250.073 126.952 250.062 127.168C250.031 128.405 248.377 128.191 248.297 129.411C248.257 129.976 247.807 129.791 247.278 129.257C246.472 128.492 245.56 128.907 245.61 129.286C245.695 130.151 244.993 130.208 244.726 130.602C244.598 130.737 244.198 130.794 244.712 131.207C245.226 131.621 245.268 131.645 244.782 132.224C244.297 132.803 244.019 133.414 242.873 132.325C242.566 132.034 242.348 132.264 242.032 132.551C241.038 133.597 241.045 135.293 239.99 136.221L239.934 136.168L239.95 136.56C239.983 136.62 239.999 136.682 239.995 136.739C240.082 136.829 240.173 136.915 240.268 136.998C240.488 137.493 240.216 137.597 239.858 137.633L239.507 137.662L239.093 138.098L239.025 138.033C238.82 137.839 238.639 137.667 238.443 137.873C238.095 137.421 237.742 136.77 237.188 136.921C236.984 136.969 236.832 137.098 236.761 137.286C236.69 137.473 236.705 137.706 236.802 137.941C237.094 138.656 236.668 138.855 236.173 138.852C235.351 138.855 235.882 138.274 235.628 137.972C235.374 137.671 235.072 137.263 234.789 137.537C233.727 138.655 232.666 139.772 231.604 140.889C231.34 141.167 231.741 141.608 231.934 141.837C232.324 142.313 232.531 141.936 232.704 141.754C233.239 141.191 233.773 140.628 234.308 140.066C234.407 140.325 234.233 140.417 234.117 140.562C233.665 141.038 233.718 140.983 234.557 141.916C235.397 142.85 235.592 142.372 235.727 142.003C236.267 140.435 237.866 139.752 238.41 138.203L239.161 138.298C239.432 139.536 240.254 140.92 239.154 141.76C238.264 142.423 237.931 143.614 236.395 143.572C236.154 143.554 233.778 142.895 235.466 144.936C235.347 145.19 235.156 145.391 234.909 145.523C233.322 146.261 231.436 146.746 231.883 149.252C229.239 151.898 228.766 156.304 225.518 158.495C224.595 159.126 222.945 158.931 222.907 160.538C222.907 160.538 222.779 160.673 222.673 160.648C220.725 160.426 220.725 160.426 219.767 162.411C220.433 162.937 220.484 161.975 221.149 162.366C220.957 162.817 220.785 163.272 220.112 163.116C218.689 162.819 217.182 164.086 217.83 165.381C218.479 166.675 217.871 166.792 217.355 167.312C215.925 168.818 214.63 170.453 213.275 172.015C212.974 172.332 212.794 173.066 212.095 172.598C211.396 172.13 212.222 171.919 212.157 171.51C212.092 171.102 211.929 170.705 211.763 170.834C211.349 171.27 210.54 170.758 209.975 171.126C208.505 172.082 209.111 174.739 206.726 175.067C206.062 175.176 205.542 175.534 205.25 176.08C204.959 176.626 204.915 177.328 205.125 178.069C205.125 178.069 205.099 178.21 205.096 178.282C203.698 177.482 203.712 178.988 202.878 179.025C201.96 178.424 203.201 177.959 202.358 177.505C201.515 177.052 201.521 177.886 201.076 178.037C200.108 178.605 199.282 179.343 198.624 180.231C198.391 180.476 198.415 181.042 197.67 180.44C197.558 180.363 197.457 180.268 197.375 180.16C197.293 180.052 197.232 179.936 197.195 179.819C197.159 179.701 197.149 179.587 197.166 179.484C197.183 179.381 197.227 179.291 197.293 179.223C197.666 178.581 197.943 177.562 199.709 179.452C199.122 178.23 198.558 177.574 199.02 176.792C196.988 177.409 196.251 179.001 194.959 179.975C194.748 180.197 194.254 180.421 194.648 180.871C195.23 181.53 195.41 180.886 195.704 180.713C195.875 180.58 196.024 180.423 196.148 180.246C197.442 181.475 197.111 182.186 196.316 182.773C195.521 183.36 195.883 185.001 194.074 184.11C194.703 185.266 193.695 185.349 193.3 185.788C192.905 186.227 192.668 186.816 191.573 186.333C191.052 186.109 190.524 186.483 190.9 187.564C191.086 188.072 190.186 188.906 189.394 189.149C189.277 189.167 189.177 189.216 189.103 189.292C189.028 189.368 188.981 189.468 188.967 189.584C188.952 189.701 188.969 189.83 189.017 189.96C189.065 190.09 189.142 190.217 189.242 190.331C189.73 190.931 189.664 189.887 190.162 190.226L186.043 194.561L185.68 194.216L187.299 192.512C187.495 192.306 187.729 192.06 187.282 191.666C186.836 191.272 186.765 191.597 186.573 191.731C185.251 192.782 183.656 193.483 183.037 195.293C182.962 195.554 182.068 195.654 181.551 195.811C181.105 195.889 180.741 196.111 180.504 196.449C180.267 196.787 180.168 197.226 180.22 197.713C180.282 198.027 180.274 198.327 180.196 198.59C180.118 198.854 179.972 199.075 179.767 199.238C179.563 199.401 179.306 199.501 179.014 199.533C178.723 199.564 178.404 199.525 178.08 199.419C177.166 199.109 177.379 200.02 176.901 200.229C175.422 200.629 174.331 201.609 173.816 202.998C173.733 203.986 173.273 204.79 172.515 205.275C170.747 206.068 170.264 208.008 168.772 209.078C167.831 209.868 167.02 210.79 166.352 211.83C165.231 213.373 163.228 213.868 161.815 215.059C160.403 216.25 158.34 216.899 158.885 219.619C158.969 220.03 158.449 220.078 158.23 220.308L158.011 220.266L157.259 219.762C157.17 219.79 157.089 219.829 157.018 219.88C155.727 219.92 154.165 223.201 154.832 224.453C155.214 225.209 155.529 225.991 154.806 226.343C154.352 225.912 154.657 225.75 154.789 225.634C155.211 225.19 154.851 224.637 154.469 224.289C154.222 224.11 153.945 224.012 153.695 224.017C153.445 224.021 153.242 224.127 153.129 224.313C152.763 224.961 152.316 225.546 151.793 226.06C151.675 226.206 151.623 226.404 151.644 226.626C152.293 228.646 152.293 228.646 150.993 229.582C150.403 228.84 150.595 228.389 150.975 227.966C151.163 227.768 151.389 227.53 151.003 227.118C150.617 226.707 150.354 227.029 150.01 226.914C149.323 226.683 149.712 227.113 149.789 227.442C150.086 228.765 148.516 228.781 148.511 229.923C148.976 230.365 149.854 229.691 149.965 230.551C149.95 230.944 149.798 231.276 149.531 231.499C149.264 231.723 148.897 231.826 148.481 231.795C147.062 231.652 146.923 231.822 147.963 233.203C148.739 234.181 147.687 234.357 147.405 234.858C147.087 234.557 146.83 234.463 146.616 234.712L146.593 234.69ZM238.851 132.922L238.941 132.827C239.145 132.613 239.571 132.46 239.317 132.068C239.063 131.676 238.713 131.795 238.513 132.028L238.438 132.107C238.343 132.143 238.279 132.22 238.258 132.322C238.236 132.424 238.259 132.545 238.322 132.661C238.399 133.171 238.584 133.181 238.851 132.922ZM100.136 186.11L100.483 186.018L100.071 185.792L99.7275 185.904L100.136 186.11ZM109.782 171.028C109.606 171.328 108.485 171.439 109.939 172.067C110.382 172.488 110.553 173.012 110.206 173.286C110.12 173.348 110.055 173.432 110.014 173.533C109.973 173.634 109.957 173.75 109.968 173.875C109.979 173.999 110.016 174.128 110.077 174.256C110.138 174.384 110.221 174.507 110.322 174.618C110.909 175.432 110.948 174.141 111.504 174.67C111.731 175.203 110.705 175.147 111.405 175.978C113.426 174.318 114.858 172.073 115.598 169.407C114.679 169.215 113.816 169.283 113.111 169.602C112.406 169.921 111.889 170.478 111.621 171.207L111.257 170.862C110.339 169.989 110.526 171.222 109.983 171.158C109.925 171.099 109.854 171.053 109.782 171.028V171.028ZM148.597 145.813C150.161 144.735 152.198 144.091 152.23 141.604C152.256 141.452 152.321 141.32 152.418 141.217C152.516 141.114 152.644 141.044 152.795 141.009C154.991 140.789 155.76 138.866 157.298 137.884C159.326 136.544 160.837 134.635 161.72 132.299C162.504 130.179 165.706 129.648 164.389 126.195C164.389 126.195 164.45 126.131 164.48 126.1C166.205 124.648 166.732 122.208 168.17 120.558C168.448 120.265 169.161 119.992 168.628 119.485C168.094 118.979 167.794 118.09 167.021 118.154C166.705 118.104 166.415 118.151 166.191 118.289C165.967 118.427 165.82 118.649 165.77 118.926C165.714 119.325 165.587 119.959 165.3 119.988C162.964 119.879 163.082 121.891 162.492 123.352C162.031 122.792 161.568 121.916 160.868 122.517C158.736 124.132 156.937 126.102 155.514 128.378C155.911 128.483 156.326 128.727 156.455 128.638C158.238 127.333 159.855 125.844 161.29 124.185C161.302 124.558 160.862 124.954 161.153 125.034C163.033 125.509 160.61 125.605 161.385 125.858C161.273 126.611 160.299 126.455 160.029 127.058C159.154 129.001 157.36 130.162 156.33 131.973C156.179 132.267 155.935 132.865 155.414 132.505C154.545 131.875 155.601 131.763 155.46 131.297C155.441 131.204 155.29 131.135 155.139 130.886C154.238 131.357 152.875 130.997 152.099 131.813C150.405 133.596 148.506 135.185 146.732 136.892C146.28 137.416 146.081 138.144 146.167 138.964C146.172 139.572 144.596 138.345 144.33 139.375C144.102 140.126 143.706 140.773 143.164 141.283C140.152 144.453 137.117 147.511 134.351 150.899C135.504 151.617 135.422 150.408 136.199 150.453C136.102 151.026 135.769 151.466 135.262 151.689L132.244 153.934C131.709 154.315 131.809 154.937 132.474 155.509C133.14 156.081 133.652 155.86 133.908 155.364C134.186 154.774 134.616 154.298 135.17 153.965C135.724 153.632 136.391 153.45 137.127 153.431C136.492 153.679 136.051 154.183 135.881 154.856C135.67 155.077 135.097 155.362 135.823 155.916C135.936 155.997 136.058 156.057 136.18 156.091C136.301 156.126 136.42 156.134 136.527 156.115C136.634 156.096 136.726 156.051 136.796 155.983C136.867 155.916 136.915 155.826 136.935 155.722C137.286 153.99 139.203 153.609 139.731 151.94C139.997 151.092 139.007 150.271 139.282 150.14C140.598 149.596 140.292 147.873 141.192 147.039C141.516 146.699 141.713 147.127 142.004 147.208C143.11 147.52 144.498 148.627 145.146 148.445C145.795 148.365 146.337 148.084 146.709 147.637C147.081 147.189 147.268 146.592 147.247 145.916C147.935 146.465 148.509 146.814 148.597 145.813V145.813ZM131.038 161.202C131.58 160.858 131.655 160.28 131.08 159.658C129.831 158.291 129.797 158.077 130.859 157.277C131.115 157.008 131.764 156.825 131.238 156.129C130.712 155.433 130.438 156.062 130.049 156.04C128.452 155.925 128.463 157.549 127.381 158.029C126.9 158.164 126.499 158.425 126.212 158.792C125.924 159.159 125.756 159.622 125.722 160.144C125.687 160.666 125.787 161.234 126.014 161.803C126.24 162.372 126.587 162.926 127.027 163.423C127.996 164.675 128.698 164.8 129.239 163.685C129.698 162.748 129.74 161.431 131.038 161.202V161.202ZM81.2848 213.378C79.3429 212.422 78.7108 213.269 77.9117 213.701C76.6263 214.395 75.1414 215.321 75.0652 216.696C75.0064 218.154 74.4365 219.383 73.4389 220.203C72.5955 221.09 71.4911 221.73 70.5532 222.513C70.3616 222.659 70.2323 222.868 70.178 223.12C70.1236 223.373 70.1461 223.659 70.2431 223.952C70.4026 224.375 70.8889 224.159 71.2139 224.362C72.1209 224.907 71.8774 224.027 72.1371 223.731C72.6115 223.232 72.247 222.207 72.9555 221.779C76.4042 219.763 77.9127 215.858 81.2848 213.378ZM186.484 101.739C186.876 101.327 187.629 100.534 188.389 99.7341C188.532 99.5835 188.736 99.3696 188.369 99.0059C188.002 98.6422 187.806 98.8482 187.637 99.0039C185.848 100.727 184.014 102.408 182.316 104.217C180.908 105.699 180.301 107.882 178.091 108.663C177.06 109.121 176.357 109.99 176.097 111.125C176.014 111.485 175.97 111.895 176.465 112.215C176.96 112.534 176.971 112.137 177.159 111.939C178.183 110.861 179.321 109.891 180.379 108.846C181.54 107.944 182.549 106.881 183.391 105.676C184.266 104.232 185.301 102.915 186.484 101.739V101.739ZM247.807 121.044C246.592 121.958 245.62 123.127 244.927 124.505C244.822 124.752 244.476 124.981 244.824 125.342C245.171 125.703 245.499 125.335 245.774 125.205C246.049 125.074 245.939 124.668 246.381 124.997C246.507 125.138 246.595 125.301 246.631 125.461C246.742 125.868 245.674 126.06 246.925 126.675C247.877 127.127 247.845 126.388 248.199 126.106C248.553 125.825 248.736 124.973 249.314 125.342C250.879 126.331 250.306 125.093 250.056 124.674C249.466 123.706 249.834 123.272 250.286 122.842C250.738 122.412 251.198 122.019 251.688 121.64C252.177 121.261 251.693 120.771 251.383 120.461C250.873 119.976 250.696 120.275 250.595 120.677C250.322 121.805 249.118 121.913 248.346 122.476C247.828 121.999 248.148 121.639 247.807 121.044V121.044ZM260.155 110.685C260.644 110.377 261.039 109.961 261.322 109.457C261.516 108.661 262.972 108.22 261.871 107.174C261.316 106.646 260.227 107.542 259.923 108.248C259.168 109.974 257.339 110.649 256.407 112.175C255.812 113.119 255.241 114.084 254.613 114.904C254.161 115.379 254.667 115.8 255.098 116.21C255.779 116.857 255.653 116.194 255.826 115.967L260.155 110.685ZM63.8281 227.613C63.6065 228.096 63.1433 228.561 63.9373 229.225C64.289 229.559 64.7778 230.431 65.4333 229.923C67.043 228.721 68.4941 227.346 69.7717 225.811C69.9751 225.597 70.5029 225.36 69.8524 224.727C69.6579 224.531 69.4188 224.389 69.1793 224.327C68.9397 224.266 68.716 224.29 68.5497 224.394C66.8761 225.337 65.6529 226.829 63.8281 227.613ZM123.457 163.318C123.457 163.318 123.525 163.382 123.548 163.404C123.57 163.425 123.755 163.435 123.668 163.277C123.581 163.119 123.6 163.212 123.589 163.202C123.577 163.191 123.479 163.294 123.457 163.318ZM274.715 88.7507C274.715 88.7507 274.745 88.855 274.768 88.8766C274.791 88.8981 274.987 88.9188 274.888 88.7498C274.88 88.7311 274.867 88.7133 274.851 88.6982C274.835 88.683 274.817 88.6711 274.798 88.6635C274.798 88.6635 274.73 88.7348 274.715 88.7507ZM227.666 56.1065C227.666 56.1065 227.628 56.1461 227.613 56.162C227.598 56.1778 227.655 56.3677 227.795 56.3345L227.855 56.2711C227.855 56.2711 227.677 56.1626 227.643 56.1303L227.666 56.1065ZM61.4306 232.272L61.2608 232.246L61.2837 232.404L61.4838 232.398L61.4306 232.272ZM214.428 162.645C214.428 162.645 214.481 162.59 214.39 162.503C214.299 162.417 214.284 162.478 214.228 162.47L214.315 162.673L214.428 162.645ZM251.167 123.664C251.167 123.664 251.198 123.768 251.258 123.75C251.319 123.732 251.458 123.79 251.371 123.632C251.284 123.473 251.303 123.567 251.28 123.545L251.167 123.664Z" fill="#C62828"/>
<path d="M234.866 155.042C234.903 154.685 236.055 155.267 235.317 154.158C235.075 153.692 234.961 153.212 234.989 152.778C235.018 152.344 235.188 151.975 235.477 151.717C237.8 149.023 239.589 145.868 242.078 143.317C243.675 141.637 245.735 140.127 246.353 137.864C246.971 135.601 248.72 134.895 249.392 133.03C249.479 132.688 249.662 132.403 249.924 132.198C250.186 131.994 250.52 131.875 250.899 131.853C250.943 132.305 250.836 132.708 250.591 133.002C250.347 133.296 249.979 133.466 249.54 133.488C248.895 133.508 249.251 134.359 249.551 134.84C249.85 135.32 250.272 135.239 250.672 135.091C251.636 134.748 252.34 134.047 252.679 133.093C252.884 132.639 253.223 132.283 253.665 132.054C253.373 133.044 253.384 134.305 252.203 134.752C253.968 135.599 254.733 133.567 255.175 133.896C256.888 135.207 256.952 132.026 258.565 134.101C257.143 135.126 255.916 136.363 254.908 137.79C253.498 140.16 251.298 141.794 249.971 144.212C249.743 144.788 249.377 145.27 248.895 145.629C248.412 145.988 247.823 146.219 247.161 146.307C246.918 146.272 246.699 146.316 246.535 146.432C246.371 146.547 246.271 146.728 246.249 146.948C246.241 147.056 246.207 147.152 246.151 147.23C246.095 147.309 246.016 147.367 245.921 147.403C245.827 147.438 245.717 147.449 245.601 147.435C245.484 147.421 245.363 147.383 245.246 147.322C243.711 146.12 243.934 146.544 244.243 147.877C244.454 148.627 244.478 149.351 244.311 149.983C244.144 150.615 243.793 151.135 243.289 151.495C242.224 151.959 241.439 152.784 241.03 153.872C240.903 154.868 239.26 154.03 239.497 155.235C238.892 154.781 239.083 154.194 238.791 153.705C238.191 153.753 237.67 153.964 237.277 154.318C236.883 154.672 236.631 155.158 236.543 155.731C235.886 155.74 235.411 155.695 234.866 155.042Z" fill="#C62828"/>
<path d="M281.854 100.436C282.156 100.119 282.199 99.2557 283.216 100.117C283.568 100.451 283.804 99.9519 283.849 99.723C283.95 99.276 283.546 99.1333 283.202 99.1085C282.859 99.0837 282.164 98.77 282.062 98.537C281.841 97.9961 282.388 97.8976 282.709 97.7195C283.691 96.9919 284.573 96.1551 285.345 95.2179C286.111 94.3248 286.599 93.1991 286.776 91.9175C287.355 89.8844 288.366 88.1121 289.76 86.6861C290.487 85.7174 291.913 85.5344 292.469 84.4039C292.623 84.0828 292.982 84.1824 293.356 84.4929C293.73 84.8033 294.032 84.577 294.159 84.3516C294.949 83.0662 295.387 83.0599 297.008 83.9215C297.355 84.101 297.659 84.8721 298.167 84.4052C298.676 83.9383 297.871 83.6262 297.776 83.2492C297.709 82.9685 297.537 82.6859 297.295 82.4604C298.533 82.2942 298.504 84.8006 300.111 84.2461C299.057 84.0595 299.323 84.8702 299.162 85.2445C298.216 87.7844 295.315 88.3606 293.788 90.332C293.289 91.4282 292.53 92.3353 291.552 93.0029C290.979 93.2425 290.493 93.5043 289.634 92.885C290.827 94.3797 289.911 94.8664 289.505 95.7024C287.93 98.836 285.298 101.084 283.576 104.078C283.185 104.762 282.592 104.545 281.866 104.172C282.281 103.765 282.503 103.188 282.501 102.519C282.499 101.85 282.273 101.123 281.854 100.436V100.436Z" fill="#C62828"/>
<path d="M281.854 100.436C282.285 101.133 282.518 101.874 282.518 102.554C282.519 103.234 282.289 103.818 281.859 104.225C281.799 104.289 281.686 104.408 281.671 104.424C281.958 105.085 282.043 105.748 281.914 106.317C281.785 106.886 281.449 107.33 280.953 107.587C279.183 109.177 279.291 112.266 276.829 113.335C276.283 113.57 276.229 115.012 275.506 115.546C274.88 115.945 274.216 116.295 273.516 116.595L273.218 116.704C273.21 116.652 273.192 116.598 273.163 116.546C273.134 116.494 273.096 116.445 273.051 116.403C273.006 116.36 272.955 116.324 272.902 116.298C272.848 116.272 272.793 116.256 272.741 116.251C272.092 116.65 271.655 117.284 271.485 118.073C270.531 120.422 268.985 122.358 266.946 123.759C266.196 124.298 266.151 124.255 266.926 125.052L266.874 125.107C266.826 125.192 266.76 125.262 266.678 125.313C266.468 125.339 266.229 125.288 265.998 125.17C265.768 125.051 265.558 124.872 265.401 124.658C264.97 124.248 265.131 123.828 265.459 123.552C266.323 122.543 267.314 121.652 268.419 120.891C268.994 120.614 269.362 120.089 269.454 119.416C269.509 119.016 269.456 118.754 269.006 118.569C268.557 118.383 268.173 118.878 268.058 118.135C267.943 117.393 268.669 117.992 268.975 117.875C269.686 117.566 270.209 117.016 270.481 116.29C271.388 113.427 273.97 111.914 275.081 109.336C276.192 106.758 278.555 105.384 279.614 102.816C280.135 101.824 280.896 101.015 281.854 100.436V100.436Z" fill="#C62828"/>
<path d="M172.186 213.437C171.428 215.507 169.487 216.572 168.359 218.305C166.369 221.33 163.173 223.194 161.036 226.125C160.003 227.665 158.608 228.894 156.919 229.753C156.152 230.283 155.495 230.936 154.965 231.696C154.648 232.029 154.476 232.529 153.687 232.473C154.1 231.357 155.453 230.864 155.391 230.066C155.354 229.529 155.432 229.029 155.62 228.596C155.809 228.164 156.104 227.807 156.488 227.549C158.57 225.652 160.683 223.769 162.528 221.647C163.439 220.233 164.5 218.942 165.701 217.785C167.762 216.275 168.359 213.465 170.738 212.302C171.135 212.68 171.34 213.282 171.952 213.456L172.186 213.437Z" fill="#C62828"/>
<path d="M213.59 178.045C212.943 178.377 212.417 178.861 212.042 179.47C211.779 179.747 211.897 180.146 212.312 180.299C213.921 180.878 213.106 181.054 212.783 181.712C211.949 183.453 210.238 184.391 209.279 186.013C208.877 186.686 209.055 185.499 208.871 185.625C208.29 186.054 207.081 185.236 206.705 185.814C205.809 186.759 205.108 187.879 204.621 189.142C204.334 190.467 202.77 191.545 201.459 192.47C201.657 191.875 202.264 191.487 201.647 190.568C201.223 189.924 201.649 189.635 201.946 189.345C204.703 186.716 207.149 183.733 209.955 181.212C211.413 179.882 212.704 178.319 214.014 176.804C214.149 176.662 214.205 176.353 214.398 176.4C214.93 176.454 215.049 175.511 215.718 176.147C216.388 176.783 215.58 176.951 215.362 177.317C215.062 177.86 213.937 177.998 215.129 179.266C215.594 179.708 215.1 179.978 214.746 180.033C214.391 180.088 213.922 179.763 213.774 179.306C213.663 178.877 213.601 178.454 213.59 178.045V178.045Z" fill="#C62828"/>
<path d="M234.866 155.043C235.365 155.653 235.916 155.709 236.478 155.731C236.427 156.24 235.665 156.587 236.731 157.328L236.819 157.804L236.679 157.837C236.227 157.995 236.507 158.291 236.806 158.59C236.713 160.96 234.586 161.699 233.476 163.253C233.062 163.825 232.902 164.789 231.925 164.885C231.608 164.767 231.292 164.716 231.002 164.735C230.711 164.753 230.452 164.842 230.246 164.994C230.132 165.078 229.991 165.127 229.832 165.139C229.673 165.151 229.5 165.124 229.326 165.061C229.152 164.998 228.982 164.901 228.826 164.776C228.671 164.651 228.535 164.501 228.429 164.338C228.672 163.469 229.646 163.308 230.071 162.611C230.266 162.269 231.103 161.978 229.74 161.573C229.445 161.474 229.297 161.152 229.539 161.125C230.139 161.062 230.171 160.097 230.96 160.516C232.389 161.285 232.658 160.319 233.227 159.789C233.272 159.742 233.169 159.463 233.064 159.347C231.929 158.269 231.986 158.323 232.622 157.54C233.488 156.822 234.24 155.985 234.866 155.043V155.043Z" fill="#C62828"/>
<path d="M228.44 164.349C228.546 164.512 228.682 164.662 228.837 164.787C228.993 164.912 229.164 165.009 229.338 165.072C229.512 165.135 229.684 165.161 229.843 165.15C230.002 165.138 230.144 165.089 230.257 165.005C230.464 164.853 230.722 164.764 231.013 164.745C231.303 164.727 231.619 164.778 231.936 164.896C231.601 167.112 229.372 167.753 228.625 169.652C227.702 171.541 226.437 173.178 224.87 174.513C223.793 175.647 222.754 176.876 221.602 177.953C220.968 178.551 220.2 179.007 219.325 179.303C218.454 179.561 218.481 180.009 219.423 180.904C218.43 180.745 217.576 180.326 217.03 180.923C217.276 179.115 218.23 177.685 219.727 176.881C220.602 176.324 221.351 175.649 222.191 175.06C222.235 174.992 222.291 174.933 222.357 174.886C223.124 175.101 223.285 174.591 223.661 174.24C224.038 173.889 223.895 172.109 225.615 173.412C225.796 173.584 225.999 173.325 225.931 173.079C225.243 170.917 227.19 170.595 227.783 169.335C228.343 168.528 229.017 167.819 229.794 167.219C229.034 166.678 228.82 167.153 228.45 167.043C228.08 166.932 227.366 166.752 227.128 166.435C226.567 165.706 227.466 165.942 227.654 165.699C227.917 165.24 228.173 164.789 228.44 164.349Z" fill="#C62828"/>
<path d="M170.615 221.34L172.728 221.388C171.797 220.096 174.679 221.402 173.419 219.888C173.544 220.007 173.774 220.151 173.899 220.133C174.323 220.175 174.715 220.113 175.04 219.953C175.366 219.792 175.616 219.538 175.769 219.211C176.201 218.324 176.224 216.914 177.48 216.569C178.363 216.322 178.081 215.164 178.442 214.467C178.558 214.231 178.772 213.891 178.969 213.912C179.137 213.984 179.301 214.086 179.448 214.213C179.595 214.34 179.723 214.489 179.823 214.649C180.126 215.057 179.704 215.183 179.553 215.342C178.905 216.023 178.156 216.608 177.112 217.547C179 217.832 179.434 216.375 180.928 216.03C178.404 219.664 175.444 222.461 172.718 225.465C172.259 225.949 171.699 225.402 171.103 225.439C171.467 224.624 173.123 224.176 172.609 223.854C171.569 223.016 172.551 221.461 170.615 221.34Z" fill="#C62828"/>
<path d="M175.856 204.259C176.264 203.045 177.044 202.076 178.118 201.447C178.067 202.046 177.872 202.57 178.741 203.064C179.61 203.558 179.846 202.923 180.057 202.52C180.879 200.937 182.05 199.62 183.516 198.629C185.016 197.642 185.525 195.743 187.279 195.056C187.584 194.963 187.925 194.935 188.286 194.973C188.507 195.922 187.143 195.017 187.431 195.668C187.719 196.319 188.33 196.312 188.896 196.216C189.108 196.176 189.607 196.605 189.294 196.956C189.268 196.997 189.235 197.031 189.196 197.06C187.332 198.214 185.834 199.79 184.776 201.711C184.191 200.055 183.643 199.7 182.853 200.713C182.455 201.053 182.095 201.431 181.776 201.846C181.536 202.327 181.46 202.179 180.748 202.588C179.958 203.119 179.246 203.74 178.619 204.441C178.297 203.758 179.232 203.138 178.147 202.666C177.377 202.341 177.333 203.114 177.04 203.513C176.69 203.814 176.293 204.064 175.856 204.259V204.259Z" fill="#C62828"/>
<path d="M226.624 168.851C226.089 169.277 224.227 168.488 225.427 170.474C225.571 170.731 224.829 171.262 224.456 171.722C224.391 171.268 225.006 171.144 224.669 170.794C224.333 170.444 223.827 170.567 223.556 170.852L219.317 175.314C218.782 175.876 218.247 176.167 217.028 174.36C218.412 175.675 218.845 175.197 219.24 174.713C220.109 173.593 220.88 172.396 221.833 171.371C222.985 170.46 223.994 169.398 224.845 168.201C225.423 166.911 226.115 167.568 226.624 168.851Z" fill="#C62828"/>
<path d="M199.108 199.556C198.235 200.475 196.947 200.217 196.455 201.076C196.207 201.692 195.811 202.206 195.292 202.59C194.772 202.973 194.138 203.218 193.426 203.31C193.161 203.315 193.049 203.706 192.713 203.401C192.634 203.331 192.566 203.25 192.514 203.162C192.461 203.075 192.425 202.984 192.408 202.895C192.391 202.806 192.393 202.721 192.413 202.646C192.434 202.571 192.474 202.507 192.529 202.458C194.126 200.959 195.144 198.82 197.94 198.718C198.329 198.695 198.592 198.145 199.061 198.833C199.138 198.962 199.182 199.097 199.191 199.224C199.199 199.351 199.17 199.466 199.108 199.556V199.556Z" fill="#C62828"/>
<path d="M159.873 237.915L159.721 239.053C159.845 239.171 159.981 239.301 160.106 239.419C162.064 237.132 164.354 235.176 165.762 232.172C165.944 232.684 165.991 233.188 165.898 233.63C165.805 234.073 165.575 234.436 165.232 234.684L158.237 242.499C158.126 242.602 157.962 242.645 157.777 242.62C159.076 241.366 158.479 238.928 159.873 237.915Z" fill="#C62828"/>
<path d="M216.064 180.757C216.892 183.203 215.505 183.754 214.499 184.472C213.24 185.342 211.675 185.876 211.101 187.457C211.872 184.6 214.25 183.12 216.064 180.757Z" fill="#C62828"/>
<path d="M172.186 213.439L171.925 213.463C171.57 213.019 171.523 212.251 170.711 212.309C170.91 211.805 171.526 211.816 171.917 211.54C171.827 211.635 171.846 211.865 172.065 211.907C172.284 211.949 172.216 211.748 172.087 211.566C172.105 211.49 172.156 211.436 172.23 211.415L172.548 211.536L172.502 211.311L172.223 211.332C173.105 211.04 172.856 209.461 174.299 209.807C174.241 209.868 174.16 209.906 174.065 209.916C173.68 209.731 173.608 209.874 173.756 210.241L173.848 210.735L173.795 210.791C173.44 210.665 173.323 210.765 173.479 211.124L173.388 211.219C173.011 211.071 172.928 211.203 173.072 211.552L173.3 211.949L173.374 211.597L173.457 211.51C173.816 211.655 173.94 211.547 173.781 211.169L173.841 211.106L174.321 211.169L174.819 211.236C175.193 211.365 175.287 211.243 175.143 210.895C175.176 210.873 175.198 210.838 175.204 210.795C175.21 210.752 175.2 210.703 175.176 210.655V210.655C175.312 210.785 175.448 210.914 175.531 210.736C175.614 210.558 175.421 210.556 175.357 210.465C175.467 210.86 175.441 211.233 175.284 211.522C175.126 211.812 174.847 212 174.492 212.057C173.637 212.404 172.863 212.868 172.186 213.439V213.439ZM172.862 212.091C172.862 212.091 172.76 212.084 172.802 212.154C172.843 212.224 172.832 212.349 172.972 212.316C173.112 212.283 173.017 212.268 173.025 212.26C173.032 212.253 172.885 212.112 172.862 212.091ZM171.557 212.192C171.557 212.192 171.587 212.297 171.647 212.279C171.708 212.261 171.866 212.321 171.768 212.152C171.761 212.133 171.748 212.114 171.732 212.099C171.716 212.083 171.697 212.072 171.677 212.066C171.677 212.066 171.59 212.179 171.534 212.216L171.557 212.192Z" fill="#C62828"/>
<path d="M111.908 262.353L111.854 261.728C112.024 261.981 112.146 262.216 111.908 262.353Z" fill="#C62828"/>
<path d="M253.761 127.91C253.557 127.716 253.406 127.466 253.231 127.241L253.719 127.704C253.686 127.727 253.665 127.765 253.661 127.81C253.657 127.855 253.67 127.906 253.697 127.954L253.761 127.91Z" fill="#C62828"/>
<path d="M175.032 210.351L175.115 210.264C175.195 210.339 175.252 210.393 175.32 210.367C175.261 210.362 175.21 210.378 175.177 210.413C175.144 210.448 175.13 210.5 175.139 210.558V210.558C175.126 210.487 175.088 210.413 175.032 210.351V210.351Z" fill="#C62828"/>
<path d="M253.752 128.17C253.774 128.137 253.787 128.096 253.789 128.051C253.79 128.006 253.781 127.957 253.762 127.908C253.773 128.011 253.825 128.119 253.907 128.212C253.858 128.216 253.803 128.201 253.752 128.17Z" fill="#C62828"/>
<path d="M254.257 127.822L254.146 127.732L254.238 127.727L254.257 127.822Z" fill="#C62828"/>
<path d="M111.771 262.839L111.747 262.863L111.861 262.971L111.771 262.839Z" fill="#C62828"/>
<path d="M157.048 219.848C157.119 219.797 157.201 219.757 157.289 219.73C157.219 219.783 157.138 219.822 157.048 219.848Z" fill="#C62828"/>
<path d="M157.788 220.023L158.007 220.066C157.947 220.129 157.879 220.11 157.788 220.023Z" fill="#C62828"/>
<path d="M174.6 209.807L174.575 209.993C174.471 209.924 174.377 209.835 174.302 209.735C174.4 209.748 174.5 209.773 174.6 209.807V209.807Z" fill="#C62828"/>
<path d="M239.603 136.654L239.587 136.261L239.644 136.315L239.603 136.654Z" fill="#C62828"/>
<path d="M266.408 108.65L266.483 108.571L266.267 108.502L266.37 108.599L266.408 108.65Z" fill="#C62828"/>
<path d="M146.593 234.689C146.695 234.786 146.865 234.812 147.004 234.87C146.901 234.501 146.736 234.675 146.593 234.689Z" fill="#C62828"/>
<path d="M239.167 137.746L239.519 137.718L239.167 137.746Z" fill="#C62828"/>
<path d="M239.936 137.074C239.841 136.992 239.75 136.906 239.664 136.815C239.759 136.897 239.85 136.983 239.936 137.074Z" fill="#C62828"/>
<path d="M266.388 108.645L266.305 108.732L266.536 108.786L266.411 108.667L266.388 108.645Z" fill="#C62828"/>
<path d="M147.4 234.841C147.264 234.711 146.981 234.442 146.99 234.841L147.4 234.841Z" fill="#C62828"/>
<path d="M238.006 138.242L238.047 137.903C238.285 138.13 238.447 138.163 238.628 138.064L238.696 138.129C238.725 138.196 238.736 138.264 238.727 138.324L238.006 138.242Z" fill="#C62828"/>
<path d="M111.511 171.344C111.352 171.193 111.182 171.031 111.279 170.838L111.642 171.183L111.515 171.317L111.511 171.344Z" fill="#C62828"/>
<path d="M238.597 132.35C238.525 132.289 238.457 132.224 238.392 132.155L238.468 132.076C238.514 132.112 238.551 132.158 238.575 132.207C238.598 132.257 238.606 132.307 238.597 132.35V132.35Z" fill="#C62828"/>
<path d="M238.852 132.922C238.773 132.862 238.7 132.793 238.635 132.717L238.703 132.646C238.775 132.706 238.844 132.771 238.908 132.84L238.852 132.922Z" fill="#C62828"/>
<path d="M126.75 258.436C126.754 258.334 126.782 258.243 126.832 258.167C126.835 258.22 126.828 258.269 126.81 258.311C126.792 258.353 126.764 258.389 126.727 258.414L126.75 258.436Z" fill="#C62828"/>
<path d="M174.122 210.06L174.582 210.075C174.612 210.164 174.661 210.253 174.726 210.333L174.803 210.797L174.728 210.877L174.275 210.808L174.172 210.711L174.088 210.254C174.117 210.199 174.129 210.132 174.122 210.06V210.06Z" fill="#C62828"/>
<path d="M111.55 171.713L111.581 171.863L111.694 171.88C111.647 171.839 111.595 171.804 111.541 171.779C111.488 171.753 111.433 171.738 111.38 171.732L111.46 171.808L111.55 171.713Z" fill="#C62828"/>
</g>
<defs>
<clipPath id="clip0_1689_133">
<rect width="318.419" height="126.833" fill="white" transform="translate(-3 230.824) rotate(-46.4612)"/>
</clipPath>
</defs>
</svg>
