<svg width="347" height="14" viewBox="0 0 347 14" fill="none" xmlns="http://www.w3.org/2000/svg">
<g clip-path="url(#clip0_1691_207)">
<path d="M146.212 1.20137C143.083 0.962315 140.127 1.39793 136.924 1.28637C141.13 0.67556 146.265 0.43773 151.262 0.622326C151.262 0.935755 149.193 0.717953 148.947 1.04201C151.41 1.14825 153.874 0.83483 156.337 0.914516C156.608 1.10045 155.918 1.13231 155.426 1.1695C154.933 1.20669 154.44 1.19606 153.997 1.23324C153.78 1.24321 153.574 1.26255 153.392 1.29007C153.21 1.31759 153.056 1.35273 152.939 1.3934C152.821 1.43408 152.743 1.47945 152.709 1.52678C152.675 1.57411 152.686 1.62243 152.74 1.66886C152.962 1.87604 153.8 1.89198 154.588 1.91854C154.686 1.92121 154.786 1.92121 154.884 1.91854C157.347 1.7273 160.304 1.78042 162.669 1.43512C163.063 1.37137 163.58 1.35012 163.531 1.21731C163.482 1.0845 162.915 1.02606 162.324 0.983563C161.732 0.941064 161.018 1.09512 160.254 0.983563C160.254 0.749819 161.215 0.696696 162.053 0.702008C166.462 0.702008 170.724 0.404514 175.159 0.468263C176.316 0.504193 177.493 0.445447 178.46 0.303581L172.424 0.192026C172.424 0.138902 172.424 0.0804674 172.424 0.0273438C174.74 0.0273438 177.031 0.0273438 179.322 0.0273438C179.667 0.0273438 180.258 0.0645374 180.357 0.117661C181.145 0.558587 182.82 0.404527 184.323 0.431089C184.545 0.324841 182.87 0.223908 184.323 0.117661C185.939 0.0364561 187.612 0.023822 189.25 0.0804706C194.037 0.0838102 198.809 0.194187 203.49 0.409835C205.996 0.501067 208.547 0.520707 211.077 0.468263C213.553 0.528653 216.059 0.489018 218.468 0.35139C218.848 0.330013 219.246 0.330013 219.626 0.35139C222.715 0.412457 225.824 0.412457 228.913 0.35139C231.944 0.35139 234.949 0.282333 237.955 0.255772C243.705 0.162719 249.484 0.198332 255.199 0.362025C260.107 0.536436 265.123 0.507587 269.981 0.277025C271.397 0.202893 272.875 0.202893 274.292 0.277025C275.808 0.365733 277.385 0.394532 278.948 0.362025C283.703 0.223904 288.285 0.505451 292.941 0.569199C293.409 0.569199 294 0.569204 294.099 0.707326C294.121 0.761373 294.061 0.815494 293.927 0.861502C293.794 0.907511 293.595 0.942909 293.36 0.962325C292.943 1.01293 292.481 1.04372 292.005 1.05263C287.595 1.05263 283.259 1.18544 278.899 1.2545C277.643 1.27769 276.412 1.34404 275.253 1.45105C273.998 1.56683 272.715 1.66792 271.41 1.75386C268.379 1.93448 267.764 1.86542 266.359 1.22263C262.639 1.49356 258.624 1.33418 254.855 1.54667C251.72 1.69167 248.665 1.90713 245.739 2.18948C245.344 2.24924 244.867 2.27912 244.384 2.27448C240.461 2.2298 236.585 2.47531 233.397 2.9704C232.264 3.12446 231.229 3.27851 229.997 3.02883C229.92 3.01469 229.826 3.0055 229.726 3.00227C228.305 2.92272 226.801 2.95085 225.464 3.08195C224.06 3.21476 223.814 2.71009 222.36 2.73665C220.907 2.76321 219.453 2.73665 217.975 2.76321C217.752 2.76697 217.537 2.78379 217.355 2.81188C217.173 2.83996 217.029 2.87824 216.941 2.92259C218.246 3.14571 219.798 2.66759 221.301 3.00227C218.616 3.26452 215.796 3.4571 212.9 3.576C209.772 3.60952 206.692 3.75493 203.785 4.0063C203.349 4.05765 202.847 4.07634 202.356 4.05943C198.538 3.86287 194.719 4.14974 190.827 4.05943C187.155 3.99988 183.471 3.98039 179.79 4.001C176.992 3.9282 174.154 4.00106 171.513 4.21349C170.035 4.37286 168.261 4.11255 166.586 4.24004C166.586 4.24004 166.142 4.20817 166.142 4.18692C166.142 3.65568 164.59 3.9585 163.679 4.01693C160.357 4.26929 156.853 4.39162 153.332 4.37817C151.223 4.35788 149.116 4.42459 147.124 4.57473C154.293 5.18565 161.043 4.65441 167.743 4.57473C167.916 4.82972 167.152 4.80847 166.684 4.84034C163.645 4.99386 160.664 5.1963 157.766 5.44596C157.505 5.47417 157.22 5.49045 156.929 5.49377C153.481 5.50146 150.131 5.74102 147.345 6.17905C147.012 6.23131 146.611 6.25947 146.2 6.25947C145.788 6.25947 145.387 6.23131 145.054 6.17905C146.138 5.99312 147.863 5.98781 148.01 5.56814C148.01 5.43001 149.415 5.49908 150.129 5.44064C150.316 5.43058 150.479 5.40611 150.588 5.37186C150.697 5.3376 150.744 5.29592 150.72 5.25471C150.72 5.15909 150.523 5.06878 150.104 5.06347C147.395 5.02097 144.537 4.53223 142.049 5.19628C141.556 5.32909 140.768 5.23877 140.102 5.23345C137.22 5.23345 134.313 5.02627 131.431 5.28658C129.786 5.44695 128.012 5.53714 126.208 5.5522C125.617 5.54488 125.035 5.58671 124.582 5.66907C123.104 6.0675 121.035 5.96126 119.187 5.99313C116.945 6.02501 114.679 5.99313 112.437 5.99313C111.834 5.97551 111.269 5.92008 110.811 5.83375C113.274 5.64782 115.024 5.10596 118.202 5.23877C118.797 5.24955 119.395 5.22797 119.942 5.176C120.488 5.12403 120.966 5.04332 121.33 4.94128C120.99 4.89328 120.592 4.86773 120.185 4.86773C119.778 4.86773 119.38 4.89328 119.039 4.94128C118.478 5.00547 117.852 5.03902 117.216 5.03902C116.581 5.03902 115.955 5.00547 115.393 4.94128C115.09 4.90594 114.752 4.88744 114.408 4.88744C114.064 4.88744 113.725 4.90594 113.422 4.94128C111.764 5.07441 109.983 5.12172 108.224 5.07941C104.143 5.14196 100.104 5.29867 96.1774 5.54688C94.4337 5.68053 92.5728 5.72774 90.7329 5.68501C90.4521 5.6662 90.1515 5.6662 89.8707 5.68501C87.7028 6.00906 85.7812 5.62658 83.7611 5.58939C82.4061 5.58939 82.209 5.23877 81.0758 5.16971C81.7163 4.82972 83.5394 4.86691 84.4016 4.61192C83.8161 4.54916 83.1647 4.52056 82.5121 4.52894C81.8595 4.53733 81.2284 4.58242 80.6816 4.65973C79.5721 4.79853 78.2552 4.83855 77.011 4.77128C76.1458 4.74202 75.2648 4.74202 74.3996 4.77128C71.7949 4.84753 69.1586 4.86001 66.5409 4.80847C64.5966 4.78281 62.6647 4.89067 61.0225 5.11658C60.653 4.80315 62.0818 4.74472 62.3282 4.51098C61.9239 4.47513 61.4826 4.46312 61.0497 4.47619C60.6168 4.48926 60.2078 4.52693 59.8647 4.58534C58.0334 4.72817 56.2476 4.89677 54.5187 5.09003C53.384 5.21805 52.0893 5.26458 50.8234 5.22283C48.1923 5.21011 45.5675 5.28355 43.0386 5.44064C41.324 5.52236 39.5717 5.56157 37.8159 5.55752C36.9536 5.55752 35.9189 5.55751 36.1407 5.26533C36.1407 5.23345 35.9928 5.19628 35.9189 5.16441C34.0959 5.39284 33.1598 4.86691 31.6324 4.92534C28.7277 5.03034 25.78 5.06951 22.8375 5.04222C20.0536 4.9395 17.2363 4.88444 14.4121 4.87753C11.0791 4.87289 7.76433 4.77103 4.55796 4.57473C3.1191 4.46975 1.8865 4.26319 1.05946 3.98845C0.23242 3.71371 -0.140718 3.38683 0.000388261 3.0607C0.172837 2.76321 0.911902 2.6304 2.46394 2.7154C4.2744 2.79486 6.11155 2.84282 7.95765 2.85883C13.9812 2.92881 20.0222 2.85219 25.9662 2.6304C31.3899 2.36809 36.9164 2.2169 42.472 2.17884C45.6082 2.20323 48.7426 2.12077 51.7596 1.93448C53.2369 1.8179 54.844 1.80122 56.3664 1.88667C57.1312 1.91851 57.9173 1.91851 58.6821 1.88667C61.2172 1.83977 63.7678 1.84866 66.2945 1.91323C68.7026 1.95319 71.1243 1.89737 73.4388 1.74854C76.0831 1.57433 78.7731 1.4342 81.4946 1.32888C82.1351 1.32888 82.9974 1.24919 83.1945 1.45637C83.5147 1.79636 84.8204 1.75917 85.658 1.73261C88.2694 1.65292 90.9054 1.67949 93.5414 1.64231C94.5141 1.62573 95.4652 1.57175 96.3498 1.48293C97.5727 1.40573 98.8791 1.41693 100.07 1.5148C100.605 1.56372 101.187 1.58396 101.766 1.57378C102.345 1.5636 102.904 1.52332 103.396 1.45637C104.603 1.25981 105.859 1.45637 106.697 1.54137C108.717 1.79105 109.998 1.57324 111.353 1.27043H106.623C106.869 1.06857 107.485 0.95169 108.101 0.95169C112.166 0.95169 116.181 0.696702 120.69 0.808262C119.483 1.11107 117.807 0.999511 117.044 1.22794C118.347 1.33162 119.78 1.33162 121.084 1.22794C125.494 1.00482 129.78 1.29168 134.067 1.46699C135.594 1.89198 137.269 1.63698 138.994 1.54667C141.452 1.48974 143.873 1.37392 146.212 1.20137ZM193.488 3.61319C191.828 3.63484 190.163 3.59715 188.56 3.50163C188.089 3.48044 187.603 3.48044 187.132 3.50163C186.664 3.50163 186.146 3.576 186.368 3.70881C186.409 3.72778 186.468 3.74466 186.542 3.75835C186.615 3.77204 186.701 3.78221 186.794 3.78823C186.887 3.79425 186.985 3.79597 187.082 3.79327C187.178 3.79057 187.271 3.7835 187.353 3.77255C187.864 3.71343 188.428 3.67901 189.007 3.67167C189.585 3.66433 190.164 3.68426 190.704 3.73006C191.173 3.76793 191.681 3.77705 192.172 3.75642C192.664 3.73579 193.119 3.68622 193.488 3.61319ZM101.006 4.42598C100.356 4.41154 99.7005 4.43326 99.101 4.48906C98.5015 4.54486 97.9784 4.63289 97.5816 4.74473C97.286 4.84566 96.7194 4.96784 97.3599 5.06877C97.4786 5.08827 97.6181 5.10101 97.7657 5.10578C97.9132 5.11056 98.064 5.10723 98.204 5.09611C98.344 5.08498 98.4687 5.06643 98.5666 5.04215C98.6645 5.01787 98.7325 4.98866 98.7641 4.95722C98.9365 4.6491 100.218 4.59598 101.006 4.42598ZM129.706 2.26384C130.331 2.33845 131.041 2.37401 131.754 2.3665C132.468 2.35899 133.158 2.30873 133.746 2.22135C133.102 2.16089 132.402 2.13373 131.7 2.14203C130.999 2.15033 130.316 2.19386 129.706 2.26916V2.26384ZM136.678 3.91068C135.222 3.86065 133.732 3.9329 132.515 4.11255C134.362 4.03287 135.668 4.16567 136.678 3.89474V3.91068ZM81.9134 4.13911L79.9672 4.24004C79.4499 4.27192 78.4891 4.27724 78.8093 4.4313C79.3267 4.6916 79.8194 4.43129 80.2875 4.37285C80.7555 4.31442 81.5192 4.38348 81.9134 4.14443V4.13911ZM197.7 2.90133C196.611 2.82952 195.435 2.85239 194.424 2.96508C194.928 3.02882 195.51 3.05741 196.093 3.04695C196.675 3.03649 197.228 2.9875 197.676 2.90665L197.7 2.90133ZM167.817 3.78319C170.281 3.88412 170.65 3.86287 172.129 3.59194C170.711 3.68305 169.261 3.74879 167.793 3.78849L167.817 3.78319ZM106.647 4.21349C107.682 4.30911 108.569 4.32504 109.111 4.05943C108.667 4.04175 108.211 4.04698 107.778 4.07468C107.346 4.10238 106.95 4.15176 106.623 4.21879L106.647 4.21349ZM136.826 2.19478C137.393 2.19478 137.836 2.16823 138.279 2.14167C138.723 2.11511 138.871 2.05135 138.846 2.0301C138.821 2.00885 138.279 1.9398 137.935 1.97167C137.686 1.98921 137.457 2.01826 137.266 2.0568C137.074 2.09534 136.924 2.14243 136.826 2.19478ZM260.545 1.27043C260.915 1.27043 261.358 1.27044 261.358 1.14294C261.145 1.11337 260.898 1.09685 260.644 1.09513C260.299 1.09513 259.806 1.09513 259.856 1.21201C259.905 1.32888 260.176 1.27575 260.447 1.27043H260.545ZM100.415 3.82036C100.337 3.78516 100.209 3.75631 100.049 3.73812C99.8892 3.71993 99.7063 3.71338 99.5278 3.71944C99.2075 3.71944 99.0104 3.78318 99.1829 3.84162C99.2628 3.86397 99.3629 3.88257 99.4773 3.89627C99.5917 3.90997 99.7179 3.91848 99.848 3.9213C99.9569 3.91652 100.055 3.90395 100.127 3.88563C100.198 3.86731 100.239 3.84431 100.242 3.82036H100.415ZM167.719 1.83886C168.162 1.83886 168.655 1.8123 168.704 1.6848C168.704 1.6848 168.433 1.62636 168.285 1.63167C168.138 1.63698 167.399 1.66355 167.3 1.78042C167.103 1.79635 167.399 1.81761 167.546 1.83886H167.719ZM195.409 1.50418H194.448C194.153 1.50418 194.103 1.50418 194.448 1.53605C194.627 1.54392 194.812 1.54392 194.99 1.53605L195.409 1.50418ZM120.714 1.50418C120.706 1.51924 120.714 1.53449 120.738 1.5488C120.761 1.5631 120.799 1.5761 120.848 1.58681C120.898 1.59753 120.958 1.60568 121.025 1.61069C121.091 1.6157 121.162 1.61743 121.232 1.61574C121.303 1.61645 121.374 1.61413 121.441 1.60891C121.508 1.60369 121.57 1.59567 121.622 1.58531C121.675 1.57494 121.718 1.56244 121.748 1.54852C121.778 1.5346 121.795 1.51953 121.798 1.50418C121.812 1.48891 121.807 1.47317 121.786 1.45833C121.765 1.44349 121.727 1.42999 121.676 1.419C121.625 1.40802 121.562 1.39986 121.494 1.39527C121.425 1.39067 121.352 1.38977 121.281 1.39263C121.205 1.38781 121.125 1.38632 121.046 1.38828C120.968 1.39024 120.892 1.3956 120.823 1.40402C120.754 1.41245 120.693 1.42377 120.645 1.43732C120.597 1.45088 120.562 1.46639 120.542 1.48293L120.714 1.50418ZM123.966 4.20817C123.931 4.19541 123.884 4.18437 123.828 4.17575C123.773 4.16713 123.709 4.16113 123.642 4.15812C123.574 4.15512 123.505 4.15519 123.438 4.15832C123.371 4.16145 123.307 4.16758 123.252 4.1763C123.184 4.18598 123.129 4.19953 123.094 4.21547C123.059 4.2314 123.046 4.24911 123.055 4.26662C123.078 4.28026 123.117 4.29248 123.167 4.30223C123.217 4.31199 123.277 4.31898 123.342 4.32263C123.408 4.32628 123.476 4.32648 123.542 4.3232C123.608 4.31992 123.669 4.31326 123.72 4.30379C123.72 4.30379 123.695 4.21879 123.794 4.18692L123.966 4.20817ZM207.998 3.06602C207.978 3.05016 207.944 3.03532 207.897 3.02239C207.85 3.00946 207.791 2.99871 207.724 2.99078C207.658 2.98284 207.584 2.97789 207.509 2.97622C207.433 2.97454 207.356 2.97617 207.283 2.98102C207.037 2.98102 206.618 3.03945 206.618 3.0607C206.618 3.08195 207.012 3.14039 207.283 3.12976C207.554 3.11914 207.579 3.06601 207.825 3.04476L207.998 3.06602Z" fill="black"/>
<path d="M131.603 6.09347C133.746 5.73683 136.454 5.57651 139.142 5.64722C138.107 5.97658 138.107 5.9819 136.678 6.01377C135.077 6.05627 133.352 6.01909 131.603 6.09347Z" fill="black"/>
<path d="M170.502 0.116133C169.187 0.237621 167.77 0.299115 166.339 0.296752C167.817 0.0151963 167.817 0.0151983 170.502 0.116133Z" fill="black"/>
<path d="M152.223 6.01862C152.5 5.93878 152.893 5.88126 153.34 5.85527C153.786 5.82927 154.26 5.83629 154.686 5.87519C154.727 5.88034 154.761 5.8877 154.785 5.89656C154.808 5.90541 154.821 5.91545 154.821 5.92566C154.821 5.93587 154.808 5.94589 154.785 5.95474C154.761 5.9636 154.727 5.97098 154.686 5.97613C154.339 6.03386 153.921 6.06861 153.484 6.07615C153.046 6.0837 152.608 6.06371 152.223 6.01862Z" fill="black"/>
<path d="M196.739 4.46141C195.901 4.42422 195.064 4.62078 193.783 4.46141C194.793 4.30735 195.655 4.40828 196.394 4.37109C196.581 4.37235 196.765 4.38138 196.936 4.39767L196.739 4.46141Z" fill="black"/>
<path d="M109.332 5.53034C109.235 5.56424 109.084 5.5894 108.908 5.60113C108.731 5.61285 108.54 5.61035 108.372 5.59411C108.331 5.58896 108.297 5.58158 108.273 5.57272C108.25 5.56387 108.237 5.55385 108.237 5.54364C108.237 5.53343 108.25 5.52339 108.273 5.51454C108.297 5.50568 108.331 5.49832 108.372 5.49317C108.477 5.45967 108.632 5.43503 108.812 5.42341C108.991 5.41179 109.184 5.41392 109.357 5.42942C109.431 5.44536 109.456 5.48784 109.332 5.53034Z" fill="black"/>
<path d="M197.404 4.78071C197.232 4.78071 197.059 4.81789 196.911 4.81258C196.764 4.80727 196.493 4.76476 196.493 4.74351C196.493 4.72227 196.838 4.66383 197.084 4.69039C197.33 4.71695 197.306 4.74883 197.404 4.78071Z" fill="black"/>
</g>
<g clip-path="url(#clip1_1691_207)">
<path d="M228.439 8.59406C230.955 8.4087 233.34 8.5909 235.917 8.47309C232.524 8.2187 228.387 8.1825 224.366 8.37202C224.37 8.54133 226.033 8.38649 226.236 8.55711C224.254 8.65877 222.267 8.53373 220.285 8.62105C220.069 8.72635 220.624 8.73117 221.022 8.74241C221.419 8.75364 221.815 8.73905 222.173 8.75117C222.348 8.75265 222.513 8.7594 222.66 8.77099C222.807 8.78259 222.931 8.79881 223.026 8.81867C223.121 8.83853 223.185 8.86164 223.213 8.8866C223.241 8.91155 223.233 8.93784 223.19 8.96391C223.014 9.07981 222.34 9.10347 221.705 9.13198C221.626 9.13519 221.546 9.13697 221.467 9.1373C219.482 9.07825 217.103 9.16007 215.194 9.01604C214.876 8.98869 214.459 8.9865 214.497 8.91387C214.535 8.84125 214.991 8.7995 215.466 8.76592C215.942 8.73233 216.519 8.80272 217.132 8.72873C217.129 8.60246 216.355 8.59103 215.681 8.60895C212.131 8.68819 208.696 8.60407 205.127 8.71819C204.196 8.75839 203.247 8.74782 202.468 8.68855L207.325 8.51983C207.325 8.49113 207.324 8.45957 207.323 8.43087C205.459 8.47248 203.615 8.51365 201.77 8.55482C201.492 8.56102 201.017 8.59174 200.938 8.6222C200.309 8.87455 198.959 8.82143 197.749 8.86279C197.569 8.80938 198.917 8.72475 197.745 8.69348C196.444 8.67864 195.096 8.70189 193.778 8.76192C189.925 8.84973 186.085 8.99511 182.32 9.19571C180.303 9.29003 178.25 9.34648 176.212 9.36362C174.22 9.44073 172.202 9.46436 170.261 9.43329C169.955 9.42856 169.634 9.43573 169.329 9.45409C166.843 9.5426 164.34 9.59846 161.852 9.62098C159.413 9.67543 156.993 9.69214 154.573 9.7318C149.943 9.78485 145.291 9.90793 140.692 10.0991C136.743 10.2815 132.705 10.356 128.791 10.3188C127.65 10.3042 126.46 10.3307 125.321 10.3962C124.102 10.4714 122.832 10.5153 121.574 10.5258C117.744 10.5366 114.059 10.7711 110.312 10.8892C109.935 10.8976 109.459 10.9082 109.381 10.9846C109.364 11.0142 109.413 11.0423 109.521 11.0648C109.629 11.0872 109.79 11.1028 109.98 11.1091C110.315 11.1289 110.688 11.1372 111.071 11.1335C114.621 11.0543 118.113 11.0481 121.625 11.007C122.636 10.997 123.628 11.0107 124.562 11.0477C125.574 11.0877 126.608 11.1192 127.66 11.1422C130.101 11.1853 130.596 11.137 131.719 10.7645C134.717 10.844 137.947 10.6858 140.984 10.7328C143.509 10.7548 145.971 10.8163 148.33 10.9163C148.65 10.9414 149.033 10.949 149.422 10.9378C152.58 10.8432 155.703 10.9062 158.276 11.1163C159.19 11.1792 160.025 11.2438 161.013 11.0868C161.075 11.0778 161.151 11.0711 161.231 11.0676C162.374 10.9991 163.586 10.9872 164.663 11.034C165.795 11.0805 165.987 10.8035 167.158 10.7917C168.328 10.78 169.498 10.7395 170.688 10.7273C170.868 10.7253 171.041 10.7305 171.188 10.7424C171.335 10.7543 171.451 10.7724 171.523 10.7948C170.475 10.9388 169.219 10.7084 168.014 10.9162C170.179 11.0096 172.451 11.063 174.784 11.0752C177.302 11.0371 179.784 11.0602 182.127 11.1438C182.479 11.1637 182.883 11.1648 183.278 11.1468C186.349 10.972 189.427 11.0584 192.559 10.9397C195.515 10.8415 198.48 10.7648 201.443 10.7098C203.695 10.6202 205.981 10.6085 208.11 10.6758C209.301 10.7353 210.726 10.5629 212.076 10.6016C212.076 10.6016 212.433 10.5764 212.433 10.565C212.426 10.278 213.679 10.4137 214.414 10.4289C217.091 10.5055 219.913 10.5086 222.748 10.4381C224.445 10.3892 226.142 10.3874 227.748 10.4327C221.984 10.8915 216.544 10.7259 211.148 10.8032C211.013 10.9441 211.627 10.9189 212.005 10.9277C214.453 10.956 216.855 11.0118 219.191 11.0946C219.402 11.1051 219.632 11.1088 219.866 11.1053C222.642 11.0476 225.342 11.1168 227.59 11.3033C227.858 11.3256 228.181 11.3336 228.513 11.3262C228.844 11.3188 229.167 11.2964 229.434 11.2622C228.559 11.1812 227.171 11.2093 227.046 10.9853C227.045 10.9107 225.915 10.9732 225.339 10.9545C225.189 10.9524 225.057 10.9421 224.969 10.9256C224.881 10.909 224.842 10.8873 224.861 10.8647C224.86 10.813 225.017 10.7607 225.354 10.7503C227.535 10.6786 229.83 10.3633 231.841 10.6773C232.239 10.7402 232.873 10.6772 233.408 10.6624C235.729 10.6106 238.066 10.4464 240.39 10.5353C241.716 10.5923 243.145 10.6092 244.598 10.5849C245.073 10.5703 245.542 10.5824 245.908 10.6188C247.103 10.8075 248.767 10.7129 250.255 10.6969C252.06 10.6738 253.884 10.6159 255.689 10.5756C256.174 10.5553 256.629 10.5152 256.996 10.4603C255.011 10.4041 253.596 10.1429 251.039 10.2717C250.56 10.2882 250.078 10.2873 249.637 10.2691C249.197 10.2508 248.811 10.2158 248.517 10.1672C248.79 10.1352 249.11 10.1142 249.438 10.1069C249.765 10.0996 250.086 10.1062 250.361 10.1261C250.814 10.1506 251.318 10.1575 251.83 10.1461C252.341 10.1347 252.845 10.1053 253.296 10.0605C253.539 10.036 253.812 10.0199 254.089 10.0137C254.366 10.0076 254.639 10.0115 254.883 10.0251C256.22 10.0672 257.653 10.0608 259.069 10.0063C262.355 9.96678 265.609 9.97887 268.773 10.0424C270.178 10.0833 271.677 10.0753 273.157 10.0192C273.383 10.004 273.625 9.99857 273.851 10.0037C275.601 10.1398 277.143 9.89863 278.769 9.84224C279.859 9.81789 280.014 9.62495 280.925 9.56728C280.405 9.39513 278.938 9.44798 278.241 9.32573C278.711 9.28131 279.235 9.25415 279.761 9.24695C280.286 9.23976 280.795 9.25278 281.236 9.28471C282.131 9.33975 283.191 9.33771 284.192 9.27901C284.888 9.24766 285.598 9.23183 286.294 9.23209C288.392 9.22647 290.515 9.18584 292.621 9.11096C294.186 9.06216 295.743 9.08571 297.068 9.17824C297.361 9.00229 296.21 8.9964 296.009 8.87456C296.334 8.84793 296.689 8.83351 297.038 8.83279C297.386 8.83208 297.716 8.84508 297.993 8.87047C299.469 8.91472 300.909 8.9737 302.303 9.04703C303.218 9.0958 304.261 9.09767 305.279 9.05237C307.397 8.99822 309.511 8.99072 311.549 9.03014C312.93 9.04347 314.341 9.03317 315.755 8.99943C316.449 8.98393 317.282 8.96533 317.1 8.81149C317.099 8.79427 317.218 8.77153 317.277 8.75299C318.747 8.84362 319.494 8.5427 320.725 8.54682C323.064 8.55134 325.438 8.51953 327.806 8.45192C330.046 8.34641 332.313 8.26604 334.587 8.21156C337.27 8.14916 339.937 8.03457 342.516 7.87091C343.673 7.78835 344.662 7.65462 345.325 7.49135C345.987 7.32807 346.283 7.14479 346.166 6.97115C346.023 6.81355 345.426 6.75509 344.178 6.82889C342.722 6.90435 341.243 6.96327 339.757 7.00509C334.909 7.15113 330.045 7.21829 325.257 7.20529C320.888 7.16105 316.437 7.17869 311.964 7.25796C309.44 7.32749 306.915 7.33926 304.484 7.29285C303.294 7.25642 302 7.27629 300.775 7.3498C300.16 7.38074 299.527 7.39487 298.911 7.39141C296.87 7.41163 294.816 7.46227 292.783 7.54255C290.845 7.60741 288.895 7.62077 287.03 7.58196C284.899 7.53537 282.732 7.50801 280.539 7.50002C280.024 7.51153 279.329 7.48398 279.173 7.59944C278.919 7.78885 277.868 7.79222 277.193 7.79292C275.09 7.7968 272.968 7.85852 270.846 7.8858C270.062 7.89433 269.296 7.88226 268.583 7.85017C267.597 7.83045 266.546 7.85997 265.588 7.93423C265.158 7.97027 264.69 7.99166 264.224 7.99657C263.757 8.00148 263.307 7.98977 262.91 7.96243C261.936 7.87795 260.927 8.0067 260.254 8.06767C258.631 8.23884 257.597 8.1442 256.502 8.00498L260.31 7.91998C260.109 7.81536 259.612 7.76329 259.116 7.77436C255.844 7.8474 252.608 7.78182 248.98 7.92309C249.956 8.06497 251.303 7.97461 251.921 8.08428C250.872 8.16372 249.719 8.18946 248.668 8.15688C245.115 8.11559 241.668 8.34758 238.22 8.51931C236.995 8.77633 235.644 8.66868 234.254 8.65089C232.275 8.6643 230.324 8.64524 228.439 8.59406ZM190.412 10.7464C191.748 10.7283 193.088 10.678 194.377 10.5976C194.756 10.5777 195.148 10.569 195.527 10.5719C195.904 10.5635 196.321 10.5944 196.145 10.6701C196.112 10.6811 196.064 10.6913 196.005 10.7C195.946 10.7087 195.877 10.7158 195.802 10.7207C195.727 10.7256 195.649 10.7283 195.571 10.7286C195.493 10.7289 195.419 10.7267 195.352 10.7223C194.94 10.6995 194.486 10.6911 194.02 10.6975C193.554 10.7039 193.088 10.7251 192.654 10.7595C192.277 10.7884 191.868 10.8025 191.473 10.8001C191.077 10.7978 190.71 10.7792 190.412 10.7464ZM264.871 9.52365C265.394 9.50418 265.922 9.50413 266.406 9.5235C266.889 9.54287 267.311 9.58102 267.632 9.6343C267.871 9.68352 268.329 9.73933 267.815 9.80537C267.719 9.81803 267.607 9.82742 267.488 9.83265C267.37 9.83789 267.248 9.83879 267.136 9.8353C267.023 9.83181 266.922 9.82403 266.843 9.81267C266.764 9.80132 266.709 9.78676 266.683 9.77034C266.54 9.607 265.508 9.60132 264.871 9.52365ZM241.74 8.87141C241.238 8.92294 240.667 8.95489 240.092 8.96366C239.518 8.97243 238.962 8.95768 238.487 8.92105C239.005 8.87682 239.569 8.84955 240.133 8.84143C240.698 8.83331 241.248 8.84456 241.74 8.87428L241.74 8.87141ZM236.148 9.88629C237.32 9.83309 238.52 9.84535 239.502 9.92053C238.014 9.91069 236.965 10.0059 236.148 9.87768L236.148 9.88629ZM280.238 9.02561L281.806 9.04516C282.223 9.05309 282.996 9.03869 282.74 9.12767C282.327 9.27758 281.927 9.14582 281.55 9.12266C281.172 9.09951 280.558 9.15054 280.238 9.02848L280.238 9.02561ZM187.012 10.4376C187.887 10.3792 188.834 10.3704 189.65 10.4131C189.245 10.4566 188.776 10.4825 188.308 10.4873C187.839 10.4922 187.393 10.4756 187.032 10.44L187.012 10.4376ZM211.079 10.377C209.097 10.4758 208.799 10.4709 207.606 10.3511C208.748 10.3749 209.917 10.3843 211.099 10.3794L211.079 10.377ZM260.327 9.51024C259.496 9.58049 258.782 9.60503 258.342 9.47129C258.699 9.45377 259.067 9.44838 259.415 9.45558C259.764 9.46277 260.083 9.48233 260.347 9.51266L260.327 9.51024ZM236.008 8.96203C235.552 8.97221 235.194 8.96584 234.837 8.95946C234.48 8.95308 234.36 8.92129 234.379 8.90937C234.399 8.89745 234.834 8.85041 235.112 8.86143C235.313 8.86643 235.497 8.87802 235.652 8.8954C235.806 8.91278 235.928 8.93552 236.008 8.96203ZM136.4 10.6858C136.102 10.6925 135.745 10.7005 135.744 10.6316C135.915 10.6118 136.114 10.5984 136.318 10.5929C136.596 10.5867 136.992 10.5779 136.954 10.6419C136.916 10.7059 136.697 10.6821 136.479 10.6841L136.4 10.6858ZM265.34 9.18588C265.402 9.16547 265.505 9.14758 265.633 9.13488C265.762 9.12218 265.909 9.11536 266.053 9.11543C266.31 9.10967 266.47 9.14056 266.332 9.17523C266.268 9.18873 266.187 9.20058 266.095 9.21004C266.003 9.2195 265.902 9.22636 265.797 9.23022C265.71 9.2296 265.63 9.22457 265.573 9.21596C265.515 9.20735 265.482 9.19565 265.479 9.18278L265.34 9.18588ZM211.134 9.32489C210.777 9.33286 210.38 9.32736 210.339 9.25937C210.339 9.25937 210.556 9.22293 210.675 9.22315C210.794 9.22336 211.389 9.22443 211.47 9.28579C211.629 9.29086 211.391 9.30765 211.273 9.32179L211.134 9.32489ZM188.838 9.64167L189.612 9.6244C189.85 9.61909 189.89 9.61821 189.612 9.64162C189.468 9.64909 189.32 9.6524 189.176 9.65136L188.838 9.64167ZM248.969 8.29946C248.976 8.30746 248.969 8.31584 248.951 8.32398C248.932 8.33213 248.902 8.33983 248.862 8.34651C248.822 8.35319 248.774 8.35868 248.72 8.36258C248.667 8.36648 248.61 8.36868 248.554 8.36902C248.497 8.37069 248.439 8.37071 248.385 8.3691C248.331 8.36748 248.282 8.36425 248.239 8.3596C248.197 8.35495 248.162 8.34896 248.138 8.34198C248.113 8.33501 248.099 8.32718 248.096 8.31894C248.086 8.31093 248.089 8.30235 248.106 8.29395C248.123 8.28555 248.153 8.27758 248.194 8.27073C248.235 8.26388 248.285 8.25835 248.34 8.25463C248.396 8.25091 248.454 8.24911 248.512 8.24938C248.573 8.24541 248.637 8.24318 248.7 8.24282C248.764 8.24247 248.825 8.24399 248.881 8.24731C248.936 8.25062 248.985 8.25565 249.024 8.2621C249.063 8.26856 249.091 8.27631 249.108 8.28488L248.969 8.29946ZM246.385 9.81857C246.413 9.81105 246.451 9.80424 246.496 9.79858C246.541 9.79292 246.592 9.78854 246.646 9.78571C246.7 9.78288 246.756 9.78166 246.81 9.78215C246.864 9.78263 246.915 9.7848 246.96 9.78852C247.015 9.79252 247.059 9.79886 247.087 9.80685C247.116 9.81483 247.127 9.82415 247.12 9.83376C247.101 9.84156 247.07 9.84885 247.03 9.85502C246.99 9.86119 246.942 9.86604 246.889 9.86919C246.836 9.87234 246.781 9.87367 246.728 9.87308C246.675 9.87249 246.626 9.86999 246.585 9.8658C246.585 9.8658 246.604 9.81944 246.524 9.80399L246.385 9.81857ZM178.724 10.7116C178.74 10.7026 178.767 10.694 178.805 10.6862C178.842 10.6784 178.89 10.6715 178.943 10.666C178.997 10.6605 179.056 10.6565 179.117 10.6543C179.178 10.652 179.239 10.6515 179.298 10.6528C179.496 10.6484 179.834 10.6724 179.834 10.6839C179.835 10.6954 179.518 10.734 179.3 10.7332C179.082 10.7323 179.061 10.704 178.862 10.697L178.724 10.7116Z" fill="black"/>
<path d="M240.261 10.9745C238.531 10.8204 236.349 10.7824 234.187 10.8689C235.024 11.0282 235.024 11.0311 236.175 11.0226C237.464 11.0168 238.852 10.9658 240.261 10.9745Z" fill="black"/>
<path d="M208.871 8.4459C209.931 8.48789 211.073 8.49564 212.225 8.46865C211.031 8.34312 211.031 8.34312 208.871 8.4459Z" fill="black"/>
<path d="M223.66 11.3056C223.436 11.2674 223.119 11.2434 222.759 11.2374C222.399 11.2314 222.018 11.2437 221.675 11.2723C221.643 11.2759 221.615 11.2805 221.597 11.2857C221.578 11.2909 221.568 11.2965 221.568 11.302C221.568 11.3075 221.578 11.3127 221.597 11.3171C221.616 11.3214 221.644 11.3248 221.677 11.3269C221.957 11.3518 222.294 11.3631 222.646 11.3593C222.998 11.3555 223.351 11.3368 223.66 11.3056Z" fill="black"/>
<path d="M187.804 11.264C188.478 11.2289 189.155 11.32 190.184 11.2109C189.369 11.1458 188.676 11.2158 188.081 11.209C187.93 11.2131 187.782 11.2213 187.645 11.2331L187.804 11.264Z" fill="black"/>
<path d="M258.182 10.2709C258.261 10.2875 258.383 10.2983 258.525 10.3015C258.668 10.3046 258.821 10.2999 258.957 10.2881C258.989 10.2846 259.017 10.28 259.036 10.2748C259.054 10.2695 259.064 10.2639 259.064 10.2584C259.064 10.2529 259.054 10.2477 259.035 10.2433C259.016 10.239 258.988 10.2356 258.955 10.2335C258.87 10.2173 258.745 10.2068 258.6 10.2038C258.455 10.2007 258.3 10.2053 258.161 10.2168C258.102 10.2268 258.083 10.2501 258.182 10.2709Z" fill="black"/>
<path d="M187.272 11.4478C187.411 11.4447 187.551 11.4616 187.67 11.4561C187.789 11.4506 188.007 11.4228 188.007 11.4113C188.006 11.3998 187.728 11.3744 187.529 11.3932C187.331 11.412 187.351 11.4288 187.272 11.4478Z" fill="black"/>
</g>
<defs>
<clipPath id="clip0_1691_207">
<rect width="294" height="6.28984" fill="white"/>
</clipPath>
<clipPath id="clip1_1691_207">
<rect width="236.734" height="3.39865" fill="white" transform="matrix(-0.999751 0.0223159 0.0233011 0.999728 346.127 5.31836)"/>
</clipPath>
</defs>
</svg>
